<?xml version="1.0" encoding="utf-8"?>
<!-- Generator: Adobe Illustrator 22.0.1, SVG Export Plug-In . SVG Version: 6.00 Build 0)  -->
<!DOCTYPE svg PUBLIC "-//W3C//DTD SVG 1.1//EN" "http://www.w3.org/Graphics/SVG/1.1/DTD/svg11.dtd">
<svg version="1.1" id="Layer_1" xmlns="http://www.w3.org/2000/svg" xmlns:xlink="http://www.w3.org/1999/xlink" x="0px" y="0px"
	 viewBox="0 0 199.9 85.4" style="enable-background:new 0 0 199.9 85.4;" xml:space="preserve">
<g>
	<linearGradient id="SVGID_1_" gradientUnits="userSpaceOnUse" x1="60.0674" y1="42.9586" x2="0" y2="42.9586">
		<stop  offset="0" style="stop-color:#66CCCC;stop-opacity:0.1"/>
		<stop  offset="0.1369" style="stop-color:#6DD0D5;stop-opacity:0.2233"/>
		<stop  offset="0.3653" style="stop-color:#72D3DC;stop-opacity:0.4288"/>
		<stop  offset="1" style="stop-color:#73D4DE"/>
	</linearGradient>
	<path style="fill:url(#SVGID_1_);" d="M35,70.6H0V57.4L20.4,1.7h19L17.2,55.6H35V32.5h17.2v23.1h7.9v15h-7.9v13.6H35V70.6z"/>
	<linearGradient id="SVGID_2_" gradientUnits="userSpaceOnUse" x1="131.8725" y1="42.709" x2="67.9346" y2="42.709">
		<stop  offset="0" style="stop-color:#66CCCC;stop-opacity:0.1"/>
		<stop  offset="0.1369" style="stop-color:#6DD0D5;stop-opacity:0.2233"/>
		<stop  offset="0.3653" style="stop-color:#72D3DC;stop-opacity:0.4288"/>
		<stop  offset="1" style="stop-color:#73D4DE"/>
	</linearGradient>
	<path style="fill:url(#SVGID_2_);" d="M75.8,75.2c-5.2-6.8-7.9-17.6-7.9-32.5c0-14.9,2.6-25.7,7.9-32.5C81,3.4,89.1,0,99.9,0
		c10.8,0,18.9,3.4,24.1,10.2c5.2,6.8,7.9,17.6,7.9,32.5c0,14.9-2.6,25.7-7.9,32.5c-5.2,6.8-13.3,10.2-24.1,10.2
		C89.1,85.4,81,82,75.8,75.2z M108.1,67.7c2.1-1.8,3.6-4.7,4.6-8.7c1-4,1.4-9.5,1.4-16.3c0-6.8-0.5-12.3-1.4-16.3
		c-1-4-2.5-7-4.6-8.7c-2.1-1.8-4.8-2.7-8.2-2.7c-3.4,0-6.2,0.9-8.2,2.7c-2.1,1.8-3.6,4.7-4.6,8.7c-1,4-1.4,9.5-1.4,16.3
		c0,6.8,0.5,12.3,1.4,16.3c1,4,2.5,7,4.6,8.7c2.1,1.8,4.8,2.7,8.2,2.7C103.3,70.4,106.1,69.5,108.1,67.7z"/>
	<g>
		<linearGradient id="SVGID_3_" gradientUnits="userSpaceOnUse" x1="199.9289" y1="42.709" x2="144.3963" y2="42.709">
			<stop  offset="0" style="stop-color:#66CCCC;stop-opacity:0.1"/>
			<stop  offset="0.1369" style="stop-color:#6DD0D5;stop-opacity:0.2233"/>
			<stop  offset="0.3653" style="stop-color:#72D3DC;stop-opacity:0.4288"/>
			<stop  offset="1" style="stop-color:#73D4DE"/>
		</linearGradient>
		<path style="fill:url(#SVGID_3_);" d="M160.1,84.5c-3.4-0.6-7.3-1.5-11.8-2.9l-4-1l0.9-16.6c8.3,1.2,15.6,1.9,21.9,1.9
			c3.9,0,6.5-0.6,7.8-1.7c1.3-1.2,2-2.7,2-4.5c0-2.6-0.9-4.5-2.6-5.9c-1.7-1.4-3.8-2-6.1-1.8h-16.6V33.9h16.6c2.2,0,3.9-1,5.4-2.9
			c1.4-1.9,2.1-4,2.1-6.4c0-3.7-3.9-5.5-11.6-5.5c-2.5,0-6.3,0.4-11.5,1.2l-3.6,0.5l-3.2,0.4l-1.4-16.1C152,1.7,160.4,0,169.7,0
			c10,0,17.3,1.8,22,5.5c4.7,3.7,7,9.3,7,17.1c0,4.8-0.6,8.5-1.7,11.1c-1.1,2.6-3.2,5.3-6.2,8.2c2.5,1.7,4.4,3.3,5.6,4.7
			c1.2,1.4,2.1,3,2.7,4.8c0.5,1.8,0.8,4.3,0.8,7.5c0,9-2.3,15.8-7,20.1c-4.7,4.4-12.2,6.5-22.6,6.5
			C166.9,85.4,163.5,85.1,160.1,84.5z"/>
	</g>
</g>
</svg>
