<?xml version="1.0" encoding="utf-8"?>
<!-- Generator: Adobe Illustrator 22.0.1, SVG Export Plug-In . SVG Version: 6.00 Build 0)  -->
<!DOCTYPE svg PUBLIC "-//W3C//DTD SVG 1.1//EN" "http://www.w3.org/Graphics/SVG/1.1/DTD/svg11.dtd">
<svg version="1.1" id="Isolation_Mode" xmlns="http://www.w3.org/2000/svg" xmlns:xlink="http://www.w3.org/1999/xlink" x="0px"
	 y="0px" viewBox="0 0 110.7 38.3" style="enable-background:new 0 0 110.7 38.3;" xml:space="preserve">
<g>
	<g>
		<polygon style="fill:#57B1C7;" points="49.2,9.5 2.8,26.9 7,32.5 51.6,16.1 		"/>
		<path style="fill:#57B1C7;" d="M1.6,32.4c0,0,0.1,0.1,0.1,0.1c0,0,0,0,0,0c0.1,0,0.4,0.1,0.8,0.2c0.1,0,0.1,0,0.2,0.1
			c0,0,0.1,0,0.2,0c0.1,0,0.2,0.1,0.4,0.1c0.2,0,0.4,0.1,0.6,0.1c0.3,0,0.7,0,1.2,0c0.1,0,0.2,0,0.3,0c0,0,0.1,0,0.1,0
			c0.7-0.1,1.4-0.3,1.6-0.3c0,0,0,0,0,0c-0.2-0.3-0.4-0.7-0.5-1c-1-2.7,0.4-5.7,3.1-6.7c2.7-1,5.7,0.4,6.7,3.1
			c0.1,0.4,0.2,0.8,0.3,1.1c0,0,0,0,0,0l24.8-9.1c0,0,0,0,0,0c-0.2-0.3-0.4-0.7-0.5-1.1c-1-2.7,0.4-5.7,3.1-6.7
			c2.7-1,5.7,0.4,6.7,3.1c0.1,0.4,0.2,0.8,0.3,1.1c0,0,0,0,0,0l2.4-0.9c0.8-0.3,0.6-0.2,2-0.8c0.4-0.2,0.6-0.3,0.7-0.5c0,0,0,0,0,0
			c0.1-0.1,0.1-0.2,0.1-0.2c0-0.1,0-0.1,0-0.2c0-0.2-0.1-0.3-0.2-0.4c0,0,0,0,0,0c0,0,0,0,0,0c0,0,0-0.1-0.1-0.1
			C55.9,13,55.9,13,55.9,13s0,0,0,0c0,0,0,0,0,0c0,0,0,0-0.1-0.1c0,0-0.1-0.1-0.1-0.1c0,0-0.1-0.1-0.1-0.1c0-0.1-0.1-0.1-0.1-0.2
			c-0.1-0.4-0.3-0.7-0.4-1c0-0.1-0.1-0.2-0.1-0.3c0,0,0-0.1,0-0.1c0-0.1,0-0.1-0.1-0.2l0,0c0-0.1-0.1-0.2-0.1-0.2
			c0-0.1-0.1-0.2-0.1-0.2c0-0.1-0.1-0.2-0.1-0.2c0-0.1-0.1-0.1-0.1-0.2c0-0.1-0.1-0.1-0.1-0.2c0-0.1-0.1-0.2-0.1-0.3
			c-0.6-1.1-1-1.2-2-1.9c-1.6-1.1-12.6,2.7-14.5,2.6c-1,0-8.8-1.1-11-1c-1.2,0.1-1.5,0.1-6.1,1.8c-0.2,0.1-0.5,0.2-0.7,0.3
			c-0.2,0.1-0.3,0.1-0.5,0.2c-8.9,3.6-13.7,8.8-15,9.9C3,22.5,0,23.7,0,24c0,0,0,0.1,0,0.3c0,0.2,0,0.6,0,1c0,0.1,0,0.2,0,0.3
			c0,0.1,0,0.2,0,0.4c0,0.1,0,0.1,0,0.2c0,0.2,0,0.4,0.1,0.5c0,0,0,0.1,0,0.1c0,0.1,0,0.2,0.1,0.3c0,0,0,0.1,0,0.1
			c0,0.1,0,0.2,0.1,0.2c0,0.1,0.1,0.2,0.1,0.3c0,0,0,0.1,0,0.1c0,0,0,0,0,0c0,0.1,0,0.2-0.1,0.4c0,0,0,0,0,0c0,0.1,0,0.1,0,0.2l0,0
			c0,0,0,0,0,0.1c0,0.1,0,0.1,0,0.2l0,0c0,0,0,0,0,0.1c0,0.1,0,0.2,0,0.2C0.3,29.8,1.2,32,1.6,32.4z M19.5,12c0.3,1.5,0.8,3,1.3,4.5
			c-5.4,1.6-10.3,3-10.6,3c-0.6,0,2.3-3.6,3.8-4.6c1.5-1.1,3.7-2.1,4.7-2.5C18.9,12.3,19.2,12.2,19.5,12z M36.2,11.2
			c-0.2,0.2-0.9,0.5-1.9,0.9c-0.3,0.1-0.7,0.3-1.1,0.4c-2.9,1.1-7.5,2.5-11.8,3.8c-0.6-1.5-1-3-1.3-4.5c1.8-0.7,4.7-1.8,5.9-2
			c0.8-0.2,8.8,0.2,10.4,1.1C36.4,11,36.4,11.1,36.2,11.2z"/>
		<path style="fill:#228DB6;" d="M21.4,16.4c4.3-1.3,8.9-2.7,11.8-3.8c0.4-0.2,0.8-0.3,1.1-0.4c1-0.4,1.6-0.7,1.9-0.9
			c0.1-0.1,0.1-0.2,0-0.2c-1.5-0.9-9.5-1.3-10.4-1.1c-1.1,0.2-4.1,1.3-5.9,2C20.4,13.3,20.8,14.9,21.4,16.4z"/>
		<path style="fill:#228DB6;" d="M10.3,19.5c0.3,0,5.1-1.3,10.6-3c-0.6-1.5-1-3-1.3-4.5c-0.4,0.1-0.7,0.3-0.8,0.3
			c-1,0.4-3.2,1.4-4.7,2.5C12.6,15.9,9.6,19.5,10.3,19.5z"/>
		<path style="fill:#CCCCCC;" d="M21.4,16.4c4.3-1.3,8.9-2.7,11.8-3.8c0.4-0.2,0.8-0.3,1.1-0.4c1-0.4,1.6-0.7,1.9-0.9
			c0.1-0.1,0.1-0.2,0-0.2c-1.5-0.9-9.5-1.3-10.4-1.1c-1.1,0.2-4.1,1.3-5.9,2C20.4,13.3,20.8,14.9,21.4,16.4z M33,12.3
			c-3.1,1.2-7.9,2.6-11.5,3.7c-0.4-1.2-0.8-2.5-1.2-4c0.6-0.2,1.3-0.5,2.1-0.8c1.8-0.6,2.9-1,3.5-1.1c0.7-0.1,8,0.2,9.9,1
			c-0.2,0.1-0.7,0.4-1.7,0.8c-0.3,0.1-0.7,0.3-1.1,0.4L33,12.3z"/>
		<path style="fill:#CCCCCC;" d="M10.3,19.5c0.3,0,5.1-1.3,10.6-3c-0.5-1.5-1-3-1.3-4.5c-0.4,0.1-0.7,0.3-0.8,0.3
			c-1,0.4-3.2,1.4-4.7,2.5C12.6,15.9,9.6,19.5,10.3,19.5z M10.6,19.1c0.5-0.9,2.5-3.2,3.6-4.1c1.4-1,3.6-2.1,4.6-2.5
			c0.1,0,0.3-0.1,0.5-0.2c0.4,1.5,0.7,2.8,1.1,3.9C15.8,17.7,11.7,18.9,10.6,19.1z"/>
		<path style="fill:#419BAA;" d="M32.1,10.9c0.1,0.3,0.3,0.7,0.5,1.1c0.4,0.8,0.8-0.2,1-0.2c0.3,0.1-0.3,0.5-0.4,0.7
			c0.6-0.1,1.7-0.5,2-0.6c1-0.4,1.1-0.6,1-0.7c-0.7-0.3-1.5-0.6-2.5-0.7c-0.2,0-0.4-0.1-0.5-0.1c0,0,0,0,0,0c-0.2,0-0.4,0-0.7,0.1
			C32.3,10.5,32,10.6,32.1,10.9z"/>
		<path style="fill:#F3E9E4;" d="M49.9,8.9c0.5,0.8,1.1,1.4,2.1,1.3c0.8-0.1,1.5-0.4,2.2-0.7c-0.5-0.9-0.9-1.1-1.6-1.6
			C51.7,8.1,50.8,8.5,49.9,8.9z"/>
		<path style="opacity:0.56;fill:#A9C5CC;" d="M1.6,32.4c0,0,0.1,0.1,0.1,0.1c0,0,0,0,0,0c0.1,0,0.4,0.1,0.8,0.2
			c0.1,0,0.1,0,0.2,0.1c0,0,0.1,0,0.2,0c0.1,0,0.2,0.1,0.4,0.1c0.2,0,0.4,0.1,0.6,0.1c0.3,0,0.7,0,1.2,0c0.1,0,0.2,0,0.3,0
			c0,0,0.1,0,0.1,0c0.7-0.1,1.4-0.3,1.6-0.3c-0.2-0.3-0.4-0.7-0.5-1c-1-2.7,0.4-5.7,3.1-6.7c2.7-1,5.7,0.4,6.7,3.1
			c0.1,0.4,0.2,0.8,0.3,1.1l24.8-9.1c-0.2-0.3-0.4-0.7-0.5-1.1c-1-2.7,0.4-5.7,3.1-6.7c2.7-1,5.7,0.4,6.7,3.1
			c0.1,0.4,0.2,0.8,0.3,1.1l2.4-0.9c0.8-0.3,0.6-0.2,2-0.8c0.4-0.2,0.6-0.3,0.7-0.5c0,0,0,0,0,0c0-0.1,0.1-0.2,0.1-0.2
			c0-0.1,0-0.1,0-0.2c0-0.2-0.1-0.3-0.2-0.4c0,0,0,0,0,0c0,0,0,0,0,0c0,0,0-0.1-0.1-0.1C55.9,13,55.9,13,55.9,13s0,0,0,0
			c0,0,0,0,0,0c0,0,0,0-0.1-0.1c0,0-0.1-0.1-0.1-0.1c0,0-0.1-0.1-0.1-0.1c0-0.1-0.1-0.1-0.1-0.2c-0.1-0.4-0.3-0.7-0.4-1
			c0-0.1-0.1-0.2-0.1-0.3c0,0,0-0.1,0-0.1c0-0.1,0-0.1-0.1-0.2l0,0c0-0.1-0.1-0.2-0.1-0.2c0-0.1-0.1-0.2-0.1-0.2
			c0-0.1-0.1-0.2-0.1-0.2c0-0.1-0.1-0.1-0.1-0.2c0-0.1-0.1-0.1-0.1-0.2c0-0.1-0.1-0.2-0.1-0.3c-0.7,0.3-1.5,0.6-2.2,0.7
			c-1,0.1-1.6-0.5-2.1-1.3L0,24.3c0,0.2,0,0.6,0,1c0,0.1,0,0.2,0,0.3c0,0.1,0,0.2,0,0.4c0,0.1,0,0.1,0,0.2c0,0.2,0,0.4,0.1,0.5
			c0,0,0,0.1,0,0.1c0,0.1,0,0.2,0.1,0.3c0,0,0,0.1,0,0.1c0,0.1,0,0.2,0.1,0.2c0,0.1,0.1,0.2,0.1,0.3c0,0,0,0.1,0,0.1c0,0,0,0,0,0
			c0,0.1,0,0.2-0.1,0.4c0,0,0,0,0,0c0,0.1,0,0.1,0,0.2l0,0c0,0,0,0,0,0.1c0,0.1,0,0.1,0,0.2l0,0c0,0,0,0,0,0.1c0,0.1,0,0.2,0,0.2
			C0.3,29.8,1.2,32,1.6,32.4z"/>
		<path style="fill:#333333;" d="M12.9,33.6c2.2-0.8,3.3-3.3,2.5-5.5c-0.8-2.2-3.3-3.3-5.5-2.5c-2.2,0.8-3.3,3.3-2.5,5.5
			C8.3,33.3,10.7,34.4,12.9,33.6z"/>
		<path style="fill:#666666;" d="M8.3,30.8c0.6,1.7,2.5,2.6,4.3,2c1.7-0.6,2.6-2.5,2-4.3c-0.6-1.7-2.5-2.6-4.3-2
			C8.6,27.1,7.7,29.1,8.3,30.8z"/>
		<g>
			<path style="fill:#E5E5E5;" d="M8.2,30.8c0.3,0.9,1,1.6,1.8,1.9l0,0l0.3,0.1l0,0c0.1,0,0.2,0.1,0.3,0.1L11,33
				c0.5,0.1,1.1,0,1.6-0.2c0.5-0.2,1-0.5,1.3-0.9c0.1-0.1,0.2-0.2,0.2-0.3c0.1-0.1,0.1-0.2,0.2-0.2l0.2-0.3c0.4-0.8,0.4-1.7,0.1-2.6
				c-0.1-0.2-0.2-0.4-0.2-0.5c-0.1-0.1-0.1-0.2-0.2-0.3c-0.1-0.1-0.1-0.2-0.2-0.2c-0.1-0.1-0.2-0.2-0.3-0.3c-0.8-0.7-1.9-1.1-3-0.9
				c-0.1,0-0.2,0.1-0.3,0.1c0,0-0.1,0-0.1,0c-0.1,0-0.1,0-0.1,0.1c-0.1,0-0.2,0.1-0.3,0.2c-1,0.5-1.6,1.5-1.7,2.6c0,0.1,0,0.2,0,0.4
				c0,0.1,0,0.2,0,0.3c0,0.1,0,0.2,0,0.4C8.1,30.4,8.2,30.6,8.2,30.8z M8.3,29.6l2.1-0.1l0.4,0c0,0,0,0,0,0c0,0.1,0,0.2,0,0.3
				c0,0,0,0,0,0l-0.4,0l-2.1,0.1c0,0,0,0,0,0C8.3,29.8,8.3,29.7,8.3,29.6C8.3,29.6,8.3,29.6,8.3,29.6z M10.7,29.1l-0.2,0l-0.6,0
				l-1.5,0.1c0.1-1,0.7-1.8,1.6-2.3L10.7,29.1z M11.3,28.9L11.3,28.9C11.3,28.9,11.3,28.9,11.3,28.9c-0.1,0-0.1,0-0.1,0
				c0,0-0.1,0-0.1,0.1c0,0,0,0,0,0l0,0l-0.8-2.3c0,0,0,0,0,0c0,0,0.1,0,0.1,0l0,0c0,0,0.1,0,0.1,0l0,0L11.3,28.9z M11.7,29.5
				c0.1,0.2,0,0.3-0.2,0.4c-0.2,0.1-0.3,0-0.4-0.2c-0.1-0.2,0-0.3,0.2-0.4C11.5,29.3,11.7,29.4,11.7,29.5z M13.6,27.3l-1.2,0.9
				l-0.5,0.4l-0.2,0.2l-0.8-2.2C11.8,26.4,12.8,26.7,13.6,27.3z M14,27.8l-1.6,1.3l-0.3,0.2c0,0,0,0,0,0c0-0.1-0.1-0.2-0.2-0.2
				c0,0,0,0,0,0l0.3-0.2l1.6-1.3c0,0,0,0,0,0C13.9,27.7,13.9,27.7,14,27.8C14,27.8,14,27.8,14,27.8z M13,30.1l-0.5-0.3l-0.2-0.1
				l0.2-0.2l0.5-0.4l1.2-0.9c0.1,0.1,0.1,0.3,0.2,0.4c0.3,0.8,0.3,1.6-0.1,2.4L13,30.1z M12.2,30.3l-0.3-0.2c0,0,0,0,0,0
				C12,30,12,30,12.1,29.9c0,0,0,0,0,0l0.3,0.2l1.7,1.2c0,0,0,0,0,0c0,0.1-0.1,0.1-0.2,0.2c0,0,0,0,0,0L12.2,30.3z M11.1,32.7
				l0.4-1.5l0.2-0.6l0.1-0.2l0.2,0.1l0.5,0.3l1.3,0.9c-0.3,0.4-0.7,0.6-1.2,0.8C12.1,32.7,11.6,32.8,11.1,32.7z M10.4,32.6l0.6-2
				l0.1-0.4c0,0,0,0,0,0c0.1,0,0.2,0.1,0.2,0.1c0,0,0,0,0,0l-0.1,0.4l-0.6,2l0,0C10.6,32.6,10.5,32.6,10.4,32.6L10.4,32.6z
				 M8.5,30.7c-0.1-0.2-0.1-0.3-0.1-0.5l1.5-0.1l0.6,0l0.2,0l-0.1,0.2L10.5,31l-0.4,1.5C9.4,32.1,8.8,31.5,8.5,30.7z"/>
		</g>
		<path style="fill:#333333;" d="M47.3,21c2.2-0.8,3.3-3.3,2.5-5.5c-0.8-2.2-3.3-3.3-5.5-2.5c-2.2,0.8-3.3,3.3-2.5,5.5
			C42.7,20.7,45.1,21.8,47.3,21z"/>
		<path style="fill:#666666;" d="M42.7,18.2c0.6,1.7,2.5,2.6,4.3,2c1.7-0.6,2.6-2.5,2-4.3c-0.6-1.7-2.5-2.6-4.3-2
			C43,14.5,42.1,16.4,42.7,18.2z"/>
		<g>
			<path style="fill:#E5E5E5;" d="M42.6,18.2c0.3,0.9,1,1.6,1.8,1.9l0,0l0.3,0.1l0,0c0.1,0,0.2,0.1,0.3,0.1l0.4,0.1
				c0.5,0.1,1.1,0,1.6-0.2c0.5-0.2,1-0.5,1.3-0.9c0.1-0.1,0.2-0.2,0.2-0.3c0.1-0.1,0.1-0.2,0.2-0.2l0.2-0.3c0.4-0.8,0.4-1.7,0.1-2.6
				c-0.1-0.2-0.1-0.4-0.2-0.5c-0.1-0.1-0.1-0.2-0.2-0.3c-0.1-0.1-0.1-0.2-0.2-0.2c-0.1-0.1-0.2-0.2-0.3-0.3c-0.8-0.7-1.9-1.1-3-0.9
				c-0.1,0-0.2,0.1-0.3,0.1c0,0-0.1,0-0.1,0c-0.1,0-0.1,0-0.1,0.1c-0.1,0-0.2,0.1-0.3,0.2c-1,0.5-1.6,1.5-1.7,2.6c0,0.1,0,0.2,0,0.4
				c0,0.1,0,0.2,0,0.3c0,0.1,0,0.2,0,0.4C42.5,17.8,42.6,18,42.6,18.2z M42.7,17l2.1-0.1l0.4,0c0,0,0,0,0,0c0,0.1,0,0.2,0,0.3
				c0,0,0,0,0,0l-0.4,0l-2.1,0.1c0,0,0,0,0,0C42.7,17.2,42.7,17.1,42.7,17C42.7,17,42.7,17,42.7,17z M45.1,16.5l-0.2,0l-0.6,0
				l-1.5,0.1c0.1-1,0.7-1.8,1.6-2.3L45.1,16.5z M45.7,16.3L45.7,16.3C45.7,16.3,45.7,16.3,45.7,16.3c-0.1,0-0.1,0-0.1,0
				c0,0-0.1,0-0.1,0.1c0,0,0,0,0,0l0,0l-0.8-2.3c0,0,0,0,0,0c0,0,0.1,0,0.1,0l0,0c0,0,0.1,0,0.1,0l0,0L45.7,16.3z M46.1,16.9
				c0.1,0.2,0,0.3-0.2,0.4c-0.2,0.1-0.3,0-0.4-0.2c-0.1-0.2,0-0.3,0.2-0.4C45.9,16.7,46.1,16.7,46.1,16.9z M47.9,14.7l-1.2,0.9
				L46.3,16l-0.2,0.2l-0.8-2.2C46.2,13.7,47.2,14,47.9,14.7z M48.4,15.2l-1.6,1.3l-0.3,0.2c0,0,0,0,0,0c0-0.1-0.1-0.2-0.2-0.2
				c0,0,0,0,0,0l0.3-0.2l1.6-1.3c0,0,0,0,0,0C48.3,15,48.3,15.1,48.4,15.2C48.4,15.2,48.4,15.2,48.4,15.2z M47.4,17.4l-0.5-0.3
				L46.7,17l0.2-0.2l0.5-0.4l1.2-0.9c0.1,0.1,0.1,0.3,0.2,0.4c0.3,0.8,0.3,1.6-0.1,2.4L47.4,17.4z M46.6,17.7l-0.3-0.2c0,0,0,0,0,0
				c0.1-0.1,0.1-0.1,0.1-0.2c0,0,0,0,0,0l0.3,0.2l1.7,1.2c0,0,0,0,0,0c0,0.1-0.1,0.1-0.2,0.2c0,0,0,0,0,0L46.6,17.7z M45.5,20.1
				l0.4-1.5l0.2-0.6l0.1-0.2l0.2,0.1l0.5,0.3l1.3,0.9c-0.3,0.4-0.7,0.6-1.2,0.8C46.5,20.1,46,20.2,45.5,20.1z M44.8,20l0.6-2
				l0.1-0.4c0,0,0,0,0,0c0.1,0,0.2,0.1,0.2,0.1c0,0,0,0,0,0l-0.1,0.4l-0.6,2l0,0C45,20,44.9,20,44.8,20L44.8,20z M42.9,18.1
				c-0.1-0.2-0.1-0.3-0.1-0.5l1.5-0.1l0.6,0l0.2,0l-0.1,0.2l-0.2,0.6l-0.4,1.5C43.8,19.5,43.2,18.9,42.9,18.1z"/>
		</g>
		<g>
			<path style="fill:#57B1C7;" d="M20.7,13.2c1.1-0.4,2-0.7,3.1-0.9c3-0.7,4.9-0.9,8-0.9c0.2,0,0.3,0,0.5,0
				c-0.1-0.1-0.1-0.2-0.1-0.3c-0.1-0.2,0.1-0.4,0.3-0.5c-2.7-0.3-6-0.4-6.5-0.3c-0.6,0.1-1.8,0.5-3.5,1.1c-0.7,0.3-1.4,0.5-2.1,0.8
				C20.5,12.4,20.6,12.8,20.7,13.2z"/>
		</g>
		<g>
			<path style="fill:#57B1C7;" d="M15.8,14.1c1.2-0.4,2.6-0.3,3.8-0.7c-0.1-0.3-0.2-0.6-0.2-0.9c-0.2,0.1-0.4,0.2-0.5,0.2
				C18.1,12.9,16.9,13.4,15.8,14.1z"/>
		</g>
	</g>
	<path style="opacity:0.63;fill:#B3B3B3;" d="M110.7,34.9c0,1.9-14,3.4-31.2,3.4c-9.6,0-18.1-0.5-23.8-1.2
		c-5.7,0.7-14.3,1.2-23.8,1.2c-17.2,0-31.2-1.5-31.2-3.4c0-1.9,14-3.4,31.2-3.4c9.6,0,18.1,0.5,23.8,1.2c5.7-0.7,14.3-1.2,23.8-1.2
		C96.8,31.5,110.7,33,110.7,34.9z"/>
	<g style="opacity:0.18;">
		<path style="fill:#FFFFFF;" d="M17,16c1.2-0.3,2.5-0.2,3.7-0.6c-0.1-0.3-0.1-0.6-0.2-0.9c-0.2,0.1-0.4,0.1-0.5,0.2
			C19.3,14.9,18.2,15.4,17,16z"/>
	</g>
	<rect x="44.9" y="22.3" style="fill:#57B1C7;" width="57.4" height="7.4"/>
	<path style="fill:#57B1C7;" d="M108.9,17.4v7.2H103c-0.4,0-0.8,0.4-0.8,0.8v3.4c0,0.4,0.4,0.8,0.8,0.8h-4.3c0-3.8-3.1-7-7-7
		c-3.8,0-7,3.1-7,7h-1.4c-0.4,0-0.8-0.4-0.8-0.8V4.4c0-0.4,0.4-0.8,0.8-0.8h17.7c0.4,0,0.8,0.4,0.8,0.8l1,11.5l5.2,0.7
		C108.6,16.6,108.9,17,108.9,17.4z"/>
	<polygon style="fill:#228DB6;" points="89.2,5.4 99.8,5.4 100.8,16.1 89.2,16.1 	"/>
	<path style="fill:#CCCCCC;" d="M110.4,19.6v9.2c0,0.4-0.4,0.8-0.8,0.8H103c-0.5,0-0.8-0.4-0.8-0.8v-3.4c0-0.4,0.4-0.8,0.8-0.8h5.9
		v-5.8h0.6C110,18.8,110.4,19.2,110.4,19.6z"/>
	<path style="fill:#333333;" d="M60.2,29.6c0,3.3-2.6,5.9-5.9,5.9c-3.3,0-5.9-2.6-5.9-5.9s2.6-5.9,5.9-5.9
		C57.6,23.7,60.2,26.4,60.2,29.6z"/>
	<path style="fill:#333333;" d="M73,29.6c0,3.3-2.6,5.9-5.9,5.9c-3.3,0-5.9-2.6-5.9-5.9s2.6-5.9,5.9-5.9C70.4,23.7,73,26.4,73,29.6z
		"/>
	<path style="fill:#E5E5E5;" d="M57.7,29.6c0,1.9-1.5,3.4-3.4,3.4c-1.9,0-3.4-1.5-3.4-3.4c0-1.9,1.5-3.4,3.4-3.4
		C56.2,26.2,57.7,27.8,57.7,29.6z"/>
	<path style="fill:#E5E5E5;" d="M70.5,29.6c0,1.9-1.5,3.4-3.4,3.4c-1.9,0-3.4-1.5-3.4-3.4c0-1.9,1.5-3.4,3.4-3.4
		C69,26.2,70.5,27.8,70.5,29.6z"/>
	<path style="fill:#333333;" d="M97.6,29.6c0,3.3-2.6,5.9-5.9,5.9c-3.3,0-5.9-2.6-5.9-5.9c0-3.3,2.6-5.9,5.9-5.9
		C95,23.7,97.6,26.4,97.6,29.6z"/>
	<path style="fill:#E5E5E5;" d="M95.1,29.6c0,1.9-1.5,3.4-3.4,3.4c-1.9,0-3.4-1.5-3.4-3.4c0-1.9,1.5-3.4,3.4-3.4
		C93.6,26.2,95.1,27.8,95.1,29.6z"/>
	<polygon style="fill:#228DB6;" points="80.9,4.5 80.9,23.3 41.5,23.3 41.5,22 42.7,21.3 43.9,20.7 48.6,18.1 49.2,17.8 75,17.8 
		75.8,13.2 76.8,7.5 77.3,4.5 	"/>
	<path style="fill:#CCCCCC;" d="M95.4,2.4v1.1h-7.8V2.4c0-0.3,0.2-0.6,0.5-0.6h6.9C95.2,1.8,95.4,2.1,95.4,2.4z"/>
	<polygon style="fill:#228DB6;" points="76.8,7.5 75.8,13.2 60.1,2.9 59.6,2.6 59.1,2.3 60.2,0 	"/>
	<path style="fill:#B3B3B3;" d="M60.1,2.9l-3.6,14.9h-0.1c0-0.4,0-0.8-0.2-1.2l3.4-14L60.1,2.9z"/>
</g>
</svg>
