<?xml version="1.0" encoding="utf-8"?>
<!-- Generator: Adobe Illustrator 22.0.1, SVG Export Plug-In . SVG Version: 6.00 Build 0)  -->
<!DOCTYPE svg PUBLIC "-//W3C//DTD SVG 1.1//EN" "http://www.w3.org/Graphics/SVG/1.1/DTD/svg11.dtd">
<svg version="1.1" id="Layer_1" xmlns="http://www.w3.org/2000/svg" xmlns:xlink="http://www.w3.org/1999/xlink" x="0px" y="0px"
	 viewBox="0 0 96.3 45.6" style="enable-background:new 0 0 96.3 45.6;" xml:space="preserve">
<g>
	<polygon style="opacity:0.53;fill:#A7C9D1;" points="17.8,21.1 24.4,11.7 27.1,12.6 	"/>
	<polygon style="opacity:0.53;fill:#A7C9D1;" points="30.7,15 20.8,20.4 30.9,12.3 33.3,12.3 32.7,13.5 	"/>
	<polygon style="opacity:0.53;fill:#A7C9D1;" points="30.6,22 15.3,24.2 31.6,17.4 	"/>
	<path style="opacity:0.63;fill:#B3B3B3;" d="M96.3,41.4c0,2.3-21.6,4.2-48.1,4.2C21.5,45.6,0,43.7,0,41.4c0-2.3,21.5-4.2,48.1-4.2
		C74.7,37.2,96.3,39,96.3,41.4z"/>
	<path style="fill:#228DB6;" d="M15.9,39.5c-0.7,0.5-1.7,0.3-2.2-0.5l-0.4-0.6L9.9,33v0l-0.3-4.6l-1.6,5l1.4,7.1
		c0.2,1-0.4,1.9-1.4,2.1c-1,0.2-1.9-0.4-2.1-1.4l-0.2-0.8l-1.4-7.2v0l2.2-7l0.1-0.3l0.1-0.3c0,0,0,0,0,0l0.6-1.8
		c1.6,0.5,3.5,0.6,5,0.6c0.2,0,0.6,0.1,1.1,0.1l0,0c0,0.1-0.6,3.7-0.6,3.7L13,32l3.4,5.3C16.8,38,16.6,39,15.9,39.5z"/>
	<path style="fill:#57B1C7;" d="M23.2,11.1c0,0.2,0,0.4-0.1,0.5v0c-0.1,0.3-0.3,0.5-0.6,0.7l-6.1,4.5l-3,7.6c-0.4,0-0.8-0.1-1.1-0.1
		c-1.6-0.1-3.4-0.1-5-0.6l3-9.3l-0.3-0.7l-2.2-5l0.5-4l0.2-1.7c0.1-0.4,0.3-0.8,0.6-1c0.3-0.3,0.8-0.4,1.2-0.3
		c0.6,0.1,1,0.5,1.2,0.9c0.1,0.2,0.1,0.4,0.1,0.6c0,0.1,0,0.2,0,0.2L11,8.3l2.1,4.7v0l0,0c0,0,0,0,0,0c0,0,0,0,0,0
		c0.2,0.5,0.6,0.9,1.2,1c0.4,0.1,1.5,0,1.4-0.6l0.6-0.4l1.5-1.1l0,0c0,0,0,0,0.1,0l0.1-0.1l2.6-1.9c0.3-0.2,0.6-0.3,1-0.3h0
		c0.5,0,0.9,0.2,1.2,0.6C23.1,10.5,23.2,10.8,23.2,11.1z"/>
	<path style="fill:#FDD4A8;" d="M18,10.9c-0.2,0.5-0.5,1-0.9,1.3L17,12.4l-0.1,0l0,0c-0.3,0.2-0.6,0.3-0.9,0.4l-0.3,0.7
		c0,0.7-1,0.7-1.4,0.6c-0.6-0.1-0.9-0.5-1.2-1c0,0,0,0,0,0c0,0,0,0,0,0l0,0l0.4-0.7c-0.9-0.7-1.3-1.9-0.9-3.1
		c0.5-1.5,2.1-2.3,3.6-1.9C17.7,7.8,18.5,9.4,18,10.9z"/>
	<path style="fill:#7C411E;" d="M19,10c0.1,0.4,0,0.4-0.2,0.7c-0.2,0.3-0.6,0.8-0.9,1.1c-0.4,0.3-0.6,0.5-1.1,0.4
		c-0.5-0.1-1.1-0.8-1.3-1.3c0.3-0.1,0.4,0,0.6-0.2c0.2-0.2,0.3-0.3,0.3-0.5c0.1-0.5-0.5-0.8-1-0.5c-0.8,0.1-0.9-0.6-1.1-0.9
		c-0.3-0.3,0-1.1-0.3-1.4c0.4-0.6,0.6-1.1,1.4-1.1c0.3,0,0.6,0.4,0.9,0.5c0.3,0.1,0.5,0.3,0.8,0.5C18,8.1,18.7,9,19,10z"/>
	<path style="fill:#FDD4A8;" d="M24.3,10.3c0,0.7-0.5,1.3-1.2,1.4c0.1-0.2,0.1-0.4,0.1-0.5c0-0.3-0.1-0.7-0.3-0.9
		c-0.3-0.4-0.8-0.6-1.2-0.6c0.2-0.4,0.7-0.7,1.2-0.7C23.7,8.8,24.3,9.5,24.3,10.3z"/>
	<path style="fill:#FDD4A8;" d="M12,1.5c0,0.4-0.2,0.9-0.5,1.1c-0.2-0.5-0.7-0.9-1.2-0.9C9.9,1.6,9.4,1.8,9.1,2C9,1.9,9,1.7,9,1.5
		C9,0.7,9.7,0,10.5,0C11.4,0,12,0.7,12,1.5z"/>
	<polygon style="fill:#57B1C7;" points="19.2,27.4 90.7,27.8 87.8,37.5 19.2,37.5 	"/>
	<path style="fill:#57B1C7;" d="M95.2,29.4c0-0.1-0.1-0.2-0.1-0.3c0,0,0-0.1,0-0.1v0c-0.1-0.1-0.1-0.2-0.1-0.3c0,0,0-0.1,0-0.1v0
		c-0.1-0.1-0.1-0.2-0.2-0.2c0,0,0,0,0-0.1c-0.1-0.2-0.2-0.3-0.3-0.5c0,0,0,0,0,0c0,0,0-0.1,0-0.1c0-0.1-0.1-0.3-0.1-0.4
		c0-0.1,0-0.2,0-0.3c0,0,0-0.1,0-0.1c0-0.1,0-0.3-0.1-0.5c0-0.1,0-0.1,0-0.2c0-0.2-0.1-0.5-0.2-0.7c0-0.1,0-0.2-0.1-0.3
		c0-0.2-0.1-0.3-0.1-0.5c0-0.1-0.1-0.3-0.1-0.4c-0.2-0.5-0.3-1-0.4-1.3c-0.1-0.2-0.1-0.3-0.1-0.4c-0.2-0.3-4.9-0.5-7.3-1.4
		c-2.4-0.9-11.3-5.5-25.2-6c-0.3,0-0.5,0-0.8,0c-0.4,0-0.7,0-1.1,0c-7.1,0-7.6,0.1-9.2,0.6c-3.1,1-13.1,6.3-14.4,6.8
		c-2.5,1.1-19.4,1.4-21,3.7c-1,1.4-1.5,1.8-1.7,3.5c0,0.1,0,0.3,0,0.4c0,0.1,0,0.2,0,0.3c0,0.1,0,0.2,0,0.3c0,0.1,0,0.2,0,0.3
		c0,0.1,0,0.2,0,0.4c0,0.1,0,0.2,0,0.4v0c0,0.1,0,0.2,0,0.3c0,0.1,0,0.1,0,0.2c0,0.2,0,0.3,0,0.5c0,0.5,0,1,0,1.6
		c0,0.1,0,0.2-0.1,0.3c0,0.1,0,0.2-0.1,0.2c0,0.1-0.1,0.1-0.1,0.2c0,0.1-0.1,0.1-0.1,0.1c0,0,0,0,0,0c0,0,0,0.1,0,0.1s0,0.1-0.1,0.2
		c0,0,0,0.1-0.1,0.1c0,0,0,0,0,0.1c0,0,0,0,0,0.1c-0.1,0.2-0.1,0.5,0,0.7c0,0.1,0.1,0.2,0.1,0.2c0.1,0.1,0.1,0.2,0.2,0.3
		c0,0,0,0,0,0c0.2,0.2,0.6,0.3,1.2,0.4c2.2,0.1,1.9,0.1,3.1,0.1H20c0,0,0,0,0,0c-0.1-0.5-0.2-1.1-0.2-1.7c0-4.2,3.4-7.6,7.6-7.6
		c4.2,0,7.6,3.4,7.6,7.6c0,0.6-0.1,1.1-0.2,1.7c0,0,0,0,0,0H73c0,0,0,0,0,0c-0.1-0.5-0.2-1.1-0.2-1.7c0-4.2,3.4-7.6,7.6-7.6
		c4.2,0,7.6,3.4,7.6,7.6c0,0.6-0.1,1.1-0.2,1.7c0,0,0,0,0,0c0.3,0,1.3-0.2,2.4-0.4c0.1,0,0.1,0,0.2,0c0.1,0,0.3-0.1,0.4-0.1
		c0.6-0.2,1.3-0.3,1.6-0.5c0.3-0.2,0.6-0.3,0.8-0.4c0.2-0.1,0.3-0.2,0.4-0.3c0.1,0,0.1-0.1,0.2-0.1c0.1-0.1,0.1-0.1,0.2-0.2
		c0.5-0.3,0.8-0.6,1-0.6c0,0,0,0,0,0c0,0,0.1-0.1,0.1-0.2C95.4,33.9,95.6,30.6,95.2,29.4z M61.9,16c1.5,0,5,0.4,7.6,1.1
		c2.5,0.7,8.3,4.1,7.4,4.4c-0.4,0.1-7.6,0.7-15.8,1.2c0-2.3-0.2-4.5-0.4-6.7C61.2,16,61.7,16,61.9,16z M37.4,22.9
		c1.6-1.9,12.3-6.5,13.5-6.7c1.6-0.3,6.2-0.2,9-0.2c0.3,2.2,0.5,4.5,0.5,6.8c-6.5,0.4-13.4,0.7-18,0.7c-0.6,0-1.2,0-1.8,0
		c-1.5,0-2.6-0.1-3-0.3C37.4,23.1,37.3,23,37.4,22.9z"/>
	<path style="fill:#228DB6;" d="M60.3,22.8c-6.5,0.4-13.4,0.7-18,0.7c-0.6,0-1.2,0-1.8,0c-1.5,0-2.6-0.1-3-0.3
		c-0.2-0.1-0.3-0.2-0.2-0.3c1.6-1.9,12.3-6.5,13.5-6.7c1.6-0.3,6.2-0.2,9-0.2C60.2,18.2,60.4,20.5,60.3,22.8z"/>
	<path style="fill:#228DB6;" d="M76.9,21.5c-0.4,0.1-7.6,0.7-15.8,1.2c0-2.3-0.2-4.5-0.5-6.7c0.6,0,1,0,1.3,0c1.5,0,5,0.4,7.6,1.1
		C72,17.8,77.8,21.2,76.9,21.5z"/>
	<path style="fill:#CCCCCC;" d="M59.9,16c-2.8,0-7.3-0.1-9,0.2c-1.2,0.2-11.9,4.7-13.5,6.7c-0.1,0.1,0,0.2,0.2,0.3
		c0.4,0.2,1.5,0.3,3,0.3c0.5,0,1.1,0,1.8,0c4.5,0,11.5-0.3,18-0.7C60.4,20.5,60.2,18.2,59.9,16z M42.4,23.1c-0.6,0-1.2,0-1.7,0
		c-1.5,0-2.3-0.1-2.7-0.2c2.2-2,11.9-6.1,13-6.3c0.8-0.1,2.6-0.2,5.3-0.2c1.1,0,2.2,0,3.2,0c0.3,2.3,0.4,4.2,0.4,6
		c-5.3,0.3-12.6,0.7-17.4,0.7H42.4z"/>
	<path style="fill:#CCCCCC;" d="M69.5,17.1c-2.5-0.7-6-1.1-7.6-1.1c-0.3,0-0.7,0-1.3,0c0.3,2.2,0.5,4.5,0.5,6.7
		c8.2-0.5,15.4-1.1,15.8-1.2C77.8,21.2,72,17.8,69.5,17.1z M61.5,22.3c0-1.8-0.1-3.7-0.4-5.9c0.4,0,0.6,0,0.8,0c1.6,0,5,0.4,7.4,1.1
		c2,0.6,5.8,2.8,6.9,3.7C74.6,21.4,68.6,21.9,61.5,22.3z"/>
	<path style="fill:#419BAA;" d="M43.1,20.8c0,0.5-0.1,1.2-0.1,1.7c-0.1,1.2-1.2,0.1-1.4,0.2c-0.3,0.2,0.7,0.6,0.9,0.8
		c-0.9,0.1-2.6,0.2-3.1,0.2c-1.5,0-1.7-0.3-1.7-0.5c0.9-0.7,1.8-1.6,3-2.2c0.2-0.1,0.5-0.3,0.7-0.4c0,0,0,0,0,0
		c0.3-0.1,0.6-0.2,1-0.3C42.5,20.2,43.1,20.4,43.1,20.8z"/>
	<path style="fill:#F3E9E4;" d="M17.9,26.8c-0.3,1.3-0.7,2.5-2.2,2.8c-1.1,0.2-2.2,0.2-3.4,0.1c0.2-1.5,0.6-2,1.3-3
		C15.1,26.8,16.5,26.7,17.9,26.8z"/>
	<path style="opacity:0.56;fill:#A9C5CC;" d="M95.1,34.7c0,0.1-0.1,0.1-0.1,0.2c0,0,0,0,0,0c-0.2,0-0.5,0.3-1,0.6
		c-0.1,0.1-0.1,0.1-0.2,0.2c-0.1,0-0.1,0.1-0.2,0.1c-0.1,0.1-0.3,0.2-0.4,0.3c-0.2,0.1-0.5,0.3-0.8,0.4c-0.4,0.2-1,0.4-1.6,0.5
		c-0.1,0-0.3,0.1-0.4,0.1c-0.1,0-0.1,0-0.2,0c-1,0.2-2.1,0.3-2.4,0.4c0.1-0.5,0.2-1.1,0.2-1.7c0-4.2-3.4-7.6-7.6-7.6
		c-4.2,0-7.6,3.4-7.6,7.6c0,0.6,0.1,1.1,0.2,1.7H34.8C35,37,35,36.4,35,35.9c0-4.2-3.4-7.6-7.6-7.6c-4.2,0-7.6,3.4-7.6,7.6
		c0,0.6,0.1,1.1,0.2,1.7h-3.7c-1.2,0-0.9,0-3.1-0.1c-0.6,0-1-0.2-1.2-0.3c0,0,0,0,0,0c-0.1-0.1-0.2-0.2-0.2-0.3
		c0-0.1-0.1-0.1-0.1-0.2c-0.1-0.2,0-0.5,0-0.7c0,0,0,0,0-0.1c0,0,0,0,0-0.1c0,0,0-0.1,0.1-0.1c0.1-0.1,0.1-0.2,0.1-0.2s0,0,0,0
		c0,0,0,0,0,0c0,0,0-0.1,0.1-0.1c0-0.1,0.1-0.1,0.1-0.2c0-0.1,0.1-0.2,0.1-0.2c0-0.1,0.1-0.2,0.1-0.3c0-0.6,0-1.1,0-1.6
		c0-0.2,0-0.3,0-0.5c0-0.1,0-0.1,0-0.2c0-0.1,0-0.2,0-0.3v0c0-0.1,0-0.2,0-0.4c0-0.1,0-0.3,0-0.4c0-0.1,0-0.2,0-0.3
		c0-0.1,0-0.2,0-0.3c0-0.1,0-0.2,0-0.3c0-0.2,0-0.3,0-0.4c1.1,0,2.3,0.1,3.4-0.1c1.4-0.3,1.8-1.5,2.2-2.8l75.3-3.9
		c0.1,0.3,0.3,0.8,0.4,1.3c0,0.1,0.1,0.3,0.1,0.4c0,0.2,0.1,0.3,0.1,0.5c0,0.1,0,0.2,0.1,0.3c0.1,0.3,0.1,0.5,0.2,0.7
		c0,0.1,0,0.1,0,0.2c0,0.2,0.1,0.3,0.1,0.5c0,0,0,0.1,0,0.1c0,0.1,0,0.2,0,0.3c0,0.2,0,0.3,0.1,0.4c0,0,0,0.1,0,0.1c0,0,0,0,0,0
		c0.1,0.2,0.2,0.3,0.3,0.5c0,0,0,0,0,0.1c0,0.1,0.1,0.1,0.2,0.2v0c0,0,0,0.1,0,0.1c0,0.1,0.1,0.2,0.1,0.3v0c0,0,0,0.1,0,0.1
		c0,0.1,0.1,0.2,0.1,0.3C95.6,30.6,95.4,33.9,95.1,34.7z"/>
	<path style="fill:#333333;" d="M80.4,42c-3.4,0-6.2-2.8-6.2-6.2c0-3.4,2.8-6.2,6.2-6.2c3.4,0,6.2,2.8,6.2,6.2
		C86.5,39.3,83.8,42,80.4,42z"/>
	<path style="fill:#666666;" d="M85.2,35.9c0,2.7-2.2,4.8-4.8,4.8c-2.7,0-4.8-2.2-4.8-4.8c0-2.7,2.2-4.8,4.8-4.8
		C83,31.1,85.2,33.2,85.2,35.9z"/>
	<g>
		<path style="fill:#E5E5E5;" d="M85.2,35c0-0.2-0.1-0.3-0.1-0.5c0-0.1-0.1-0.3-0.1-0.4c-0.1-0.2-0.1-0.3-0.2-0.5
			c-0.7-1.4-2.1-2.4-3.7-2.7c-0.2,0-0.3,0-0.5,0c-0.1,0-0.1,0-0.2,0c-0.1,0-0.1,0-0.2,0c-0.2,0-0.3,0-0.5,0c-1.6,0.2-3,1.3-3.7,2.7
			c-0.1,0.2-0.2,0.3-0.2,0.5c-0.1,0.1-0.1,0.3-0.1,0.4c0,0.2-0.1,0.3-0.1,0.5c0,0.3-0.1,0.5-0.1,0.8c0,1.4,0.6,2.6,1.5,3.5l0.4,0.3
			c0.1,0.1,0.2,0.2,0.3,0.2c0.1,0.1,0.3,0.2,0.4,0.3c0.7,0.4,1.5,0.6,2.3,0.6c0.8,0,1.6-0.2,2.3-0.6l0.5-0.3
			c0.1-0.1,0.2-0.2,0.3-0.2l0,0l0.4-0.3l0,0c0.9-0.9,1.5-2.1,1.5-3.5C85.3,35.6,85.3,35.3,85.2,35z M84.6,34.3
			c0,0.1,0.1,0.2,0.1,0.4c0,0,0,0,0,0l-2.8,0.9l-0.5,0.2c0,0,0,0,0,0c0-0.1-0.1-0.2-0.1-0.4c0,0,0,0,0,0l0.5-0.2L84.6,34.3
			C84.6,34.3,84.6,34.3,84.6,34.3z M81.1,31.4c1.4,0.2,2.6,1.1,3.3,2.4l-2.1,0.7l-0.8,0.3l-0.3,0.1V31.4z M80.2,31.4L80.2,31.4
			c0.1,0,0.1,0,0.2,0h0.1c0,0,0.1,0,0.1,0c0,0,0,0,0,0v3.5h0c0,0,0,0,0,0c-0.1,0-0.1,0-0.2,0c-0.1,0-0.1,0-0.2,0c0,0,0,0,0,0h0V31.4
			z M80.4,35.4c0.3,0,0.4,0.2,0.4,0.4c0,0.2-0.2,0.4-0.4,0.4c-0.2,0-0.4-0.2-0.4-0.4C79.9,35.6,80.1,35.4,80.4,35.4z M79.7,31.4v3.4
			l-0.3-0.1l-0.8-0.3l-2.1-0.7C77,32.5,78.3,31.6,79.7,31.4z M76,34.6c0-0.1,0.1-0.2,0.1-0.4c0,0,0,0,0,0l2.8,0.9l0.5,0.2
			c0,0,0,0,0,0c-0.1,0.1-0.1,0.2-0.1,0.4c0,0,0,0,0,0l-0.5-0.2L76,34.6C76,34.6,76,34.6,76,34.6z M77.2,39c-0.8-0.8-1.3-2-1.3-3.2
			c0-0.2,0-0.5,0.1-0.7l2.1,0.7l0.8,0.3l0.3,0.1L79,36.5l-0.5,0.7L77.2,39z M77.9,39.6C77.9,39.6,77.9,39.6,77.9,39.6
			c-0.1-0.1-0.2-0.2-0.3-0.2c0,0,0,0,0,0l1.8-2.4l0.3-0.4c0,0,0,0,0,0c0.1,0.1,0.2,0.2,0.3,0.2c0,0,0,0,0,0l-0.3,0.4L77.9,39.6z
			 M80.4,40.4c-0.7,0-1.4-0.2-2-0.5l1.3-1.8l0.5-0.7l0.2-0.3l0.2,0.3l0.5,0.7l1.3,1.8C81.8,40.2,81.1,40.4,80.4,40.4z M83.2,39.4
			c-0.1,0.1-0.2,0.1-0.3,0.2l0,0l-1.8-2.4l-0.3-0.4c0,0,0,0,0,0c0.1,0,0.2-0.1,0.3-0.2c0,0,0,0,0,0l0.3,0.4L83.2,39.4L83.2,39.4z
			 M83.6,39l-1.3-1.8l-0.5-0.7l-0.2-0.3l0.3-0.1l0.8-0.3l2.1-0.7c0,0.2,0.1,0.5,0.1,0.7C84.9,37.1,84.4,38.2,83.6,39z"/>
	</g>
	<path style="fill:#333333;" d="M27.5,42c-3.4,0-6.2-2.8-6.2-6.2c0-3.4,2.8-6.2,6.2-6.2c3.4,0,6.2,2.8,6.2,6.2
		C33.6,39.3,30.9,42,27.5,42z"/>
	<path style="fill:#666666;" d="M32.3,35.9c0,2.7-2.2,4.8-4.8,4.8c-2.7,0-4.8-2.2-4.8-4.8c0-2.7,2.2-4.8,4.8-4.8
		C30.1,31.1,32.3,33.2,32.3,35.9z"/>
	<g>
		<path style="fill:#E5E5E5;" d="M32.3,35c0-0.2-0.1-0.3-0.1-0.5c0-0.1-0.1-0.3-0.1-0.4c-0.1-0.2-0.1-0.3-0.2-0.5
			c-0.7-1.4-2.1-2.4-3.7-2.7c-0.2,0-0.3,0-0.5,0c-0.1,0-0.1,0-0.2,0c-0.1,0-0.1,0-0.2,0c-0.2,0-0.3,0-0.5,0c-1.6,0.2-3,1.3-3.7,2.7
			c-0.1,0.2-0.2,0.3-0.2,0.5c-0.1,0.1-0.1,0.3-0.1,0.4c0,0.2-0.1,0.3-0.1,0.5c-0.1,0.3-0.1,0.5-0.1,0.8c0,1.4,0.6,2.6,1.5,3.5
			l0.4,0.3c0.1,0.1,0.2,0.2,0.3,0.2c0.1,0.1,0.3,0.2,0.4,0.3c0.7,0.4,1.5,0.6,2.3,0.6c0.8,0,1.6-0.2,2.3-0.6l0.5-0.3
			c0.1-0.1,0.2-0.2,0.3-0.2l0,0l0.4-0.3l0,0c0.9-0.9,1.5-2.1,1.5-3.5C32.4,35.6,32.4,35.3,32.3,35z M31.7,34.3
			c0,0.1,0.1,0.2,0.1,0.4c0,0,0,0,0,0L29,35.6l-0.5,0.2c0,0,0,0,0,0c0-0.1-0.1-0.2-0.1-0.4c0,0,0,0,0,0l0.5-0.2L31.7,34.3
			C31.7,34.3,31.7,34.3,31.7,34.3z M28.2,31.4c1.4,0.2,2.6,1.1,3.3,2.4l-2.1,0.7l-0.8,0.3l-0.3,0.1V31.4z M27.3,31.4L27.3,31.4
			c0.1,0,0.1,0,0.2,0h0.1c0,0,0.1,0,0.1,0c0,0,0,0,0,0v3.5h0c0,0,0,0,0,0c-0.1,0-0.1,0-0.2,0c-0.1,0-0.1,0-0.2,0c0,0,0,0,0,0h0V31.4
			z M27.5,35.4c0.3,0,0.4,0.2,0.4,0.4c0,0.2-0.2,0.4-0.4,0.4c-0.2,0-0.4-0.2-0.4-0.4C27,35.6,27.2,35.4,27.5,35.4z M26.7,31.4v3.4
			l-0.3-0.1l-0.8-0.3l-2.1-0.7C24.1,32.5,25.3,31.6,26.7,31.4z M23.1,34.6c0-0.1,0.1-0.2,0.1-0.4c0,0,0,0,0,0l2.8,0.9l0.5,0.2
			c0,0,0,0,0,0c-0.1,0.1-0.1,0.2-0.1,0.4c0,0,0,0,0,0l-0.5-0.2L23.1,34.6C23.1,34.6,23.1,34.6,23.1,34.6z M24.2,39
			c-0.8-0.8-1.3-2-1.3-3.2c0-0.2,0-0.5,0.1-0.7l2.1,0.7l0.8,0.3l0.3,0.1l-0.2,0.3l-0.5,0.7L24.2,39z M25,39.6
			C25,39.6,25,39.6,25,39.6c-0.1-0.1-0.2-0.2-0.3-0.2c0,0,0,0,0,0l1.8-2.4l0.3-0.4c0,0,0,0,0,0c0.1,0.1,0.2,0.2,0.3,0.2c0,0,0,0,0,0
			l-0.3,0.4L25,39.6z M27.5,40.4c-0.7,0-1.4-0.2-2-0.5l1.3-1.8l0.5-0.7l0.2-0.3l0.2,0.3l0.5,0.7l1.3,1.8
			C28.9,40.2,28.2,40.4,27.5,40.4z M30.3,39.4c-0.1,0.1-0.2,0.1-0.3,0.2l0,0l-1.8-2.4l-0.3-0.4c0,0,0,0,0,0c0.1,0,0.2-0.1,0.3-0.2
			c0,0,0,0,0,0l0.3,0.4L30.3,39.4L30.3,39.4z M30.7,39l-1.3-1.8l-0.5-0.7l-0.2-0.3l0.3-0.1l0.8-0.3l2.1-0.7c0,0.2,0.1,0.5,0.1,0.7
			C32,37.1,31.5,38.2,30.7,39z"/>
	</g>
	<g>
		<path style="fill:#57B1C7;" d="M59.7,18.1c-1.6,0-3.1,0.1-4.7,0.3c-4.4,0.6-7.1,1.2-11.3,2.7c-0.2,0.1-0.4,0.2-0.7,0.2
			c0-0.2,0-0.4,0-0.5c0-0.4-0.4-0.5-0.7-0.5c3.6-1.8,7.9-3.5,8.6-3.7c0.8-0.1,2.6-0.2,5.3-0.2c1.1,0,2.2,0,3.2,0
			C59.6,17,59.6,17.6,59.7,18.1z"/>
	</g>
	<g>
		<path style="fill:#57B1C7;" d="M66.7,16.9c-1.8,0.1-3.6,0.9-5.4,0.9c0-0.5-0.1-0.9-0.2-1.4c0.4,0,0.6,0,0.8,0
			C63,16.5,64.9,16.6,66.7,16.9z"/>
	</g>
</g>
</svg>
