<?xml version="1.0" encoding="utf-8"?>
<!-- Generator: Adobe Illustrator 22.0.1, SVG Export Plug-In . SVG Version: 6.00 Build 0)  -->
<!DOCTYPE svg PUBLIC "-//W3C//DTD SVG 1.1//EN" "http://www.w3.org/Graphics/SVG/1.1/DTD/svg11.dtd">
<svg version="1.1" id="Layer_1" xmlns="http://www.w3.org/2000/svg" xmlns:xlink="http://www.w3.org/1999/xlink" x="0px" y="0px"
	 viewBox="0 0 199.9 85.4" style="enable-background:new 0 0 199.9 85.4;" xml:space="preserve">
<g>
	<linearGradient id="SVGID_1_" gradientUnits="userSpaceOnUse" x1="60.0674" y1="42.9586" x2="0" y2="42.9586">
		<stop  offset="0" style="stop-color:#66CCCC;stop-opacity:0.1"/>
		<stop  offset="0.1369" style="stop-color:#6DD0D5;stop-opacity:0.2233"/>
		<stop  offset="0.3653" style="stop-color:#72D3DC;stop-opacity:0.4288"/>
		<stop  offset="1" style="stop-color:#73D4DE"/>
	</linearGradient>
	<path style="fill:url(#SVGID_1_);" d="M35,70.6H0V57.4L20.4,1.7h19L17.2,55.6H35V32.5h17.2v23.1h7.9v15h-7.9v13.6H35V70.6z"/>
	<linearGradient id="SVGID_2_" gradientUnits="userSpaceOnUse" x1="131.8725" y1="42.709" x2="67.9346" y2="42.709">
		<stop  offset="0" style="stop-color:#66CCCC;stop-opacity:0.1"/>
		<stop  offset="0.1369" style="stop-color:#6DD0D5;stop-opacity:0.2233"/>
		<stop  offset="0.3653" style="stop-color:#72D3DC;stop-opacity:0.4288"/>
		<stop  offset="1" style="stop-color:#73D4DE"/>
	</linearGradient>
	<path style="fill:url(#SVGID_2_);" d="M75.8,75.2c-5.2-6.8-7.9-17.6-7.9-32.5c0-14.9,2.6-25.7,7.9-32.5C81,3.4,89.1,0,99.9,0
		c10.8,0,18.9,3.4,24.1,10.2c5.2,6.8,7.9,17.6,7.9,32.5c0,14.9-2.6,25.7-7.9,32.5c-5.2,6.8-13.3,10.2-24.1,10.2
		C89.1,85.4,81,82,75.8,75.2z M108.1,67.7c2.1-1.8,3.6-4.7,4.6-8.7c1-4,1.4-9.5,1.4-16.3c0-6.8-0.5-12.3-1.4-16.3
		c-1-4-2.5-7-4.6-8.7c-2.1-1.8-4.8-2.7-8.2-2.7c-3.4,0-6.2,0.9-8.2,2.7c-2.1,1.8-3.6,4.7-4.6,8.7c-1,4-1.4,9.5-1.4,16.3
		c0,6.8,0.5,12.3,1.4,16.3c1,4,2.5,7,4.6,8.7c2.1,1.8,4.8,2.7,8.2,2.7C103.3,70.4,106.1,69.5,108.1,67.7z"/>
	<linearGradient id="SVGID_3_" gradientUnits="userSpaceOnUse" x1="199.9324" y1="42.9586" x2="139.865" y2="42.9586">
		<stop  offset="0" style="stop-color:#66CCCC;stop-opacity:0.1"/>
		<stop  offset="0.1369" style="stop-color:#6DD0D5;stop-opacity:0.2233"/>
		<stop  offset="0.3653" style="stop-color:#72D3DC;stop-opacity:0.4288"/>
		<stop  offset="1" style="stop-color:#73D4DE"/>
	</linearGradient>
	<path style="fill:url(#SVGID_3_);" d="M174.8,70.6h-35V57.4l20.4-55.7h19l-22.1,53.8h17.7V32.5h17.2v23.1h7.9v15h-7.9v13.6h-17.2
		V70.6z"/>
</g>
</svg>
