<?xml version="1.0" encoding="utf-8"?>
<!-- Generator: Adobe Illustrator 22.0.1, SVG Export Plug-In . SVG Version: 6.00 Build 0)  -->
<!DOCTYPE svg PUBLIC "-//W3C//DTD SVG 1.1//EN" "http://www.w3.org/Graphics/SVG/1.1/DTD/svg11.dtd">
<svg version="1.1" id="Isolation_Mode" xmlns="http://www.w3.org/2000/svg" xmlns:xlink="http://www.w3.org/1999/xlink" x="0px"
	 y="0px" viewBox="0 0 112.8 56.4" style="enable-background:new 0 0 112.8 56.4;" xml:space="preserve">
<g>
	<path style="opacity:0.63;fill:#B3B3B3;" d="M112.8,54.3c0,1.1-13.8,2.1-30.7,2.1c-9.4,0-17.9-0.3-23.5-0.7
		c-5.6,0.5-14.1,0.7-23.5,0.7c-17,0-30.7-0.9-30.7-2.1c0-1.1,13.8-2.1,30.7-2.1c9.4,0,17.9,0.3,23.5,0.7c5.6-0.5,14.1-0.7,23.5-0.7
		C99.1,52.2,112.8,53.2,112.8,54.3z"/>
	<path style="fill:#333333;" d="M82.2,44.3c-0.6-0.2-1.3,0.1-1.5,0.7l-2.9,7.4c-0.2,0.6,0.1,1.3,0.7,1.5l2.4,0.9
		c0.6,0.2,1.3-0.1,1.5-0.7l2.9-7.4c0.2-0.6-0.1-1.3-0.7-1.5L82.2,44.3z"/>
	<path style="fill:#F3E9E4;" d="M88.1,42.5c-1.3,2.4-2.8,2-4.5,2c-0.9,0-2.4,0-2.6-1.1c-0.1-0.3-0.1-0.8,0-1.1
		c0.1-0.5,0.2-0.5,0.8-0.5c0.9,0,1.8,0.1,2.6,0.2C85.6,42.2,86.9,42.2,88.1,42.5z"/>
	<path style="fill:#228DB6;" d="M88.5,48.5c-0.3,0.9-0.5,2.1-1.4,2.4c-0.6,0.2-1.9,0.2-2.5,0.2c-1,0-2,0-3.1,0
		c-0.9,0-1.1-0.3-0.9-1.2c0.2-0.7,0.1-1.3,0.8-1.6C82.1,48,86.7,48.1,88.5,48.5z"/>
	<path style="fill:#57B1C7;" d="M80.5,52.1c0.1,0,1.5,0,3.4,0c4.5,0,11.9,0.1,11.9,0.1s7.6-0.1,12.1-0.2c1.8,0,3.1-0.1,3.2-0.1
		c0.4,0,0.7-0.1,0.8-0.3c0.1-0.2,0-0.5,0-0.7c0-0.2,0.3-2.9,0.5-4.9c0.1-0.9,0.1-1.6,0.1-2c0.1-1.1-0.2-1.5-0.2-2
		c0-0.5-1.3-1.7-1.7-2.1c-0.2-0.2-1.1-1-1.4-1.1c-0.2-0.1-0.2-0.1-0.2-0.2c0-0.1-0.1-0.2-0.1-0.5c0-0.1-0.1-0.3-0.2-0.5
		c-0.7-1.3-2.9-4.6-3-4.8c-0.2-0.2-0.7-0.6-1.3-0.7c-0.7-0.1-7.3-0.4-8.5-0.4c-1.2,0-7.8,0.4-8.5,0.5c-0.7,0.1-1.1,0.5-1.3,0.7
		c-0.2,0.2-3,3.4-3.7,4.7c-0.1,0.2-0.1,0.6-0.1,0.7c-0.1,0.3,0,0.3-0.1,0.3c0,0.1,0,0.1-0.1,0.1c0,0,0,0.2,0,0.2
		c-0.2,0.1-0.6,0.6-1,1c-0.6,0.6-0.7,0.9-0.9,1.4c-0.3,0.8-0.5,1.6-0.9,2.8c-0.2,0.5-0.5,1.9-0.8,3.4c-0.3,1.7-0.1,2.7-0.1,2.8
		c0,0.2,1.5,1.1,1.6,1.3C79.8,52,80.1,52.1,80.5,52.1z M110.9,49.8c0.2,0.9,0.1,1.2-0.9,1.2c-0.7,0-1.4,0-2.2,0c-0.3,0-0.6,0-0.9,0
		c-0.6,0-1.9,0.1-2.5-0.2c-0.9-0.3-1.2-1.5-1.4-2.4c0.1,0,0.1,0,0.2,0c0.1,0,0.2,0,0.3-0.1c0.1,0,0.1,0,0.2,0c0,0,0,0,0.1,0
		c0.1,0,0.2,0,0.3,0c0,0,0,0,0,0c0.1,0,0.2,0,0.3,0c0.3,0,0.5-0.1,0.8-0.1c0.1,0,0.2,0,0.2,0c0.4,0,0.9-0.1,1.3-0.1
		c0.1,0,0.2,0,0.3,0c0.1,0,0.2,0,0.2,0c0.1,0,0.2,0,0.3,0c0.1,0,0.2,0,0.2,0c1.1,0,2,0,2.3,0.1C110.9,48.4,110.7,49.1,110.9,49.8z
		 M86.2,33.2l9.5-0.4l9.5,0.4c0,0,3.4,5.3,3.2,5.3c-0.2,0-8.8-0.5-12.7-0.4c-3.8-0.1-12.8,0-13,0C82.5,38.1,86.2,33.2,86.2,33.2z
		 M80.6,49.8c0.2-0.7,0.1-1.3,0.8-1.6c0.3-0.1,1.1-0.1,2.1-0.1c0.1,0,0.2,0,0.3,0c0.4,0,0.7,0,1.1,0c0.2,0,0.4,0,0.7,0
		c0.1,0,0.2,0,0.2,0c0.1,0,0.2,0,0.4,0c0.1,0,0.2,0,0.3,0c0.1,0,0.2,0,0.3,0c0.2,0,0.3,0,0.5,0.1c0.1,0,0.2,0,0.3,0
		c0.1,0,0.2,0,0.2,0c0,0,0.1,0,0.1,0c0.1,0,0.1,0,0.1,0c0,0,0,0,0.1,0c0,0,0.1,0,0.1,0c0.1,0,0.1,0,0.1,0c-0.3,0.9-0.5,2.1-1.4,2.4
		c-0.6,0.2-1.9,0.2-2.5,0.2c-0.2,0-0.5,0-0.7,0c-0.6,0-1.1,0-1.6,0c-0.3,0-0.5,0-0.7,0C80.6,51.1,80.4,50.8,80.6,49.8z"/>
	<path style="fill:#F3E9E4;" d="M81.1,43.8C81,43.5,81,43.1,81,42.7c0-0.6,0.1-0.5,0.6-0.7c0.7-0.2,1.4-0.4,2.1-0.4
		c1-0.1,2-0.5,3-0.5c-0.7,2.7-1.9,2.6-3.3,3.1C82.7,44.5,81.5,44.8,81.1,43.8z"/>
	<path style="fill:#9FDBE9;" d="M108.4,38.5c-0.2,0-8.8-0.5-12.7-0.4c-3.9-0.1-12.8,0-13,0c-0.3,0,3.5-4.9,3.5-4.9l9.5-0.5l9.5,0.4
		C105.3,33.1,108.7,38.5,108.4,38.5z"/>
	<path style="fill:#F3E9E4;" d="M110.6,43.3c-0.2,1.1-1.7,1.1-2.6,1.1c-1.7,0-3.2,0.4-4.6-2c1.2-0.4,2.5-0.3,3.7-0.5
		c0.9-0.2,1.8-0.2,2.6-0.2c0.6,0,0.7-0.1,0.8,0.5C110.7,42.5,110.7,43,110.6,43.3z"/>
	<path style="fill:#228DB6;" d="M110.1,51c-1,0-2,0-3.1,0.1c-0.6,0-1.9,0.1-2.5-0.2c-0.9-0.3-1.2-1.5-1.4-2.4
		c1.8-0.4,6.4-0.5,7.1-0.3c0.7,0.3,0.6,0.9,0.8,1.6C111.2,50.7,111,51,110.1,51z"/>
	<path style="fill:#228DB6;" d="M103.1,46.5c-0.2,0.7-0.7,2.3-1,3.2c-0.3,0.9-1.6,0.8-1.8,0.8l-9,0c-0.1,0-1.4,0.1-1.8-0.8
		c-0.3-0.9-0.9-2.4-1-3.2c-0.2-0.8-1.1-1.1,2.7-1c2,0,3.6,0.7,4.5,0.6c0.9,0,2.4-0.1,4.5-0.9C103.9,43.9,103.3,45.7,103.1,46.5z"/>
	<path style="fill:#333333;" d="M112.4,46.3l0,8.2c0,0.2-0.1,0.3-0.3,0.3l-3.9,0c-0.2,0-0.3-0.1-0.3-0.3l0-2.4c1.8,0,3.1,0,3.2-0.1
		c0.4,0,0.7-0.1,0.8-0.3c0.1-0.2,0-0.5,0-0.7c0-0.2,0.3-2.9,0.5-4.9C112.4,46.1,112.4,46.2,112.4,46.3z"/>
	<path style="fill:#F3E9E4;" d="M82.3,48.2c0,0.7-0.5,1.2-1.2,1.2c-0.7,0-1.2-0.5-1.2-1.2c0-0.7,0.5-1.2,1.2-1.2
		C81.8,47,82.3,47.5,82.3,48.2z"/>
	<path style="fill:#228DB6;" d="M111.9,37.8c-0.3,0.3-0.6,0.5-0.9,0.8c-0.1,0.1-0.3,0.3-0.5,0.4c-0.2,0-0.2,0-0.4,0
		c-0.1,0-0.2,0.2-0.4,0.3c-0.1,0-0.2-0.1-0.4-0.3c-0.1-0.1-0.2-0.2-0.4-0.3c0.9-0.3,0.1-1.2,0.4-1.8c0.2-0.4,0.8-0.6,1.3-0.7
		c0.4-0.2,1-0.3,1.3,0.1C112.3,36.8,112.4,37.4,111.9,37.8z"/>
	<path style="fill:#F3E9E4;" d="M84.4,49.3c0,0.5-0.4,0.8-0.8,0.8c-0.5,0-0.8-0.4-0.8-0.8c0-0.5,0.4-0.8,0.8-0.8
		C84,48.5,84.4,48.8,84.4,49.3z"/>
	<path style="fill:#F3E9E4;" d="M110.3,49.6c0,0.7-0.5,1.2-1.2,1.2c-0.7,0-1.2-0.5-1.2-1.2c0-0.7,0.5-1.2,1.2-1.2
		C109.8,48.4,110.3,48.9,110.3,49.6z"/>
	<path style="fill:#F3E9E4;" d="M107.5,49.6c0,0.5-0.4,0.8-0.8,0.8c-0.5,0-0.8-0.4-0.8-0.8c0-0.5,0.4-0.8,0.8-0.8
		C107.1,48.7,107.5,49.1,107.5,49.6z"/>
	<path style="opacity:0.78;fill:#A9C5CC;" d="M83.7,37.4L83.4,37c1-1.4,2.8-3.8,2.8-3.8l9.5-0.4l1.7,0.8l-3.3,0.2l0.9,2l-3.3-1.3
		l1,2.2l-2.1-1.5l-0.9,2.6l-1.7-1.1l-1.6,0.8l-0.5-1.1L83.7,37.4z"/>
	<path style="opacity:0.57;fill:#CCCCCC;" d="M75.6,5.7C76.5,6.4,77,7.2,77.1,8c0.8-0.4,1.7-0.6,2.7-0.5c0.4,0,0.7,0,1.1,0.1
		c2.6,0.4,4.7,2.7,4.4,5.4c-0.1,1.1-0.7,2.1-1.4,2.9c0,0,0.1,0,0.1,0c1.7,1.3,1.6,3.2,0.6,4.5c0.1,0,0.2,0.1,0.3,0.1
		c2.3,1.7-0.3,5.2-2.6,3.5c-0.9-0.6-1-1.5-0.8-2.3c-0.5-0.1-0.9-0.3-1.4-0.6c-1.5-1.1-1.6-2.7-1-4c-0.1,0-0.2,0-0.3,0
		c-2.5-0.3-4.4-2.4-4.4-4.9c-1,0.3-2.1,0.3-3.3-0.6C67.2,9,71.7,2.8,75.6,5.7z"/>
	<path style="opacity:0.57;fill:#CCCCCC;" d="M68.2,0.3c0.1,0.1,0.3,0.2,0.3,0.4c0.7-0.6,1.7-0.9,2.7-0.2c2.3,1.7-0.3,5.2-2.6,3.5
		c-0.7-0.5-0.9-1.1-0.9-1.8c-0.3,0.1-0.6,0-0.9-0.2C65.7,1.2,67-0.6,68.2,0.3z"/>
	<rect x="1.8" y="39.3" style="fill:#228DB6;" width="66.9" height="8.1"/>
	<path style="fill:#CCCCCC;" d="M78,38.2l0.2,8c0,0.5-1,1.2-1.5,1.2h-7.2c-0.5,0-0.9-0.4-0.9-0.9v-3.8c0-0.5,0.4-0.9,0.9-0.9h6.5
		v-6.4h0.7C77.3,35.5,78,37.7,78,38.2z"/>
	<path style="fill:#333333;" d="M20.3,47.5c0,3.6-2.9,6.5-6.5,6.5c-3.6,0-6.5-2.9-6.5-6.5c0-3.6,2.9-6.5,6.5-6.5
		C17.4,40.9,20.3,43.9,20.3,47.5z"/>
	<path style="fill:#E5E5E5;" d="M17.5,47.5c0,2.1-1.7,3.8-3.8,3.8c-2.1,0-3.8-1.7-3.8-3.8c0-2.1,1.7-3.8,3.8-3.8
		C15.8,43.7,17.5,45.4,17.5,47.5z"/>
	<path style="fill:#333333;" d="M64.6,44.2c1.4,3.4-0.1,7.2-3.4,8.7c-3.3,1.4-7.2-0.2-8.6-3.5c-1.4-3.4,0.1-7.2,3.4-8.7
		C59.3,39.3,63.1,40.9,64.6,44.2z"/>
	<path style="fill:#E5E5E5;" d="M62.1,45.3c0.8,1.9,0,4.2-2,5c-1.9,0.8-4.1-0.1-5-2c-0.8-1.9,0-4.2,2-5C59,42.5,61.2,43.4,62.1,45.3
		z"/>
	<path style="fill:#57B1C7;" d="M76.9,34.9l-0.8,7h-6.5c-0.5,0-0.9,0.4-0.9,0.9v3.8c0,0.5,0.4,0.9,0.9,0.9h-3c0-4.2-3.4-8.2-8-8.2
		c-4.2,0-7.9,3.9-7.9,8.2l-2.9,0c-0.5,0-0.9-0.4-0.9-0.9v-27c0-0.5,0.4-0.9,0.9-0.9h19.6c0.3,0,0.6,0.1,0.7,0.4l0,0l0.1,0.2
		l6.6,10.2l1.8,2.9C76.8,32.5,76.9,34.7,76.9,34.9z"/>
	<polygon style="fill:#9FDBE9;" points="53.3,20.8 66.6,20.8 73.6,30.4 73.1,33.6 53.3,32.6 	"/>
	<polygon style="fill:#228DB6;" points="64.2,33.1 65.8,33.2 64.4,27.1 65.7,20.8 64.1,20.8 63.1,27 	"/>
	<rect y="7.9" style="fill:#57B1C7;" width="46" height="31.4"/>
	<polygon style="opacity:0.78;fill:#A9C5CC;" points="72.4,28.6 72.2,29.7 70.4,30.7 71.4,28.4 70.5,28.8 70.2,27.6 67.2,30 
		68.5,25.8 66.1,27.3 67.2,24.8 64.8,25.7 66.5,22.7 65.5,22.7 66.6,20.8 	"/>
	<path style="fill:#FFCF10;" d="M91.4,31.4c-0.2,1.7-0.9,2.5-2.4,3.2c0.9-0.7,1.1-1.5,0.7-2.2c-0.3-0.6-1-0.9-1.5-1.2
		c0.2,0.5-0.1,0.9-0.7,0.6c-0.3-0.2-0.5-0.8-0.6-1.2c-0.3,0.6-0.5,1.2-0.1,1.8c0.1,0.2,0.6,0.5,0.5,0.8c-0.1,0.4-0.9,0.3-1.2-0.2
		c-0.1,0.4-0.2,1,0.2,1.5c0.3,0.3,0.7,0.6,1.2,0.6c-2,0.3-3.8-1.3-4.2-3.3c-0.3-1.9,1-3.2,1.2-4.9c0.5,0.2,0.9,0.5,1.1,1.3
		c0.1,0.5-0.5,0.9-0.2,1.6c0.4,0.8,1,0.1,1.1-0.4c0.1-0.4,0-1.2-0.2-1.5c-0.5-1.1-1.5-1.3-1.1-2.7c0.5,1.3,1.5,0.9,2.5,1.7
		c0.6,0.5,1.4,1.1,0.9,3.3c0,0.7,1.3-0.8,0.6-2.4C90.7,28.2,91.6,30.1,91.4,31.4z"/>
	<path style="fill:#FFFFFF;" d="M89,34.6c-0.3,0.2-0.9,0.4-1.4,0.5c-0.4,0-0.9-0.2-1.2-0.6c-0.4-0.4-0.3-1-0.2-1.5
		c0.3,0.5,1,0.6,1.2,0.2c0.1-0.3-0.4-0.6-0.5-0.8c-0.4-0.6-0.2-1.2,0.1-1.8c0,0.4,0.2,1,0.6,1.2c0.5,0.3,0.9-0.1,0.7-0.6
		c0.5,0.4,1.1,0.6,1.5,1.2C90.1,33.1,89.9,33.9,89,34.6z"/>
</g>
</svg>
