<?xml version="1.0" encoding="utf-8"?>
<!-- Generator: Adobe Illustrator 22.0.1, SVG Export Plug-In . SVG Version: 6.00 Build 0)  -->
<!DOCTYPE svg PUBLIC "-//W3C//DTD SVG 1.1//EN" "http://www.w3.org/Graphics/SVG/1.1/DTD/svg11.dtd">
<svg version="1.1" id="Layer_1" xmlns="http://www.w3.org/2000/svg" xmlns:xlink="http://www.w3.org/1999/xlink" x="0px" y="0px"
	 viewBox="0 0 199.9 85.4" style="enable-background:new 0 0 199.9 85.4;" xml:space="preserve">
<g>
	<linearGradient id="SVGID_1_" gradientUnits="userSpaceOnUse" x1="58.2824" y1="43.6926" x2="0" y2="43.6926">
		<stop  offset="0" style="stop-color:#66CCCC;stop-opacity:0.1"/>
		<stop  offset="0.1369" style="stop-color:#6DD0D5;stop-opacity:0.2233"/>
		<stop  offset="0.3653" style="stop-color:#72D3DC;stop-opacity:0.4288"/>
		<stop  offset="1" style="stop-color:#73D4DE"/>
	</linearGradient>
	<path style="fill:url(#SVGID_1_);" d="M16.2,83.8c-5.5-0.9-9.3-1.8-11.6-2.6L0,80l2.3-16c9.8,1.4,18.3,2.1,25.6,2.1
		c2.5,0,4.4-0.7,5.7-2c1.4-1.4,2-3.3,2-6c0-2.5-0.5-4.5-1.5-5.8c-1-1.4-2.4-2-4.2-2l-4.8-0.1C24.3,50,23.2,50,21.6,50
		c-1.5,0-3.1,0.1-4.8,0.4h-1.4L3.1,47.3l2.2-45h51v18.8H22.1l-2,11.7c4.2-1,8-1.5,11.4-1.5c17.8,0,26.7,8.2,26.7,24.7
		c0,9.2-2.5,16.3-7.4,21.5C46,82.6,39,85.1,30,85.1C26.3,85.1,21.7,84.7,16.2,83.8z"/>
	<linearGradient id="SVGID_2_" gradientUnits="userSpaceOnUse" x1="131.0748" y1="42.4631" x2="65.5368" y2="42.4631">
		<stop  offset="0" style="stop-color:#66CCCC;stop-opacity:0.1"/>
		<stop  offset="0.1369" style="stop-color:#6DD0D5;stop-opacity:0.2233"/>
		<stop  offset="0.3653" style="stop-color:#72D3DC;stop-opacity:0.4288"/>
		<stop  offset="1" style="stop-color:#73D4DE"/>
	</linearGradient>
	<path style="fill:url(#SVGID_2_);" d="M73.7,74.3c-5.4-6.9-8.1-17.5-8.1-31.8c0-14.4,2.7-25.1,8.1-31.9C79.1,3.7,87.3,0.3,98.2,0.3
		c11.1,0,19.4,3.4,24.8,10.3c5.4,6.8,8.1,17.5,8.1,31.9c0,14.4-2.7,25.1-8.1,31.9c-5.4,6.8-13.6,10.3-24.8,10.3
		C87.3,84.6,79.1,81.2,73.7,74.3z M106.2,60.3c1.5-3.5,2.3-9.5,2.3-17.8c0-8.4-0.8-14.4-2.3-18c-1.5-3.5-4.2-5.3-7.9-5.3
		c-3.8,0-6.4,1.8-7.9,5.3C88.8,28,88,34,88,42.5c0,8.4,0.8,14.3,2.3,17.8c1.5,3.5,4.2,5.3,7.9,5.3C102,65.6,104.7,63.8,106.2,60.3z"
		/>
	<linearGradient id="SVGID_3_" gradientUnits="userSpaceOnUse" x1="199.9324" y1="42.4631" x2="134.3948" y2="42.4631">
		<stop  offset="0" style="stop-color:#66CCCC;stop-opacity:0.1"/>
		<stop  offset="0.1369" style="stop-color:#6DD0D5;stop-opacity:0.2233"/>
		<stop  offset="0.3653" style="stop-color:#72D3DC;stop-opacity:0.4288"/>
		<stop  offset="1" style="stop-color:#73D4DE"/>
	</linearGradient>
	<path style="fill:url(#SVGID_3_);" d="M142.5,74.3c-5.4-6.9-8.1-17.5-8.1-31.8c0-14.4,2.7-25.1,8.1-31.9
		c5.4-6.8,13.6-10.3,24.6-10.3c11.1,0,19.4,3.4,24.8,10.3c5.4,6.8,8.1,17.5,8.1,31.9c0,14.4-2.7,25.1-8.1,31.9
		c-5.4,6.8-13.6,10.3-24.8,10.3C156.1,84.6,147.9,81.2,142.5,74.3z M175,60.3c1.5-3.5,2.3-9.5,2.3-17.8c0-8.4-0.8-14.4-2.3-18
		c-1.5-3.5-4.2-5.3-7.9-5.3c-3.8,0-6.4,1.8-7.9,5.3c-1.5,3.5-2.3,9.5-2.3,18c0,8.4,0.8,14.3,2.3,17.8c1.5,3.5,4.2,5.3,7.9,5.3
		C170.9,65.6,173.5,63.8,175,60.3z"/>
</g>
</svg>
