<?xml version="1.0" encoding="utf-8"?>
<!-- Generator: Adobe Illustrator 22.0.1, SVG Export Plug-In . SVG Version: 6.00 Build 0)  -->
<!DOCTYPE svg PUBLIC "-//W3C//DTD SVG 1.1//EN" "http://www.w3.org/Graphics/SVG/1.1/DTD/svg11.dtd">
<svg version="1.1" id="Layer_1" xmlns="http://www.w3.org/2000/svg" xmlns:xlink="http://www.w3.org/1999/xlink" x="0px" y="0px"
	 viewBox="0 0 368.6 221.5" style="enable-background:new 0 0 368.6 221.5;" xml:space="preserve">
<g>
	<rect style="fill-rule:evenodd;clip-rule:evenodd;fill:#006C35;" width="368.6" height="221.5"/>
	<path style="fill-rule:evenodd;clip-rule:evenodd;fill:#EEEEEE;" d="M228.5,159.4c-36.1,0.5-76,0-110.2-0.4
		c3.8,6.2,15.9,5.7,27.6,5.9c10.4,0.2,40.9,0.1,82.7-1l0,1.7c-1.4,1.8-1.3,2-0.2,3.5c1.1,1.6,1.4,0.7,1.9,0c0.2-0.3,0.4-0.6,0.5-0.8
		l5.6-0.1c0,0.7,0.9,1.1,1.3,1.1c0.4,0,1.3-0.5,1.3-1.1l6.1-0.1c0.6,1,1.5,1.4,2.4,1.4c2.2-0.1,3.2-2.7,2.9-5.9
		c-0.4-3.7-2.2-4.4-6.5-4.3c-4.6,0.1-9.3,0.2-14,0.2l0-1.5c1.4-1.8,1.3-2,0.2-3.5c-0.5-0.7-0.9-1.6-1.9,0c-1,1.6-1.2,1.8,0.3,3.5
		L228.5,159.4L228.5,159.4z M230.1,165.6l0-1.7c4.8-0.1,9.8-0.3,14.9-0.4c-0.4,1.2-0.4,2.2-0.2,3.1l-5.6,0.1c0-0.7-0.9-1.1-1.3-1.1
		c-0.4,0-1.3,0.5-1.3,1.1l-5.4,0.1C230.9,166.5,230.6,166.1,230.1,165.6z"/>
	<path style="fill-rule:evenodd;clip-rule:evenodd;fill:#EEEEEE;" d="M272.6,88.6c-0.6-15.3-2.6-22-2.2-27.8c1.3,1.2,2,0.8,1.1-1.2
		c-0.9-2-1.8-4.1-2.7-6c-0.9-2-1.2-1.5-2.3-0.1c-1.1,1.4-1.2,2.4-0.8,3.3c2.2,18.8,3.2,28.5,3.6,34.2c0.5,8.2-1.5,12.9-9.5,18.2
		c-2.7,1.8-5.6,3.8,0.6,2.3C266.7,109.8,273.3,105.7,272.6,88.6z"/>
	<path style="fill-rule:evenodd;clip-rule:evenodd;fill:#EEEEEE;" d="M264.9,89.6c-2.1-3.1-4-5.9-5.9-8.6
		c-0.6-7.1-1.4-14.7-1.5-18.6c1,0.9,1.7,0,1.2-1.5c-0.5-1.5-1.4-5.7-2.1-7.4c-0.7-1.7-1.4-1.3-2.3,0.2c-0.9,1.5-1.4,2.2-0.9,3.4
		c0.3,6.8,1.3,13.4,2.3,19.5c-1.9-2.6-3.6-5.1-5.3-7.3c-0.2-2.6-0.3-5.2-0.5-7.8c1.1,0.8,1.5,0.7,1-0.9c-0.5-1.6-1.8-5-2.4-6.5
		c-0.6-1.5-1-1.6-1.8-0.3c-1.3,2-1.6,3.3-0.5,5.2l0.4,5c-1-1.4-1.9-2.8-2.8-4.1c1,0.5,1.9-0.4,0.7-1.4c-1.2-1-3.4-2.9-4.3-4.2
		c-1-1.3-2-1.3-2-0.1c0,1.1,0.1,2.3,0,3.2c-0.2,0.9-0.2,1.9,1.2,3.6c2.7,3.3,5.4,6.7,7.8,10c1,11.7,1.6,19.3,1.4,24
		c-0.1,2.8-1.1,4.4-2.6,4.9c-1.5,0.5-3-0.5-4.5-2.6c-2.5-3.7-3.5-3-5.5,0.2c-1.9,3.2-3.3,5.7-4.3,7.9c-1,2.2-2.6,4-4.1,1.2
		c-1.5-2.8-1.6-6-1.6-8.3c0-2.3-0.3-4.1-1.1-0.4c-2.1,8.7-0.9,10.5,1.5,12.5c3,2.5,3.9,2.7,5.5,0.5c3-4.2,3.9-8,5.6-10.1
		c1.4-1.6,1.5-0.4,2.1,0.4c1.7,2.2,3.4,3,5.8,3.5c2.5,0.4,6.9-1.7,6.6-9.9c-0.2-5-0.7-11.7-1.1-18.9c2.4,3.3,4.5,6.3,6.2,8.6
		c0.8,4.8,1.3,9,1.1,12.4c-0.2,4,0.6,4,1.4-0.1c0.3-1.6,0.2-5-0.1-9.1c3.2,4.2,5,7,6.3,9.1c1.5,2.4,2.2,4.5,1.8-0.5
		C267.5,94.4,267,92.8,264.9,89.6z"/>
	<path style="fill-rule:evenodd;clip-rule:evenodd;fill:#EEEEEE;" d="M238.1,85.5c1.1-0.9,4.5-2.9,5.8-3.6c1.3-0.6,1.1-1.1,0.9-2.5
		c-0.2-1.3-1-0.4-2.1,0.7c-1.1,1.1-4.4,3.5-5.5,4.4c-1.5,1.2-1.8,1.5-1.8,2.2C235.5,87.6,237,86.3,238.1,85.5z"/>
	<path style="fill-rule:evenodd;clip-rule:evenodd;fill:#EEEEEE;" d="M239.7,75.7c0-1.1-0.3-4.4,0.1-5.6c0.6-1.6,1.8,0.8,2.2-0.4
		c0.3-0.8-0.3-0.9-0.7-2c-0.4-1-0.8-0.9-1.6-0.3c-0.8,0.6-1.1,1.3-1.2,1.9c-0.1,1,0.1,2.4,0.2,3.9c0,1.4-0.2,1.6-0.6,0.6
		c-0.4-1-1.6-3.5-2.2-4.3c-0.6-0.8-1.8-0.3-1.7,0.7c0,0.9,0.1,0.8,0,2c-0.1,1.2,1.4,1.2,1.6,0.1c1.1,1.1,2,3.1,2.5,4.3
		C239.2,78.4,239.7,76.8,239.7,75.7z"/>
	<path style="fill-rule:evenodd;clip-rule:evenodd;fill:#EEEEEE;" d="M230.1,88c-0.5-5.4-2.4-19.8-2.8-25.6l0.4,0.2
		c1.6,0.9,3.3,1.3,2.1-0.6c-1.3-2-2.3-5.1-3.1-7.5c-0.8-2.3-1-2.2-2.3-0.2c-2,3.1-0.3,6,0.2,9.6c1.7,12.6,3.3,25.4,3.7,28.8
		c0.5,3.8,1.1,6.3,0.1,10.4c-0.3,1.2,0.2,1.7,1,0.1C232.7,97,230.5,91.5,230.1,88z"/>
	<path style="fill-rule:evenodd;clip-rule:evenodd;fill:#EEEEEE;" d="M221.6,92.3c-0.3-15.3-2.4-21.9-2-30.2c0.9,0.8,2,0.9,1.4-0.9
		c-0.6-1.8-1-3.9-1.6-5.9c-0.6-2-1-2.4-1.7-1.5c-0.7,1-1.4,1.4-1.9,2c-0.6,0.7-0.7,2,0,3.1c2.5,17.8,2.7,25.7,3,32.3
		c0.4,6.6,1.3,9.7-2.8,14.1c-4.5,4.9-7.3,6-9.2,6.5c-2.5,0.7-3.4,1.7,0.3,1.5c5.6-0.3,6.3-0.5,10.9-5.7
		C220.5,104.7,221.8,101,221.6,92.3z"/>
	<path style="fill-rule:evenodd;clip-rule:evenodd;fill:#EEEEEE;" d="M216.8,96.8c-1-5.3-5.8-13.8-13-24.9c-0.2-2.9-0.4-5.7-0.4-8.1
		c1,1.1,1.8,0.5,1.4-1c-0.7-2.8-1.8-5-3-8.1c-0.5-1.3-1.8-1.6-2.5,0.3c-0.8,2.2-0.9,2.7,0.2,4.2c-0.1,1.8,0.5,4.5,0.7,7.1
		c-1.2-1.8-2.9-4.2-4.2-6.2c2,0.8,3.2,0.2,1.5-1.7c-1.7-1.9-4.2-4-5.8-5.3c-1.5-1.4-2.3-0.5-2.1,0.8c0.2,1.3,0.2,2.3,0.2,3.3
		c-0.1,1,0.2,1.7,1.8,2.3c3,4.1,6.2,8.2,9,12.4c0.4,3.6,1.1,7.5,1.4,10.6c0.9,7.5,2.3,17.3,1.1,21.6c-0.9,3.2,0.1,4.6,1.5-0.3
		c1.5-4.8,1.3-9.4,0.4-16.6c-0.3-2.9-0.5-6.4-0.9-9.7c4.9,7.7,9.4,15,11.4,20C216.6,100.1,217.6,100.7,216.8,96.8z"/>
	<path style="fill-rule:evenodd;clip-rule:evenodd;fill:#EEEEEE;" d="M210.9,61.4c1.1-2.4,0.2-5.4-0.9-7.3c-1-1.7-1.5-1.3-2.1-0.3
		c-0.5,0.9-0.8,1.6,0.1,2.4c0.9,0.7,2.3,2.5,1.8,4.7C209.5,62.5,209.9,63.8,210.9,61.4z"/>
	<path style="fill-rule:evenodd;clip-rule:evenodd;fill:#EEEEEE;" d="M213.8,69.1c0.2-0.5,0.4-1.1,0.1-2.8c-0.2-1.7-0.8-0.8-1.1,0.7
		c-0.3,1.5-1.2,1.8-1.5,0.1c-0.3-1.6-0.7-1.2-1,0.4c-0.3,1.7-1,1-1.4-0.4c-0.3-0.9-0.8-0.4-0.6,1.1c0.2,1.6,0.7,2.5,2,1.3
		c0.6-0.6,0.9-0.6,1.7,0.2C212.8,70.3,213.6,69.7,213.8,69.1z"/>
	<path style="fill-rule:evenodd;clip-rule:evenodd;fill:#EEEEEE;" d="M263.7,65.7c0.4-1.8,0.2-5.3-0.8-7.8c-1-2.5-1.4-1.6-2-0.7
		c-0.7,1.1-0.6,1.4,0.2,2.7c0.8,1.3,1.6,3.9,1.5,6C262.6,67.8,263.3,67.5,263.7,65.7z"/>
	<path style="fill-rule:evenodd;clip-rule:evenodd;fill:#EEEEEE;" d="M253,110.4c1.3-0.9,3.9-3.9,2.1-6.1c-0.7-0.9-2.4-0.8-3.2,0.3
		c-1,1.4,1.5,2.3,1.9,1.1c0.7,1-0.1,3-1.3,4C250.8,111.2,251.8,111.3,253,110.4z"/>
	<path style="fill-rule:evenodd;clip-rule:evenodd;fill:#EEEEEE;" d="M186.8,84.3c-0.2-0.9-0.2-1.7-0.3-2.4
		c-0.1-1.2,0.5-1.2,2.3-0.1c1.7,1.1,3.1,1.3,0.6,1.9C188.5,83.9,187.6,84.1,186.8,84.3L186.8,84.3z M199.4,95
		c0.8-2.4,1.3-2.9-1.6-2.6c-2.8,0.2-16.9,0.6-20.3,0.3c2.8-1.5,6.8-3,9.8-4c1.1,0.7,1.5,0.4,1.3-0.4c1.2-0.4,2.3-0.9,3.2-1.4
		c3.4-2,4.8-5.9,1.2-8.3c-3.5-2.5-6.6-3.4-8.5-0.6c-1.5,2.2-2.8,4.3-0.8,7.3c-3.2,1-6.2,2.1-9.2,3.3c-2.2,0.9-3.3,1.2-4,4
		c-0.8,2.8-1.2,3.1,1.9,3.2c4.1,0.2,7.8-0.1,10.2,2.1c-4,1.5-6.9,4.5-5.5,8.5c-1.9-0.5-3.6-1.2-5-2.5c-3.1-2.9-2.8-8.1-4.1-14.1
		c-1.3-6-3.8-11.1-4.6-13.1c-0.8-2.1-1.3-1.1-1.9,0.4c-0.6,1.5-1.4,2.3-0.6,4.3c1.4,3.8,3.8,11.1,4.8,15.2
		c-2.4,5-7.9,11.5-12.8,12.2c-3.8,0.6-4.6-1.4-4.4-3.4c2.5-1.5,4.7-3.2,6.9-5.4c4.6-4.6,5.3-8.4,2.3-16c1.9,0.2,1.6-1.2-1.1-4.3
		c-1.9-2.2-2.3-1.7-3.2,0.3c-0.9,2-1.5,3.1,0.6,4c0.4,1,1.2,2.5,2.3,4.6c2.5,4.8-1.2,6.6-4.4,9.6c-0.6,0.5-1.7,1.3-2.7,2
		c-0.1-1.6,0.2-3.7,0.2-4.5c0-1-0.3-1.5-0.9-0.3c-1.1,2.2-2.1,5-2.6,7.3c-4.8,3.3-10.8,6.5-14.5,8.4c-1.7,0.8-0.6,1.4,0.7,1
		c5.6-1.7,10-3.2,13.7-5.1c0.3,3.1,1.6,5.5,4.3,6.2c5.4,1.4,11.1-3.2,17.1-11.6c1.5,4.1,5,9.4,14.5,10.9c3.9,0.6,3.8,0.2,4.4-1.6
		c0.5-1.9,0.9-2.2-2.3-3.1c-4.1-1.5-5.5-4.4-1.5-6.1c4-1.7,9.5-3.3,13.2-4C197.7,97.2,198.6,97.4,199.4,95z"/>
	<path style="fill-rule:evenodd;clip-rule:evenodd;fill:#EEEEEE;" d="M194.6,111.6c1.1-0.3,2.9-1.6,4.3-2.7c1.6-1.3,0.4-1.3-0.6-0.8
		c-1.3,0.5-2.1,1-3.5,1.6c-1.5,0.6-1.8-0.2-1.1-2.5c0.7-2.1,0-2.2-1-1.7c-0.9,0.4-1.5,1-2.7,1.7c-0.6,0.4-0.8,1.1,0.9,0.4
		c1.4-0.6,1.1,0,0.6,1.9C191.1,111.2,192.2,112.2,194.6,111.6z"/>
	<path style="fill-rule:evenodd;clip-rule:evenodd;fill:#EEEEEE;" d="M177.3,82.4c0.8,0.9,3.5,0.2,2.2-4c-0.6-1.7-0.8-1.3-0.8,0.6
		c0,2.9-0.9,2.9-1.9,0.1c-0.4-1.1-0.9-1.1-0.9,0.3c-0.1,2.7-1.2,3.1-1.9,0.4c-0.3-1.2-0.5-2.1-0.8-0.4c-0.2,1.6,0.2,2.7,0.7,3.5
		c0.6,0.8,1.8,0.7,2.1-0.2C176.4,81.7,176.6,81.5,177.3,82.4z"/>
	<path style="fill-rule:evenodd;clip-rule:evenodd;fill:#EEEEEE;" d="M177.1,70.6c5.4,7.1,10.1,3.8,10.6-3c0.2-2.1-0.8-6.7-1.4-8.1
		c-0.6-1.3-0.2-1.4,0.6-0.6c0.8,0.8,2.3,1.3,1.5-1c-0.8-2.3-1.8-3.6-3-4.6c-1.2-1-1.5-0.5-2,0.3c-0.5,0.8-0.4,1-1.1,1.7
		c-0.7,0.7-0.5,1,0,2.3c2,5.1,4,12.7,0.7,13.4c-2.9,0.6-4.8-5.7-4.9-8.6c-0.1-3.7-0.6-6.9-1.3-9c-0.8-2-1.1-2.4-1.7-1.2
		c-0.4,0.8-0.5,1.4-1,2.2c-0.5,0.9,0,1.1,0.3,2.7c1.8,8.3,1.6,12-2.1,14.2c-3.8,2.2-5.8,0.1-5.8-2.6c-0.1-2.6-0.1-5.7,0.2-8.1
		c0.3-2.3,0.8-2.8,0-4c-0.8-1.2-1.5-0.8-2.6,0.8c-2.4,3.3-4.7,8.8-5.5,11.4c-0.8,2.7-2.5,1.7-3.6-0.5c-1.3-2.6-1.1-7.5-0.7-9.4
		c0.4-1.9,0.2-2.7-0.6-0.6c-1.9,5.2-1.8,10.3,2,14.7c2.3,2.5,3.9,1.3,4.9-1.3c1-2.6,1.7-5.3,2.4-7c0.7-1.7,1.3-1.4,1.1,0.3
		c-0.4,3.3-0.5,8.6,2.8,10.6C170.3,77.5,175.4,74.1,177.1,70.6z"/>
	<path style="fill-rule:evenodd;clip-rule:evenodd;fill:#EEEEEE;" d="M171.7,62.1c0.5-2.1,0.4-5.1-0.2-6.9c-0.6-1.8-1.2-2.2-1.8-1.5
		c-0.7,0.9-0.8,1-0.1,2c0.7,0.8,1.7,3.5,1.4,6.1C170.9,63.1,171.2,64.3,171.7,62.1z"/>
	<path style="fill-rule:evenodd;clip-rule:evenodd;fill:#EEEEEE;" d="M125.2,86c-0.5,0.2-1,0.3-1.4,0.5c-2,0.7-2.5-0.2-2.3-1.5
		c0.1-1.3,0.3-1.7,1.7-1.1C123.8,84.1,124.5,85,125.2,86L125.2,86z M143.4,86.3c1.1,1.5,4.7,2,5.6-0.1c0.9-2.2,0.7-4.3,0.5-6
		c-0.2-1.7-0.6-1.6-1.7-0.7c-1.1,0.9-0.2,1.1-0.1,2.3c0.5,4.4-3.4,4.1-3.8-0.5c-0.3-2.8-0.7-1.7-1.1-0.4c-1.7,5.5-6.4,6.5-6,0.2
		c0.1-1.8-1-1.3-1.7-0.5c-0.5,0.5-1,1-1.6,1.4c-0.3-5.2-0.8-11.1-1.3-18.1c1.4,1.7,2.8-0.3,1.8-2.2c-0.7-1.5-1.8-5-2.5-6.9
		c-0.7-1.9-1-1.3-2.5,0.3c-1.5,1.6-1.2,2-0.6,3.6c-0.1,2.1,0.2,4.1,0.6,8.2c0.3,2.9,1.3,9.1,1.8,16.8c-0.7,0.4-1.8,1.1-2.5,1.4
		c-0.5-1.3-1.4-2.3-2.8-3.6c-2.1-2-3.8-2.1-5.6,0.4c-1.7,2.5-1.6,3.1-1.5,5.3c0.1,2.3-0.3,3,1.4,3.6c1.7,0.6,2.4,0.4,3.5,0
		c0.8-0.3,1.9-0.7,3.2-1.1c0.2,1.2,0.1,2.5-0.7,3.4c-4.3,5.3-11.1,9-14,5.5c-1.6-1.9-2.3-4.8-1.8-8.4c0.4-2.9-0.5-1.6-0.9-0.5
		c-1.1,3.4-1.4,8.4,0,10.8c2,3.5,5.2,5,10.2,2.7c5-2.3,10-6.2,9.7-11.8c0-1-0.1-1.9-0.2-2.7c0.6-0.2,1.4-0.9,1.9-1.1
		c0.1,1.9-0.1,4.2,0,6.2c0.2,5.9-2.1,7.7-4.2,9.5c-3,2.4-7,3.9-10.4,4.4c-8,1.2-10-4-9.8-10.9c0-1.1,0.4-1.8,0.4-3.4
		c-0.1-2.9-0.4-2.4-1.3,0.5c-0.9,2.9-1.9,9.5,0.8,14.9c2.8,5.4,12.3,3.9,19.7,0.3c7.4-3.6,8.2-10.3,7.8-17c-0.1-1.8-0.2-3.6-0.3-5.7
		c0.2-0.2,0.4-0.3,0.6-0.5c1,3.4,5.9,2.5,7.5,0.5C142.6,85.3,142.6,85.2,143.4,86.3z"/>
	<path style="fill-rule:evenodd;clip-rule:evenodd;fill:#EEEEEE;" d="M148.3,57.9c-0.8-0.5-0.6-1.1-0.3-1.8c0.5-1.1,1.1-0.4,0.9,0.3
		C148.8,56.8,148.6,57.4,148.3,57.9L148.3,57.9z M150,59.4c0.4-0.9,0.7-1.8,0.9-2.6c1.2-4.7-3.5-5.1-4.8-1.5
		c-0.6,1.7-0.6,3.6,0.9,4.9c-2,2.9-5.2,5.6-8.6,7.8c-1.7,1.1-1.4,1.9,0.9,0.9c5.2-2.3,8-5,9.7-7.5C150.3,61.5,150.6,60.3,150,59.4z"
		/>
	<path style="fill-rule:evenodd;clip-rule:evenodd;fill:#EEEEEE;" d="M144.7,74.3c1.1,0.9,3.3-0.2,4.1-2c0.8-1.8,0.5-2.1-0.9-0.5
		c-1.9,2.2-4,0.2-1.9-2.9c1.4-2.1,0.7-2.6-0.8-0.6C143.9,70.2,142.7,72.7,144.7,74.3z"/>
	<path style="fill-rule:evenodd;clip-rule:evenodd;fill:#EEEEEE;" d="M143.4,93.4c-0.2-1.3-0.2-1.6-1.3-2c-1.1-0.5-1.5,0.3-1.9,1.2
		c-0.5,1.1,0.2,2.5,1.8,1.7c0.3,0.9,0.2,2.7-0.2,3.6c-0.4,1.1,0,1.5,0.7,0.2C143.3,96.6,143.7,95,143.4,93.4z"/>
	<path style="fill-rule:evenodd;clip-rule:evenodd;fill:#EEEEEE;" d="M114.4,76.4c0.9-0.8,1.8-1.9,2.1-2.6c0.9-1.8,1.1-1.6,1.5-0.2
		c0.8,2.8,3.6,4.7,7.3,2c3.5-2.5,2-7.7,0.4-13.3c1.3,0.3,1.8-0.8,1-2.2c-0.4-0.8-1.1-1.6-1.6-2.3c-0.6-0.7-1.2-1.3-1.8-0.6
		c-0.6,0.7-1.1,1.3-1.4,1.7c-0.3,0.4-0.3,0.9,0.2,2.1c1.3,3.3,2.3,6.9,2.6,8.8c0.3,2-0.4,2.3-1.7,2.4c-1.3,0-3.1-0.3-3.8-3.1
		c-0.7-2.8-1-4.2-0.9-6c0.1-1.8,0.3-3.1-1-5c-1.3-1.9-1.5-1.6-1.8-0.6c-0.3,1.1-0.7,2.5-0.3,4.3c0.6,2.6,1,4.9,1.3,6.4
		c0.2,1.1-0.8,3.3-2.4,4.5c-0.3-3.5-0.9-8.2-1.2-12c2.1-0.6,0.9-3.3-0.6-6.3c-1.2-2.3-1.7-1.4-2.5,0.1c-0.8,1.4-0.2,2.1,0.4,3.2
		c-0.5,1,0.3,2.4,0.6,4.9c0.2,1.7,0.5,6.4,0.9,10.5c-1.6,0-2.6-1.1-3.2-2.5c-1.3-2.9-0.9-5.7-0.3-7.4c0.6-1.7,1.1-4.5,0.1-5.2
		c-1-0.7-2.2,0.1-3.1,1.4c-1.4,2.2-2.8,5.1-2.9,8.4c0,1.2-0.5,3.8-1,4.7c-0.5,0.9-1.3,1.1-2.2-0.3c-1.4-2.2-1.8-7.9-1.7-10.8
		c0-1.4-0.4-1.8-0.8,0c-1.5,5.7,0.3,11.7,1.5,14.3c1.3,2.6,3,2,4.2-0.1c1.8-3.2,1.1-6,2.7-10.7c1-3,1.3-0.7,1,1
		c-0.8,4.7-0.5,12.3,6.1,12.2c0.4,4.2,1.5,12.2,1.6,14.9c0.1,2.7,0.5,2,1.2,0.5c0.7-1.5,0.5-3.2,0.4-5.4
		C115,85.6,114.8,81.7,114.4,76.4z"/>
	<path style="fill-rule:evenodd;clip-rule:evenodd;fill:#EEEEEE;" d="M122.9,56.3c0.3-0.7,0.7-1.2,0.3-2c-0.3-0.8-0.4-0.5-0.6,0.4
		c-0.3,1.5-1.7,1.1-1.7-0.7c0-1.8-0.4-0.9-0.9,0.4c-0.8,1.7-1.9,1.3-1.9-0.2c0-1.2-0.5-2.4-1-0.8c-0.3,1-0.1,2.2,0.5,2.9
		c0.6,0.7,1.7,0.8,2.4,0.2c0.6-0.7,0.7-0.8,1.2,0.1C121.5,57.1,122.6,57,122.9,56.3z"/>
	<path style="fill-rule:evenodd;clip-rule:evenodd;fill:#EEEEEE;" d="M103.8,53.9c-0.3-2.6-1.9-2.1-3-0.7c-0.9,1.1-0.2,2,1,1.1
		c1.4-1.1,1.3,1.8,0.1,5.2C102.6,58.4,104,55.9,103.8,53.9z"/>
	<path style="fill-rule:evenodd;clip-rule:evenodd;fill:#EEEEEE;" d="M108.8,83.9c1.2-0.3,1.3-0.4,1.2-1.7c0-1.3-0.7-0.8-2.2-0.3
		c-2.2,0.7-6.6,2.8-10,6.9c-1.4,1.7-0.2,0.9,0.7,0.2C100.5,87.4,106.1,84.6,108.8,83.9z"/>
	<path style="fill-rule:evenodd;clip-rule:evenodd;fill:#EEEEEE;" d="M99.7,101.4c0.3-1.1,0.7-1.9,0.7-2.7c0-0.6,0.1-1.4-0.1-2.5
		c-0.2-0.9-0.7,0.3-1,1.8c-0.5,2.3-2,3.4-1.4,10.1c0.4,4.2,5.2,3.9,5.3-1.2c0-1.4-0.5-1.7-1.6,0.2
		C100.4,108.9,98.3,106.4,99.7,101.4z"/>
</g>
</svg>
