<?xml version="1.0" encoding="utf-8"?>
<!-- Generator: Adobe Illustrator 22.0.1, SVG Export Plug-In . SVG Version: 6.00 Build 0)  -->
<!DOCTYPE svg PUBLIC "-//W3C//DTD SVG 1.1//EN" "http://www.w3.org/Graphics/SVG/1.1/DTD/svg11.dtd">
<svg version="1.1" id="Layer_1" xmlns="http://www.w3.org/2000/svg" xmlns:xlink="http://www.w3.org/1999/xlink" x="0px" y="0px"
	 viewBox="0 0 76.1 76.1" style="enable-background:new 0 0 76.1 76.1;" xml:space="preserve">
<path style="fill:#228DB6;" d="M57.7,0H18.4C8.3,0,0,8.3,0,18.4v39.3c0,10.1,8.3,18.4,18.4,18.4h39.3c10.1,0,18.4-8.3,18.4-18.4
	V18.4C76.1,8.3,67.9,0,57.7,0z M65.1,24.7L31.1,58.8c-0.2,0.2-0.5,0.3-0.8,0.3c-0.3,0-0.6-0.1-0.8-0.3L13,42.2
	c-0.2-0.2-0.3-0.5-0.3-0.8c0-0.3,0.1-0.6,0.3-0.8l5.8-5.8c0.4-0.4,1.1-0.4,1.5,0l9,9c0.5,0.5,1.4,0.5,1.9,0l26.5-26.5
	c0.4-0.4,1.1-0.4,1.5,0l5.8,5.8c0.2,0.2,0.3,0.5,0.3,0.8C65.5,24.2,65.3,24.5,65.1,24.7z"/>
</svg>
