<?xml version="1.0" encoding="utf-8"?>
<!-- Generator: Adobe Illustrator 22.0.1, SVG Export Plug-In . SVG Version: 6.00 Build 0)  -->
<!DOCTYPE svg PUBLIC "-//W3C//DTD SVG 1.1//EN" "http://www.w3.org/Graphics/SVG/1.1/DTD/svg11.dtd">
<svg version="1.1" id="Layer_1" xmlns="http://www.w3.org/2000/svg" xmlns:xlink="http://www.w3.org/1999/xlink" x="0px" y="0px"
	 viewBox="0 0 1600 768" style="enable-background:new 0 0 1600 768;" xml:space="preserve">
<style type="text/css">
	.st0{clip-path:url(#SVGID_2_);}
	.st1{opacity:0.1;fill:url(#SVGID_3_);enable-background:new    ;}
	.st2{opacity:0.2;fill:url(#SVGID_4_);enable-background:new    ;}
	.st3{clip-path:url(#SVGID_6_);}
	.st4{fill:url(#SVGID_7_);}
</style>
<g>
	<g>
		<defs>
			<rect id="SVGID_1_" x="1065.5" y="0" width="534.5" height="768"/>
		</defs>
		<clipPath id="SVGID_2_">
			<use xlink:href="#SVGID_1_"  style="overflow:visible;"/>
		</clipPath>
		<g class="st0">
			
				<linearGradient id="SVGID_3_" gradientUnits="userSpaceOnUse" x1="131.9214" y1="-331.114" x2="131.9214" y2="782.0859" gradientTransform="matrix(-0.981 0.1938 -0.1938 -0.981 1560.8267 581.8016)">
				<stop  offset="0" style="stop-color:#1B4A91"/>
				<stop  offset="0.4243" style="stop-color:#3399CC"/>
				<stop  offset="0.6761" style="stop-color:#51B4D4"/>
				<stop  offset="1" style="stop-color:#73D4DE"/>
			</linearGradient>
			<path class="st1" d="M1297.5,333.4C1449.9,558.1,1672.9,512,1672.9,512l73.2,370.7c-354,18.7-531.1-254.3-548.8-294.8
				c-2.3-5.3-4.6-10.7-7.2-15.9c-232.6-468,183.6-750.4,183.6-750.4S1145.1,108.7,1297.5,333.4z"/>
			
				<linearGradient id="SVGID_4_" gradientUnits="userSpaceOnUse" x1="177.934" y1="-322.024" x2="177.934" y2="791.1758" gradientTransform="matrix(-0.981 0.1938 -0.1938 -0.981 1560.8267 581.8016)">
				<stop  offset="0" style="stop-color:#1B4A91"/>
				<stop  offset="0.4243" style="stop-color:#3399CC"/>
				<stop  offset="0.6761" style="stop-color:#51B4D4"/>
				<stop  offset="1" style="stop-color:#73D4DE"/>
			</linearGradient>
			<path class="st2" d="M1250.6,333.4C1403,558.1,1626,512,1626,512l73.2,370.7c-354,18.7-531.2-254.3-548.8-294.8
				c-2.3-5.3-4.6-10.7-7.2-15.9c-232.6-468,183.6-750.4,183.6-750.4S1098.2,108.7,1250.6,333.4z"/>
		</g>
	</g>
</g>
<g>
	<g>
		<defs>
			<rect id="SVGID_5_" y="0" width="777" height="768"/>
		</defs>
		<clipPath id="SVGID_6_">
			<use xlink:href="#SVGID_5_"  style="overflow:visible;"/>
		</clipPath>
		<g class="st3">
			
				<linearGradient id="SVGID_7_" gradientUnits="userSpaceOnUse" x1="1212.4094" y1="-941.8" x2="1212.4094" y2="664.2" gradientTransform="matrix(-1 0 0 -1 1597.4094 768)">
				<stop  offset="0" style="stop-color:#1B4A91"/>
				<stop  offset="0.2132" style="stop-color:#3674A9"/>
				<stop  offset="0.4558" style="stop-color:#509DC0"/>
				<stop  offset="0.6763" style="stop-color:#63BBD0"/>
				<stop  offset="0.8651" style="stop-color:#6FCEDA"/>
				<stop  offset="1" style="stop-color:#73D4DE"/>
			</linearGradient>
			<path class="st4" d="M769.6,833c0.3,2.2,0.4,4.4,0.4,6.7c-2.3,697.2-770,870.1-770,870.1l0-1606C690.6,273.5,764.2,785,769.6,833
				z"/>
		</g>
	</g>
</g>
</svg>
