<?xml version="1.0" encoding="utf-8"?>
<!-- Generator: Adobe Illustrator 22.0.1, SVG Export Plug-In . SVG Version: 6.00 Build 0)  -->
<!DOCTYPE svg PUBLIC "-//W3C//DTD SVG 1.1//EN" "http://www.w3.org/Graphics/SVG/1.1/DTD/svg11.dtd">
<svg version="1.1" id="Layer_1" xmlns="http://www.w3.org/2000/svg" xmlns:xlink="http://www.w3.org/1999/xlink" x="0px" y="0px"
	 viewBox="0 0 1600 2552.6" style="enable-background:new 0 0 1600 2552.6;" xml:space="preserve">
<style type="text/css">
	.st0{opacity:0.6;}
	.st1{clip-path:url(#SVGID_2_);}
	.st2{opacity:0.1;fill:url(#SVGID_3_);enable-background:new    ;}
	.st3{opacity:0.2;fill:url(#SVGID_4_);enable-background:new    ;}
	.st4{clip-path:url(#SVGID_6_);}
	.st5{opacity:0.1;fill:url(#SVGID_7_);enable-background:new    ;}
	.st6{opacity:0.2;fill:url(#SVGID_8_);enable-background:new    ;}
</style>
<g class="st0">
	<g>
		<g>
			<g>
				<defs>
					<rect id="SVGID_1_" width="534.5" height="887.5"/>
				</defs>
				<clipPath id="SVGID_2_">
					<use xlink:href="#SVGID_1_"  style="overflow:visible;"/>
				</clipPath>
				<g class="st1">
					
						<linearGradient id="SVGID_3_" gradientUnits="userSpaceOnUse" x1="-28.0789" y1="1604.1085" x2="-28.0789" y2="2717.3083" gradientTransform="matrix(0.981 0.1938 0.1938 -0.981 -178.9124 2511.2629)">
						<stop  offset="0" style="stop-color:#1B4A91"/>
						<stop  offset="0.4243" style="stop-color:#3399CC"/>
						<stop  offset="0.6761" style="stop-color:#51B4D4"/>
						<stop  offset="1" style="stop-color:#73D4DE"/>
					</linearGradient>
					<path class="st2" d="M226.3-178.4c0,0,416.2,282.4,183.6,750.4c-2.6,5.2-4.9,10.6-7.2,15.9C385,628.4,207.9,901.4-146.1,882.7
						L-72.9,512c0,0,223,46.1,375.4-178.6S226.3-178.4,226.3-178.4z"/>
					
						<linearGradient id="SVGID_4_" gradientUnits="userSpaceOnUse" x1="17.9337" y1="1613.1985" x2="17.9337" y2="2726.3984" gradientTransform="matrix(0.981 0.1938 0.1938 -0.981 -178.9124 2511.2629)">
						<stop  offset="0" style="stop-color:#1B4A91"/>
						<stop  offset="0.4243" style="stop-color:#3399CC"/>
						<stop  offset="0.6761" style="stop-color:#51B4D4"/>
						<stop  offset="1" style="stop-color:#73D4DE"/>
					</linearGradient>
					<path class="st3" d="M273.2-178.4c0,0,416.2,282.4,183.6,750.4c-2.6,5.2-4.9,10.6-7.2,15.9C432,628.4,254.8,901.4-99.2,882.7
						L-26,512c0,0,223,46.1,375.4-178.6S273.2-178.4,273.2-178.4z"/>
				</g>
			</g>
		</g>
	</g>
	<g>
		<g>
			<g>
				<g>
					<defs>
						<polygon id="SVGID_5_" points="1600,1707.3 1065.6,1553.1 1345.2,468.7 1600,501.6 						"/>
					</defs>
					<clipPath id="SVGID_6_">
						<use xlink:href="#SVGID_5_"  style="overflow:visible;"/>
					</clipPath>
					<g class="st4">
						
							<linearGradient id="SVGID_7_" gradientUnits="userSpaceOnUse" x1="1574.3138" y1="1017.179" x2="1574.3138" y2="2210.9248" gradientTransform="matrix(-0.9983 -5.732108e-02 5.732108e-02 -0.9983 3013.6904 2819.8442)">
							<stop  offset="0" style="stop-color:#1B4A91"/>
							<stop  offset="0.4243" style="stop-color:#3399CC"/>
							<stop  offset="0.6761" style="stop-color:#51B4D4"/>
							<stop  offset="1" style="stop-color:#73D4DE"/>
						</linearGradient>
						<path class="st5" d="M1455,1039.4c98.1,274.1,342,285.9,342,285.9l-23.2,404.5c-372.6-75.4-483.4-406.3-490.9-453.1
							c-1-6.1-1.9-12.4-3.2-18.4c-116.2-548.2,391.6-730,391.6-730S1356.9,765.3,1455,1039.4z"/>
						
							<linearGradient id="SVGID_8_" gradientUnits="userSpaceOnUse" x1="1623.6061" y1="1026.9114" x2="1623.6061" y2="2220.6572" gradientTransform="matrix(-0.9983 -5.732108e-02 5.732108e-02 -0.9983 3013.6904 2819.8442)">
							<stop  offset="0" style="stop-color:#1B4A91"/>
							<stop  offset="0.4243" style="stop-color:#3399CC"/>
							<stop  offset="0.6761" style="stop-color:#51B4D4"/>
							<stop  offset="1" style="stop-color:#73D4DE"/>
						</linearGradient>
						<path class="st6" d="M1406.3,1026.8c98.1,274.1,342,286,342,286l-23.2,404.5c-372.6-75.4-483.5-406.3-490.9-453.1
							c-1-6.1-1.9-12.4-3.2-18.4c-116.2-548.2,391.6-730,391.6-730S1308.3,752.7,1406.3,1026.8z"/>
					</g>
				</g>
			</g>
		</g>
	</g>
</g>
</svg>
