<?xml version="1.0" encoding="utf-8"?>
<!-- Generator: Adobe Illustrator 22.0.0, SVG Export Plug-In . SVG Version: 6.00 Build 0)  -->
<svg version="1.1" id="Layer_1" xmlns="http://www.w3.org/2000/svg" xmlns:xlink="http://www.w3.org/1999/xlink" x="0px" y="0px"
	 viewBox="0 0 1600 768" style="enable-background:new 0 0 1600 768;" xml:space="preserve">
<g>
	<g>
		<defs>
			<rect id="SVGID_1_" width="534.5" height="768"/>
		</defs>
		<clipPath id="SVGID_2_">
			<use xlink:href="#SVGID_1_"  style="overflow:visible;"/>
		</clipPath>
		<g style="clip-path:url(#SVGID_2_);">
			
				<linearGradient id="SVGID_3_" gradientUnits="userSpaceOnUse" x1="175.9341" y1="-212.7459" x2="175.9341" y2="900.454" gradientTransform="matrix(0.981 0.1938 0.1938 -0.981 -26.9428 689.391)">
				<stop  offset="0" style="stop-color:#1B4A91"/>
				<stop  offset="0.4243" style="stop-color:#3399CC"/>
				<stop  offset="0.6761" style="stop-color:#51B4D4"/>
				<stop  offset="1" style="stop-color:#73D4DE"/>
			</linearGradient>
			<path style="opacity:0.1;fill:url(#SVGID_3_);enable-background:new    ;" d="M226.3-178.4c0,0,416.2,282.4,183.6,750.4
				c-2.6,5.2-4.9,10.6-7.2,15.9C385,628.4,207.9,901.4-146.1,882.7L-72.9,512c0,0,223,46.1,375.4-178.6S226.3-178.4,226.3-178.4z"/>
			
				<linearGradient id="SVGID_4_" gradientUnits="userSpaceOnUse" x1="221.9467" y1="-203.656" x2="221.9467" y2="909.5439" gradientTransform="matrix(0.981 0.1938 0.1938 -0.981 -26.9428 689.391)">
				<stop  offset="0" style="stop-color:#1B4A91"/>
				<stop  offset="0.4243" style="stop-color:#3399CC"/>
				<stop  offset="0.6761" style="stop-color:#51B4D4"/>
				<stop  offset="1" style="stop-color:#73D4DE"/>
			</linearGradient>
			<path style="opacity:0.2;fill:url(#SVGID_4_);enable-background:new    ;" d="M273.2-178.4c0,0,416.2,282.4,183.6,750.4
				c-2.6,5.2-4.9,10.6-7.2,15.9C432,628.4,254.8,901.4-99.2,882.7L-26,512c0,0,223,46.1,375.4-178.6S273.2-178.4,273.2-178.4z"/>
		</g>
	</g>
</g>
</svg>
