<?xml version="1.0" encoding="utf-8"?>
<!-- Generator: Adobe Illustrator 22.0.0, SVG Export Plug-In . SVG Version: 6.00 Build 0)  -->
<svg version="1.1" id="Layer_1" xmlns="http://www.w3.org/2000/svg" xmlns:xlink="http://www.w3.org/1999/xlink" x="0px" y="0px"
	 viewBox="0 0 574.8 391" style="enable-background:new 0 0 574.8 391;" xml:space="preserve">
<style type="text/css">
	.st0{fill:#228DB6;}
</style>
<g>
	<path class="st0" d="M138,215.4c0-4.9-4-8.9-8.9-8.9H98.2c-4.9,0-8.9,4-8.9,8.9v30.9c0,4.9,4,8.9,8.9,8.9h30.9c4.9,0,8.9-4,8.9-8.9
		L138,215.4L138,215.4z"/>
	<path class="st0" d="M215.3,215.4c0-4.9-4-8.9-8.9-8.9h-30.9c-4.9,0-8.9,4-8.9,8.9v30.9c0,4.9,4,8.9,8.9,8.9h30.9
		c4.9,0,8.9-4,8.9-8.9V215.4z"/>
	<path class="st0" d="M292.6,215.4c0-4.9-4-8.9-8.9-8.9h-30.9c-4.9,0-8.9,4-8.9,8.9v30.9c0,4.9,4,8.9,8.9,8.9h30.9
		c4.9,0,8.9-4,8.9-8.9V215.4z"/>
	<path class="st0" d="M138,292.8c0-4.9-4-8.9-8.9-8.9H98.2c-4.9,0-8.9,4-8.9,8.9v30.9c0,4.9,4,8.9,8.9,8.9h30.9c4.9,0,8.9-4,8.9-8.9
		L138,292.8L138,292.8z"/>
	<path class="st0" d="M215.3,292.8c0-4.9-4-8.9-8.9-8.9h-30.9c-4.9,0-8.9,4-8.9,8.9v30.9c0,4.9,4,8.9,8.9,8.9h30.9
		c4.9,0,8.9-4,8.9-8.9V292.8z"/>
	<g>
		<path class="st0" d="M292.6,292.8c0-4.9-4-8.9-8.9-8.9h-30.9c-4.9,0-8.9,4-8.9,8.9v30.9c0,4.9,4,8.9,8.9,8.9h30.9
			c4.9,0,8.9-4,8.9-8.9V292.8z"/>
		<path class="st0" d="M347.9,43.5v47.2c0,21.4-17.3,38.6-38.7,38.6h-24.4c-21.4,0-38.9-17.2-38.9-38.6V43.3H136v47.4
			c0,21.4-17.6,38.6-38.9,38.6H72.7c-21.3,0-38.7-17.2-38.7-38.6V43.5c-18.7,0.6-34,16-34,35v276.8c0,19.3,15.7,35.2,35,35.2h311.9
			c19.3,0,35-15.9,35-35.2V78.5C381.9,59.5,366.5,44,347.9,43.5L347.9,43.5z M336.5,338.1c0,8.4-6.8,15.1-15.1,15.1H59.8
			c-8.4,0-15.1-6.8-15.1-15.1v-143c0-8.4,6.8-15.1,15.1-15.1h261.6c8.4,0,15.1,6.8,15.1,15.1V338.1z"/>
	</g>
	<path class="st0" d="M72.6,104h24.1c7.3,0,13.3-6,13.3-13.3V13.3C110,5.9,104,0,96.7,0H72.6c-7.3,0-13.3,5.9-13.3,13.3v77.4
		C59.3,98,65.2,104,72.6,104L72.6,104z"/>
	<path class="st0" d="M284.5,104h24.1c7.3,0,13.3-5.9,13.3-13.3V13.3C321.9,6,316,0,308.6,0h-24.1c-7.3,0-13.3,5.9-13.3,13.3v77.4
		C271.2,98,277.2,104,284.5,104L284.5,104z"/>
</g>
</svg>
