<?xml version="1.0" encoding="utf-8"?>
<!-- Generator: Adobe Illustrator 22.0.1, SVG Export Plug-In . SVG Version: 6.00 Build 0)  -->
<!DOCTYPE svg PUBLIC "-//W3C//DTD SVG 1.1//EN" "http://www.w3.org/Graphics/SVG/1.1/DTD/svg11.dtd">
<svg version="1.1" id="Layer_1" xmlns="http://www.w3.org/2000/svg" xmlns:xlink="http://www.w3.org/1999/xlink" x="0px" y="0px"
	 viewBox="0 0 200 200" style="enable-background:new 0 0 200 200;" xml:space="preserve">
<g>
	<path style="fill:#FFFFFF;" d="M0.5,100c0,54.9,44.6,99.5,99.5,99.5c54.9,0,99.5-44.6,99.5-99.5c0-54.9-44.6-99.5-99.5-99.5
		C45.1,0.5,0.5,45.1,0.5,100L0.5,100z M100,27.8c39.8,0,72.2,32.4,72.2,72.2c0,15-4.6,28.9-12.4,40.4L59.6,40.2
		C71.1,32.4,85,27.8,100,27.8L100,27.8z M140.4,159.8c-11.5,7.8-25.5,12.4-40.4,12.4c-39.8,0-72.2-32.4-72.2-72.2
		c0-15,4.6-28.9,12.4-40.4L140.4,159.8z M140.4,159.8"/>
</g>
</svg>
