<?xml version="1.0" encoding="utf-8"?>
<!-- Generator: Adobe Illustrator 22.0.1, SVG Export Plug-In . SVG Version: 6.00 Build 0)  -->
<!DOCTYPE svg PUBLIC "-//W3C//DTD SVG 1.1//EN" "http://www.w3.org/Graphics/SVG/1.1/DTD/svg11.dtd">
<svg version="1.1" id="Layer_1" xmlns="http://www.w3.org/2000/svg" xmlns:xlink="http://www.w3.org/1999/xlink" x="0px" y="0px"
	 viewBox="0 0 434.6 311" style="enable-background:new 0 0 434.6 311;" xml:space="preserve">
<g>
	<g>
		<path style="fill:#E6E7E8;" d="M287.9,0.9L28.6,58.7c-19.7,4.4-32.2,24-27.8,43.7l35.9,160.9c4.4,19.7,24,32.2,43.7,27.8
			l259.3-57.8c19.7-4.4,32.2-24,27.8-43.7L331.6,28.6C327.2,8.9,307.6-3.5,287.9,0.9z"/>
		
			<rect x="3.5" y="78.2" transform="matrix(0.976 -0.2177 0.2177 0.976 -16.6717 39.942)" style="fill:#228DB6;" width="338.8" height="35"/>
		
			<rect x="39.5" y="141.9" transform="matrix(0.976 -0.2177 0.2177 0.976 -29.0699 34.3755)" style="fill:#7BD7E1;" width="204.1" height="14.5"/>
		
			<rect x="50.1" y="193.6" transform="matrix(0.976 -0.2177 0.2177 0.976 -40.9409 30.0281)" style="fill:#7BD7E1;" width="131.5" height="14.5"/>
		
			<rect x="56.8" y="223.6" transform="matrix(0.976 -0.2177 0.2177 0.976 -47.3132 32.2047)" style="fill:#7BD7E1;" width="131.5" height="14.5"/>
	</g>
	<g id="Shield">
		<path style="opacity:0.85;fill:#C6C6C6;" d="M353,310.6c-26-12.8-46.9-34-60.8-61.3c-12.5-24.5-19-53.4-19-83.4V164l1.8-0.2
			c31.4-2.5,33.9-29.2,34-29.5l0.1-1.7h89.7l0.2,1.7c0.1,1.1,2.6,27,33.9,29.5l1.8,0.1v1.9c0,30-6.5,58.9-19,83.4
			c-13.9,27.3-34.9,48.5-60.9,61.3l-0.9,0.4L353,310.6z"/>
		<path style="fill:#228DB6;" d="M396.8,134.4h-43h-43c0,0-2.4,28.8-35.9,31.5c0,56.5,24,115.8,78.9,142.9
			c54.8-27.1,78.9-86.3,78.9-142.9C399.2,163.2,396.8,134.4,396.8,134.4z"/>
		<path style="fill:#228DB6;" d="M353.9,134h-43c0,0-2.4,29-35.9,31.7c0,56.5,24,116,78.9,143V134z"/>
		<path style="fill:#7BD7E1;" d="M407.8,180.7l-64,79l-35.6-35.2l13.5-14.9l20.5,20.2l48.3-59.6l0,0
			C394.9,174.6,400.5,178.3,407.8,180.7z"/>
	</g>
</g>
</svg>
