<?xml version="1.0" encoding="utf-8"?>
<!-- Generator: Adobe Illustrator 22.0.1, SVG Export Plug-In . SVG Version: 6.00 Build 0)  -->
<!DOCTYPE svg PUBLIC "-//W3C//DTD SVG 1.1//EN" "http://www.w3.org/Graphics/SVG/1.1/DTD/svg11.dtd">
<svg version="1.1" id="Layer_1" xmlns="http://www.w3.org/2000/svg" xmlns:xlink="http://www.w3.org/1999/xlink" x="0px" y="0px"
	 viewBox="0 0 499.6 500" style="enable-background:new 0 0 499.6 500;" xml:space="preserve">
<linearGradient id="SVGID_1_" gradientUnits="userSpaceOnUse" x1="0" y1="250" x2="499.57" y2="250">
	<stop  offset="0" style="stop-color:#1B4A91"/>
	<stop  offset="0.186" style="stop-color:#326EA5"/>
	<stop  offset="0.4425" style="stop-color:#4E9ABE"/>
	<stop  offset="0.6729" style="stop-color:#62BACF"/>
	<stop  offset="0.8666" style="stop-color:#6FCDDA"/>
	<stop  offset="1" style="stop-color:#73D4DE"/>
</linearGradient>
<path style="fill:url(#SVGID_1_);" d="M499.6,250c0,5.3-0.2,10.6-0.5,15.8c-1,15.6-3.4,30.8-7.1,45.5c-0.1,0-0.3,0-0.4,0
	c-0.3,1.4-0.7,2.7-1.1,4.1c-0.3,1-0.5,2-0.8,3c-0.3,1-0.6,2-0.9,3c-0.3,1-0.6,2.1-0.9,3.1c-0.3,0.9-0.6,1.8-0.9,2.8
	c-0.3,0.8-0.5,1.6-0.8,2.4c-0.7,2.1-1.5,4.2-2.2,6.3c-0.4,1-0.7,1.9-1.1,2.9c-0.4,1-0.7,1.9-1.1,2.8c-0.4,1-0.8,1.9-1.1,2.8
	c-0.4,1.1-0.9,2.2-1.4,3.3c-0.3,0.8-0.7,1.6-1,2.3c-3.3,7.6-7,15-11,22.1c-0.4,0.7-0.8,1.5-1.3,2.2c-1.5,2.6-3.1,5.2-4.7,7.8
	c-0.5,0.9-1.1,1.7-1.6,2.5c-1.6,2.5-3.3,5-5,7.5c-0.5,0.7-1,1.5-1.5,2.2c-0.7,0.9-1.3,1.8-2,2.7H178.2c-6.9,0-12.6,5.7-12.6,12.6
	c0,3.5,1.4,6.6,3.7,8.9c2.3,2.3,5.4,3.7,8.9,3.7h43c6.6,0,12,4.8,12,10.6c0,5.8,5.4,10.6,12,10.6h116c6.9,0,12.6,5.7,12.6,12.6v1
	c0,6.9-5.7,12.6-12.6,12.6h-26.5c-6.9,0-12.6,5.7-12.6,12.6v6.8c-0.9,0.3-1.9,0.6-2.8,0.8c-1.1,0.3-2.2,0.6-3.3,0.9
	c-2.4,0.7-4.8,1.3-7.1,1.9c-1,0.2-1.9,0.5-2.9,0.7c-0.1,0-0.2,0-0.2,0.1c-0.9,0.2-1.8,0.4-2.7,0.6c-6.1,1.3-12.4,2.5-18.7,3.3
	c-1,0.1-2.1,0.3-3.1,0.4c-0.9,0.1-1.7,0.2-2.6,0.3c-1.3,0.2-2.7,0.3-4,0.4c-0.9,0.1-1.8,0.2-2.7,0.3c-1.4,0.1-2.7,0.2-4.1,0.3
	c-0.8,0.1-1.6,0.1-2.4,0.2c-1.1,0.1-2.1,0.1-3.2,0.2c-0.7,0-1.5,0.1-2.2,0.1c-1.2,0.1-2.4,0.1-3.6,0.1c-0.4,0-0.8,0-1.2,0
	c-0.8,0-1.5,0-2.3,0c-0.9,0-1.9,0-2.8,0c-1.1,0-2.2,0-3.2,0C110.2,498.3,0,387,0,250c0-21.7,2.8-42.7,7.9-62.7h118
	c6.9,0,12.6-5.7,12.6-12.6V158c0-6.9-5.7-12.6-12.6-12.6H99.4c-6.9,0-12.6-5.7-12.6-12.6v-1c0-6.9,5.7-12.6,12.6-12.6h116
	c6.6,0,12-4.8,12-10.6c0-5.8,5.4-10.6,12-10.6h43c1.8,0,3.4-0.4,5-1c1.5-0.6,2.8-1.6,3.9-2.7c2.3-2.3,3.7-5.4,3.7-8.9
	c0-2.3-0.6-4.4-1.7-6.3c-2.2-3.8-6.3-6.3-10.9-6.3H73.7C118.2,28.5,179.2,0.9,246.8,0c1.1,0,2.1,0,3.2,0c0.3,0,0.6,0,0.9,0
	c0.4,0,0.9,0,1.3,0c0.6,0,1.2,0,1.8,0c1,0,1.9,0,2.9,0.1c4.2,0.1,8.4,0.3,12.5,0.6c0.3,0,0.6,0,0.9,0.1c19.3,1.5,37.9,5.3,55.6,10.9
	c1.9,0.6,3.8,1.2,5.7,1.9c0.6,0.2,1.1,0.4,1.7,0.6c5.2,1.8,10.3,3.8,15.4,6c0.3,0.1,0.5,0.2,0.8,0.3c12.3,5.4,24.2,11.7,35.4,18.9
	c1.9,1.2,3.8,2.5,5.7,3.8c19.6,13.3,37.1,29.4,52.2,47.5c3.9,4.7,7.6,9.6,11.2,14.6c11.3,15.8,20.7,33,28,51.3
	c0.4,1.1,0.9,2.2,1.3,3.3c1.5,3.8,2.9,7.7,4.2,11.7c0.1,0.3,0.2,0.5,0.3,0.8c4.1,12.5,7.2,25.4,9.2,38.6c-0.1,0.3-0.2,0.5-0.3,0.8
	c0.4,2.3,0.7,4.6,1,6.9c0.2,1.8,0.4,3.5,0.6,5.3c0.6,5.4,0.9,10.9,1.2,16.4c0.1,2.6,0.2,5.2,0.2,7.8
	C499.6,248.8,499.6,249.4,499.6,250z"/>
</svg>
