<?xml version="1.0" encoding="utf-8"?>
<!-- Generator: Adobe Illustrator 22.0.1, SVG Export Plug-In . SVG Version: 6.00 Build 0)  -->
<!DOCTYPE svg PUBLIC "-//W3C//DTD SVG 1.1//EN" "http://www.w3.org/Graphics/SVG/1.1/DTD/svg11.dtd">
<svg version="1.1" id="Layer_1" xmlns="http://www.w3.org/2000/svg" xmlns:xlink="http://www.w3.org/1999/xlink" x="0px" y="0px"
	 viewBox="0 0 500 500" style="enable-background:new 0 0 500 500;" xml:space="preserve">
<path style="fill:#FFFFFF;" d="M500,250c0,138.1-111.9,250-250,250c-25.3,0-49.7-3.8-72.7-10.7v-6.8c0-6.9-5.7-12.6-12.6-12.6h-26.5
	c-6.9,0-12.6-5.7-12.6-12.6v-1c0-6.9,5.7-12.6,12.6-12.6h116c6.6,0,12-4.8,12-10.6c0-5.8,5.4-10.6,12-10.6h43c3.5,0,6.6-1.4,8.9-3.7
	c2.3-2.3,3.7-5.4,3.7-8.9c0-6.9-5.7-12.6-12.6-12.6H47.9C17.8,355.9,0,305,0,250C0,111.9,111.9,0,250,0
	c68.8,0,131.2,27.8,176.3,72.8H217c-6.9,0-12.6,5.7-12.6,12.6c0,3.5,1.4,6.6,3.7,8.9c2.3,2.3,5.4,3.7,8.9,3.7h43
	c6.6,0,12,4.8,12,10.6c0,5.8,5.4,10.6,12,10.6h116c6.9,0,12.6,5.7,12.6,12.6v1c0,6.9-5.7,12.6-12.6,12.6h-26.5
	c-6.9,0-12.6,5.7-12.6,12.6v16.7c0,6.9,5.7,12.6,12.6,12.6h118.8C497.3,207.3,500,228.3,500,250z"/>
</svg>
