<?xml version="1.0" encoding="utf-8"?>
<!-- Generator: Adobe Illustrator 22.0.1, SVG Export Plug-In . SVG Version: 6.00 Build 0)  -->
<!DOCTYPE svg PUBLIC "-//W3C//DTD SVG 1.1//EN" "http://www.w3.org/Graphics/SVG/1.1/DTD/svg11.dtd">
<svg version="1.1" id="Layer_1" xmlns="http://www.w3.org/2000/svg" xmlns:xlink="http://www.w3.org/1999/xlink" x="0px" y="0px"
	 viewBox="0 0 541.5 500" style="enable-background:new 0 0 541.5 500;" xml:space="preserve">
<linearGradient id="SVGID_1_" gradientUnits="userSpaceOnUse" x1="-1.3396" y1="251.3396" x2="498.6604" y2="251.3396">
	<stop  offset="0" style="stop-color:#1B4A91"/>
	<stop  offset="0.186" style="stop-color:#326EA5"/>
	<stop  offset="0.4425" style="stop-color:#4E9ABE"/>
	<stop  offset="0.6729" style="stop-color:#62BACF"/>
	<stop  offset="0.8666" style="stop-color:#6FCDDA"/>
	<stop  offset="1" style="stop-color:#73D4DE"/>
</linearGradient>
<path style="fill:url(#SVGID_1_);" d="M459.1,116.3c6.3-8.1,9.4-20.6,9.4-37.6c0-17-3.2-29.6-9.5-37.6C452.7,33,443,29,429.8,29
	c-13,0-22.6,4-29,12.1c-1.9,2.4-3.5,5.1-4.8,8.3c-41.3-30.2-92.3-48-147.4-48c-3.4,0-6.8,0.1-10.1,0.2c-3.1,0.1-6.1,0.3-9.1,0.5
	c-4.6,0.3-9.1,0.8-13.6,1.4c-0.7,0.1-1.4,0.2-2.1,0.3c-7.3,1-14.5,2.3-21.5,4c-1,0.2-2,0.5-3,0.7c-1,0.2-2,0.5-3,0.8s-2,0.5-3,0.8
	c-3.2,0.9-6.4,1.8-9.6,2.8c-0.7,0.2-1.5,0.5-2.2,0.7c-1.2,0.4-2.4,0.8-3.6,1.2l-2.3,0.8c-1.9,0.7-3.8,1.4-5.8,2.1
	c-0.9,0.4-1.9,0.7-2.8,1.1s-1.9,0.8-2.8,1.1c-1.9,0.8-3.8,1.6-5.6,2.4c-0.9,0.4-1.9,0.8-2.8,1.2c-1.9,0.9-3.8,1.7-5.6,2.6
	c-0.9,0.4-1.7,0.8-2.6,1.3c-8,4-15.8,8.4-23.3,13.2c-0.8,0.5-1.7,1.1-2.5,1.6c-0.8,0.6-1.7,1.1-2.5,1.7c-0.8,0.6-1.7,1.1-2.5,1.7
	c-1.3,0.9-2.6,1.8-3.8,2.7c-0.5,0.4-1,0.7-1.5,1.1c-1.6,1.2-3.2,2.4-4.8,3.6c-0.8,0.6-1.6,1.2-2.4,1.8c-1.4,1.1-2.9,2.3-4.3,3.4
	c-0.5,0.4-1.1,0.9-1.6,1.3c-3.3,2.8-6.5,5.6-9.6,8.5c-0.6,0.6-1.2,1.1-1.8,1.7c-1.6,1.5-3.1,3-4.7,4.5h209.4
	c6.9,0,12.6,5.7,12.6,12.6c0,3.5-1.4,6.6-3.7,8.9c-2.3,2.3-5.4,3.7-8.9,3.7h-43c-6.6,0-12,4.8-12,10.6c0,5.8-5.4,10.6-12,10.6h-116
	c-6.9,0-12.6,5.7-12.6,12.6v1c0,6.9,5.7,12.6,12.6,12.6h26.5c6.9,0,12.6,5.7,12.6,12.6v16.7c0,6.9-5.7,12.6-12.6,12.6H6.6
	c-0.4,1.5-0.7,2.9-1.1,4.4c-0.3,1-0.5,2.1-0.7,3.1c-0.3,1.1-0.5,2.2-0.7,3.3c-0.3,1.5-0.6,3-0.9,4.5c-0.4,2.3-0.8,4.7-1.2,7
	c-0.1,0.5-0.2,1.1-0.3,1.6c-0.1,0.4-0.1,0.9-0.2,1.3c-0.1,0.8-0.2,1.6-0.4,2.5c-0.5,3.3-0.9,6.6-1.2,9.9c-0.1,0.6-0.1,1.2-0.2,1.8
	c-0.1,1-0.2,2-0.3,3c0,0.1,0,0.1,0,0.2c-0.1,1-0.2,2-0.2,2.9c-0.1,1.9-0.2,3.8-0.3,5.6c0,1.1-0.1,2.2-0.1,3.2c0,0.1,0,0.2,0,0.3
	c0,1-0.1,2-0.1,3c0,0.4,0,0.9,0,1.3c0,1.2,0,2.4,0,3.6c0,138.1,111.9,250,250,250c1.1,0,2.3,0,3.4,0c0.8,0,1.7,0,2.5,0
	c0.4,0,0.8,0,1.2,0c1.2,0,2.4-0.1,3.6-0.1c0.7,0,1.5-0.1,2.2-0.1c1.1,0,2.1-0.1,3.2-0.2c0.8,0,1.6-0.1,2.4-0.2
	c1.4-0.1,2.7-0.2,4.1-0.3c0.9-0.1,1.8-0.2,2.7-0.3c1.3-0.1,2.7-0.3,4-0.4c0.9-0.1,1.7-0.2,2.6-0.3c1-0.1,2.1-0.3,3.1-0.4
	c6.3-0.9,12.5-2,18.7-3.3c0.9-0.2,1.8-0.4,2.7-0.6c0.1,0,0.1,0,0.2-0.1c1-0.2,2-0.5,2.9-0.7c2.4-0.6,4.8-1.2,7.1-1.9
	c1.1-0.3,2.2-0.6,3.3-0.9c0.9-0.3,1.9-0.5,2.8-0.8v-6.8c0-6.9,5.7-12.6,12.6-12.6h26.5c6.9,0,12.6-5.7,12.6-12.6v-1
	c0-6.9-5.7-12.6-12.6-12.6h-116c-6.6,0-12-4.8-12-10.6c0-5.8-5.4-10.6-12-10.6h-43c-3.5,0-6.6-1.4-8.9-3.7c-2.3-2.3-3.7-5.4-3.7-8.9
	c0-6.9,5.7-12.6,12.6-12.6h273.2c0.7-0.9,1.3-1.8,2-2.7c0.5-0.7,1-1.5,1.5-2.2c1.7-2.5,3.4-5,5-7.5c0.5-0.8,1.1-1.7,1.6-2.5
	c1.6-2.6,3.1-5.1,4.7-7.8c0.4-0.7,0.8-1.5,1.3-2.2c4-7.2,7.7-14.5,11-22.1c0.3-0.8,0.7-1.6,1-2.3c0.5-1.1,0.9-2.2,1.4-3.3
	c0.4-0.9,0.8-1.9,1.1-2.8c0.4-0.9,0.7-1.9,1.1-2.8c0.4-1,0.7-1.9,1.1-2.9c0.8-2.1,1.5-4.2,2.2-6.3c0.3-0.8,0.5-1.6,0.8-2.4
	c0.3-0.9,0.6-1.8,0.9-2.8c0.3-1,0.6-2.1,0.9-3.1c0.3-1,0.6-2,0.9-3c0.3-1,0.5-2,0.8-3c0.8-3.1,1.6-6.2,2.3-9.3
	c0.2-0.9,0.4-1.8,0.6-2.7c0.2-0.9,0.4-1.8,0.6-2.7c0.4-2,0.8-3.9,1.1-5.9c0.1-0.7,0.2-1.3,0.4-2c0.1-0.6,0.2-1.3,0.3-1.9
	c0.1-0.7,0.2-1.4,0.3-2.1c0.1-0.4,0.1-0.8,0.2-1.3c0.3-1.9,0.5-3.8,0.8-5.6c0.1-0.7,0.2-1.4,0.3-2.1c0.1-0.6,0.1-1.2,0.2-1.8
	c0.2-2.1,0.4-4.2,0.6-6.3c0.1-0.8,0.1-1.5,0.2-2.3c0-0.2,0-0.3,0-0.4c0.1-1,0.1-2,0.2-3c0.1-1.8,0.2-3.5,0.3-5.3c0-0.2,0-0.4,0-0.5
	c0-0.9,0.1-1.7,0.1-2.6c0-0.6,0-1.3,0-1.9c0-0.8,0-1.7,0-2.5v-0.1c0-1.1,0-2.1,0-3.2C498.7,201.6,484.1,155.2,459.1,116.3z
	 M420.5,57.5c1.8-4.1,4.9-6.2,9.3-6.2c4.4,0,7.6,2.1,9.4,6.2c1.8,4.2,2.7,11.2,2.7,21.2c0,5.1-0.2,9.5-0.7,13c-0.4,3.3-1.1,6-2,8
	c-1.8,4.2-4.9,6.2-9.4,6.2c-4.4,0-7.6-2.1-9.3-6.2c-1.8-4.2-2.7-11.2-2.7-21c0-4.2,0.2-7.9,0.5-11.1
	C418.7,63.3,419.4,59.9,420.5,57.5z"/>
<g>
	<linearGradient id="SVGID_2_" gradientUnits="userSpaceOnUse" x1="540.1116" y1="78.2171" x2="477.4719" y2="78.2171">
		<stop  offset="0" style="stop-color:#66CCCC;stop-opacity:0.1"/>
		<stop  offset="0.1369" style="stop-color:#6DD0D5;stop-opacity:0.2233"/>
		<stop  offset="0.3653" style="stop-color:#72D3DC;stop-opacity:0.4288"/>
		<stop  offset="1" style="stop-color:#73D4DE"/>
	</linearGradient>
	<path style="fill:url(#SVGID_2_);" d="M477.5,105L493,90c5.9-6.1,10.2-10.8,12.9-14c2.7-3.2,4.5-5.9,5.3-7.9c0.8-2,1.2-4.3,1.2-6.8
		c0-6.1-2.9-9.1-8.7-9.1c-6.5,0-13.6,0.4-21.3,1.3l-3.3,0.1l-1-19.6c9.3-3.1,19.3-4.6,30-4.6c10.3,0,18.1,2.4,23.3,7.3
		c5.2,4.8,7.8,11.9,7.8,21.3c0,5-0.7,9.5-2,13.3c-1.3,3.9-3.6,7.7-6.7,11.6c-3.2,3.9-7.7,8.5-13.6,13.8l-10.9,7.8h34.2V127h-62.6
		V105z"/>
</g>
</svg>
