<?xml version="1.0" encoding="utf-8"?>
<!-- Generator: Adobe Illustrator 22.0.1, SVG Export Plug-In . SVG Version: 6.00 Build 0)  -->
<!DOCTYPE svg PUBLIC "-//W3C//DTD SVG 1.1//EN" "http://www.w3.org/Graphics/SVG/1.1/DTD/svg11.dtd">
<svg version="1.1" id="Layer_1" xmlns="http://www.w3.org/2000/svg" xmlns:xlink="http://www.w3.org/1999/xlink" x="0px" y="0px"
	 viewBox="0 0 100 100" style="enable-background:new 0 0 100 100;" xml:space="preserve">
<path style="fill:#FFFFFF;" d="M82.6,10.6H65V3.9c0-1.8-1.4-3.2-3.2-3.2H38.2c-1.8,0-3.2,1.4-3.2,3.2v6.7H17.4
	c-1.8,0-3.2,1.4-3.2,3.2v9.9c0,1.8,1.4,3.2,3.2,3.2h65.3c1.8,0,3.2-1.4,3.2-3.2v-9.9C85.9,12,84.4,10.6,82.6,10.6z M58.6,10.6H41.4
	V7.1h17.1V10.6z"/>
<path style="fill:#FFFFFF;" d="M18.6,33.3l2.7,62.9c0.1,1.7,1.5,3.1,3.2,3.1h51c1.7,0,3.1-1.4,3.2-3.1l2.7-62.9H18.6z M40.3,86.3
	c0,1.8-1.4,3.2-3.2,3.2s-3.2-1.4-3.2-3.2V46.4c0-1.8,1.4-3.2,3.2-3.2s3.2,1.4,3.2,3.2V86.3z M53.2,86.3c0,1.8-1.4,3.2-3.2,3.2
	s-3.2-1.4-3.2-3.2V46.4c0-1.8,1.4-3.2,3.2-3.2s3.2,1.4,3.2,3.2V86.3z M66.2,86.3c0,1.8-1.4,3.2-3.2,3.2s-3.2-1.4-3.2-3.2V46.4
	c0-1.8,1.4-3.2,3.2-3.2s3.2,1.4,3.2,3.2V86.3z"/>
</svg>
