<?xml version="1.0" encoding="utf-8"?>
<!-- Generator: Adobe Illustrator 22.0.1, SVG Export Plug-In . SVG Version: 6.00 Build 0)  -->
<!DOCTYPE svg PUBLIC "-//W3C//DTD SVG 1.1//EN" "http://www.w3.org/Graphics/SVG/1.1/DTD/svg11.dtd">
<svg version="1.1" id="Layer_1" xmlns="http://www.w3.org/2000/svg" xmlns:xlink="http://www.w3.org/1999/xlink" x="0px" y="0px"
	 viewBox="0 0 287.5 354.4" style="enable-background:new 0 0 287.5 354.4;" xml:space="preserve">
<g>
	<path style="fill:#BF2227;" d="M224,30.4h-66.7V0H66.7v30.4H0v48h224V30.4z M90.7,24h42.6v6.4H90.7V24z M90.7,24"/>
	<path style="fill:#BF2227;" d="M202.7,171.4l4.5-69.1H16.8l15.2,232h91.3c-11.9-16.9-18.9-37.4-18.9-59.5
		C104.5,219.5,148.1,174.2,202.7,171.4L202.7,171.4z M202.7,171.4"/>
	<path style="fill:#BF2227;" d="M208,195.3c-43.9,0-79.5,35.7-79.5,79.5c0,43.9,35.7,79.5,79.5,79.5s79.5-35.7,79.5-79.5
		C287.5,231,251.9,195.3,208,195.3L208,195.3z M251.3,301.2l-17,17L208,291.8l-26.4,26.4l-17-17l26.4-26.4l-26.4-26.4l17-17
		l26.4,26.4l26.4-26.4l17,17L225,274.9L251.3,301.2z M251.3,301.2"/>
</g>
</svg>
