<?xml version="1.0" encoding="utf-8"?>
<!-- Generator: Adobe Illustrator 22.0.1, SVG Export Plug-In . SVG Version: 6.00 Build 0)  -->
<!DOCTYPE svg PUBLIC "-//W3C//DTD SVG 1.1//EN" "http://www.w3.org/Graphics/SVG/1.1/DTD/svg11.dtd">
<svg version="1.1" id="Layer_1" xmlns="http://www.w3.org/2000/svg" xmlns:xlink="http://www.w3.org/1999/xlink" x="0px" y="0px"
	 viewBox="0 0 568.8 323.6" style="enable-background:new 0 0 568.8 323.6;" xml:space="preserve">
<g>
	<g>
		<g>
			<g>
				<g>
					<path style="fill:#FFE5C2;" d="M242.8,66.3c-4.1-0.9-6.5,1.6-6.5,1.6c1.1-12.4-7.8-31.9-23.9-39.3c-6.8-3.2-15.8-4.2-25.1-3.6
						c-9.2-0.6-18.3,0.4-25.1,3.6c-16,7.5-25,26.9-23.9,39.3c0,0-2.4-2.6-6.5-1.6c-4.1,0.9-6.2,5.4-3.4,11c2.8,5.6,8.8,4.3,10.8,2.1
						c0,0,2.8,18.3,16.6,22.6c12.4,3.9,20.1,6.7,24.8,8c0,0,0,0.6-0.1,1.5c0,0-1.1,2.5-3.7,4.5c-2.6,1.9,10.4,12.6,10.4,12.6
						s13-10.7,10.4-12.6c-2.6-1.9-3.7-4.5-3.7-4.5h0c-0.1-0.9-0.1-1.5-0.1-1.5c4.7-1.3,12.4-4.1,24.8-8
						c13.8-4.3,16.6-22.6,16.6-22.6c2.1,2.2,8,3.5,10.8-2.1C249,71.7,246.9,67.2,242.8,66.3z"/>
					<g>
						<g>
							<g>
								<path style="fill:#E9C18A;" d="M237.5,72.2c1.2-0.9,2.5-1.6,3.9-1.6c0.2-0.1,0.3-0.1,0.5,0c1.2,0.1,2.3,0.6,3.1,1.8
									c0.5,0.7-0.6,1.3-1.1,0.6c-0.5-0.6-1.1-1-1.7-1.1c0.1,2.3-0.8,4.6-2.8,5.8c-0.7,0.4-1.3-0.7-0.6-1.1c1.3-0.8,1.9-2,2.1-3.4
									c0.1-0.3,0.1-0.9,0.1-1.3c-0.9,0.2-1.9,0.7-2.6,1.2C237.8,73.6,236.9,72.7,237.5,72.2z"/>
								<path style="fill:#E9C18A;" d="M137.1,72.2c-1.2-0.9-2.5-1.6-3.9-1.6c-0.2-0.1-0.3-0.1-0.5,0c-1.2,0.1-2.3,0.6-3.1,1.8
									c-0.5,0.7,0.6,1.3,1.1,0.6c0.5-0.6,1.1-1,1.7-1.1c-0.1,2.3,0.8,4.6,2.8,5.8c0.7,0.4,1.3-0.7,0.6-1.1c-1.3-0.8-1.9-2-2.1-3.4
									c-0.1-0.3-0.1-0.9-0.1-1.3c0.9,0.2,1.9,0.7,2.6,1.2C136.8,73.6,137.7,72.7,137.1,72.2z"/>
							</g>
							<g>
								<g>
									<g>
										<path style="fill:#FFFFFF;" d="M155.5,72.1c0,4,3.5,7.2,7.7,7.2c4.3,0,7.7-3.2,7.7-7.2c0-4-3.5-7.2-7.7-7.2
											C159,64.9,155.5,68.1,155.5,72.1z"/>
										<g>
											<path style="fill:#3D3D3C;" d="M157.5,71.8c0,3,2.6,5.4,5.8,5.4c3.2,0,5.8-2.4,5.8-5.4c0-3-2.6-5.4-5.8-5.4
												C160.1,66.5,157.5,68.9,157.5,71.8z"/>
											<path style="fill:#FFFFFF;" d="M158.5,69.1c0,0.9,0.8,1.7,1.8,1.7c1,0,1.8-0.8,1.8-1.7c0-0.9-0.8-1.7-1.8-1.7
												C159.4,67.4,158.5,68.1,158.5,69.1z"/>
										</g>
									</g>
								</g>
								<path style="fill:#333231;" d="M171.1,56.7c0,0-10.6-2.1-15,0.7c-3,1.9-2.3,3.1-2.7,3.3c0,0,5.2-1.5,7.7-1.5
									c2.4,0,7.7,0.7,9.1,0.5C171.5,59.5,171.6,57.3,171.1,56.7z"/>
							</g>
							<g>
								<path style="fill:#333231;" d="M204.7,57.3c0,0,10.6-2.1,15,0.7c3,1.9,2.3,3.1,2.7,3.3c0,0-5.2-1.5-7.7-1.5
									c-2.4,0-7.7,0.7-9.1,0.5C204.3,60.1,204.2,57.9,204.7,57.3z"/>
								<g>
									<g>
										<path style="fill:#FFFFFF;" d="M219.7,72.1c0,4-3.5,7.2-7.7,7.2c-4.3,0-7.7-3.2-7.7-7.2c0-4,3.5-7.2,7.7-7.2
											C216.3,64.9,219.7,68.1,219.7,72.1z"/>
										<g>
											<path style="fill:#3D3D3C;" d="M217.8,71.8c0,3-2.6,5.4-5.8,5.4c-3.2,0-5.8-2.4-5.8-5.4c0-3,2.6-5.4,5.8-5.4
												C215.2,66.5,217.8,68.9,217.8,71.8z"/>
											<path style="fill:#FFFFFF;" d="M216.7,69.1c0,0.9-0.8,1.7-1.8,1.7c-1,0-1.8-0.8-1.8-1.7c0-0.9,0.8-1.7,1.8-1.7
												C215.9,67.4,216.7,68.1,216.7,69.1z"/>
										</g>
									</g>
								</g>
							</g>
							<g>
								<path style="fill:#E9C08D;" d="M181.4,87.4c0,1.6,2.7,2.9,6.1,2.9c3.4,0,6.1-1.3,6.1-2.9c0-1.6-2.7-2.9-6.1-2.9
									C184.1,84.5,181.4,85.8,181.4,87.4z"/>
							</g>
							<g>
								<g>
									<path style="fill:#E9C08D;" d="M171.2,95.6c9.8,5.3,22.6,5.3,32.4,0.4c1-0.5,0.3-2-0.6-1.6c-9.5,4.8-21.7,4.8-31.2-0.3
										C170.9,93.6,170.2,95.1,171.2,95.6L171.2,95.6z"/>
								</g>
								<path style="fill:#E9C08D;" d="M201.8,92.9c0,0,2.9,2.2,1.9,5.9C203.7,98.8,207.2,94.3,201.8,92.9z"/>
								<path style="fill:#E9C08D;" d="M174,92.2c0,0-3.3,1.7-2.9,5.5C171.1,97.7,168.5,92.7,174,92.2z"/>
							</g>
						</g>
						<path style="fill:#2D2C2B;" d="M237.3,68c0,0,7.2-34.3-3.2-36.7c0,0,3.5-7.2-2-12.8c-4.7-4.8-6-9.8-6-9.8s-0.4,2.4,0,5.4
							c0,0-6.4-6.6-12.4-8.3c0,0,4,3.9,3.2,5.7c0,0-4.1-7.9-17.2-9.5c0,0,5.2,3.3,4.8,4.8c0,0-3.2-3.7-9-4.8c0,0,1.9,1.5,1.8,2.1
							c0,0-4.2-1.7-7.9-2.5c0,0,2.6,1.5,2,1.6c-0.4,0.1-6.8-0.5-7.6-2.6c0,0-0.4,1.4,0.8,2.1c0,0-5.3-0.4-6.8-1.8c0,0,0.2,1.3,1.9,2
							c0,0-6.6-1.1-9.3-2.7c0,0,2.2,2,4.2,2.8c0,0-8.7,0.7-11.9-0.3c0,0,1.3,1.9,3.1,2c0,0-2.5,0.4-3.7-0.2c0,0,2,2.6,0.8,3
							c-1.5,0.4-2.3-0.9-2.2-1.6c0,0-1.1,1.8-2.5,1.6c-1.5-0.2,0.2-2.7,0.2-2.7s-6.2,1.2-9.7,5.2c-3.5,3.9-7.2,12.4-7.2,12.4
							s-6,12.9-5.9,19.8c0.3,15.4,2,29.7,4.3,33.1c0,0,1-13.4,7.5-16.7c1.5-0.8-1.9-10.1,2.8-16.8c5.8-8.3,11-7.3,23.9-4.1
							c17.4,4.3,32.5-3.9,37.6-3.5c20.4,1.6,14.9,22.2,17.3,25.2c5.3,6.8,4.7,11.4,8,15.8L237.3,68z"/>
					</g>
				</g>
				<g>
					<g>
						<g>
							<g>
								<path style="fill:#B2CAE7;" d="M248,234.6c0,0-1.6-35.2-1.6-47.7c0-14.7-8.6-52.6-11.9-58.5c-3.3-5.8-29.1-9.9-29.1-9.9
									c-3.6,5.2-14.5,6.1-18.4,6.2c-3.9-0.1-14.5-1.2-18.1-6.4c0,0-26.1,4.2-29.5,10.1c-1.2,2.1-11.9,47.5-11.9,58.5
									c0,12.6-1.6,47.7-1.6,47.7h18.8c0,0-1-42.1,1.8-53.2c2.8-11.1,4.4-24.3,4.4-24.3s-0.5,45.9-1.3,68.2c0,0,7.7,5.6,35.9,6.1
									c0,0,1,0,1.4,0c0.5,0,1.4,0,1.4,0c28.2-0.5,36.3-5,36.3-5c-0.2-30.9-1.8-69.4-1.8-69.4s1.6,13.2,4.4,24.3
									c2.8,11.1,1.8,53.2,1.8,53.2H248z"/>
								<g>
									<polygon style="fill:#0E1133;" points="175.1,114.4 187.4,124.6 178.5,136.6 164.5,119.1 									"/>
									<polygon style="fill:#0E1133;" points="199.8,114.4 187.1,124.6 196,136.6 209.4,119.2 									"/>
								</g>
								<path style="fill:#80A5CD;" d="M223,157c0,0-1.6-20.8,9.1-27.1c0,0-14.2,6.2-9.3,29.6L223,157z"/>
								<path style="fill:#80A5CD;" d="M151,157.2c0,0,1.6-20.8-9.1-27.1c0,0,14.2,6.2,9.3,29.6L151,157.2z"/>
							</g>
							<g>
								<path style="fill:#197BBF;" d="M194.8,192.2l-5.4-58.8h-2.1H187h-2.1l-5.4,58.8c0,0,0,4.6,7.4,8.3c0,0,0.1,0.1,0.2,0.1
									c0.1,0,0.2-0.1,0.2-0.1C194.7,196.7,194.8,192.2,194.8,192.2z"/>
								<polygon style="fill:#0F6899;" points="187.3,124.8 187.3,124.7 187.2,124.8 183.3,130.2 184.7,133.5 189.6,133.5 
									191.1,130 								"/>
							</g>
						</g>
						<g>
							<path style="fill:#DCDDE7;" d="M234.2,127.5c0,0-3.8-4.8-24.9-8.4c0,0-2.9,3.9-8.2,8.9c-4.9,4.6-13,8.9-14.3,9.3
								c-1.3-0.4-9.4-4.7-14.3-9.3c-5.3-5-8.2-8.9-8.2-8.9c-21.1,3.6-24.9,8.4-24.9,8.4c-17.9,31-13.6,107.1-13.6,107.1h18.8
								c-0.6-46.4,5.6-67.6,5.6-67.6c-1.7,28.7-1.8,66.6-1.8,66.6h38.1h0.4h39.5c0,0-1.5-37.9-3.2-66.6c0,0,6.3,21.2,5.6,67.6h18.8
								C247.9,234.6,252.1,158.5,234.2,127.5z"/>
							<path style="fill:#DCDDE7;" d="M148.6,233.5h38.1h0.4h39.5c0,0-0.1-2.6-0.3-6.8h-77.7C148.7,231,148.6,233.5,148.6,233.5z"/>
						</g>
					</g>
				</g>
			</g>
		</g>
		<g>
			<polygon style="fill:#110F0F;" points="38.4,294.5 161.2,294.5 423.1,290 498,276.8 509.4,290.2 527.7,262.7 479.1,213.2 
				329.7,218.8 199.8,230.4 83.8,218.8 31.8,238.8 			"/>
			<circle style="fill:#0B1829;" cx="89" cy="280.7" r="42.8"/>
			<path style="fill:#DCDDE7;" d="M89,247.3c-18.5,0-33.4,15-33.4,33.4c0,18.5,15,33.4,33.4,33.4c18.5,0,33.4-15,33.4-33.4
				C122.5,262.3,107.5,247.3,89,247.3z M58.4,280.7c0-1.8,0.2-3.6,0.5-5.4l17.6,4.4l-18.1,1.6C58.4,281.1,58.4,280.9,58.4,280.7z
				 M91.1,267.7v-17.5c1.9,0.1,3.7,0.4,5.4,0.8L91.1,267.7z M100.5,252.3c1.9,0.8,3.7,1.7,5.3,2.8l-10.9,14.5L100.5,252.3z
				 M87,268.4L81,251.2c1.9-0.5,3.9-0.8,5.9-1V268.4z M83.1,269.7l-11.2-14.3c1.7-1.1,3.4-2.1,5.3-2.9L83.1,269.7z M59.9,271.3
				c0.6-1.9,1.4-3.8,2.4-5.5l15.3,9.9L59.9,271.3z M76.9,283.9l-16.6,7.4c-0.7-1.9-1.2-3.8-1.5-5.8L76.9,283.9z M78.6,287.7
				l-13.3,12.4c-1.3-1.5-2.4-3.2-3.3-5L78.6,287.7z M81.4,290.7l-8.5,16.1c-1.7-1.1-3.3-2.3-4.8-3.7L81.4,290.7z M85.1,292.6
				l-2.8,18c-2-0.5-3.9-1.1-5.7-1.9L85.1,292.6z M96.9,290.6l13.5,12.2c-1.4,1.4-3,2.6-4.7,3.7L96.9,290.6z M102.1,308.5
				c-1.8,0.8-3.7,1.5-5.7,2l-3.2-17.9L102.1,308.5z M99.6,287.5l16.7,7.1c-0.9,1.8-2,3.5-3.2,5.1L99.6,287.5z M101.2,283.7l18.1,1.3
				c-0.3,2-0.7,4-1.4,5.8L101.2,283.7z M101.5,279.5l17.6-4.7c0.4,1.9,0.6,3.9,0.6,5.9c0,0,0,0,0,0.1L101.5,279.5z M100.5,275.5
				l15.1-10.2c1,1.7,1.8,3.5,2.5,5.5L100.5,275.5z M113.2,261.9l-15.1,10.2l10.9-14.5C110.6,258.9,112,260.4,113.2,261.9z
				 M68.6,257.9l11.2,14.3l-15.3-9.9C65.7,260.7,67.1,259.3,68.6,257.9z M86.3,311.3l2.8-18l3.2,17.9c-1.1,0.1-2.2,0.2-3.3,0.2
				C88.1,311.4,87.2,311.3,86.3,311.3z"/>
			<path style="fill:#729AB2;" d="M94.8,280.7c0,3.2-2.6,5.8-5.8,5.8c-3.2,0-5.8-2.6-5.8-5.8c0-3.2,2.6-5.8,5.8-5.8
				C92.2,275,94.8,277.6,94.8,280.7z"/>
			<circle style="fill:#0B1829;" cx="455.2" cy="280.7" r="42.8"/>
			<path style="fill:#DCDDE7;" d="M455.2,247.3c-18.5,0-33.4,15-33.4,33.4c0,18.5,15,33.4,33.4,33.4c18.5,0,33.4-15,33.4-33.4
				C488.6,262.3,473.6,247.3,455.2,247.3z M424.5,280.7c0-1.8,0.2-3.6,0.5-5.4l17.6,4.4l-18.1,1.6
				C424.6,281.1,424.5,280.9,424.5,280.7z M457.3,267.7v-17.5c1.9,0.1,3.7,0.4,5.4,0.8L457.3,267.7z M466.6,252.3
				c1.9,0.8,3.7,1.7,5.3,2.8L461,269.6L466.6,252.3z M453.1,268.4l-5.9-17.2c1.9-0.5,3.9-0.8,5.9-1V268.4z M449.2,269.7L438,255.4
				c1.7-1.1,3.4-2.1,5.3-2.9L449.2,269.7z M426,271.3c0.6-1.9,1.4-3.8,2.4-5.5l15.3,9.9L426,271.3z M443,283.9l-16.6,7.4
				c-0.7-1.9-1.2-3.8-1.5-5.8L443,283.9z M444.7,287.7l-13.3,12.4c-1.3-1.5-2.4-3.2-3.3-5L444.7,287.7z M447.5,290.7l-8.5,16.1
				c-1.7-1.1-3.3-2.3-4.8-3.7L447.5,290.7z M451.2,292.6l-2.8,18c-2-0.5-3.9-1.1-5.7-1.9L451.2,292.6z M463,290.6l13.5,12.2
				c-1.4,1.4-3,2.6-4.7,3.7L463,290.6z M468.2,308.5c-1.8,0.8-3.7,1.5-5.7,2l-3.2-17.9L468.2,308.5z M465.8,287.5l16.7,7.1
				c-0.9,1.8-2,3.5-3.2,5.1L465.8,287.5z M467.4,283.7l18.1,1.3c-0.3,2-0.7,4-1.4,5.8L467.4,283.7z M467.7,279.5l17.6-4.7
				c0.4,1.9,0.6,3.9,0.6,5.9c0,0,0,0,0,0.1L467.7,279.5z M466.6,275.5l15.1-10.2c1,1.7,1.8,3.5,2.5,5.5L466.6,275.5z M479.4,261.9
				l-15.1,10.2l10.9-14.5C476.7,258.9,478.1,260.4,479.4,261.9z M434.7,257.9l11.2,14.3l-15.3-9.9
				C431.9,260.7,433.2,259.3,434.7,257.9z M452.5,311.3l2.8-18l3.2,17.9c-1.1,0.1-2.2,0.2-3.3,0.2
				C454.3,311.4,453.4,311.3,452.5,311.3z"/>
			<path style="fill:#729AB2;" d="M460.9,280.7c0,3.2-2.6,5.8-5.8,5.8c-3.2,0-5.8-2.6-5.8-5.8c0-3.2,2.6-5.8,5.8-5.8
				C458.4,275,460.9,277.6,460.9,280.7z"/>
			<path style="fill:#DCDDE7;" d="M568.8,250.7v-11.2c0-2.4-1.2-4.6-3.1-5.9l-7.6-5.3c0.2-1.4,0.4-2.8,0.5-4.1
				c0.3-2.8,0.3-5.4,0.3-7.8c-0.2-9.2-2.4-15-3.1-16.6c-0.1-0.3-0.2-0.5-0.2-0.5l2.6-13.4c0.4-2.2-1.5-4.2-3.7-3.8
				c-11,1.9-35.3,0-47-1.2c-2.6-0.2-5.1-1-7.4-2.1c-1.5-0.7-2.8-1.6-4.1-2.6c-19.4-15.6-40.2-26.5-61.2-34
				c-74.8-26.5-151.7-8.5-175.2-1.8c-1.8,0.5-3.5,1.1-5.2,1.8c-2.6,1-5.1,2.2-7.5,3.6L169,190c-9.5-0.2-18.6-0.1-27.3,0.2h0
				c-63.3,2.2-105.2,16-120.6,21.9c-4,1.6-6.9,5.1-7.7,9.4L10.5,238l-0.1,0.6c-0.2,0.9,0.1,1.7,0.7,2.4c0.5,0.6,0.8,1.4,0.8,2.2
				c0,0.7-0.2,1.3-0.6,1.9l-3.2,4.8H5c-2.8,0-5,2.2-5,5v6.2c0,1.5,0.7,3,1.9,3.9h0c1.7,1.4,2.8,3.4,3,5.6l1,12.3
				c0.1,1.5,0.6,3,1.3,4.4c0.9,1.6,2.2,3,3.7,4c1.5,1,3.3,1.6,5.1,1.7c4.6,0.3,11.9,0.8,22.4,1.4V281c0-27.9,22.8-50.7,50.6-50.7
				c13.9,0,26.6,5.7,35.8,14.9c9.2,9.2,14.9,21.8,14.9,35.8v16.9c61.3,0.9,178.2,0.3,264.9-1.9v-15.1c0-27.8,22.8-50.6,50.6-50.6
				h3.5c27.9,0,50.7,22.8,50.7,50.6v9.3c25.7-5.1,41.5-4.9,48.3-4.4c2.4,0.2,4.6-1.1,5.7-3.2l2.2-4.2c0.3-0.5,0.1-1.1-0.4-1.4
				c-1-0.7-1.5-1.8-1.5-2.8c0-0.8,0.3-1.6,0.9-2.3l1.5-1.7c1.6-1.8,2.1-4.4,1.1-6.7l-1.3-3c-0.7-1.6-0.4-3.4,0.9-4.6
				C568,254.5,568.8,252.6,568.8,250.7z M349.1,150.5l-9.1,32.7l-98.6,3.1c0,0,8.8-9.9-6.9-13.3c0,0,37.3-33.9,110.5-28.2
				C347.9,145,349.8,147.7,349.1,150.5z M423.4,180.7l-51.6,1.7c-3.2,0.1-5.8-2.7-5.3-6l3.5-23.6c0.4-2.5,2.7-4.3,5.3-4
				c25.7,3.5,42.5,15.8,51.1,24C429.4,175.7,427.5,180.6,423.4,180.7z"/>
			<path style="fill:#BBCFDA;" d="M44.6,229.8l-12.8,8.9c-2.7,1.9-5.9,2.9-9.1,3.1c-3.6,0.2-7.3-0.7-10.5-2.8l-1.7-1.1l2.9-16.4
				l2.8-1c4-1.5,8.3-2,12.6-1.6c2.3,0.2,4.5,0.8,6.7,1.6l8.4,3.1C46.5,224.6,47,228.2,44.6,229.8z"/>
			<path style="fill:#0E1133;" d="M254.3,142.2l-72.3,50l-40.4-1.9c8.7-0.3,17.8-0.4,27.3-0.2l77.8-44.3
				C249.2,144.4,251.7,143.2,254.3,142.2z"/>
			<path style="fill:#0E1133;" d="M500,178.7l-4.1,1.7c-19.3-17.9-70.1-38.3-70.1-38.3h9c21,7.4,41.8,18.3,61.2,34
				C497.2,177.1,498.5,178,500,178.7z"/>
			<path style="fill:#0E1133;" d="M441.7,164c-17.8-11.4-45.6-24.2-82.6-26.4c-81.9-4.9-142.7,34.5-162.3,49.2
				c-2.2,1.7-1,5.2,1.8,5.1l122.1-4.2l20.5-0.7l95.2-3.3C446.9,183.3,450.6,169.6,441.7,164z M349.1,150.5l-9.1,32.7l-98.6,3.1
				c0,0,8.8-9.9-6.9-13.3c0,0,37.3-33.9,110.5-28.2C347.9,145,349.8,147.7,349.1,150.5z M423.4,180.7l-51.6,1.7
				c-3.2,0.1-5.8-2.7-5.3-6l3.5-23.6c0.4-2.5,2.7-4.3,5.3-4c25.7,3.5,42.5,15.8,51.1,24C429.4,175.7,427.5,180.6,423.4,180.7z"/>
			<path style="fill:#FF9587;" d="M558.5,224.1h-24l-4.5-7.8l-2.8-4.9c-1.9-3.2-1-7.3,2-9.5l0.4-0.3c1.7-1.2,3.8-1.9,5.9-1.9h20.2
				C556.6,201.7,559.8,210.3,558.5,224.1z"/>
			<path style="fill:#FFFFFF;" d="M558.5,224.1h-24l-4.5-7.8h28.8C558.9,218.7,558.8,221.3,558.5,224.1z"/>
			<g>
				<path style="fill:#BBCFDA;" d="M34.6,257c2.3-5.8,5.7-11.3,9.8-16.1c4.1-4.8,9.1-8.9,14.5-12.2c10.9-6.6,24.1-9.2,36.8-7.9
					c12.7,1.4,24.9,7.1,34.1,15.9c4.6,4.4,8.5,9.5,11.5,15.1c2.9,5.6,5,11.7,6,17.9c-1.4-6.1-3.7-12-6.9-17.4
					c-3.1-5.4-7.1-10.3-11.7-14.4c-9.2-8.3-21-13.8-33.3-15c-6.1-0.7-12.4-0.5-18.5,0.8c-6.1,1.2-11.9,3.4-17.3,6.5
					c-5.4,3-10.3,7-14.6,11.5C40.9,246.1,37.3,251.3,34.6,257z"/>
			</g>
			<g>
				<path style="fill:#BBCFDA;" d="M401.6,257c2.3-5.8,5.7-11.3,9.8-16.1c4.1-4.8,9.1-8.9,14.5-12.2c10.9-6.6,24.1-9.2,36.8-7.9
					c12.7,1.4,24.9,7.1,34.1,15.9c4.6,4.4,8.5,9.5,11.5,15.1c2.9,5.6,5,11.7,6,17.9c-1.4-6.1-3.7-12-6.9-17.4
					c-3.1-5.4-7.1-10.3-11.7-14.4c-9.2-8.3-21-13.8-33.3-15c-6.1-0.7-12.4-0.5-18.5,0.8c-6.1,1.2-11.9,3.4-17.3,6.5
					c-5.4,3-10.3,7-14.6,11.5C407.8,246.1,404.3,251.3,401.6,257z"/>
			</g>
			<path style="fill:none;stroke:#BBCFDA;stroke-miterlimit:10;" d="M195.7,189.1l-17.3,12.2c-3.2,2.2-5.2,5.7-5.6,9.6
				c-1.2,12.5-3.5,39.6,4.6,67.3"/>
			<path style="fill:none;stroke:#BBCFDA;stroke-miterlimit:10;" d="M139.3,275c0,0,124.4,15.2,266.5-5.4"/>
			<path style="fill:none;stroke:#BBCFDA;stroke-miterlimit:10;" d="M347.6,186.7l9.7,11.1c0,0-5.1,45.2-18.2,79.1"/>
			<g>
				<path style="fill:#BBCFDA;" d="M115.8,208.9c35.2-3.9,70.7-5.9,106.1-7.7l13.3-0.7l13.3-0.6c8.9-0.4,17.7-0.8,26.6-1.1l26.6-1
					l26.6-0.8c8.9-0.3,17.7-0.4,26.6-0.6l26.6-0.5l53.2-0.8l53.2-0.5l53.2,0l-53.2,0.5l-53.2,0.6l-53.2,0.9l-26.6,0.6
					c-8.9,0.2-17.7,0.4-26.6,0.7l-26.6,0.7l-26.6,0.9c-8.9,0.3-17.7,0.7-26.6,1l-13.3,0.5l-13.3,0.6l-13.3,0.6l-13.3,0.7
					c-8.9,0.4-17.7,1-26.5,1.6c-8.8,0.6-17.7,1.1-26.5,1.8C133.4,207.2,124.6,207.9,115.8,208.9z"/>
			</g>
			<g>
				<path style="fill:#BBCFDA;" d="M316.2,209.4c-0.9-0.4-1.9-0.9-2.4-1.9c-0.1-0.3-0.2-0.5-0.1-0.8c0-0.1,0-0.3,0.1-0.4l0.2-0.4
					c0.1-0.3,0.3-0.4,0.5-0.7c0.2-0.2,0.4-0.4,0.6-0.5c1.8-1.2,3.8-1.8,5.8-2.3c4.1-0.9,8.2-1.1,12.4-1c2.1,0.1,4.1,0.3,6.2,0.6
					c2,0.4,4.1,0.8,6,1.7c0.9,0.5,1.9,1,2.6,1.9c0.3,0.5,0.6,1.1,0.4,1.7c-0.2,0.6-0.6,1-1,1.4c-0.9,0.7-1.8,1.1-2.8,1.4
					c-1,0.3-2,0.6-3,0.8c1-0.3,2-0.6,2.9-1c0.9-0.4,1.9-0.9,2.6-1.5c0.4-0.3,0.6-0.7,0.7-1.1c0.1-0.4-0.1-0.8-0.3-1.2
					c-0.6-0.7-1.5-1.2-2.4-1.6c-3.8-1.4-7.9-1.9-12-2c-4.1-0.2-8.2,0-12.2,0.8c-2,0.4-4,0.9-5.7,1.9c-0.8,0.5-1.6,1.4-1.3,2.3
					C314.4,208.3,315.3,208.9,316.2,209.4z"/>
			</g>
			<g>
				<path style="fill:#BBCFDA;" d="M567.2,235.2c-4.8,2.4-9.9,3.5-15,4.5c-5.1,0.9-10.3,1.6-15.4,2c-2.6,0.3-5.2,0.3-7.8,0.5
					c-2.6,0.1-5.2,0.1-7.8,0.2l-7.8,0l-7.8-0.2l7.8,0.1l7.8-0.1c2.6-0.1,5.2-0.2,7.8-0.3c2.6-0.2,5.2-0.3,7.7-0.6
					c5.1-0.5,10.3-1.2,15.3-2.2c2.5-0.5,5-1.1,7.5-1.9c2.4-0.8,4.9-1.6,7.1-2.8L567.2,235.2z"/>
			</g>
			<g>
				<path style="fill:#BBCFDA;" d="M147.4,291.7c10.3-1.3,20.7-2.3,31.1-3.3c10.4-0.9,20.8-1.7,31.1-2.3c20.8-1.3,41.6-2.2,62.4-2.5
					l7.8-0.1l7.8,0l15.6,0c10.4,0.2,20.8,0.1,31.2,0.5c5.2,0.2,10.4,0.3,15.6,0.5l15.6,0.8c2.6,0.1,5.2,0.2,7.8,0.4l7.8,0.6
					l15.6,1.1l-15.6-0.9l-7.8-0.4c-2.6-0.1-5.2-0.2-7.8-0.3L350,285c-5.2-0.2-10.4-0.2-15.6-0.4c-10.4-0.3-20.8-0.3-31.2-0.4
					l-15.6,0.1l-7.8,0.1l-7.8,0.2c-5.2,0.1-10.4,0.2-15.6,0.3l-15.6,0.5l-15.6,0.7c-5.2,0.2-10.4,0.5-15.6,0.8
					c-10.4,0.6-20.8,1.3-31.1,2.1C168.1,289.8,157.7,290.6,147.4,291.7z"/>
			</g>
			<path style="fill:#0B1829;" d="M7.1,269.4v8.8c0,3.1,2.5,5.7,5.7,5.7h1.1c1.7,0,3.3-1.1,3.9-2.7l2.5-7.1c1.1-3.2-0.9-6.6-4.3-7.1
				l-5-0.8C8.9,265.8,7.1,267.3,7.1,269.4z"/>
			<path style="fill:#777777;" d="M27.9,236.8h-0.7c-3.7,0-6.7-3-6.7-6.7l0,0c0-3.7,3-6.7,6.7-6.7h0.7c3.7,0,6.7,3,6.7,6.7l0,0
				C34.6,233.8,31.6,236.8,27.9,236.8z"/>
			<path style="fill:#FFFFFF;" d="M44.6,229.8l-12.8,8.9c-2.7,1.9-5.9,2.9-9.1,3.1l6-22.9c2.3,0.2,4.5,0.8,6.7,1.6l8.4,3.1
				C46.5,224.6,47,228.2,44.6,229.8z"/>
			<path style="opacity:0.5;fill:#DCDDE7;" d="M349.1,150.5l-9.1,32.7l-98.6,3.1c0,0,8.8-9.9-6.9-13.3c0,0,37.3-33.9,110.5-28.2
				C347.9,145,349.8,147.7,349.1,150.5z"/>
			<path style="opacity:0.5;fill:#DCDDE7;" d="M423.4,180.7l-51.6,1.7c-3.2,0.1-5.8-2.7-5.3-6l3.5-23.6c0.4-2.5,2.7-4.3,5.3-4
				c25.7,3.5,42.5,15.8,51.1,24C429.4,175.7,427.5,180.6,423.4,180.7z"/>
			<path style="fill:#DCDDE7;" d="M217,197.4L217,197.4c-5.8,0-10.5-4.7-10.5-10.5v-7.7c0-5.8,4.7-10.5,10.5-10.5l0,0
				c5.8,0,10.5,4.7,10.5,10.5v7.7C227.5,192.7,222.7,197.4,217,197.4z"/>
			<path style="fill:#0E1133;" d="M341.6,167.7v16.1c0,1.1-0.2,2.1-0.5,3.1l-20.5,0.7c-0.5-1.2-0.7-2.5-0.7-3.8v-16.1
				c0-6,4.9-10.8,10.8-10.8c3,0,5.7,1.2,7.6,3.2S341.6,164.7,341.6,167.7z"/>
		</g>
	</g>
</g>
</svg>
