<?xml version="1.0" encoding="utf-8"?>
<!-- Generator: Adobe Illustrator 22.0.1, SVG Export Plug-In . SVG Version: 6.00 Build 0)  -->
<!DOCTYPE svg PUBLIC "-//W3C//DTD SVG 1.1//EN" "http://www.w3.org/Graphics/SVG/1.1/DTD/svg11.dtd">
<svg version="1.1" id="Layer_1" xmlns="http://www.w3.org/2000/svg" xmlns:xlink="http://www.w3.org/1999/xlink" x="0px" y="0px"
	 viewBox="0 0 368.6 221.5" style="enable-background:new 0 0 368.6 221.5;" xml:space="preserve">
<g>
	<rect x="0" style="fill-rule:evenodd;clip-rule:evenodd;fill:#EEEEEE;" width="368.6" height="221.5"/>
	<polygon style="fill-rule:evenodd;clip-rule:evenodd;fill:#CF142B;" points="246.8,80.1 368.6,9.8 368.6,0 360.2,0 221.4,80.1 	"/>
	<polygon style="fill-rule:evenodd;clip-rule:evenodd;fill:#CF142B;" points="241.1,145.9 368.6,219.4 368.6,204.7 266.6,145.9 	"/>
	<polygon style="fill-rule:evenodd;clip-rule:evenodd;fill:#CF142B;" points="0,16.9 109.1,80.1 134.6,80.1 0,2.2 	"/>
	<polygon style="fill-rule:evenodd;clip-rule:evenodd;fill:#CF142B;" points="128.8,145.9 0,220.2 0,221.5 23.3,221.5 154.3,145.9 	
		"/>
	<polygon style="fill-rule:evenodd;clip-rule:evenodd;fill:#00247D;" points="343.4,0 214.3,0 214.3,74.5 	"/>
	<polygon style="fill-rule:evenodd;clip-rule:evenodd;fill:#00247D;" points="157.4,0 28.8,0 157.4,74.5 	"/>
	<polygon style="fill-rule:evenodd;clip-rule:evenodd;fill:#00247D;" points="368.6,80.1 368.6,29.3 281.1,80.1 	"/>
	<polygon style="fill-rule:evenodd;clip-rule:evenodd;fill:#00247D;" points="368.6,196.2 368.6,145.9 281.1,145.9 	"/>
	<polygon style="fill-rule:evenodd;clip-rule:evenodd;fill:#00247D;" points="36.1,221.5 157.4,221.5 157.4,151.5 	"/>
	<polygon style="fill-rule:evenodd;clip-rule:evenodd;fill:#00247D;" points="214.3,221.5 336,221.5 214.3,151.5 	"/>
	<polygon style="fill-rule:evenodd;clip-rule:evenodd;fill:#00247D;" points="0,145.9 0,198.4 90.6,145.9 	"/>
	<polygon style="fill-rule:evenodd;clip-rule:evenodd;fill:#00247D;" points="0,80.1 90.6,80.1 0,27.5 	"/>
	<polygon style="fill-rule:evenodd;clip-rule:evenodd;fill:#CF142B;" points="168.8,0 168.8,93.3 0,93.3 0,132.7 168.8,132.7 
		168.8,221.5 202.9,221.5 202.9,132.7 368.6,132.7 368.6,93.3 202.9,93.3 202.9,0 	"/>
</g>
</svg>
