<?xml version="1.0" encoding="utf-8"?>
<!-- Generator: Adobe Illustrator 22.0.1, SVG Export Plug-In . SVG Version: 6.00 Build 0)  -->
<!DOCTYPE svg PUBLIC "-//W3C//DTD SVG 1.1//EN" "http://www.w3.org/Graphics/SVG/1.1/DTD/svg11.dtd">
<svg version="1.1" id="Layer_1" xmlns="http://www.w3.org/2000/svg" xmlns:xlink="http://www.w3.org/1999/xlink" x="0px" y="0px"
	 viewBox="0 0 200 200" style="enable-background:new 0 0 200 200;" xml:space="preserve">
<g>
	<path style="fill-rule:evenodd;clip-rule:evenodd;fill:#80CFDB;" d="M1.1,186h15.8V60.7H1.1V186z M179.1,60.7v-54H100v54H69.1V186
		h129.8V60.7H179.1z M123.4,160h-15.3v-15.3h15.3V160z M123.4,134.7h-15.3v-15.3h15.3V134.7z M123.4,110.7h-15.3V95.4h15.3V110.7z
		 M151.6,160h-15.3v-15.3h15.3V160z M151.6,134.7h-15.3v-15.3h15.3V134.7z M151.6,110.7h-15.3V95.4h15.3V110.7z M179.7,160h-15.3
		v-15.3h15.3V160z M179.7,134.7h-15.3v-15.3h15.3V134.7z M179.7,110.7h-15.3V95.4h15.3V110.7z M189.1,82.2H90V68.7h10v6.8h79.1v-6.8
		h10V82.2z M23.1,193.2H63V46.8H23.1V193.2z M168.6,21.8h-56.3v-5.3h56.3V21.8z M168.6,35.9h-56.3v-5.3h56.3V35.9z M168.6,35.9"/>
</g>
</svg>
