<?xml version="1.0" encoding="utf-8"?>
<!-- Generator: Adobe Illustrator 22.0.1, SVG Export Plug-In . SVG Version: 6.00 Build 0)  -->
<!DOCTYPE svg PUBLIC "-//W3C//DTD SVG 1.1//EN" "http://www.w3.org/Graphics/SVG/1.1/DTD/svg11.dtd">
<svg version="1.1" id="Layer_1" xmlns="http://www.w3.org/2000/svg" xmlns:xlink="http://www.w3.org/1999/xlink" x="0px" y="0px"
	 viewBox="0 0 356.8 353" style="enable-background:new 0 0 356.8 353;" xml:space="preserve">
<g>
	<g>
		<g>
			<g>
				<polygon style="fill:#154993;" points="197.2,240.3 276.2,279 283.5,321 191.4,287.1 				"/>
				<path style="fill:#BDDBE0;" d="M356.3,167.4c-2-5.1-9.2-27.5-10.2-33.6c-1-6.1,2-4.6,3-15.8c0.9-10.2-6.2-33.6-9.8-42.2
					c0,0,0,0,0,0l0,0c2.3,0.9,4.8,2.3,6,4.5c3-3-1.1-16.5-7.2-30.1c-6.5-14.4-34.9-29.5-65.9-33.6c-3.7-0.5-7.5-0.7-11.4-0.7
					c-0.5,0-1,0-1.6,0c-2.5,0.1-5,0.2-7.5,0.4c10.7,8,13,17.3,13.5,20.8c0.1,0.9,0.1,1.4,0.1,1.4c2.3,2.6,5.7,6.8,10.3,22.4
					c2.3,7.8,6.9,31.8,6.9,31.8s-2.2,7.2-3.6,13.8c-0.5,2.5-0.9,5-1,6.8c0,0.7,0.1,1.5,0.2,2.4c0,0.2,0.1,0.5,0.2,0.7
					c1.8,8,9.9,22.6,13.5,29.5c5.3,6.8-5.3,14-10.3,13.7c-2-0.1-6.3,5.9-0.5,14.8c0.7,1,0.9,2.1,0.8,3c2,1.5,4.1,2.9,6.4,4.2
					c0,0,0,0,0,0c4.8,2.7,10.3,4.9,16.9,6.4c1.8-2.1,5.1-3.6,8.8-3.8c1.5-0.1,3,0.1,4.3,0.4c0.2,0,0.3,0.1,0.5,0.1
					c3.7,1.1,6.3,3.6,6.4,6.6c0.1,1.9-0.8,3.6-2.2,5c-0.1,0.1-0.2,0.2-0.3,0.3c-1.9,1.6-4.7,2.7-7.9,2.9c-5.9,0.3-10.8-2.8-11.1-7
					c-4.2-1.4-10.9-3.7-17.9-6.6c-2.5-1-5-2.1-7.5-3.2c-0.3,0.2-0.6,0.4-0.9,0.6c-0.4,0.3-0.9,0.5-1.2,0.6c-1.1,0.3,2.3,1.1,1.6,5.8
					c-0.9,5.7-7.4,4.3-7,11.1c0.3,5.5,1.3,16.5-4.2,19.9c-0.1,0-0.1,0.1-0.1,0.1c-4.3,2.6-13.8,4.2-29.5,2.9
					c-6.3-0.5-22,5.5-30.1,20.9c-0.6,1.1-1.2,2.3-1.7,3.5l5,2.1l22.7,9.7h0l36.8,15.7c0-0.1,0-0.2,0-0.3v0
					c-0.7-24.6,19.3-29.6,23.6-31.4c9.8-4,18.3-1,28-1c7.3,0,9.4-2,11.1-6.4c0.1-0.3,0.2-0.5,0.3-0.8c0.4-1.2,0.8-2.5,1.3-4
					c2.5-7.6-1-12.2-1-16.8c0-4.6,1-6.1,3.6-7.6c2.5-1.5,3.6-2,5.1-4.1c1.5-2-2-6.6-2-6.6s3.1-1.5,4.1-3.6c1-2-3.1-7.1-3.1-11.2
					c0-4.1,3.6-4.1,8.2-5.1C353.2,176.1,358.3,172.5,356.3,167.4z"/>
			</g>
			<g>
				<g>
					<path style="fill:#154993;" d="M317.5,181.7c-0.2,0-0.3-0.1-0.5-0.1c-1.3-0.2-2.7-0.3-4.1-0.3c-4.7,0.2-8.7,2.1-11.1,4.8
						c-5-1.1-9.5-2.6-13.6-4.3c0,0,0,0,0,0c-6.9-2.9-12.7-6.5-17.7-10.6l0,0c-4.9-4-9-8.5-12.8-13c0,0-7.5,9.7-9.8,10.4
						c3.8,2.8,8.6,5.6,13.8,8.2c0.9,0.5,1.9,1,2.9,1.4c2.2,1,4.4,2,6.6,3h0c2,0.9,4,1.7,5.9,2.5c2.7,1.1,5.3,2.1,7.9,3.1
						c5.8,2.2,11,4,14.7,5.2c0.5,5.2,6.6,9.1,14,8.8c3.5-0.2,6.7-1.3,9-2.9c0.1-0.1,0.2-0.2,0.3-0.3c2.4-1.9,3.9-4.4,3.8-7.1
						C326.9,186.2,322.9,182.8,317.5,181.7z"/>
				</g>
			</g>
		</g>
		<path style="fill:#154993;" d="M245.7,16.5c18.3-5.9,46.6,2.3,61.4,8.3c13.1,5.3,29.2,14.1,33.6,23.6c10.8,23.8,7.2,37.8,7.2,37.8
			l-8.5-10.4c0,0-6.1-5.8-13.1-3.2c-29.2,10.8-34.8,29.6-41.4,34.6c-6.6,5-20.9-17.6-20.9-17.6L245.7,16.5z"/>
	</g>
	<g>
		<path style="fill:#BDDBE0;" d="M207.1,0.1l-26.4,0.8c0,0-39.6,72.8-39.6,76.6c0,3.7-27.4,46.1-17.4,64.7
			c10,18.7,31.1,32.4,51,34.9c19.9,2.5,64.7,23.7,77.2,26.1c12.5,2.5,26.1-19.9,16.2-38.6c-10-18.7-7.5-1.2-19.9-22.4
			c-12.5-21.2-23.7-44.8-27.4-74.7C217.1,37.7,207.1,0.1,207.1,0.1z"/>
		<g>
			
				<linearGradient id="SVGID_1_" gradientUnits="userSpaceOnUse" x1="274.9382" y1="177.707" x2="319.8408" y2="129.5549" gradientTransform="matrix(0.8135 -1.0408 2.2051 1.7236 -373.5978 303.4134)">
				<stop  offset="0.1044" style="stop-color:#FFFFFF"/>
				<stop  offset="0.206" style="stop-color:#FBFBFB"/>
				<stop  offset="0.2967" style="stop-color:#F1F1F1"/>
				<stop  offset="0.3832" style="stop-color:#DEDEDE"/>
				<stop  offset="0.4673" style="stop-color:#C5C5C5"/>
				<stop  offset="0.5494" style="stop-color:#A4A4A4"/>
				<stop  offset="0.6302" style="stop-color:#7B7B7B"/>
				<stop  offset="0.71" style="stop-color:#4B4B4B"/>
				<stop  offset="0.7869" style="stop-color:#141414"/>
				<stop  offset="0.8132" style="stop-color:#000000"/>
			</linearGradient>
			<polygon style="opacity:0.4;fill:url(#SVGID_1_);" points="275.2,224.2 174.1,310.2 128,272.7 206.5,200.6 			"/>
			<g>
				<g>
					<path style="fill:#FFFFFF;" d="M87,279.5l-5.1-0.6C90.1,284.9,90.4,284.2,87,279.5z M298.8,148.6c-2-3.9-5.4-10.1-8.4-16.3
						c-0.3-0.6-0.6-1.3-0.9-1.9c-3-6.4-5.4-12.6-5.2-16c0.1-2.1,0.6-4.9,1.2-7.8v0c1.4-6.7,3.6-13.8,3.6-13.8s-4.9-25.1-7.3-33.3
						c-4.8-16.3-8.4-20.8-10.8-23.4c0,0,0-0.3-0.1-0.8c-0.4-2.6-2.2-11.3-11.7-19.3c-0.6-0.5-1.2-1-1.8-1.5l0,0
						C248.6,7.8,234,1.9,209.8,0.9c-0.8,0-1.6-0.1-2.5-0.1c-0.3,0-0.5,0-0.8,0c-11.8,9-18.1,26.3-21.4,44.8c0,0.1,0,0.1,0,0.2
						c-3.5,19.5-3.7,40.1-3.4,53.5c15.7,2.3,28.2,13.5,31.9,28v0c0.7,2.8,1.1,5.7,1.1,8.8c0,7.3-2.2,14.2-6,19.9
						c0,0.1-0.1,0.2-0.1,0.2c8.5,10.4,19.2,20,38.2,24.3c2-2.3,5.5-4,9.6-4.2c6.5-0.3,12,3.2,12.2,7.8c0,0.1,0,0.3,0,0.4
						c-0.1,4.5-5.1,8.2-11.4,8.5c-6.4,0.3-11.7-3.1-12.1-7.6c-10.1-3.3-33.1-11.5-44.9-20.3c-6.6,5.1-15,8.1-24.1,8.1
						c-7.7,0-15-2.1-21.3-5.6c-11.3-6.5-19.2-17.8-19.2-31.1c0-12.9,8-24.6,18.7-31.4c0,0,0,0,0.1,0c2.1-1.4,4.4-2.5,6.7-3.5v-0.6
						c0.1-26.7,2.8-47,6.4-62.3c0,0,0-0.1,0-0.1c4.4-18.8,10.2-30.2,14.5-37.3c-0.4,0-0.8,0.1-1.3,0.1h0
						c-24.4,2.2-55.5,7.9-74.6,24.3c0,0,0,0,0,0c-4.5,3.9-8.3,8.4-11.2,13.5c-3.6,6.4-7.5,18.4-9.6,24.2
						C58.6,32.6,9.6,47.9,2.4,91.5c-0.4,2.2-0.6,4.3-0.9,6.3c-1.7,16.2,1.1,28.9,8.7,46.4c8.7,20,23.7,46.3,45.3,91.1
						c7,14.5,21,31.2,28.5,40.5c1.1,1.4,2.1,2.6,2.9,3.7l16.2,1.9l41.4,4.8h0l50.8,5.9l14,1.6h0l1.1,0.1c-0.9-1.9-2-3.9-3.1-6
						c-0.7-1.4-1.4-2.8-2.1-4.3c-2.4-5.1-4.2-10.8-3.1-17c1.6-4.2,3.4-8.3,5.6-12.3c0.7-1.3,1.5-2.5,2.2-3.7c0.7-1.1,1.4-2.1,2.1-3
						c10.1-13.6,22.7-17.9,29-17.4c15.9,1.3,25.6-0.2,30.4-2.8c0,0,0,0,0,0c0.2-0.1,0.4-0.3,0.6-0.4c0.8-0.5,1.4-1.1,2-1.9
						c0,0,0,0,0,0c0.3-0.3,0.5-0.7,0.7-1.1c2.7-5,2-13.2,1.7-17.8c-0.4-7.1,6.4-5.6,7.3-11.6c0.8-4.9-2.7-5.7-1.6-6
						c0.9-0.3,2-0.9,3-1.8c0.2-0.1,0.3-0.3,0.5-0.4c1.3-1.2,2.4-2.8,2.6-4.5c0.1-1.1-0.1-2.3-0.8-3.4c-6-9.3-1.5-15.6,0.5-15.5
						C293.2,163.2,304.3,155.8,298.8,148.6z M113.4,249.7l-13.9,14.8l-3.7,3.9c0-0.4-0.6-2.4-1.1-4.3c-0.4-1.4-0.7-2.6-0.7-2.9
						C86,201.5,66.7,164.6,79.5,140c0.3-0.5,5.2-0.3,5.5-0.8c8,43.7,35.2,54.3,36,71.4c0,0.3,0,0.6,0,0.9
						c0.6,14.5-1.4,24.5-4.6,32.7l-0.5,0.8L113.4,249.7z"/>
					<path style="fill:#154993;" d="M202.6,135.1c0,14.2-12,25.7-26.7,25.7c-14.8,0-26.7-11.5-26.7-25.7c0-14.2,12-25.6,26.7-25.6
						C190.6,109.5,202.6,120.9,202.6,135.1z"/>
				</g>
				<g>
					<g>
						<path style="fill:#154993;" d="M264.9,178.2c-0.8-0.6-1.8-1-2.9-1.4c-1.7-0.6-3.7-0.9-5.7-0.8c-4.1,0.2-7.6,1.8-9.6,4.1
							c-18.8-4.3-29.6-13.7-38-24.1c0,0-0.1-0.1-0.1-0.2c0,0-6.5,8.4-8.5,9c11.8,8.8,34.8,17,44.9,20.3c0.4,4.5,5.7,7.9,12.1,7.6
							c6.1-0.3,11-3.8,11.4-8.1c0-0.3,0-0.5,0-0.8C268.3,181.6,267,179.6,264.9,178.2z"/>
					</g>
				</g>
				<g>
					<g>
						<g>
							<path style="fill:#154993;" d="M223.1,77.4c4.3-18.7,14.4-22.7,25.9-31.3c11.5-8.6,23.7-11.2,23.7-11.2s-3.6-32.4-63.4-34.8
								c-1,0-2.2-0.1-3.3-0.1c-24.2,18.5-26,73.5-25.4,99.7c15.8,2.3,28.5,13.7,32,28.5l4.4-3.8C217,124.5,218.8,96.1,223.1,77.4z"
								/>
						</g>
						<g>
							<path style="fill:#154993;" d="M96.3,260.6c-0.1-0.7-0.1-1.4-0.2-2.1c-7.9-59.7-25.7-93-12.9-117.6c0.3-0.5,0.5-0.9,0.7-1.4
								c8,43.7,35.2,54.4,36,71.4c0.1,1.7,0.8,1.7,2.3-1.9c5-6.8,29.4-34.7,32.5-41.7c-10.4-6.7-16.2-19.8-16.2-32.7
								c0-15.5,10.8-28.9,24.8-34.5c0.2-60,12-86,19.8-98.9C151.9,0,108.8,12.4,93.5,39.8c-3.1,5.5-5.7,10.4-8.6,18.1
								c-26.3-31-76.3-9.7-83.5,33.9c-6.5,39.1,10.3,54.9,53.2,143.8c12.8,26.4,6.9,44.4-15.4,28.2c0,0,3.6,25.5,30.9,24.5
								c0,0,29.2-3.3,33.3-7C109.9,275.4,96.3,260.6,96.3,260.6z"/>
						</g>
					</g>
				</g>
				<path style="fill:#D1E6E8;" d="M219.9,297.6L219.9,297.6l-1.7-4.7l-10.8-5l-4.6-2.2l-10.7-5L144,258l-28-13.1l-2.8-1.3L97,261.5
					l0,0l-2.4,2.6l-10.5,11.7l-10.8,12l0,0l-0.3,0.4L239.5,353L219.9,297.6z"/>
			</g>
		</g>
	</g>
</g>
</svg>
