<?xml version="1.0" encoding="utf-8"?>
<!-- Generator: Adobe Illustrator 22.0.1, SVG Export Plug-In . SVG Version: 6.00 Build 0)  -->
<!DOCTYPE svg PUBLIC "-//W3C//DTD SVG 1.1//EN" "http://www.w3.org/Graphics/SVG/1.1/DTD/svg11.dtd">
<svg version="1.1" id="Layer_1" xmlns="http://www.w3.org/2000/svg" xmlns:xlink="http://www.w3.org/1999/xlink" x="0px" y="0px"
	 viewBox="0 0 200 200" style="enable-background:new 0 0 200 200;" xml:space="preserve">
<g>
	<path style="fill:#FFFFFF;" d="M122.7,112.7c-4.8,32-28.9,49.1-59.8,49.1c-34.7,0-62.5-27.2-62.5-61.9s27.8-61.9,62.5-61.9
		c16.8,0,31.6,4.8,42.3,15.1L86.9,71.5c-5.8-6.2-14.4-9.3-24.1-9.3c-20.6,0-38.5,17.2-38.5,37.8s17.9,37.8,38.5,37.8
		c17.2,0,30.2-11,34-27.5H62.2V86.3h60.5c0.7,4.1,1,9.3,1,13.7C123.7,104.5,123.4,108.6,122.7,112.7"/>
	<polygon style="fill:#FFFFFF;" points="199.7,103.4 179,103.4 179,124.1 161.9,124.1 161.9,103.4 141.2,103.4 141.2,86.3 
		161.9,86.3 161.9,65.6 179,65.6 179,86.3 199.7,86.3 	"/>
</g>
</svg>
