<?xml version="1.0" encoding="utf-8"?>
<!-- Generator: Adobe Illustrator 22.0.1, SVG Export Plug-In . SVG Version: 6.00 Build 0)  -->
<!DOCTYPE svg PUBLIC "-//W3C//DTD SVG 1.1//EN" "http://www.w3.org/Graphics/SVG/1.1/DTD/svg11.dtd">
<svg version="1.1" id="Layer_1" xmlns="http://www.w3.org/2000/svg" xmlns:xlink="http://www.w3.org/1999/xlink" x="0px" y="0px"
	 viewBox="0 0 568.8 575.6" style="enable-background:new 0 0 568.8 575.6;" xml:space="preserve">
<g style="opacity:0.8;">
	<path style="fill:#FFFFFF;" d="M279.9,145.2c16.4,0,58.7,0,72.7,0c13.9,0,7.6-14.7,0-13.7c0,0,0.2-14.7-15.4-11.3
		c0,0-1.7-15.4-18.1-14.9c-16.4,0.5-18.1,17.4-16.6,19.9c0,0-14.4-5-17.4,9.2c0,0-7.6-0.2-8.8,3.2S276.4,145.2,279.9,145.2z"/>
	<g>
		<g>
			
				<line style="opacity:0.68;fill:none;stroke:#A4E3FF;stroke-width:6.8127;stroke-miterlimit:10;" x1="508.1" y1="300.7" x2="528.4" y2="300.7"/>
			
				<line style="opacity:0.68;fill:none;stroke:#A4E3FF;stroke-width:6.8127;stroke-miterlimit:10;" x1="508.1" y1="239.1" x2="528.4" y2="239.1"/>
			<rect x="445.9" y="193.9" style="fill:#00A8B7;" width="82.5" height="302.3"/>
			<rect x="427.3" y="193.9" style="fill:#006881;" width="36.4" height="302.3"/>
			
				<line style="fill:none;stroke:#A4E3FF;stroke-width:4.6792;stroke-miterlimit:10;" x1="515.1" y1="352.7" x2="528.4" y2="352.7"/>
			
				<line style="fill:none;stroke:#A4E3FF;stroke-width:4.6792;stroke-miterlimit:10;" x1="495.5" y1="253.6" x2="505.7" y2="253.6"/>
			
				<line style="fill:none;stroke:#A4E3FF;stroke-width:4.6792;stroke-miterlimit:10;" x1="469.5" y1="352.7" x2="479.4" y2="352.7"/>
			
				<line style="opacity:0.53;fill:none;stroke:#A4E3FF;stroke-width:4.6792;stroke-miterlimit:10;" x1="439.6" y1="253.6" x2="455.8" y2="253.6"/>
			
				<line style="opacity:0.31;fill:none;stroke:#A4E3FF;stroke-width:4.6792;stroke-miterlimit:10;" x1="427.3" y1="253.6" x2="436.5" y2="253.6"/>
			
				<line style="fill:none;stroke:#A4E3FF;stroke-width:4.6792;stroke-miterlimit:10;" x1="515.1" y1="266.6" x2="528.4" y2="266.6"/>
			
				<line style="fill:none;stroke:#A4E3FF;stroke-width:4.6792;stroke-miterlimit:10;" x1="499.1" y1="465.3" x2="515.1" y2="465.3"/>
			<line style="fill:none;stroke:#A4E3FF;stroke-width:4.6792;stroke-miterlimit:10;" x1="469.5" y1="365.7" x2="489" y2="365.7"/>
			
				<line style="fill:none;stroke:#A4E3FF;stroke-width:4.6792;stroke-miterlimit:10;" x1="508.5" y1="377.9" x2="528.4" y2="377.9"/>
			
				<line style="fill:none;stroke:#A4E3FF;stroke-width:4.6792;stroke-miterlimit:10;" x1="463.6" y1="278.8" x2="476.7" y2="278.8"/>
			
				<line style="fill:none;stroke:#A4E3FF;stroke-width:4.6792;stroke-miterlimit:10;" x1="427.3" y1="278.8" x2="437.7" y2="278.8"/>
			
				<line style="fill:none;stroke:#A4E3FF;stroke-width:4.6792;stroke-miterlimit:10;" x1="512.2" y1="390.8" x2="521.4" y2="390.8"/>
			
				<line style="fill:none;stroke:#A4E3FF;stroke-width:4.6792;stroke-miterlimit:10;" x1="469.7" y1="291.7" x2="482.7" y2="291.7"/>
			
				<line style="fill:none;stroke:#A4E3FF;stroke-width:4.6792;stroke-miterlimit:10;" x1="436.5" y1="390.8" x2="450.2" y2="390.8"/>
			
				<line style="fill:none;stroke:#A4E3FF;stroke-width:4.6792;stroke-miterlimit:10;" x1="495.5" y1="303.9" x2="521.4" y2="303.9"/>
			
				<line style="opacity:0.39;fill:none;stroke:#A4E3FF;stroke-width:4.6792;stroke-miterlimit:10;" x1="455.6" y1="303.9" x2="476" y2="303.9"/>
			
				<line style="fill:none;stroke:#A4E3FF;stroke-width:4.6792;stroke-miterlimit:10;" x1="448.4" y1="428.2" x2="455.6" y2="428.2"/>
			<line style="fill:none;stroke:#A4E3FF;stroke-width:4.6792;stroke-miterlimit:10;" x1="443" y1="403" x2="448.4" y2="403"/>
			
				<line style="fill:none;stroke:#A4E3FF;stroke-width:4.6792;stroke-miterlimit:10;" x1="508.5" y1="316.8" x2="528.4" y2="316.8"/>
			<line style="fill:none;stroke:#A4E3FF;stroke-width:4.6792;stroke-miterlimit:10;" x1="492" y1="390.8" x2="498.4" y2="390.8"/>
			
				<line style="fill:none;stroke:#A4E3FF;stroke-width:4.6792;stroke-miterlimit:10;" x1="498.5" y1="217.1" x2="502.1" y2="217.1"/>
			
				<line style="fill:none;stroke:#A4E3FF;stroke-width:4.6792;stroke-miterlimit:10;" x1="465.9" y1="390.8" x2="488.4" y2="390.8"/>
			<line style="fill:none;stroke:#A4E3FF;stroke-width:4.6792;stroke-miterlimit:10;" x1="453.7" y1="403" x2="463.1" y2="403"/>
			
				<line style="fill:none;stroke:#A4E3FF;stroke-width:4.6792;stroke-miterlimit:10;" x1="439.5" y1="415.9" x2="454.4" y2="415.9"/>
			
				<line style="fill:none;stroke:#A4E3FF;stroke-width:4.6792;stroke-miterlimit:10;" x1="434.1" y1="316.8" x2="439.5" y2="316.8"/>
			
				<line style="opacity:0.53;fill:none;stroke:#A4E3FF;stroke-width:4.6792;stroke-miterlimit:10;" x1="432.1" y1="217.1" x2="438.8" y2="217.1"/>
			
				<line style="fill:none;stroke:#A4E3FF;stroke-width:4.6792;stroke-miterlimit:10;" x1="518.2" y1="229.3" x2="528.4" y2="229.3"/>
			<line style="fill:none;stroke:#A4E3FF;stroke-width:4.6792;stroke-miterlimit:10;" x1="495.5" y1="329" x2="518.2" y2="329"/>
			<line style="fill:none;stroke:#A4E3FF;stroke-width:4.6792;stroke-miterlimit:10;" x1="492" y1="229.3" x2="495.5" y2="229.3"/>
			
				<line style="opacity:0.39;fill:none;stroke:#A4E3FF;stroke-width:4.6792;stroke-miterlimit:10;" x1="450.2" y1="329" x2="463.7" y2="329"/>
			
				<line style="opacity:0.53;fill:none;stroke:#A4E3FF;stroke-width:4.6792;stroke-miterlimit:10;" x1="427.3" y1="229.3" x2="432.1" y2="229.3"/>
			
				<line style="fill:none;stroke:#A4E3FF;stroke-width:4.6792;stroke-miterlimit:10;" x1="515.1" y1="242.3" x2="528.4" y2="242.3"/>
			<line style="fill:none;stroke:#A4E3FF;stroke-width:4.6792;stroke-miterlimit:10;" x1="502.1" y1="441" x2="515.1" y2="441"/>
			<line style="fill:none;stroke:#A4E3FF;stroke-width:4.6792;stroke-miterlimit:10;" x1="489" y1="341.9" x2="502.1" y2="341.9"/>
			
				<line style="opacity:0.39;fill:none;stroke:#A4E3FF;stroke-width:4.6792;stroke-miterlimit:10;" x1="444" y1="341.9" x2="463.7" y2="341.9"/>
			
				<line style="opacity:0.53;fill:none;stroke:#A4E3FF;stroke-width:4.6792;stroke-miterlimit:10;" x1="442.4" y1="242.3" x2="452.4" y2="242.3"/>
			
				<line style="fill:none;stroke:#A4E3FF;stroke-width:4.6792;stroke-miterlimit:10;" x1="435.3" y1="341.9" x2="442.4" y2="341.9"/>
			<line style="fill:none;stroke:#A4E3FF;stroke-width:4.6792;stroke-miterlimit:10;" x1="432.1" y1="466.3" x2="440" y2="466.3"/>
			
				<line style="fill:none;stroke:#CFF3FF;stroke-width:4.6792;stroke-miterlimit:10;" x1="502.8" y1="253.6" x2="512.9" y2="253.6"/>
			
				<line style="fill:none;stroke:#CFF3FF;stroke-width:4.6792;stroke-miterlimit:10;" x1="476.7" y1="352.7" x2="486.7" y2="352.7"/>
			
				<line style="fill:none;stroke:#CFF3FF;stroke-width:4.6792;stroke-miterlimit:10;" x1="463.9" y1="253.6" x2="480.2" y2="253.6"/>
			
				<line style="fill:none;stroke:#CFF3FF;stroke-width:4.6792;stroke-miterlimit:10;" x1="506.4" y1="465.3" x2="522.3" y2="465.3"/>
			
				<line style="opacity:0.53;fill:none;stroke:#A4E3FF;stroke-width:4.6792;stroke-miterlimit:10;" x1="447.3" y1="266.6" x2="463.7" y2="266.6"/>
			
				<line style="fill:none;stroke:#CFF3FF;stroke-width:4.6792;stroke-miterlimit:10;" x1="489.7" y1="278.8" x2="502.8" y2="278.8"/>
			
				<line style="opacity:0.39;fill:none;stroke:#CFF3FF;stroke-width:4.6792;stroke-miterlimit:10;" x1="453.1" y1="278.8" x2="464" y2="278.8"/>
			
				<line style="fill:none;stroke:#CFF3FF;stroke-width:4.6792;stroke-miterlimit:10;" x1="501.8" y1="291.7" x2="528.4" y2="291.7"/>
			
				<line style="opacity:0.39;fill:none;stroke:#CFF3FF;stroke-width:4.6792;stroke-miterlimit:10;" x1="443.7" y1="390.8" x2="457.4" y2="390.8"/>
			
				<line style="fill:none;stroke:#CFF3FF;stroke-width:4.6792;stroke-miterlimit:10;" x1="463.6" y1="303.9" x2="483.2" y2="303.9"/>
			
				<line style="fill:none;stroke:#CFF3FF;stroke-width:4.6792;stroke-miterlimit:10;" x1="455.6" y1="428.2" x2="462.8" y2="428.2"/>
			
				<line style="opacity:0.39;fill:none;stroke:#CFF3FF;stroke-width:4.6792;stroke-miterlimit:10;" x1="450.3" y1="403" x2="455.6" y2="403"/>
			
				<line style="fill:none;stroke:#CFF3FF;stroke-width:4.6792;stroke-miterlimit:10;" x1="499.2" y1="390.8" x2="505.6" y2="390.8"/>
			
				<line style="fill:none;stroke:#CFF3FF;stroke-width:4.6792;stroke-miterlimit:10;" x1="505.8" y1="217.1" x2="509.3" y2="217.1"/>
			<line style="fill:none;stroke:#CFF3FF;stroke-width:4.6792;stroke-miterlimit:10;" x1="471" y1="415.9" x2="483.2" y2="415.9"/>
			<line style="fill:none;stroke:#CFF3FF;stroke-width:4.6792;stroke-miterlimit:10;" x1="461" y1="403" x2="470.4" y2="403"/>
			
				<line style="fill:none;stroke:#CFF3FF;stroke-width:4.6792;stroke-miterlimit:10;" x1="446.7" y1="415.9" x2="461.6" y2="415.9"/>
			
				<line style="fill:none;stroke:#CFF3FF;stroke-width:4.6792;stroke-miterlimit:10;" x1="441.3" y1="316.8" x2="446.7" y2="316.8"/>
			<line style="fill:none;stroke:#CFF3FF;stroke-width:4.6792;stroke-miterlimit:10;" x1="502.8" y1="329" x2="525.4" y2="329"/>
			
				<line style="fill:none;stroke:#CFF3FF;stroke-width:4.6792;stroke-miterlimit:10;" x1="479.5" y1="229.3" x2="499.2" y2="229.3"/>
			<line style="fill:none;stroke:#CFF3FF;stroke-width:4.6792;stroke-miterlimit:10;" x1="471" y1="428.1" x2="479.5" y2="428.1"/>
			
				<line style="opacity:0.39;fill:none;stroke:#CFF3FF;stroke-width:4.6792;stroke-miterlimit:10;" x1="440.7" y1="229.3" x2="457.4" y2="229.3"/>
			<line style="fill:none;stroke:#CFF3FF;stroke-width:4.6792;stroke-miterlimit:10;" x1="509.3" y1="441" x2="522.3" y2="441"/>
			
				<line style="fill:none;stroke:#CFF3FF;stroke-width:4.6792;stroke-miterlimit:10;" x1="496.2" y1="341.9" x2="509.3" y2="341.9"/>
			
				<line style="fill:none;stroke:#CFF3FF;stroke-width:4.6792;stroke-miterlimit:10;" x1="468.9" y1="242.3" x2="496.2" y2="242.3"/>
			<line style="fill:none;stroke:#CFF3FF;stroke-width:4.6792;stroke-miterlimit:10;" x1="462.2" y1="341.9" x2="471" y2="341.9"/>
			
				<line style="opacity:0.39;fill:none;stroke:#CFF3FF;stroke-width:4.6792;stroke-miterlimit:10;" x1="455" y1="242.3" x2="462.2" y2="242.3"/>
			
				<line style="fill:none;stroke:#CFF3FF;stroke-width:4.6792;stroke-miterlimit:10;" x1="439.3" y1="466.3" x2="447.3" y2="466.3"/>
			<polygon style="fill:#98BA2D;" points="511.8,496.1 511.8,496.1 511.7,496.1 511.7,496.1 			"/>
		</g>
		<g>
			<g>
				<g>
					<rect x="281.4" y="179.6" style="fill:#36B2D8;" width="114.1" height="348.6"/>
					
						<line style="opacity:0.68;fill:none;stroke:#A4E3FF;stroke-width:6.2383;stroke-miterlimit:10;" x1="307.4" y1="211.9" x2="328.1" y2="211.9"/>
					
						<line style="opacity:0.68;fill:none;stroke:#A4E3FF;stroke-width:9.1311;stroke-miterlimit:10;" x1="271.8" y1="389.8" x2="297.8" y2="389.8"/>
					
						<line style="opacity:0.68;fill:none;stroke:#A4E3FF;stroke-width:6.2383;stroke-miterlimit:10;" x1="328.2" y1="362.9" x2="380.8" y2="362.9"/>
					
						<line style="opacity:0.68;fill:none;stroke:#A4E3FF;stroke-width:6.2383;stroke-miterlimit:10;" x1="281.4" y1="229.3" x2="328.2" y2="229.3"/>
					
						<line style="opacity:0.68;fill:none;stroke:#A4E3FF;stroke-width:6.2383;stroke-miterlimit:10;" x1="310.8" y1="245.6" x2="344.8" y2="245.6"/>
					
						<line style="opacity:0.68;fill:none;stroke:#A4E3FF;stroke-width:9.1311;stroke-miterlimit:10;" x1="271.8" y1="423.5" x2="301.2" y2="423.5"/>
					
						<line style="opacity:0.68;fill:none;stroke:#A4E3FF;stroke-width:9.1311;stroke-miterlimit:10;" x1="271.8" y1="307.2" x2="297.8" y2="307.2"/>
					
						<line style="opacity:0.68;fill:none;stroke:#A4E3FF;stroke-width:6.2383;stroke-miterlimit:10;" x1="281.4" y1="279.3" x2="336.7" y2="279.3"/>
					
						<line style="opacity:0.68;fill:none;stroke:#A4E3FF;stroke-width:6.2383;stroke-miterlimit:10;" x1="300.6" y1="430.2" x2="326.6" y2="430.2"/>
					
						<line style="opacity:0.68;fill:none;stroke:#A4E3FF;stroke-width:6.2383;stroke-miterlimit:10;" x1="294.9" y1="296.6" x2="314.2" y2="296.6"/>
					
						<line style="opacity:0.68;fill:none;stroke:#A4E3FF;stroke-width:6.2383;stroke-miterlimit:10;" x1="349" y1="446.6" x2="387.5" y2="446.6"/>
					
						<line style="opacity:0.68;fill:none;stroke:#A4E3FF;stroke-width:6.2383;stroke-miterlimit:10;" x1="352.8" y1="313" x2="383.5" y2="313"/>
					
						<line style="opacity:0.68;fill:none;stroke:#A4E3FF;stroke-width:6.2383;stroke-miterlimit:10;" x1="362.5" y1="463.9" x2="387.5" y2="463.9"/>
					
						<line style="opacity:0.68;fill:none;stroke:#A4E3FF;stroke-width:6.2383;stroke-miterlimit:10;" x1="335" y1="330.3" x2="314.2" y2="330.3"/>
					
						<line style="opacity:0.68;fill:none;stroke:#A4E3FF;stroke-width:6.2383;stroke-miterlimit:10;" x1="304" y1="463.9" x2="335" y2="463.9"/>
					
						<line style="opacity:0.89;fill:none;stroke:#CFF3FF;stroke-width:6.2383;stroke-miterlimit:10;" x1="338.6" y1="211.9" x2="355.6" y2="211.9"/>
					
						<line style="opacity:0.68;fill:none;stroke:#CFF3FF;stroke-width:6.2383;stroke-miterlimit:10;" x1="302" y1="345.5" x2="338.6" y2="345.5"/>
					
						<line style="opacity:0.68;fill:none;stroke:#CFF3FF;stroke-width:6.2383;stroke-miterlimit:10;" x1="357.3" y1="379.2" x2="388.2" y2="379.2"/>
					
						<line style="opacity:0.68;fill:none;stroke:#CFF3FF;stroke-width:6.2383;stroke-miterlimit:10;" x1="352.7" y1="245.6" x2="376.1" y2="245.6"/>
					
						<line style="opacity:0.68;fill:none;stroke:#CFF3FF;stroke-width:6.2383;stroke-miterlimit:10;" x1="302" y1="379.2" x2="342" y2="379.2"/>
					
						<line style="opacity:0.89;fill:none;stroke:#CFF3FF;stroke-width:6.2383;stroke-miterlimit:10;" x1="319.7" y1="262.9" x2="354.5" y2="262.9"/>
					
						<line style="opacity:0.68;fill:none;stroke:#CFF3FF;stroke-width:6.2383;stroke-miterlimit:10;" x1="380.8" y1="279.3" x2="357.3" y2="279.3"/>
					
						<line style="opacity:0.89;fill:none;stroke:#CFF3FF;stroke-width:6.2383;stroke-miterlimit:10;" x1="331.9" y1="430.2" x2="347.1" y2="430.2"/>
					
						<line style="opacity:0.68;fill:none;stroke:#CFF3FF;stroke-width:6.2383;stroke-miterlimit:10;" x1="261.6" y1="313" x2="337.2" y2="313"/>
					
						<line style="opacity:0.89;fill:none;stroke:#CFF3FF;stroke-width:6.2383;stroke-miterlimit:10;" x1="355.6" y1="330.3" x2="391.2" y2="330.3"/>
					
						<line style="opacity:0.68;fill:none;stroke:#CFF3FF;stroke-width:6.2383;stroke-miterlimit:10;" x1="335.2" y1="463.9" x2="355.6" y2="463.9"/>
					<polygon style="fill:#22557F;" points="324.4,183.4 324.4,528.2 286.4,528.2 286.4,528.2 286.3,528.2 286.3,528.2 220.9,528.2 
						220.9,183.4 					"/>
					
						<line style="opacity:0.68;fill:none;stroke:#95E4E8;stroke-width:5.4887;stroke-miterlimit:10;" x1="324.6" y1="194.6" x2="395.5" y2="194.6"/>
					
						<line style="opacity:0.34;fill:none;stroke:#95E4E8;stroke-width:5.4887;stroke-miterlimit:10;" x1="281.4" y1="194.6" x2="313.6" y2="194.6"/>
					
						<line style="opacity:0.34;fill:none;stroke:#95E4E8;stroke-width:6.0288;stroke-miterlimit:10;" x1="316.6" y1="211.9" x2="324.2" y2="211.9"/>
					
						<line style="opacity:0.34;fill:none;stroke:#95E4E8;stroke-width:6.0288;stroke-miterlimit:10;" x1="312.8" y1="262.9" x2="320.4" y2="262.9"/>
					
						<line style="opacity:0.34;fill:none;stroke:#95E4E8;stroke-width:6.5312;stroke-miterlimit:10;" x1="281.4" y1="220.5" x2="299.4" y2="220.5"/>
					
						<line style="fill:none;stroke:#FFFFFF;stroke-width:6.947;stroke-miterlimit:10;" x1="324.6" y1="179.6" x2="395.5" y2="179.6"/>
					
						<line style="fill:none;stroke:#A4EEFF;stroke-width:6.947;stroke-miterlimit:10;" x1="281.4" y1="179.6" x2="324.6" y2="179.6"/>
					<rect x="188.4" y="5.8" style="fill:#2E9BC6;" width="110.2" height="513"/>
					<rect x="163.5" y="5.8" style="fill:#22557F;" width="48.8" height="513"/>
					
						<line style="fill:none;stroke:#A4E3FF;stroke-width:6.2715;stroke-miterlimit:10;" x1="281.1" y1="459.6" x2="296.5" y2="459.6"/>
					<line style="fill:none;stroke:#A4E3FF;stroke-width:6.2715;stroke-miterlimit:10;" x1="268.5" y1="38.1" x2="274" y2="38.1"/>
					
						<line style="fill:none;stroke:#A4E3FF;stroke-width:6.2715;stroke-miterlimit:10;" x1="254.9" y1="326.7" x2="268.5" y2="326.7"/>
					
						<line style="fill:none;stroke:#A4E3FF;stroke-width:6.2715;stroke-miterlimit:10;" x1="223.7" y1="38.1" x2="234.3" y2="38.1"/>
					
						<line style="fill:none;stroke:#A4E3FF;stroke-width:6.2715;stroke-miterlimit:10;" x1="220" y1="459.6" x2="233.3" y2="459.6"/>
					
						<line style="opacity:0.53;fill:none;stroke:#A4E3FF;stroke-width:6.2715;stroke-miterlimit:10;" x1="179.9" y1="326.7" x2="201.7" y2="326.7"/>
					
						<line style="opacity:0.53;fill:none;stroke:#A4E3FF;stroke-width:6.2715;stroke-miterlimit:10;" x1="163.6" y1="38.1" x2="186" y2="38.1"/>
					
						<line style="fill:none;stroke:#A4E3FF;stroke-width:6.2715;stroke-miterlimit:10;" x1="163.5" y1="326.7" x2="175.8" y2="326.7"/>
					
						<line style="fill:none;stroke:#A4E3FF;stroke-width:6.2715;stroke-miterlimit:10;" x1="281.1" y1="344.1" x2="298.6" y2="344.1"/>
					
						<line style="fill:none;stroke:#A4E3FF;stroke-width:6.2715;stroke-miterlimit:10;" x1="246.2" y1="55.4" x2="259.7" y2="55.4"/>
					
						<line style="fill:none;stroke:#A4E3FF;stroke-width:6.2715;stroke-miterlimit:10;" x1="220" y1="476.9" x2="246.2" y2="476.9"/>
					
						<line style="opacity:0.53;fill:none;stroke:#A4E3FF;stroke-width:6.2715;stroke-miterlimit:10;" x1="212.3" y1="55.4" x2="198.9" y2="55.4"/>
					
						<line style="opacity:0.53;fill:none;stroke:#A4E3FF;stroke-width:6.2715;stroke-miterlimit:10;" x1="163.5" y1="55.4" x2="173.2" y2="55.4"/>
					
						<line style="fill:none;stroke:#A4E3FF;stroke-width:6.2715;stroke-miterlimit:10;" x1="272.3" y1="493.3" x2="296.5" y2="493.3"/>
					<line style="fill:none;stroke:#A4E3FF;stroke-width:6.2715;stroke-miterlimit:10;" x1="254.9" y1="71.8" x2="263" y2="71.8"/>
					
						<line style="fill:none;stroke:#A4E3FF;stroke-width:6.2715;stroke-miterlimit:10;" x1="212.1" y1="360.4" x2="229.7" y2="360.4"/>
					
						<line style="fill:none;stroke:#A4E3FF;stroke-width:6.2715;stroke-miterlimit:10;" x1="212.7" y1="71.8" x2="237.4" y2="71.8"/>
					
						<line style="opacity:0.53;fill:none;stroke:#A4E3FF;stroke-width:6.2715;stroke-miterlimit:10;" x1="177.4" y1="71.8" x2="188.4" y2="71.8"/>
					
						<line style="fill:none;stroke:#A4E3FF;stroke-width:6.2715;stroke-miterlimit:10;" x1="289.6" y1="89.1" x2="296.5" y2="89.1"/>
					
						<line style="fill:none;stroke:#A4E3FF;stroke-width:6.2715;stroke-miterlimit:10;" x1="277.3" y1="510.6" x2="289.6" y2="510.6"/>
					
						<line style="fill:none;stroke:#A4E3FF;stroke-width:6.2715;stroke-miterlimit:10;" x1="239.5" y1="89.1" x2="249.9" y2="89.1"/>
					
						<line style="fill:none;stroke:#A4E3FF;stroke-width:6.2715;stroke-miterlimit:10;" x1="220.3" y1="377.7" x2="237.7" y2="377.7"/>
					
						<line style="fill:none;stroke:#A4E3FF;stroke-width:6.2715;stroke-miterlimit:10;" x1="212.3" y1="89.1" x2="228.7" y2="89.1"/>
					
						<line style="fill:none;stroke:#A4E3FF;stroke-width:6.2715;stroke-miterlimit:10;" x1="175.8" y1="510.6" x2="194.2" y2="510.6"/>
					
						<line style="opacity:0.53;fill:none;stroke:#A4E3FF;stroke-width:6.2715;stroke-miterlimit:10;" x1="163.5" y1="89.1" x2="175.8" y2="89.1"/>
					
						<line style="fill:none;stroke:#A4E3FF;stroke-width:6.2715;stroke-miterlimit:10;" x1="289.6" y1="260.5" x2="296.5" y2="260.5"/>
					
						<line style="fill:none;stroke:#A4E3FF;stroke-width:6.2715;stroke-miterlimit:10;" x1="254.9" y1="394.1" x2="289.6" y2="394.1"/>
					
						<line style="fill:none;stroke:#A4E3FF;stroke-width:6.2715;stroke-miterlimit:10;" x1="237.4" y1="260.5" x2="254.9" y2="260.5"/>
					
						<line style="fill:none;stroke:#A4E3FF;stroke-width:6.2715;stroke-miterlimit:10;" x1="228.7" y1="260.5" x2="237.4" y2="260.5"/>
					
						<line style="opacity:0.39;fill:none;stroke:#A4E3FF;stroke-width:6.2715;stroke-miterlimit:10;" x1="201.4" y1="394.1" x2="228.7" y2="394.1"/>
					
						<line style="opacity:0.14;fill:none;stroke:#CFF3FF;stroke-width:6.2715;stroke-miterlimit:10;" x1="184.6" y1="526.9" x2="191.8" y2="526.9"/>
					
						<line style="opacity:0.53;fill:none;stroke:#A4E3FF;stroke-width:6.2715;stroke-miterlimit:10;" x1="163.5" y1="105.5" x2="173.2" y2="105.5"/>
					
						<line style="fill:none;stroke:#A4E3FF;stroke-width:6.2715;stroke-miterlimit:10;" x1="272.3" y1="411.4" x2="296.5" y2="411.4"/>
					
						<line style="fill:none;stroke:#A4E3FF;stroke-width:6.2715;stroke-miterlimit:10;" x1="250.1" y1="510.6" x2="258.8" y2="510.6"/>
					
						<line style="fill:none;stroke:#A4E3FF;stroke-width:6.2715;stroke-miterlimit:10;" x1="258.9" y1="277.8" x2="263.7" y2="277.8"/>
					
						<line style="fill:none;stroke:#A4E3FF;stroke-width:6.2715;stroke-miterlimit:10;" x1="215.2" y1="510.6" x2="245.4" y2="510.6"/>
					
						<line style="opacity:0.14;fill:none;stroke:#CFF3FF;stroke-width:6.2715;stroke-miterlimit:10;" x1="179.8" y1="544.2" x2="199.7" y2="544.2"/>
					
						<line style="fill:none;stroke:#A4E3FF;stroke-width:6.2715;stroke-miterlimit:10;" x1="172.6" y1="411.4" x2="179.8" y2="411.4"/>
					
						<line style="opacity:0.53;fill:none;stroke:#A4E3FF;stroke-width:6.2715;stroke-miterlimit:10;" x1="169.9" y1="122.8" x2="178.9" y2="122.8"/>
					
						<line style="fill:none;stroke:#A4E3FF;stroke-width:6.2715;stroke-miterlimit:10;" x1="285.3" y1="294.2" x2="296.5" y2="294.2"/>
					
						<line style="fill:none;stroke:#A4E3FF;stroke-width:6.2715;stroke-miterlimit:10;" x1="254.9" y1="427.8" x2="285.3" y2="427.8"/>
					
						<line style="fill:none;stroke:#A4E3FF;stroke-width:6.2715;stroke-miterlimit:10;" x1="250.1" y1="294.2" x2="254.9" y2="294.2"/>
					
						<line style="opacity:0.39;fill:none;stroke:#A4E3FF;stroke-width:6.2715;stroke-miterlimit:10;" x1="194.2" y1="427.8" x2="212.3" y2="427.8"/>
					
						<line style="opacity:0.53;fill:none;stroke:#A4E3FF;stroke-width:6.2715;stroke-miterlimit:10;" x1="163.5" y1="294.2" x2="169.9" y2="294.2"/>
					
						<line style="fill:none;stroke:#A4E3FF;stroke-width:6.2715;stroke-miterlimit:10;" x1="281.1" y1="311.5" x2="296.5" y2="311.5"/>
					
						<line style="fill:none;stroke:#A4E3FF;stroke-width:6.2715;stroke-miterlimit:10;" x1="246.2" y1="445.1" x2="263.7" y2="445.1"/>
					
						<line style="opacity:0.39;fill:none;stroke:#A4E3FF;stroke-width:6.2715;stroke-miterlimit:10;" x1="185.9" y1="445.1" x2="212.3" y2="445.1"/>
					
						<line style="opacity:0.14;fill:none;stroke:#CFF3FF;stroke-width:6.2715;stroke-miterlimit:10;" x1="174.2" y1="445.1" x2="183.8" y2="445.1"/>
					<line style="fill:none;stroke:#CFF3FF;stroke-width:6.2715;stroke-miterlimit:10;" x1="283" y1="38.1" x2="290.8" y2="38.1"/>
					
						<line style="fill:none;stroke:#CFF3FF;stroke-width:6.2715;stroke-miterlimit:10;" x1="264.6" y1="326.7" x2="278.2" y2="326.7"/>
					<line style="fill:none;stroke:#CFF3FF;stroke-width:6.2715;stroke-miterlimit:10;" x1="243" y1="38.1" x2="264.6" y2="38.1"/>
					
						<line style="fill:none;stroke:#CFF3FF;stroke-width:6.2715;stroke-miterlimit:10;" x1="229.7" y1="459.6" x2="243" y2="459.6"/>
					
						<line style="fill:none;stroke:#CFF3FF;stroke-width:6.2715;stroke-miterlimit:10;" x1="212.5" y1="326.7" x2="234.3" y2="326.7"/>
					
						<line style="opacity:0.14;fill:none;stroke:#CFF3FF;stroke-width:6.2715;stroke-miterlimit:10;" x1="192.6" y1="38.1" x2="207.9" y2="38.1"/>
					
						<line style="opacity:0.14;fill:none;stroke:#CFF3FF;stroke-width:6.2715;stroke-miterlimit:10;" x1="173.2" y1="326.7" x2="185.5" y2="326.7"/>
					
						<line style="fill:none;stroke:#CFF3FF;stroke-width:6.2715;stroke-miterlimit:10;" x1="265.9" y1="55.4" x2="279.5" y2="55.4"/>
					
						<line style="fill:none;stroke:#CFF3FF;stroke-width:6.2715;stroke-miterlimit:10;" x1="229.7" y1="476.9" x2="255.9" y2="476.9"/>
					
						<line style="fill:none;stroke:#CFF3FF;stroke-width:6.2715;stroke-miterlimit:10;" x1="212.5" y1="55.4" x2="229.7" y2="55.4"/>
					
						<line style="opacity:0.53;fill:none;stroke:#A4E3FF;stroke-width:6.2715;stroke-miterlimit:10;" x1="190.3" y1="344.1" x2="212.3" y2="344.1"/>
					
						<line style="opacity:0.14;fill:none;stroke:#CFF3FF;stroke-width:6.2715;stroke-miterlimit:10;" x1="179.8" y1="55.4" x2="190.3" y2="55.4"/>
					
						<line style="fill:none;stroke:#CFF3FF;stroke-width:6.2715;stroke-miterlimit:10;" x1="268.7" y1="71.8" x2="286.1" y2="71.8"/>
					
						<line style="fill:none;stroke:#CFF3FF;stroke-width:6.2715;stroke-miterlimit:10;" x1="247.1" y1="360.4" x2="264.6" y2="360.4"/>
					
						<line style="fill:none;stroke:#CFF3FF;stroke-width:6.2715;stroke-miterlimit:10;" x1="212.7" y1="71.8" x2="247.1" y2="71.8"/>
					
						<line style="opacity:0.39;fill:none;stroke:#CFF3FF;stroke-width:6.2715;stroke-miterlimit:10;" x1="198.1" y1="360.4" x2="212.7" y2="360.4"/>
					
						<line style="opacity:0.14;fill:none;stroke:#CFF3FF;stroke-width:6.2715;stroke-miterlimit:10;" x1="194.7" y1="71.8" x2="205.7" y2="71.8"/>
					
						<line style="opacity:0.14;fill:none;stroke:#CFF3FF;stroke-width:6.2715;stroke-miterlimit:10;" x1="173.2" y1="360.4" x2="187.1" y2="360.4"/>
					<line style="fill:none;stroke:#CFF3FF;stroke-width:6.2715;stroke-miterlimit:10;" x1="255.9" y1="89.1" x2="287" y2="89.1"/>
					<line style="fill:none;stroke:#A4E3FF;stroke-width:6.2715;stroke-miterlimit:10;" x1="240.3" y1="108" x2="234.9" y2="108"/>
					<line style="fill:none;stroke:#A4E3FF;stroke-width:6.2715;stroke-miterlimit:10;" x1="285.2" y1="108" x2="274.5" y2="108"/>
					
						<line style="fill:none;stroke:#A4E3FF;stroke-width:6.2715;stroke-miterlimit:10;" x1="262.7" y1="125.3" x2="249.1" y2="125.3"/>
					
						<line style="fill:none;stroke:#A4E3FF;stroke-width:6.2715;stroke-miterlimit:10;" x1="253.9" y1="141.7" x2="245.9" y2="141.7"/>
					
						<line style="fill:none;stroke:#A4E3FF;stroke-width:6.2715;stroke-miterlimit:10;" x1="298.1" y1="141.7" x2="271.5" y2="141.7"/>
					<line style="fill:none;stroke:#A4E3FF;stroke-width:6.2715;stroke-miterlimit:10;" x1="269.4" y1="159" x2="259" y2="159"/>
					<line style="fill:none;stroke:#A4E3FF;stroke-width:6.2715;stroke-miterlimit:10;" x1="298.4" y1="159" x2="280.1" y2="159"/>
					<line style="fill:none;stroke:#CFF3FF;stroke-width:6.2715;stroke-miterlimit:10;" x1="225.8" y1="108" x2="218" y2="108"/>
					<line style="fill:none;stroke:#CFF3FF;stroke-width:6.2715;stroke-miterlimit:10;" x1="265.8" y1="108" x2="244.2" y2="108"/>
					
						<line style="fill:none;stroke:#CFF3FF;stroke-width:6.2715;stroke-miterlimit:10;" x1="242.9" y1="125.3" x2="229.4" y2="125.3"/>
					
						<line style="fill:none;stroke:#CFF3FF;stroke-width:6.2715;stroke-miterlimit:10;" x1="298.2" y1="125.3" x2="279.2" y2="125.3"/>
					
						<line style="fill:none;stroke:#CFF3FF;stroke-width:6.2715;stroke-miterlimit:10;" x1="240.2" y1="141.7" x2="222.8" y2="141.7"/>
					
						<line style="fill:none;stroke:#CFF3FF;stroke-width:6.2715;stroke-miterlimit:10;" x1="298.1" y1="141.7" x2="261.8" y2="141.7"/>
					<line style="fill:none;stroke:#CFF3FF;stroke-width:6.2715;stroke-miterlimit:10;" x1="253" y1="159" x2="221.8" y2="159"/>
					
						<line style="fill:none;stroke:#CFF3FF;stroke-width:6.2715;stroke-miterlimit:10;" x1="263.3" y1="377.7" x2="298.2" y2="377.7"/>
					
						<line style="opacity:0.14;fill:none;stroke:#CFF3FF;stroke-width:6.2715;stroke-miterlimit:10;" x1="185.5" y1="510.6" x2="203.9" y2="510.6"/>
					
						<line style="opacity:0.39;fill:none;stroke:#CFF3FF;stroke-width:6.2715;stroke-miterlimit:10;" x1="200" y1="89.1" x2="212.2" y2="89.1"/>
					
						<line style="fill:none;stroke:#CFF3FF;stroke-width:6.2715;stroke-miterlimit:10;" x1="262" y1="260.5" x2="270.7" y2="260.5"/>
					
						<line style="fill:none;stroke:#CFF3FF;stroke-width:6.2715;stroke-miterlimit:10;" x1="212.1" y1="394.1" x2="238.4" y2="394.1"/>
					
						<line style="opacity:0.39;fill:none;stroke:#CFF3FF;stroke-width:6.2715;stroke-miterlimit:10;" x1="194.3" y1="526.9" x2="201.5" y2="526.9"/>
					
						<line style="opacity:0.14;fill:none;stroke:#CFF3FF;stroke-width:6.2715;stroke-miterlimit:10;" x1="179.9" y1="105.5" x2="201" y2="105.5"/>
					
						<line style="opacity:0.53;fill:none;stroke:#A4E3FF;stroke-width:6.2715;stroke-miterlimit:10;" x1="163.5" y1="159" x2="176.9" y2="159"/>
					
						<line style="opacity:0.53;fill:none;stroke:#A4E3FF;stroke-width:6.2715;stroke-miterlimit:10;" x1="212.3" y1="159" x2="202.6" y2="159"/>
					
						<line style="opacity:0.53;fill:none;stroke:#A4E3FF;stroke-width:6.2715;stroke-miterlimit:10;" x1="198.4" y1="175.3" x2="187.4" y2="175.3"/>
					
						<line style="opacity:0.53;fill:none;stroke:#A4E3FF;stroke-width:6.2715;stroke-miterlimit:10;" x1="212.3" y1="192.6" x2="200" y2="192.6"/>
					
						<line style="opacity:0.53;fill:none;stroke:#A4E3FF;stroke-width:6.2715;stroke-miterlimit:10;" x1="212.3" y1="209" x2="202.6" y2="209"/>
					
						<line style="opacity:0.53;fill:none;stroke:#A4E3FF;stroke-width:6.2715;stroke-miterlimit:10;" x1="205.9" y1="226.3" x2="196.9" y2="226.3"/>
					
						<line style="opacity:0.14;fill:none;stroke:#CFF3FF;stroke-width:6.2715;stroke-miterlimit:10;" x1="183.2" y1="141.7" x2="168" y2="141.7"/>
					
						<line style="opacity:0.14;fill:none;stroke:#CFF3FF;stroke-width:6.2715;stroke-miterlimit:10;" x1="196" y1="159" x2="185.6" y2="159"/>
					
						<line style="opacity:0.14;fill:none;stroke:#CFF3FF;stroke-width:6.2715;stroke-miterlimit:10;" x1="181.1" y1="175.3" x2="170.1" y2="175.3"/>
					
						<line style="opacity:0.39;fill:none;stroke:#CFF3FF;stroke-width:6.2715;stroke-miterlimit:10;" x1="175.8" y1="192.6" x2="163.6" y2="192.6"/>
					
						<line style="opacity:0.14;fill:none;stroke:#CFF3FF;stroke-width:6.2715;stroke-miterlimit:10;" x1="195.9" y1="209" x2="174.8" y2="209"/>
					
						<line style="fill:none;stroke:#CFF3FF;stroke-width:6.2715;stroke-miterlimit:10;" x1="268.6" y1="277.8" x2="273.4" y2="277.8"/>
					
						<line style="fill:none;stroke:#CFF3FF;stroke-width:6.2715;stroke-miterlimit:10;" x1="222" y1="544.2" x2="238.4" y2="544.2"/>
					
						<line style="opacity:0.39;fill:none;stroke:#A4E3FF;stroke-width:6.2715;stroke-miterlimit:10;" x1="189.5" y1="544.2" x2="209.4" y2="544.2"/>
					
						<line style="opacity:0.14;fill:none;stroke:#CFF3FF;stroke-width:6.2715;stroke-miterlimit:10;" x1="182.3" y1="411.4" x2="189.5" y2="411.4"/>
					
						<line style="fill:none;stroke:#CFF3FF;stroke-width:6.2715;stroke-miterlimit:10;" x1="264.6" y1="427.8" x2="295" y2="427.8"/>
					
						<line style="fill:none;stroke:#CFF3FF;stroke-width:6.2715;stroke-miterlimit:10;" x1="233.4" y1="294.2" x2="259.8" y2="294.2"/>
					
						<line style="opacity:0.39;fill:none;stroke:#CFF3FF;stroke-width:6.2715;stroke-miterlimit:10;" x1="181.4" y1="294.2" x2="203.9" y2="294.2"/>
					
						<line style="fill:none;stroke:#CFF3FF;stroke-width:6.2715;stroke-miterlimit:10;" x1="255.9" y1="445.1" x2="273.4" y2="445.1"/>
					
						<line style="fill:none;stroke:#CFF3FF;stroke-width:6.2715;stroke-miterlimit:10;" x1="222" y1="311.5" x2="255.9" y2="311.5"/>
					
						<line style="fill:none;stroke:#A4E3FF;stroke-width:6.2715;stroke-miterlimit:10;" x1="254.9" y1="242.4" x2="268.5" y2="242.4"/>
					
						<line style="fill:none;stroke:#A4E3FF;stroke-width:6.2715;stroke-miterlimit:10;" x1="289.6" y1="176.2" x2="296.5" y2="176.2"/>
					
						<line style="fill:none;stroke:#A4E3FF;stroke-width:6.2715;stroke-miterlimit:10;" x1="237.4" y1="176.2" x2="254.9" y2="176.2"/>
					
						<line style="fill:none;stroke:#A4E3FF;stroke-width:6.2715;stroke-miterlimit:10;" x1="228.7" y1="176.2" x2="237.4" y2="176.2"/>
					
						<line style="fill:none;stroke:#A4E3FF;stroke-width:6.2715;stroke-miterlimit:10;" x1="258.9" y1="193.5" x2="263.7" y2="193.5"/>
					
						<line style="fill:none;stroke:#A4E3FF;stroke-width:6.2715;stroke-miterlimit:10;" x1="285.3" y1="209.8" x2="296.5" y2="209.8"/>
					
						<line style="fill:none;stroke:#A4E3FF;stroke-width:6.2715;stroke-miterlimit:10;" x1="250.1" y1="209.8" x2="254.9" y2="209.8"/>
					
						<line style="fill:none;stroke:#A4E3FF;stroke-width:6.2715;stroke-miterlimit:10;" x1="281.1" y1="227.2" x2="296.5" y2="227.2"/>
					
						<line style="fill:none;stroke:#CFF3FF;stroke-width:6.2715;stroke-miterlimit:10;" x1="264.6" y1="242.4" x2="278.2" y2="242.4"/>
					
						<line style="fill:none;stroke:#CFF3FF;stroke-width:6.2715;stroke-miterlimit:10;" x1="212.5" y1="242.4" x2="234.3" y2="242.4"/>
					
						<line style="fill:none;stroke:#CFF3FF;stroke-width:6.2715;stroke-miterlimit:10;" x1="262" y1="176.2" x2="270.7" y2="176.2"/>
					
						<line style="fill:none;stroke:#CFF3FF;stroke-width:6.2715;stroke-miterlimit:10;" x1="268.6" y1="193.5" x2="273.4" y2="193.5"/>
					
						<line style="fill:none;stroke:#CFF3FF;stroke-width:6.2715;stroke-miterlimit:10;" x1="233.4" y1="209.8" x2="259.8" y2="209.8"/>
					
						<line style="fill:none;stroke:#CFF3FF;stroke-width:6.2715;stroke-miterlimit:10;" x1="222" y1="227.2" x2="255.9" y2="227.2"/>
					
						<line style="opacity:0.39;fill:none;stroke:#CFF3FF;stroke-width:6.2715;stroke-miterlimit:10;" x1="200.6" y1="311.5" x2="210.3" y2="311.5"/>
					<line style="fill:none;stroke:#46C4D1;stroke-width:7.9378;stroke-miterlimit:10;" x1="212.3" y1="5.8" x2="298.6" y2="5.8"/>
					<line style="fill:none;stroke:#3A84AD;stroke-width:7.9378;stroke-miterlimit:10;" x1="163.5" y1="5.8" x2="212.3" y2="5.8"/>
					
						<line style="fill:none;stroke:#95E4E8;stroke-width:6.2715;stroke-miterlimit:10;" x1="212.1" y1="20.8" x2="298.6" y2="20.8"/>
					<polygon style="fill:#98BA2D;" points="276.7,518.8 276.7,518.8 276.6,518.8 276.6,518.8 					"/>
				</g>
			</g>
			<g>
				<rect x="32.4" y="190.4" style="fill:#36B6DD;" width="144.1" height="11.1"/>
				<rect x="32.4" y="168.3" style="fill:#36B6DD;" width="144.1" height="11.1"/>
				<rect x="32.7" y="212.5" style="fill:#36B6DD;" width="144.1" height="11.1"/>
				<rect x="32.7" y="234.6" style="fill:#36B6DD;" width="144.1" height="11.1"/>
				<rect x="32.4" y="279" style="fill:#36B6DD;" width="144.1" height="11.1"/>
				<rect x="32.4" y="256.8" style="fill:#36B6DD;" width="144.1" height="11.1"/>
				<rect x="32" y="301.1" style="fill:#36B6DD;" width="144.1" height="11.1"/>
				<rect x="32" y="323.2" style="fill:#36B6DD;" width="144.1" height="11.1"/>
				<rect x="32.4" y="271" style="fill:#2E6193;" width="144.1" height="11.1"/>
				<rect x="32.4" y="248.8" style="fill:#2E6193;" width="144.1" height="11.1"/>
				<rect x="32" y="293.1" style="fill:#2E6193;" width="144.1" height="11.1"/>
				<rect x="32" y="315.2" style="fill:#2E6193;" width="144.1" height="11.1"/>
				<rect x="32.4" y="182.4" style="fill:#2E6193;" width="144.1" height="11.1"/>
				<rect x="32.4" y="160.3" style="fill:#2E6193;" width="144.1" height="11.1"/>
				<rect x="32.7" y="204.5" style="fill:#2E6193;" width="144.1" height="11.1"/>
				<rect x="32.7" y="226.6" style="fill:#2E6193;" width="144.1" height="11.1"/>
				<rect x="31.1" y="190.6" style="fill:#2E6193;" width="41.9" height="11.1"/>
				<rect x="31.1" y="168.4" style="fill:#2E6193;" width="41.9" height="11.1"/>
				<rect x="31.2" y="212.7" style="fill:#2E6193;" width="41.9" height="11.1"/>
				<rect x="31.2" y="234.8" style="fill:#2E6193;" width="41.9" height="11.1"/>
				<rect x="31.1" y="279.1" style="fill:#2E6193;" width="41.9" height="11.1"/>
				<rect x="31.1" y="257" style="fill:#2E6193;" width="41.9" height="11.1"/>
				<rect x="31" y="301.3" style="fill:#2E6193;" width="41.9" height="11.1"/>
				<rect x="31" y="323.4" style="fill:#2E6193;" width="41.9" height="11.1"/>
				<rect x="27.4" y="268" style="fill:#FFFFFF;" width="153.3" height="11.1"/>
				<rect x="27.4" y="290.1" style="fill:#FFFFFF;" width="153.3" height="11.1"/>
				<rect x="27.4" y="245.9" style="fill:#FFFFFF;" width="153.3" height="11.1"/>
				<rect x="27.1" y="312.3" style="fill:#FFFFFF;" width="153.3" height="11.1"/>
				<rect x="27.1" y="334.4" style="fill:#FFFFFF;" width="153.3" height="11.1"/>
				<rect x="27.4" y="179.4" style="fill:#FFFFFF;" width="153.3" height="11.1"/>
				<rect x="27.4" y="201.6" style="fill:#FFFFFF;" width="153.3" height="11.1"/>
				<rect x="27.4" y="157.2" style="fill:#FFFFFF;" width="153.3" height="11.1"/>
				<rect x="27.8" y="223.7" style="fill:#FFFFFF;" width="153.3" height="11.1"/>
				<rect x="27.4" y="268" style="fill:#CCB5A3;" width="48.3" height="11.1"/>
				<rect x="27.4" y="290.1" style="fill:#CCB5A3;" width="48.3" height="11.1"/>
				<rect x="27.4" y="245.9" style="fill:#CCB5A3;" width="48.3" height="11.1"/>
				<rect x="27.2" y="312.3" style="fill:#CCB5A3;" width="48.3" height="11.1"/>
				<rect x="27.2" y="334.4" style="fill:#CCB5A3;" width="48.3" height="11.1"/>
				<rect x="27.4" y="179.4" style="fill:#CCB5A3;" width="48.3" height="11.1"/>
				<rect x="27.4" y="201.6" style="fill:#CCB5A3;" width="48.3" height="11.1"/>
				<rect x="27.4" y="157.2" style="fill:#CCB5A3;" width="48.3" height="11.1"/>
				<rect x="27.5" y="223.7" style="fill:#CCB5A3;" width="48.3" height="11.1"/>
				<polygon style="opacity:0.2;fill:#FFFFFF;" points="111.7,171.3 88.5,171.3 83.3,179.4 106.4,179.4 				"/>
				<polygon style="opacity:0.2;fill:#FFFFFF;" points="134.1,171.3 121.7,171.3 116.5,179.4 128.8,179.4 				"/>
				<polygon style="opacity:0.2;fill:#FFFFFF;" points="140.2,193.3 102.6,193.3 97.3,201.4 135,201.4 				"/>
				<polygon style="opacity:0.2;fill:#FFFFFF;" points="169.8,193.3 157.5,193.3 152.2,201.4 164.6,201.4 				"/>
				<polygon style="opacity:0.2;fill:#FFFFFF;" points="103.9,215.4 80.7,215.4 75.5,223.5 98.7,223.5 				"/>
				<polygon style="opacity:0.2;fill:#FFFFFF;" points="118,237.3 80.4,237.3 75.1,245.4 112.8,245.4 				"/>
				<polygon style="opacity:0.2;fill:#FFFFFF;" points="162.1,237.3 149.7,237.3 144.5,245.4 156.8,245.4 				"/>
				<polygon style="opacity:0.2;fill:#FFFFFF;" points="116.3,259.5 93.1,259.5 87.8,267.6 111,267.6 				"/>
				<polygon style="opacity:0.2;fill:#FFFFFF;" points="144.8,281.5 107.2,281.5 101.9,289.6 139.5,289.6 				"/>
				<polygon style="opacity:0.2;fill:#FFFFFF;" points="174.4,281.5 162.1,281.5 156.8,289.6 169.2,289.6 				"/>
				<polygon style="opacity:0.2;fill:#FFFFFF;" points="108.5,303.6 85.3,303.6 80.1,311.7 103.2,311.7 				"/>
				<polygon style="opacity:0.2;fill:#FFFFFF;" points="156.2,303.6 143.8,303.6 138.6,311.7 150.9,311.7 				"/>
				<polygon style="opacity:0.2;fill:#FFFFFF;" points="122.6,325.5 85,325.5 79.7,333.6 117.3,333.6 				"/>
				<polygon style="opacity:0.2;fill:#FFFFFF;" points="166.6,325.5 154.3,325.5 149,333.6 161.4,333.6 				"/>
			</g>
			<g>
				<rect x="32.4" y="367.3" style="fill:#36B6DD;" width="144.1" height="11.1"/>
				<rect x="32.4" y="345.2" style="fill:#36B6DD;" width="144.1" height="11.1"/>
				<rect x="32.7" y="389.4" style="fill:#36B6DD;" width="144.1" height="11.1"/>
				<rect x="32.7" y="411.5" style="fill:#36B6DD;" width="144.1" height="11.1"/>
				<rect x="32.4" y="455.9" style="fill:#36B6DD;" width="144.1" height="11.1"/>
				<rect x="32.4" y="433.8" style="fill:#36B6DD;" width="144.1" height="11.1"/>
				<rect x="32" y="478" style="fill:#36B6DD;" width="144.1" height="11.1"/>
				<rect x="32" y="500.1" style="fill:#36B6DD;" width="144.1" height="11.1"/>
				<rect x="32.4" y="447.9" style="fill:#2E6193;" width="144.1" height="11.1"/>
				<rect x="32.4" y="425.8" style="fill:#2E6193;" width="144.1" height="11.1"/>
				<rect x="32" y="470" style="fill:#2E6193;" width="144.1" height="11.1"/>
				<rect x="32" y="492.1" style="fill:#2E6193;" width="144.1" height="11.1"/>
				<rect x="32.4" y="359.3" style="fill:#2E6193;" width="144.1" height="11.1"/>
				<rect x="32.4" y="337.2" style="fill:#2E6193;" width="144.1" height="11.1"/>
				<rect x="32.7" y="381.4" style="fill:#2E6193;" width="144.1" height="11.1"/>
				<rect x="32.7" y="403.6" style="fill:#2E6193;" width="144.1" height="11.1"/>
				<rect x="31.1" y="367.5" style="fill:#2E6193;" width="41.9" height="11.1"/>
				<rect x="31.1" y="345.4" style="fill:#2E6193;" width="41.9" height="11.1"/>
				<rect x="31.2" y="389.6" style="fill:#2E6193;" width="41.9" height="11.1"/>
				<rect x="31.2" y="411.7" style="fill:#2E6193;" width="41.9" height="11.1"/>
				<rect x="31.1" y="456.1" style="fill:#2E6193;" width="41.9" height="11.1"/>
				<rect x="31.1" y="434" style="fill:#2E6193;" width="41.9" height="11.1"/>
				<rect x="31" y="478.2" style="fill:#2E6193;" width="41.9" height="11.1"/>
				<rect x="31" y="500.3" style="fill:#2E6193;" width="41.9" height="11.1"/>
				<rect x="27.4" y="445" style="fill:#FFFFFF;" width="153.3" height="11.1"/>
				<rect x="27.4" y="467.1" style="fill:#FFFFFF;" width="153.3" height="11.1"/>
				<rect x="27.4" y="422.8" style="fill:#FFFFFF;" width="153.3" height="11.1"/>
				<rect x="27.1" y="489.2" style="fill:#FFFFFF;" width="153.3" height="11.1"/>
				<rect x="27.1" y="511.3" style="fill:#FFFFFF;" width="153.3" height="11.1"/>
				<rect x="27.4" y="356.4" style="fill:#FFFFFF;" width="153.3" height="11.1"/>
				<rect x="27.4" y="378.5" style="fill:#FFFFFF;" width="153.3" height="11.1"/>
				<rect x="27.4" y="334.1" style="fill:#FFFFFF;" width="153.3" height="11.1"/>
				<rect x="27.8" y="400.6" style="fill:#FFFFFF;" width="153.3" height="11.1"/>
				<rect x="27.4" y="445" style="fill:#CCB5A3;" width="48.3" height="11.1"/>
				<rect x="27.4" y="467.1" style="fill:#CCB5A3;" width="48.3" height="11.1"/>
				<rect x="27.4" y="422.8" style="fill:#CCB5A3;" width="48.3" height="11.1"/>
				<rect x="27.2" y="489.2" style="fill:#CCB5A3;" width="48.3" height="11.1"/>
				<rect x="27.2" y="511.3" style="fill:#CCB5A3;" width="48.3" height="11.1"/>
				<rect x="27.4" y="356.4" style="fill:#CCB5A3;" width="48.3" height="11.1"/>
				<rect x="27.4" y="378.5" style="fill:#CCB5A3;" width="48.3" height="11.1"/>
				<rect x="27.4" y="334.1" style="fill:#CCB5A3;" width="48.3" height="11.1"/>
				<rect x="27.5" y="400.6" style="fill:#CCB5A3;" width="48.3" height="11.1"/>
				<polygon style="opacity:0.2;fill:#FFFFFF;" points="111.7,348.3 88.5,348.3 83.3,356.4 106.4,356.4 				"/>
				<polygon style="opacity:0.2;fill:#FFFFFF;" points="134.1,348.3 121.7,348.3 116.5,356.4 128.8,356.4 				"/>
				<polygon style="opacity:0.2;fill:#FFFFFF;" points="140.2,370.2 102.6,370.2 97.3,378.3 135,378.3 				"/>
				<polygon style="opacity:0.2;fill:#FFFFFF;" points="169.8,370.2 157.5,370.2 152.2,378.3 164.6,378.3 				"/>
				<polygon style="opacity:0.2;fill:#FFFFFF;" points="103.9,392.3 80.7,392.3 75.5,400.4 98.7,400.4 				"/>
				<polygon style="opacity:0.2;fill:#FFFFFF;" points="118,414.3 80.4,414.3 75.1,422.4 112.8,422.4 				"/>
				<polygon style="opacity:0.2;fill:#FFFFFF;" points="162.1,414.3 149.7,414.3 144.5,422.4 156.8,422.4 				"/>
				<polygon style="opacity:0.2;fill:#FFFFFF;" points="116.3,436.5 93.1,436.5 87.8,444.6 111,444.6 				"/>
				<polygon style="opacity:0.2;fill:#FFFFFF;" points="144.8,458.4 107.2,458.4 101.9,466.5 139.5,466.5 				"/>
				<polygon style="opacity:0.2;fill:#FFFFFF;" points="174.4,458.4 162.1,458.4 156.8,466.5 169.2,466.5 				"/>
				<polygon style="opacity:0.2;fill:#FFFFFF;" points="108.5,480.5 85.3,480.5 80.1,488.6 103.2,488.6 				"/>
				<polygon style="opacity:0.2;fill:#FFFFFF;" points="156.2,480.5 143.8,480.5 138.6,488.6 150.9,488.6 				"/>
				<polygon style="opacity:0.2;fill:#FFFFFF;" points="122.6,502.5 85,502.5 79.7,510.6 117.3,510.6 				"/>
				<polygon style="opacity:0.2;fill:#FFFFFF;" points="166.6,502.5 154.3,502.5 149,510.6 161.4,510.6 				"/>
			</g>
			<g>
				<g style="opacity:0.68;">
					<rect x="510.7" y="413.6" style="fill:#A4E3FF;" width="34.5" height="4.5"/>
				</g>
				<g style="opacity:0.68;">
					<rect x="514.4" y="420.8" style="fill:#A4E3FF;" width="11.1" height="4.5"/>
				</g>
				<g style="opacity:0.68;">
					<rect x="483.9" y="420.8" style="fill:#A4E3FF;" width="19.4" height="4.5"/>
				</g>
				<g style="opacity:0.68;">
					<rect x="488.5" y="291" style="fill:#A4E3FF;" width="28.1" height="4.5"/>
				</g>
				<g style="opacity:0.68;">
					<rect x="488.5" y="298.6" style="fill:#A4E3FF;" width="18.2" height="4.5"/>
				</g>
				<g style="opacity:0.68;">
					<rect x="526.8" y="298.6" style="fill:#A4E3FF;" width="20.9" height="4.5"/>
				</g>
				<g style="opacity:0.68;">
					<rect x="495.7" y="413.6" style="fill:#CFF3FF;" width="28.4" height="4.5"/>
				</g>
				<polygon style="fill:#22557F;" points="520.7,280.3 520.7,271.6 369.5,271.6 369.5,280.3 372,280.3 372,298.5 369.5,298.5 
					369.5,304 372,304 372,323 369.5,323 369.5,328.5 372,328.5 372,347.6 369.5,347.6 369.5,353.1 372,353.1 372,371.4 
					369.5,371.4 369.5,376.9 372,376.9 372,396 369.5,396 369.5,401.5 372,401.5 372,420.5 369.5,420.5 369.5,426 372,426 
					372,445.1 369.5,445.1 369.5,450.6 372,450.6 372,469.2 369.5,469.2 369.5,474.7 372,474.7 372,499.1 518.2,499.1 518.2,474.7 
					520.7,474.7 520.7,469.2 518.2,469.2 518.2,450.6 520.7,450.6 520.7,445.1 518.2,445.1 518.2,426 520.7,426 520.7,420.5 
					518.2,420.5 518.2,401.5 520.7,401.5 520.7,396 518.2,396 518.2,376.9 520.7,376.9 520.7,371.4 518.2,371.4 518.2,353.1 
					520.7,353.1 520.7,347.6 518.2,347.6 518.2,328.5 520.7,328.5 520.7,323 518.2,323 518.2,304 520.7,304 520.7,298.5 
					518.2,298.5 518.2,280.3 				"/>
				<g style="opacity:0.68;">
					<rect x="499.4" y="420.8" style="fill:#CFF3FF;" width="11.1" height="4.5"/>
				</g>
				<g style="opacity:0.68;">
					<rect x="511.8" y="298.6" style="fill:#CFF3FF;" width="14.8" height="4.5"/>
				</g>
				<g>
					<polygon style="fill:#CCB5A3;" points="534.2,267.5 388.1,267.5 388.1,286.6 385.5,286.6 385.5,292.1 388.1,292.1 388.1,311.1 
						385.5,311.1 385.5,316.6 388.1,316.6 388.1,335.7 385.5,335.7 385.5,341.2 388.1,341.2 388.1,359.5 385.5,359.5 385.5,365 
						388.1,365 388.1,384 385.5,384 385.5,389.5 388.1,389.5 388.1,408.5 385.5,408.5 385.5,414 388.1,414 388.1,433.1 385.5,433.1 
						385.5,438.6 388.1,438.6 388.1,457.3 385.5,457.3 385.5,462.8 388.1,462.8 388.1,487.2 534.2,487.2 534.2,462.8 536.8,462.8 
						536.8,457.3 534.2,457.3 534.2,438.6 536.8,438.6 536.8,433.1 534.2,433.1 534.2,414 536.8,414 536.8,408.5 534.2,408.5 
						534.2,389.5 536.8,389.5 536.8,384 534.2,384 534.2,365 536.8,365 536.8,359.5 534.2,359.5 534.2,341.2 536.8,341.2 
						536.8,335.7 534.2,335.7 534.2,316.6 536.8,316.6 536.8,311.1 534.2,311.1 534.2,292.1 536.8,292.1 536.8,286.6 534.2,286.6 
											"/>
					<rect x="385.5" y="259.7" style="fill:#CCB5A3;" width="151.2" height="8.7"/>
				</g>
				<rect x="418.5" y="268.1" style="fill:#FFFFFF;" width="131" height="219.7"/>
				<rect x="427.6" y="268.1" style="fill:#36B6DD;" width="9" height="19.1"/>
				<rect x="444.9" y="268.1" style="fill:#38C7E8;" width="9" height="19.1"/>
				<rect x="462.2" y="268.1" style="fill:#36B6DD;" width="9" height="19.1"/>
				<rect x="479.5" y="268.1" style="fill:#36B6DD;" width="9" height="19.1"/>
				<rect x="496.8" y="268.1" style="fill:#36B6DD;" width="9" height="19.1"/>
				<rect x="514.1" y="268.1" style="fill:#57DFFF;" width="9" height="19.1"/>
				<rect x="531.4" y="268.1" style="fill:#36B6DD;" width="9" height="19.1"/>
				<rect x="531.4" y="292.7" style="fill:#36B6DD;" width="9" height="19.1"/>
				<rect x="514.1" y="292.7" style="fill:#38C7E8;" width="9" height="19.1"/>
				<rect x="496.8" y="292.7" style="fill:#36B6DD;" width="9" height="19.1"/>
				<rect x="479.5" y="292.7" style="fill:#00CFFF;" width="9" height="19.1"/>
				<rect x="462.2" y="292.7" style="fill:#36B6DD;" width="9" height="19.1"/>
				<rect x="444.9" y="292.7" style="fill:#57DFFF;" width="9" height="19.1"/>
				<rect x="427.6" y="292.7" style="fill:#36B6DD;" width="9" height="19.1"/>
				<rect x="427.6" y="317.2" style="fill:#36B6DD;" width="9" height="19.1"/>
				<rect x="444.9" y="317.2" style="fill:#36B6DD;" width="9" height="19.1"/>
				<rect x="462.2" y="317.2" style="fill:#38C7E8;" width="9" height="19.1"/>
				<rect x="479.5" y="317.2" style="fill:#36B6DD;" width="9" height="19.1"/>
				<rect x="496.8" y="317.2" style="fill:#36B6DD;" width="9" height="19.1"/>
				<rect x="514.1" y="317.2" style="fill:#36B6DD;" width="9" height="19.1"/>
				<rect x="531.4" y="317.2" style="fill:#36B6DD;" width="9" height="19.1"/>
				<rect x="531.4" y="341.8" style="fill:#36B6DD;" width="9" height="19.1"/>
				<rect x="514.1" y="341.8" style="fill:#38C7E8;" width="9" height="19.1"/>
				<rect x="496.8" y="341.8" style="fill:#38C7E8;" width="9" height="19.1"/>
				<rect x="479.5" y="341.8" style="fill:#36B6DD;" width="9" height="19.1"/>
				<rect x="462.2" y="341.8" style="fill:#36B6DD;" width="9" height="19.1"/>
				<rect x="444.9" y="341.8" style="fill:#36B6DD;" width="9" height="19.1"/>
				<rect x="427.6" y="341.8" style="fill:#57DFFF;" width="9" height="19.1"/>
				<rect x="427.6" y="365.5" style="fill:#36B6DD;" width="9" height="19.1"/>
				<rect x="444.9" y="365.5" style="fill:#38C7E8;" width="9" height="19.1"/>
				<rect x="462.2" y="365.5" style="fill:#36B6DD;" width="9" height="19.1"/>
				<rect x="479.5" y="365.5" style="fill:#36B6DD;" width="9" height="19.1"/>
				<rect x="496.8" y="365.5" style="fill:#36B6DD;" width="9" height="19.1"/>
				<rect x="514.1" y="365.5" style="fill:#57DFFF;" width="9" height="19.1"/>
				<rect x="531.4" y="365.5" style="fill:#36B6DD;" width="9" height="19.1"/>
				<rect x="531.4" y="390.1" style="fill:#36B6DD;" width="9" height="19.1"/>
				<rect x="514.1" y="390.1" style="fill:#38C7E8;" width="9" height="19.1"/>
				<rect x="496.8" y="390.1" style="fill:#36B6DD;" width="9" height="19.1"/>
				<rect x="479.5" y="390.1" style="fill:#00CFFF;" width="9" height="19.1"/>
				<rect x="462.2" y="390.1" style="fill:#36B6DD;" width="9" height="19.1"/>
				<rect x="444.9" y="390.1" style="fill:#57DFFF;" width="9" height="19.1"/>
				<rect x="427.6" y="390.1" style="fill:#36B6DD;" width="9" height="19.1"/>
				<rect x="427.6" y="414.6" style="fill:#36B6DD;" width="9" height="19.1"/>
				<rect x="444.9" y="414.6" style="fill:#36B6DD;" width="9" height="19.1"/>
				<rect x="462.2" y="414.6" style="fill:#38C7E8;" width="9" height="19.1"/>
				<rect x="479.5" y="414.6" style="fill:#36B6DD;" width="9" height="19.1"/>
				<rect x="496.8" y="414.6" style="fill:#36B6DD;" width="9" height="19.1"/>
				<rect x="514.1" y="414.6" style="fill:#36B6DD;" width="9" height="19.1"/>
				<rect x="531.4" y="414.6" style="fill:#36B6DD;" width="9" height="19.1"/>
				<rect x="416" y="287.2" style="fill:#FFFFFF;" width="136.1" height="5.5"/>
				<rect x="416" y="336.3" style="fill:#FFFFFF;" width="136.1" height="5.5"/>
				<rect x="416" y="259.7" style="fill:#FFFFFF;" width="136.1" height="8.7"/>
				<rect x="416" y="311.7" style="fill:#FFFFFF;" width="136.1" height="5.5"/>
				<rect x="416" y="384.7" style="fill:#FFFFFF;" width="136.1" height="5.5"/>
				<rect x="416" y="360.1" style="fill:#FFFFFF;" width="136.1" height="5.5"/>
				<rect x="416" y="409.2" style="fill:#FFFFFF;" width="136.1" height="5.5"/>
				<rect x="418.5" y="268.1" style="opacity:0.5;fill:#2469CE;" width="131.1" height="5.5"/>
				<rect x="418.5" y="292.9" style="opacity:0.5;fill:#2469CE;" width="131.1" height="5.5"/>
				<rect x="418.5" y="317.2" style="opacity:0.5;fill:#2469CE;" width="131.1" height="5.5"/>
				<rect x="418.5" y="342" style="opacity:0.5;fill:#2469CE;" width="131.1" height="5.5"/>
				<rect x="418.5" y="365.6" style="opacity:0.5;fill:#2469CE;" width="131.1" height="5.5"/>
				<rect x="418.5" y="390.4" style="opacity:0.5;fill:#2469CE;" width="131.1" height="5.5"/>
				<rect x="418.5" y="414.7" style="opacity:0.5;fill:#2469CE;" width="131.1" height="5.5"/>
				<path style="fill:none;stroke:#38300E;stroke-width:3.5189;stroke-miterlimit:10;" d="M515.7,385.6"/>
			</g>
			<g>
				<g style="opacity:0.68;">
					<rect x="305.9" y="457.8" style="fill:#A4E3FF;" width="34.5" height="4.5"/>
				</g>
				<g style="opacity:0.68;">
					<rect x="309.6" y="465" style="fill:#A4E3FF;" width="11.1" height="4.5"/>
				</g>
				<g style="opacity:0.68;">
					<rect x="279.1" y="465" style="fill:#A4E3FF;" width="19.4" height="4.5"/>
				</g>
				<g style="opacity:0.68;">
					<rect x="283.7" y="335.3" style="fill:#A4E3FF;" width="28.1" height="4.5"/>
				</g>
				<g style="opacity:0.68;">
					<rect x="283.7" y="342.9" style="fill:#A4E3FF;" width="18.2" height="4.5"/>
				</g>
				<g style="opacity:0.68;">
					<rect x="322" y="342.9" style="fill:#A4E3FF;" width="20.9" height="4.5"/>
				</g>
				<g style="opacity:0.68;">
					<rect x="290.9" y="457.8" style="fill:#CFF3FF;" width="28.4" height="4.5"/>
				</g>
				<polygon style="fill:#22557F;" points="315.9,324.6 315.9,315.9 200.6,315.9 200.6,324.6 203.1,324.6 203.1,342.7 200.6,342.7 
					200.6,348.2 203.1,348.2 203.1,367.2 200.6,367.2 200.6,372.7 203.1,372.7 203.1,391.8 200.6,391.8 200.6,397.3 203.1,397.3 
					203.1,415.6 200.6,415.6 200.6,421.1 203.1,421.1 203.1,440.2 200.6,440.2 200.6,445.7 203.1,445.7 203.1,464.7 200.6,464.7 
					200.6,470.2 203.1,470.2 203.1,489.3 200.6,489.3 200.6,494.8 203.1,494.8 203.1,513.5 200.6,513.5 200.6,519 203.1,519 
					203.1,543.4 313.4,543.4 313.4,519 315.9,519 315.9,513.5 313.4,513.5 313.4,494.8 315.9,494.8 315.9,489.3 313.4,489.3 
					313.4,470.2 315.9,470.2 315.9,464.7 313.4,464.7 313.4,445.7 315.9,445.7 315.9,440.2 313.4,440.2 313.4,421.1 315.9,421.1 
					315.9,415.6 313.4,415.6 313.4,397.3 315.9,397.3 315.9,391.8 313.4,391.8 313.4,372.7 315.9,372.7 315.9,367.2 313.4,367.2 
					313.4,348.2 315.9,348.2 315.9,342.7 313.4,342.7 313.4,324.6 				"/>
				<g style="opacity:0.68;">
					<rect x="294.6" y="465" style="fill:#CFF3FF;" width="11.1" height="4.5"/>
				</g>
				<g style="opacity:0.68;">
					<rect x="307" y="342.9" style="fill:#CFF3FF;" width="14.8" height="4.5"/>
				</g>
				<g>
					<polygon style="fill:#CCB5A3;" points="329.4,311.7 219.1,311.7 219.1,330.8 216.6,330.8 216.6,336.3 219.1,336.3 219.1,355.3 
						216.6,355.3 216.6,360.8 219.1,360.8 219.1,379.9 216.6,379.9 216.6,385.4 219.1,385.4 219.1,403.7 216.6,403.7 216.6,409.2 
						219.1,409.2 219.1,428.3 216.6,428.3 216.6,433.8 219.1,433.8 219.1,452.8 216.6,452.8 216.6,458.3 219.1,458.3 219.1,477.4 
						216.6,477.4 216.6,482.9 219.1,482.9 219.1,501.6 216.6,501.6 216.6,507.1 219.1,507.1 219.1,531.4 329.4,531.4 329.4,507.1 
						331.9,507.1 331.9,501.6 329.4,501.6 329.4,482.9 331.9,482.9 331.9,477.4 329.4,477.4 329.4,458.3 331.9,458.3 331.9,452.8 
						329.4,452.8 329.4,433.8 331.9,433.8 331.9,428.3 329.4,428.3 329.4,409.2 331.9,409.2 331.9,403.7 329.4,403.7 329.4,385.4 
						331.9,385.4 331.9,379.9 329.4,379.9 329.4,360.8 331.9,360.8 331.9,355.3 329.4,355.3 329.4,336.3 331.9,336.3 331.9,330.8 
						329.4,330.8 					"/>
					<rect x="216.6" y="303.9" style="fill:#CCB5A3;" width="115.3" height="8.7"/>
				</g>
				<rect x="249.6" y="312.4" style="fill:#FFFFFF;" width="95.2" height="219.7"/>
				<rect x="257.4" y="312.4" style="fill:#36B6DD;" width="9" height="19.1"/>
				<rect x="274.7" y="312.4" style="fill:#36B6DD;" width="9" height="19.1"/>
				<rect x="292" y="312.4" style="fill:#36B6DD;" width="9" height="19.1"/>
				<rect x="309.3" y="312.4" style="fill:#57DFFF;" width="9" height="19.1"/>
				<rect x="326.6" y="312.4" style="fill:#36B6DD;" width="9" height="19.1"/>
				<rect x="326.6" y="336.9" style="fill:#36B6DD;" width="9" height="19.1"/>
				<rect x="309.3" y="336.9" style="fill:#38C7E8;" width="9" height="19.1"/>
				<rect x="292" y="336.9" style="fill:#36B6DD;" width="9" height="19.1"/>
				<rect x="274.7" y="336.9" style="fill:#00CFFF;" width="9" height="19.1"/>
				<rect x="257.4" y="336.9" style="fill:#36B6DD;" width="9" height="19.1"/>
				<rect x="257.4" y="361.4" style="fill:#38C7E8;" width="9" height="19.1"/>
				<rect x="274.7" y="361.4" style="fill:#36B6DD;" width="9" height="19.1"/>
				<rect x="292" y="361.4" style="fill:#36B6DD;" width="9" height="19.1"/>
				<rect x="309.3" y="361.4" style="fill:#36B6DD;" width="9" height="19.1"/>
				<rect x="326.6" y="361.4" style="fill:#36B6DD;" width="9" height="19.1"/>
				<rect x="326.6" y="386" style="fill:#36B6DD;" width="9" height="19.1"/>
				<rect x="309.3" y="386" style="fill:#38C7E8;" width="9" height="19.1"/>
				<rect x="292" y="386" style="fill:#38C7E8;" width="9" height="19.1"/>
				<rect x="274.7" y="386" style="fill:#36B6DD;" width="9" height="19.1"/>
				<rect x="257.4" y="386" style="fill:#36B6DD;" width="9" height="19.1"/>
				<rect x="257.4" y="409.8" style="fill:#36B6DD;" width="9" height="19.1"/>
				<rect x="274.7" y="409.8" style="fill:#36B6DD;" width="9" height="19.1"/>
				<rect x="292" y="409.8" style="fill:#36B6DD;" width="9" height="19.1"/>
				<rect x="309.3" y="409.8" style="fill:#57DFFF;" width="9" height="19.1"/>
				<rect x="326.6" y="409.8" style="fill:#36B6DD;" width="9" height="19.1"/>
				<rect x="326.6" y="434.4" style="fill:#36B6DD;" width="9" height="19.1"/>
				<rect x="309.3" y="434.4" style="fill:#38C7E8;" width="9" height="19.1"/>
				<rect x="292" y="434.4" style="fill:#36B6DD;" width="9" height="19.1"/>
				<rect x="274.7" y="434.4" style="fill:#00CFFF;" width="9" height="19.1"/>
				<rect x="257.4" y="434.4" style="fill:#36B6DD;" width="9" height="19.1"/>
				<rect x="257.4" y="458.9" style="fill:#38C7E8;" width="9" height="19.1"/>
				<rect x="274.7" y="458.9" style="fill:#36B6DD;" width="9" height="19.1"/>
				<rect x="292" y="458.9" style="fill:#36B6DD;" width="9" height="19.1"/>
				<rect x="309.3" y="458.9" style="fill:#36B6DD;" width="9" height="19.1"/>
				<rect x="326.6" y="458.9" style="fill:#36B6DD;" width="9" height="19.1"/>
				<rect x="247" y="331.4" style="fill:#FFFFFF;" width="100.2" height="5.5"/>
				<rect x="247" y="380.5" style="fill:#FFFFFF;" width="100.2" height="5.5"/>
				<rect x="247" y="355.9" style="fill:#FFFFFF;" width="100.2" height="5.5"/>
				<rect x="247" y="428.9" style="fill:#FFFFFF;" width="100.2" height="5.5"/>
				<rect x="247" y="404.3" style="fill:#FFFFFF;" width="100.2" height="5.5"/>
				<rect x="247" y="453.4" style="fill:#FFFFFF;" width="100.2" height="5.5"/>
				<rect x="249.6" y="312.4" style="opacity:0.5;fill:#2469CE;" width="95.2" height="5.5"/>
				<polyline style="opacity:0.5;fill:#2469CE;" points="294.6,342.6 249.6,342.6 249.6,337.1 344.7,337.1 344.7,342.6 294.6,342.6 
									"/>
				<rect x="249.6" y="361.4" style="opacity:0.5;fill:#2469CE;" width="95.2" height="5.5"/>
				<rect x="249.6" y="386.2" style="opacity:0.5;fill:#2469CE;" width="95.2" height="5.5"/>
				<rect x="249.6" y="409.8" style="opacity:0.5;fill:#2469CE;" width="95.2" height="5.5"/>
				<rect x="249.6" y="434.6" style="opacity:0.5;fill:#2469CE;" width="95.2" height="5.5"/>
				<rect x="249.6" y="458.9" style="opacity:0.5;fill:#2469CE;" width="95.2" height="5.5"/>
				<path style="fill:none;stroke:#38300E;stroke-width:3.5189;stroke-miterlimit:10;" d="M310.8,429.8"/>
				<rect x="247" y="303.9" style="fill:#FFFFFF;" width="100.2" height="8.7"/>
			</g>
		</g>
	</g>
	<g id="Shield">
		<g>
			<g style="enable-background:new    ;">
				<g>
					<path style="opacity:0.851;fill:#C6C6C6;" d="M10.6,315.2c-2.2-0.2-4.3-0.5-6.5-0.7c0-1.9,0-3.9,0-5.8c2.2,0.2,4.3,0.5,6.5,0.7
						c-2.2-0.2-4.3-0.5-6.5-0.7c0-0.1,0-0.1,0-0.2l6.5,0.7C10.6,311.2,10.6,313.2,10.6,315.2z"/>
				</g>
				<g>
					<path style="opacity:0.851;fill:#C6C6C6;" d="M10.6,315.5c-2.2-0.2-4.3-0.5-6.5-0.7c0-0.1,0-0.2,0-0.3c2.2,0.2,4.3,0.5,6.5,0.7
						C10.6,315.3,10.6,315.4,10.6,315.5z"/>
				</g>
				<g>
					<path style="opacity:0.851;fill:#C6C6C6;" d="M10.6,315.5c0,0.2,0,0.3,0,0.5c-2.2-0.2-4.3-0.5-6.5-0.7c0-0.2,0-0.3,0-0.5
						C6.3,315,8.5,315.3,10.6,315.5z"/>
				</g>
				<g>
					<path style="opacity:0.851;fill:#C6C6C6;" d="M10.8,321.7c-2.2-0.2-4.3-0.5-6.5-0.7c-0.1-1.9-0.1-3.8-0.2-5.7
						c2.2,0.2,4.3,0.5,6.5,0.7C10.7,317.9,10.7,319.8,10.8,321.7z"/>
				</g>
				<g>
					<path style="opacity:0.851;fill:#C6C6C6;" d="M10.8,321.7c0,0.2,0,0.4,0,0.6c-2.2-0.2-4.3-0.5-6.5-0.7c0-0.2,0-0.4,0-0.6
						C6.5,321.2,8.6,321.4,10.8,321.7z"/>
				</g>
				<g>
					<path style="opacity:0.851;fill:#C6C6C6;" d="M10.9,324.3c-2.2-0.2-4.3-0.5-6.5-0.7c0-0.7-0.1-1.4-0.1-2
						c2.2,0.2,4.3,0.5,6.5,0.7C10.9,323,10.9,323.6,10.9,324.3z"/>
				</g>
				<g>
					<path style="opacity:0.851;fill:#C6C6C6;" d="M10.9,324.6c-0.6-0.1-1.2-0.1-1.8-0.2c-0.8-0.1-1.7-0.2-2.5-0.3
						c-0.1,0-0.2,0-0.3,0c-0.1,0-0.2,0-0.3,0c-0.4,0-0.8-0.1-1.2-0.1c-0.1,0-0.2,0-0.3,0c0-0.1,0-0.2,0-0.3c2.2,0.2,4.3,0.5,6.5,0.7
						C10.9,324.4,10.9,324.5,10.9,324.6z"/>
				</g>
				<g>
					<path style="opacity:0.851;fill:#C6C6C6;" d="M10.9,324.6c0,0.2,0,0.4,0,0.5c-2.2-0.2-4.3-0.5-6.5-0.7c0-0.2,0-0.4,0-0.5
						C6.6,324.1,8.8,324.4,10.9,324.6z"/>
				</g>
				<g>
					<path style="fill:#E6E7E8;" d="M20.6,318.1c-0.2,0-0.5-0.1-0.8-0.1c-0.1,0-0.3,0-0.4,0c-0.7-0.1-1.4-0.1-2.1-0.2
						c-1.1-0.1-2.2-0.2-3.3-0.3c0,0,0,0,0,0c0.4-0.1,0.7-0.2,1.1-0.3l0,0c1.2,0.1,2.5,0.3,3.7,0.4c0.6,0.1,1.1,0.1,1.7,0.2
						c0.2,0,0.5,0.1,0.8,0.1c0.1,0,0.3,0,0.4,0c0,0,0,0,0,0C21.3,317.9,20.9,318,20.6,318.1z"/>
				</g>
				<g>
					<path style="fill:#E6E7E8;" d="M26,316.5c-1.4,0.5-2.8,0.9-4.3,1.3c-2.2-0.2-4.3-0.5-6.5-0.7c1.5-0.4,2.9-0.8,4.3-1.3
						C21.6,316.1,23.8,316.3,26,316.5z"/>
				</g>
				<g>
					<path style="fill:#E6E7E8;" d="M27.7,315.9c-0.4,0.1-0.8,0.3-1.1,0.4c-2.2-0.2-4.3-0.5-6.5-0.7c0.4-0.1,0.8-0.3,1.1-0.4
						C23.4,315.4,25.5,315.7,27.7,315.9z"/>
				</g>
				<g>
					<path style="fill:#2C88C6;" d="M27.7,315.9c-0.7,0.3-1.4,0.5-2.1,0.7l-6.5-0.7c0.7-0.2,1.4-0.5,2.1-0.7
						C23.3,315.4,25.5,315.7,27.7,315.9z"/>
				</g>
				<g>
					<path style="fill:#E6E7E8;" d="M26,316.5C26,316.5,26,316.5,26,316.5c-2.2-0.2-4.4-0.5-6.6-0.7c0,0,0,0,0,0
						C21.7,316,23.8,316.3,26,316.5z"/>
				</g>
				<g>
					<path style="fill:#E6E7E8;" d="M26,316.5C26,316.5,26,316.5,26,316.5c-2.2-0.2-4.3-0.5-6.5-0.7c0,0,0,0,0,0
						C21.7,316,23.8,316.3,26,316.5z"/>
				</g>
				<g>
					<path style="fill:#E6E7E8;" d="M26,316.5C26,316.5,26,316.5,26,316.5c-2.2-0.2-4.4-0.5-6.5-0.7c0,0,0,0,0,0
						C21.7,316,23.9,316.3,26,316.5z"/>
				</g>
				<g>
					<path style="fill:#E6E7E8;" d="M26.1,316.5C26.1,316.5,26.1,316.5,26.1,316.5c-2.2-0.2-4.4-0.5-6.5-0.7c0,0,0,0,0,0
						C21.7,316,23.9,316.3,26.1,316.5z"/>
				</g>
				<g>
					<path style="fill:#E6E7E8;" d="M26.1,316.5C26.1,316.5,26.1,316.5,26.1,316.5c-2.2-0.2-4.4-0.5-6.6-0.7c0,0,0,0,0,0
						C21.8,316,23.9,316.2,26.1,316.5z"/>
				</g>
				<g>
					<path style="fill:#E6E7E8;" d="M26.2,316.5C26.1,316.5,26.1,316.5,26.2,316.5c-2.2-0.2-4.4-0.5-6.6-0.7c0,0,0,0,0,0
						C21.8,316,24,316.2,26.2,316.5z"/>
				</g>
				<g>
					<path style="fill:#E6E7E8;" d="M26.2,316.4C26.2,316.4,26.2,316.5,26.2,316.4c-2.2-0.2-4.4-0.4-6.6-0.7c0,0,0,0,0.1,0
						C21.9,316,24.1,316.2,26.2,316.4z"/>
				</g>
				<g>
					<path style="fill:#E6E7E8;" d="M26.3,316.4C26.3,316.4,26.2,316.4,26.3,316.4c-2.2-0.2-4.4-0.4-6.6-0.7c0,0,0,0,0.1,0
						C22,315.9,24.1,316.2,26.3,316.4z"/>
				</g>
				<g>
					<path style="fill:#E6E7E8;" d="M26.4,316.4c0,0-0.1,0-0.1,0c-1.2-0.1-2.5-0.3-3.7-0.4c-0.3,0-0.6-0.1-0.8-0.1
						c-0.1,0-0.3,0-0.4,0c-0.2,0-0.6-0.1-0.8-0.1c-0.1,0-0.3,0-0.4,0c-0.1,0-0.3,0-0.4,0c0,0,0.1,0,0.1,0
						C22.1,315.9,24.2,316.1,26.4,316.4z"/>
				</g>
				<g>
					<path style="fill:#E6E7E8;" d="M26.5,316.3c0,0-0.1,0-0.1,0c-2.2-0.2-4.3-0.5-6.5-0.7c0,0,0.1,0,0.1,0
						C22.2,315.9,24.4,316.1,26.5,316.3z"/>
				</g>
				<g>
					<path style="fill:#E6E7E8;" d="M27.7,315.9C27.7,315.9,27.6,315.9,27.7,315.9c-0.2,0-0.4,0-0.5-0.1c-0.1,0-0.1,0-0.2,0
						c-0.1,0-0.1,0-0.2,0c-0.1,0-0.1,0-0.2,0c-0.1,0-0.2,0-0.4,0c-1.7-0.2-3.4-0.4-5-0.5c0,0,0.1,0,0.1,0
						C23.4,315.4,25.6,315.6,27.7,315.9C27.7,315.9,27.7,315.9,27.7,315.9z"/>
				</g>
				<g>
					<path style="fill:#E6E7E8;" d="M30.8,314.6c-1,0.4-2,0.9-3.1,1.3c-2.2-0.2-4.3-0.5-6.5-0.7c1.1-0.4,2.1-0.8,3.1-1.3
						C26.5,314.2,28.7,314.4,30.8,314.6z"/>
				</g>
				<g>
					<path style="fill:#2C88C6;" d="M27.7,315.9c-0.2,0-0.4,0-0.5-0.1c-0.2,0-0.4,0-0.6-0.1c-0.4,0-0.8-0.1-1.2-0.1
						c-0.8-0.1-1.5-0.2-2.3-0.2c-0.6-0.1-1.3-0.1-1.9-0.2c1.1-0.4,2.1-0.8,3.2-1.3c2.2,0.2,4.3,0.5,6.5,0.7
						C29.8,315.1,28.8,315.5,27.7,315.9z"/>
				</g>
				<g>
					<path style="fill:#E6E7E8;" d="M29.3,314.4c-1.6-0.2-3.3-0.4-4.9-0.5c0,0,0.1,0,0.1,0c2.2,0.2,4.3,0.5,6.5,0.7c0,0-0.1,0-0.1,0
						C30.3,314.6,29.8,314.5,29.3,314.4z"/>
				</g>
				<g>
					<path style="fill:#E6E7E8;" d="M34.4,312.8c-1.1,0.6-2.3,1.2-3.5,1.7c-2.2-0.2-4.3-0.5-6.5-0.7c1.2-0.5,2.4-1.1,3.5-1.7
						C30.1,312.4,32.3,312.6,34.4,312.8z"/>
				</g>
				<g>
					<path style="fill:#2C88C6;" d="M30.8,314.6C30.8,314.6,30.8,314.6,30.8,314.6c-0.3,0-0.5-0.1-0.7-0.1c-0.2,0-0.5,0-0.7-0.1
						c-1.7-0.2-3.4-0.4-5.1-0.5c1.2-0.6,2.4-1.2,3.6-1.8c0.8,0.1,1.6,0.2,2.4,0.3c0.7,0.1,1.5,0.2,2.2,0.2c0.2,0,0.4,0,0.6,0.1
						c0.3,0,0.5,0.1,0.8,0.1c0.2,0,0.3,0.1,0.5,0.1C33.3,313.5,32.1,314.1,30.8,314.6z"/>
				</g>
				<g>
					<path style="fill:#2C88C6;" d="M34.4,312.8c-0.2,0-0.4,0-0.5-0.1c-0.6-0.1-1.1-0.1-1.7-0.2c-0.7-0.1-1.4-0.2-2.2-0.2
						c-0.7-0.1-1.4-0.2-2.2-0.2c0.9-0.5,1.8-1,2.7-1.6c2.2,0.2,4.3,0.5,6.5,0.7C36.3,311.8,35.4,312.3,34.4,312.8z"/>
				</g>
				<g>
					<path style="fill:#E6E7E8;" d="M32.8,312.7c-1.6-0.2-3.3-0.3-4.9-0.5c0.1,0,0.2-0.1,0.2-0.1c2.2,0.2,4.3,0.5,6.5,0.7
						c-0.1,0-0.2,0.1-0.2,0.1C33.9,312.8,33.4,312.7,32.8,312.7z"/>
				</g>
				<g>
					<path style="fill:#E6E7E8;" d="M37.1,311.2c-0.8,0.5-1.6,1-2.5,1.5c-2.2-0.2-4.3-0.5-6.5-0.7c0.8-0.5,1.7-1,2.5-1.5
						C32.8,310.8,35,311,37.1,311.2z"/>
				</g>
				<g>
					<path style="fill:#E6E7E8;" d="M37.1,311.2C37.1,311.2,37.1,311.2,37.1,311.2c-2.2-0.2-4.4-0.5-6.5-0.7c0,0,0,0,0,0
						C32.8,310.8,35,311,37.1,311.2C37.2,311.2,37.1,311.2,37.1,311.2z"/>
				</g>
				<g>
					<path style="fill:#2C88C6;" d="M37.2,311.2C37.1,311.2,37.1,311.2,37.2,311.2c-0.2,0-0.4,0-0.5-0.1c0,0-0.1,0-0.1,0
						c-0.2,0-0.4,0-0.6-0.1c-1.8-0.2-3.5-0.4-5.3-0.6c1.1-0.7,2.1-1.4,3.1-2.2c0.9,0.1,1.8,0.2,2.7,0.3c0.7,0.1,1.4,0.1,2.1,0.2
						c0.1,0,0.2,0,0.3,0c0.1,0,0.2,0,0.3,0c0.2,0,0.4,0,0.5,0.1c0.1,0,0.2,0,0.2,0c0.2,0,0.3,0.1,0.5,0.1
						C39.3,309.8,38.2,310.6,37.2,311.2z"/>
				</g>
				<g>
					<path style="fill:#E6E7E8;" d="M37.2,311.2c-0.2,0-0.4,0-0.6-0.1c-0.1,0-0.2,0-0.3,0c-0.2,0-0.5,0-0.7-0.1c-0.1,0-0.2,0-0.3,0
						c-0.2,0-0.5-0.1-0.7-0.1c-0.9-0.1-1.7-0.2-2.6-0.3c-0.4,0-0.9-0.1-1.3-0.1c0.1,0,0.1-0.1,0.2-0.1c2.2,0.2,4.3,0.5,6.5,0.7
						C37.3,311.1,37.2,311.2,37.2,311.2z"/>
				</g>
				<g>
					<path style="fill:#E6E7E8;" d="M39.7,309.5c-0.8,0.6-1.6,1.1-2.4,1.6c-2.2-0.2-4.3-0.5-6.5-0.7c0.8-0.5,1.6-1.1,2.4-1.6
						C35.4,309,37.6,309.2,39.7,309.5z"/>
				</g>
				<g>
					<path style="fill:#E6E7E8;" d="M40.3,309.1c-0.2,0.1-0.4,0.3-0.5,0.4c-2.2-0.2-4.3-0.5-6.5-0.7c0.2-0.1,0.4-0.3,0.5-0.4
						C35.9,308.6,38.1,308.9,40.3,309.1z"/>
				</g>
				<g>
					<path style="fill:#E6E7E8;" d="M40.3,309.1c-0.1,0-0.1,0-0.2,0c-0.1,0-0.2,0-0.3,0c-0.1,0-0.2,0-0.3,0c-0.3,0-0.6-0.1-0.9-0.1
						c-1.6-0.2-3.1-0.3-4.7-0.5c0,0,0,0,0,0C36,308.6,38.1,308.8,40.3,309.1C40.3,309.1,40.3,309.1,40.3,309.1z"/>
				</g>
				<g>
					<path style="fill:#2C88C6;" d="M40.3,309.1c-0.1,0-0.3,0-0.5-0.1c-0.1,0-0.2,0-0.2,0c-0.4,0-0.9-0.1-1.3-0.1
						c-0.7-0.1-1.4-0.1-2-0.2c-0.8-0.1-1.6-0.2-2.4-0.3c0.8-0.6,1.6-1.2,2.3-1.8c2.2,0.2,4.3,0.5,6.5,0.7
						C41.8,307.9,41.1,308.5,40.3,309.1z"/>
				</g>
				<g>
					<path style="fill:#E6E7E8;" d="M40.3,309.1c-0.1,0-0.1,0-0.2,0c-0.3,0-0.5-0.1-0.8-0.1c-0.3,0-0.7-0.1-1-0.1
						c-0.8-0.1-1.6-0.2-2.4-0.3c-0.2,0-0.4,0-0.6-0.1c-0.4,0-0.8-0.1-1.2-0.1c-0.1,0-0.2,0-0.3,0c0.7-0.5,1.4-1.1,2.1-1.7
						c2.2,0.2,4.3,0.5,6.5,0.7C41.7,308,41,308.5,40.3,309.1z"/>
				</g>
				<g>
					<path style="fill:#E6E7E8;" d="M42.6,307.3c-0.1,0.1-0.1,0.1-0.2,0.2c-2.2-0.2-4.3-0.5-6.5-0.7c0.1-0.1,0.1-0.1,0.2-0.2
						C38.2,306.8,40.4,307,42.6,307.3z"/>
				</g>
				<g>
					<path style="fill:#E6E7E8;" d="M42.6,307.3c-0.5-0.1-0.9-0.1-1.4-0.2c-0.9-0.1-1.8-0.2-2.7-0.3c-0.2,0-0.5-0.1-0.7-0.1
						c-0.1,0-0.2,0-0.3,0c-0.2,0-0.5-0.1-0.7-0.1c-0.1,0-0.2,0-0.3,0c-0.1,0-0.2,0-0.3,0c0,0,0,0,0,0
						C38.2,306.8,40.4,307,42.6,307.3C42.6,307.3,42.6,307.3,42.6,307.3z"/>
				</g>
				<g>
					<path style="fill:#2C88C6;" d="M42.6,307.3c-2.2-0.2-4.3-0.5-6.5-0.7c0.9-0.8,1.8-1.6,2.7-2.5c1,0.1,2,0.2,2.9,0.3
						c0.6,0.1,1.3,0.1,1.9,0.2c0.1,0,0.3,0,0.5,0.1c0.1,0,0.2,0,0.2,0c0.1,0,0.2,0,0.2,0c0.1,0,0.3,0,0.5,0c0.1,0,0.2,0,0.2,0
						C44.4,305.6,43.5,306.4,42.6,307.3z"/>
				</g>
				<g>
					<path style="fill:#E6E7E8;" d="M42.6,307.2c-2.2-0.2-4.3-0.5-6.5-0.7c0.9-0.7,1.7-1.5,2.4-2.2c2.2,0.2,4.3,0.5,6.5,0.7
						C44.3,305.8,43.4,306.5,42.6,307.2z"/>
				</g>
				<g>
					<path style="fill:#E6E7E8;" d="M45.3,304.8c-0.1,0.1-0.2,0.2-0.3,0.3c-2.2-0.2-4.3-0.5-6.5-0.7c0.1-0.1,0.2-0.2,0.3-0.3
						C40.9,304.3,43.1,304.5,45.3,304.8z"/>
				</g>
				<g>
					<path style="fill:#E6E7E8;" d="M45.3,304.8c-0.7-0.1-1.5-0.2-2.2-0.2c-0.8-0.1-1.6-0.2-2.3-0.3c-0.2,0-0.4,0-0.6-0.1
						c-0.2,0-0.4,0-0.6-0.1c-0.1,0-0.2,0-0.3,0c-0.2,0-0.4-0.1-0.5-0.1c0,0,0,0,0,0C41,304.3,43.2,304.5,45.3,304.8
						C45.3,304.7,45.3,304.8,45.3,304.8z"/>
				</g>
				<g>
					<path style="fill:#2C88C6;" d="M45.3,304.8c-2.2-0.2-4.3-0.5-6.5-0.7c0.7-0.6,1.3-1.3,1.9-2c2.2,0.2,4.3,0.5,6.5,0.7
						C46.6,303.5,45.9,304.1,45.3,304.8z"/>
				</g>
				<g>
					<path style="fill:#E6E7E8;" d="M45.3,304.7c-2.2-0.2-4.3-0.5-6.5-0.7c0.6-0.6,1.2-1.2,1.7-1.8c2.2,0.2,4.3,0.5,6.5,0.7
						C46.5,303.5,45.9,304.1,45.3,304.7z"/>
				</g>
				<g>
					<path style="fill:#E6E7E8;" d="M47.2,302.8C47.1,302.8,47.1,302.9,47.2,302.8c-2.3-0.1-4.4-0.4-6.6-0.6c0,0,0.1-0.1,0.1-0.1
						C42.8,302.3,45,302.6,47.2,302.8z"/>
				</g>
				<g>
					<path style="fill:#E6E7E8;" d="M47.2,302.8c-2.2-0.2-4.3-0.5-6.5-0.7c0,0,0,0,0,0C42.8,302.3,45,302.6,47.2,302.8
						C47.2,302.8,47.2,302.8,47.2,302.8z"/>
				</g>
				<g>
					<path style="opacity:0.851;fill:#C6C6C6;" d="M43.9,271.8l6.5,0.7c-0.1,1.7-3,33.6-39.8,36.7l-6.5-0.7
						C41,305.4,43.8,273.4,43.9,271.8z"/>
				</g>
				<g>
					<path style="fill:#2C88C6;" d="M47.2,302.8c-2.2-0.2-4.3-0.5-6.5-0.7c0.8-0.9,1.6-1.8,2.3-2.8c1.1,0.1,2.2,0.2,3.3,0.3
						c0.6,0.1,1.2,0.1,1.8,0.2c0.2,0,0.4,0,0.7,0.1c0.1,0,0.2,0,0.2,0c0.1,0,0.1,0,0.2,0c0.1,0,0.3,0,0.4,0
						C48.8,301,48,301.9,47.2,302.8z"/>
				</g>
				<g>
					<path style="fill:#E6E7E8;" d="M47.2,302.8c-2.2-0.2-4.3-0.5-6.5-0.7c0.8-0.9,1.5-1.7,2.2-2.6c2.2,0.2,4.3,0.5,6.5,0.7
						C48.7,301.1,48,301.9,47.2,302.8z"/>
				</g>
				<g>
					<path style="fill:#E6E7E8;" d="M49.5,300c0,0-0.1,0.1-0.1,0.1c-2.2-0.2-4.3-0.5-6.5-0.7c0,0,0.1-0.1,0.1-0.1
						C45.2,299.6,47.3,299.8,49.5,300z"/>
				</g>
				<g>
					<path style="fill:#E6E7E8;" d="M49.5,300c-2.2-0.2-4.3-0.5-6.5-0.7c0,0,0,0,0.1-0.1C45.2,299.5,47.4,299.7,49.5,300
						C49.5,300,49.5,300,49.5,300z"/>
				</g>
				<g>
					<path style="fill:#E6E7E8;" d="M20.6,318.1c0.8,29.5,7.1,57.9,18.4,82.1c-2.2-0.2-4.3-0.5-6.5-0.7
						c-11.3-24.2-17.6-52.6-18.4-82.1C16,317.6,18.6,317.8,20.6,318.1z"/>
				</g>
				<g>
					<path style="fill:#E6E7E8;" d="M54.5,426.5c-2.2-0.2-4.3-0.5-6.5-0.7c-5.8-7.9-10.9-16.6-15.3-26.1l0,0c0-0.1-0.1-0.1-0.1-0.2
						c2.2,0.2,4.3,0.5,6.5,0.7c0,0.1,0.1,0.1,0.1,0.2C43.6,409.9,48.7,418.6,54.5,426.5z"/>
				</g>
				<g>
					<path style="fill:#2C88C6;" d="M20.6,318.1c0.8,29.6,7.1,58,18.5,82.2l-6.5-0.7c-11.4-24.2-17.8-52.7-18.5-82.2
						C16,317.6,18.6,317.8,20.6,318.1z"/>
				</g>
				<g>
					<path style="fill:#2C88C6;" d="M49.5,300c-2.2-0.2-4.3-0.5-6.5-0.7c0.5-0.7,1-1.4,1.5-2c2.2,0.2,4.3,0.5,6.5,0.7
						C50.5,298.7,50,299.3,49.5,300z"/>
				</g>
				<g>
					<path style="fill:#E6E7E8;" d="M49.6,299.9c-2.2-0.2-4.3-0.5-6.5-0.7c0.5-0.6,0.9-1.2,1.4-1.9c2.2,0.2,4.3,0.5,6.5,0.7
						C50.5,298.7,50,299.3,49.6,299.9z"/>
				</g>
				<g>
					<path style="fill:#E6E7E8;" d="M51,298C51,298,51,298,51,298c-2.2-0.2-4.4-0.4-6.6-0.6c0,0,0,0,0-0.1
						C46.6,297.5,48.8,297.8,51,298z"/>
				</g>
				<g>
					<path style="fill:#E6E7E8;" d="M51,298c-2.2-0.2-4.3-0.5-6.5-0.7c0,0,0,0,0,0C46.7,297.5,48.8,297.7,51,298
						C51,298,51,298,51,298z"/>
				</g>
				<g>
					<path style="fill:#2C88C6;" d="M53,294.9c-0.6,1-1.3,2.1-2,3.1c-2.2-0.2-4.3-0.5-6.5-0.7c0.7-1,1.4-2,2-3.1
						C48.6,294.4,50.8,294.7,53,294.9z"/>
				</g>
				<g>
					<path style="fill:#E6E7E8;" d="M51,298c-2.2-0.2-4.3-0.5-6.5-0.7c0.7-1,1.3-2,2-3c2.2,0.2,4.3,0.5,6.5,0.7
						C52.4,296,51.7,297,51,298z"/>
				</g>
				<g>
					<path style="fill:#E6E7E8;" d="M53,294.9C53,294.9,53,294.9,53,294.9c-2.2-0.2-4.4-0.4-6.5-0.7c0,0,0,0,0,0
						C48.6,294.4,50.8,294.7,53,294.9z"/>
				</g>
				<g>
					<path style="fill:#2C88C6;" d="M53,294.9c-2.2-0.2-4.3-0.5-6.5-0.7c0.4-0.7,0.8-1.3,1.1-2c2.2,0.2,4.3,0.5,6.5,0.7
						C53.7,293.6,53.4,294.3,53,294.9z"/>
				</g>
				<g>
					<path style="fill:#E6E7E8;" d="M53,294.9c-2.2-0.2-4.3-0.5-6.5-0.7c0,0,0.1-0.1,0.1-0.1c2.2,0.2,4.3,0.5,6.5,0.7
						C53,294.8,53,294.9,53,294.9z"/>
				</g>
				<g>
					<path style="fill:#E6E7E8;" d="M53.1,294.8c-2.2-0.2-4.3-0.5-6.5-0.7c0.3-0.6,0.7-1.2,1-1.8c2.2,0.2,4.3,0.5,6.5,0.7
						C53.7,293.6,53.4,294.2,53.1,294.8z"/>
				</g>
				<g>
					<path style="fill:#E6E7E8;" d="M54.1,293C54.1,293,54.1,293,54.1,293c-1.2-0.1-2.5-0.2-3.7-0.4c-0.4,0-0.8-0.1-1.3-0.1
						c-0.2,0-0.6-0.1-0.8-0.1c-0.1,0-0.3,0-0.4,0c-0.1,0-0.3,0-0.4,0c0,0,0,0,0,0C49.7,292.5,51.9,292.7,54.1,293z"/>
				</g>
				<g>
					<path style="fill:#E6E7E8;" d="M54.1,293c-2.2-0.2-4.3-0.5-6.5-0.7c0,0,0,0,0,0C49.8,292.5,51.9,292.7,54.1,293
						C54.1,292.9,54.1,293,54.1,293z"/>
				</g>
				<g>
					<path style="fill:#2C88C6;" d="M55.8,289.5c-0.5,1.2-1.1,2.3-1.7,3.5c-2.2-0.2-4.3-0.5-6.5-0.7c0.6-1.2,1.2-2.3,1.7-3.5
						C51.5,289,53.6,289.2,55.8,289.5z"/>
				</g>
				<g>
					<path style="fill:#E6E7E8;" d="M55.8,289.5c-0.5,1.2-1.1,2.3-1.7,3.5c-2.2-0.2-4.3-0.5-6.5-0.7c0.6-1.2,1.2-2.3,1.7-3.5
						C51.5,289,53.6,289.2,55.8,289.5z"/>
				</g>
				<g>
					<path style="fill:#2C88C6;" d="M55.8,289.5c-2.2-0.2-4.3-0.5-6.5-0.7c0.2-0.6,0.5-1.1,0.7-1.7c2.2,0.2,4.3,0.5,6.5,0.7
						C56.3,288.3,56.1,288.9,55.8,289.5z"/>
				</g>
				<g>
					<path style="fill:#E6E7E8;" d="M55.8,289.5c-2.2-0.2-4.3-0.5-6.5-0.7c0,0,0-0.1,0-0.1c2.2,0.2,4.3,0.5,6.5,0.7
						C55.8,289.4,55.8,289.4,55.8,289.5z"/>
				</g>
				<g>
					<path style="fill:#E6E7E8;" d="M55.9,289.2c0,0,0,0.1-0.1,0.1c-2.2-0.2-4.3-0.5-6.5-0.7c0,0,0-0.1,0.1-0.1
						C51.6,288.8,53.7,289,55.9,289.2z"/>
				</g>
				<g>
					<path style="fill:#E6E7E8;" d="M55.9,289.2c-2.2-0.2-4.3-0.5-6.5-0.7c0.2-0.5,0.4-0.9,0.6-1.4c2.2,0.2,4.3,0.5,6.5,0.7
						C56.3,288.3,56.1,288.8,55.9,289.2z"/>
				</g>
				<g>
					<path style="fill:#E6E7E8;" d="M56.5,287.8C56.5,287.8,56.5,287.8,56.5,287.8c-2.2-0.2-4.3-0.4-6.5-0.7c0,0,0,0,0,0
						C52.2,287.3,54.3,287.6,56.5,287.8z"/>
				</g>
				<g>
					<path style="fill:#E6E7E8;" d="M56.5,287.8c-2.2-0.2-4.3-0.5-6.5-0.7c0,0,0,0,0,0C52.2,287.3,54.3,287.6,56.5,287.8
						C56.5,287.8,56.5,287.8,56.5,287.8z"/>
				</g>
				<g>
					<path style="fill:#E6E7E8;" d="M58.3,282.7c-0.5,1.7-1.1,3.4-1.8,5.1c-2.2-0.2-4.3-0.5-6.5-0.7c0.7-1.7,1.3-3.4,1.8-5.1
						C53.8,282.2,56.4,282.5,58.3,282.7z"/>
				</g>
				<g>
					<path style="fill:#2C88C6;" d="M58.3,282.7c-0.5,1.7-1.1,3.4-1.8,5.1c-2.2-0.2-4.3-0.5-6.5-0.7c0.7-1.7,1.3-3.4,1.8-5.1
						C53.8,282.2,56.4,282.5,58.3,282.7z"/>
				</g>
				<g>
					<path style="fill:#2C88C6;" d="M55.7,428.1c1.6,2.2,3.3,4.3,5.1,6.4c-2.2-0.2-4.3-0.5-6.5-0.7c-1.8-2.1-3.5-4.2-5.1-6.4
						C51.4,427.6,53.6,427.8,55.7,428.1z"/>
				</g>
				<g>
					<path style="fill:#E6E7E8;" d="M54.5,426.5c5.9,8.1,12.6,15.4,19.8,21.8c-2.2-0.2-4.3-0.5-6.5-0.7
						c-7.3-6.4-13.9-13.7-19.8-21.8C50.1,426,52.3,426.2,54.5,426.5z"/>
				</g>
				<g>
					<path style="fill:#E6E7E8;" d="M76.7,450.3c-2.2-0.2-4.3-0.5-6.5-0.7c-0.8-0.7-1.6-1.4-2.4-2c2.2,0.2,4.3,0.5,6.5,0.7
						C75.1,449,75.9,449.7,76.7,450.3z"/>
				</g>
				<g>
					<polygon style="opacity:0.851;fill:#C6C6C6;" points="91.2,272.2 97.7,272.9 50.5,272.5 43.9,271.8 					"/>
				</g>
				<g>
					<path style="fill:#E6E7E8;" d="M76.7,450.3c4.1,3.4,8.3,6.6,12.8,9.5c-2.2-0.2-4.3-0.5-6.5-0.7c-4.5-2.9-8.7-6.1-12.8-9.5
						c1.8,0.2,3.6,0.4,5.4,0.6c0.2,0,0.4,0,0.5,0.1c0,0,0,0,0.1,0c0,0,0.1,0,0.1,0c0,0,0.1,0,0.1,0
						C76.5,450.3,76.6,450.3,76.7,450.3C76.7,450.3,76.7,450.3,76.7,450.3z"/>
				</g>
				<g>
					<path style="opacity:0.851;fill:#C6C6C6;" d="M11,325.1c3.2,60.4,29.1,120.5,83.4,149.6c-2.2-0.2-4.3-0.5-6.5-0.7
						C33.5,444.9,7.7,384.8,4.5,324.4C6.6,324.7,8.8,324.9,11,325.1z"/>
				</g>
				<g>
					<path style="opacity:0.851;fill:#C6C6C6;" d="M94.4,474.7c-2.2-0.2-4.3-0.5-6.5-0.7c0,0,0,0,0,0
						C90.1,474.3,92.2,474.5,94.4,474.7C94.4,474.7,94.4,474.7,94.4,474.7z"/>
				</g>
				<g>
					<path style="fill:#E6E7E8;" d="M4.1,308.7l6.5,0.7C9.9,375,35.6,443.8,95.4,475.2l-6.5-0.7C29,443.1,3.4,374.3,4.1,308.7z"/>
				</g>
				<g>
					<polygon style="fill:#E6E7E8;" points="89,462.8 95.5,463.5 95.4,475.2 88.9,474.5 					"/>
				</g>
				<g>
					<path style="opacity:0.851;fill:#C6C6C6;" d="M87.9,474C87.9,474,87.9,474,87.9,474c0.3,0.2,0.6,0.3,0.9,0.5
						C88.5,474.4,88.2,474.2,87.9,474z M95.4,475.2L95.4,475.2C95.3,475.2,95.3,475.2,95.4,475.2C95.3,475.2,95.3,475.2,95.4,475.2z
						"/>
				</g>
				<g>
					<path style="fill:#E6E7E8;" d="M91.2,271.8L91,282H51.8c-4.1,14-14.8,29.6-36.7,35.1c-0.3,0.1-0.7,0.2-1.1,0.3
						c0.8,29.6,7.1,58.1,18.5,82.3c12.1,25.6,29,45.6,50.4,59.4c1.9,1.3,3.9,2.5,5.9,3.6l-0.1,11.8C29,443.1,3.4,374.3,4.1,308.7
						c36.8-3.3,39.7-35.3,39.8-36.9H91.2z"/>
				</g>
				<g>
					<path style="fill:#2C88C6;" d="M51.8,282c-3.9,13.1-13.5,27.6-32.7,34C38.3,309.6,47.9,295.1,51.8,282z"/>
				</g>
				<g>
					<path style="fill:#2C88C6;" d="M55.7,428.1c-2.2-0.2-4.3-0.5-6.5-0.7c-6.3-8.4-11.8-17.6-16.6-27.8l6.5,0.7
						C43.9,410.4,49.4,419.7,55.7,428.1z"/>
				</g>
				<g>
					<path style="fill:#2C88C6;" d="M61.1,434.8c-2.2-0.2-4.3-0.5-6.5-0.7c-0.1-0.1-0.2-0.2-0.3-0.4c1.2,0.1,2.5,0.3,3.7,0.4
						c0.3,0,0.6,0.1,0.8,0.1c0.2,0,0.6,0.1,0.8,0.1c0.1,0,0.3,0,0.4,0c0.1,0,0.3,0,0.4,0c0.1,0,0.3,0,0.4,0
						C60.9,434.6,61,434.7,61.1,434.8z"/>
				</g>
				<g>
					<polygon style="fill:#39A6E2;" points="66,349.1 72.5,349.8 57.5,367.1 51,366.4 					"/>
				</g>
				<g>
					<polygon style="fill:#E6E7E8;" points="91,282 97.5,282.7 58.3,282.7 51.8,282 					"/>
				</g>
				<g>
					<polygon style="fill:#E6E7E8;" points="91.2,271.8 97.7,272.5 97.5,282.7 91,282 					"/>
				</g>
				<g>
					<polygon style="fill:#88CAEE;" points="66,349.1 72.5,349.8 94.8,373.3 88.3,372.6 					"/>
				</g>
				<g>
					<polygon style="fill:#39A6E2;" points="90,370.3 96.5,371 94.8,373.3 88.3,372.6 					"/>
				</g>
				<g>
					<polygon style="fill:#39A6E2;" points="91,282 97.5,282.7 96.5,371 90,370.3 					"/>
				</g>
				<g>
					<path style="fill:#E6E7E8;" d="M89.5,459.8C89.5,459.8,89.5,459.8,89.5,459.8c-2.2-0.2-4.3-0.5-6.5-0.7c0,0,0,0,0,0
						C85.2,459.3,87.3,459.6,89.5,459.8z"/>
				</g>
				<g>
					<path style="fill:#E6E7E8;" d="M89.5,459.8C89.5,459.8,89.5,459.8,89.5,459.8c-2.1-0.2-4.3-0.5-6.5-0.7c0,0,0,0,0,0
						c1.1,0.1,2.2,0.2,3.3,0.3c0.1,0,0.3,0,0.4,0c0.3,0,0.6,0.1,0.8,0.1c0.1,0,0.3,0,0.4,0c0.2,0,0.6,0.1,0.8,0.1
						C89,459.8,89.3,459.7,89.5,459.8z"/>
				</g>
				<g>
					<path style="fill:#2C88C6;" d="M61.1,434.8c8.3,9.8,17.8,18.1,28.4,25l-6.5-0.7c-10.6-6.9-20.1-15.2-28.4-25
						c2.1,0.2,4.2,0.5,6.3,0.7C61,434.8,61,434.8,61.1,434.8C61.1,434.8,61.1,434.8,61.1,434.8z"/>
				</g>
				<g>
					<path style="fill:#2C88C6;" d="M32.6,399.6c12.1,25.6,29,45.7,50.4,59.5C61.6,445.3,44.7,425.3,32.6,399.6
						c-11.4-24.1-17.8-52.7-18.5-82.2C14.9,346.9,21.2,375.4,32.6,399.6z"/>
				</g>
				<g>
					<polygon style="fill:#39A6E2;" points="51,366.4 57.5,367.1 96.1,407.9 89.6,407.2 					"/>
				</g>
				<g>
					<polygon style="fill:#88CAEE;" points="90,370.3 96.5,371 96.1,407.9 89.6,407.2 					"/>
				</g>
				<g>
					<polygon style="fill:#88CAEE;" points="66,349.1 88.3,372.6 90,370.3 89.6,407.2 51,366.4 					"/>
				</g>
				<g>
					<path style="fill:#E6E7E8;" d="M89.6,459.8c1.9,1.3,3.9,2.5,5.9,3.6l-6.5-0.7c-2-1.2-4-2.4-5.9-3.6
						C85.2,459.4,87.4,459.6,89.6,459.8z"/>
				</g>
				<g>
					<polygon style="fill:#39A6E2;" points="89.6,407.2 96.1,407.9 95.5,463.5 89,462.8 					"/>
				</g>
				<g>
					<polygon style="fill:#E6E7E8;" points="130.3,282 136.8,282.7 97.5,282.7 91,282 					"/>
				</g>
				<g>
					<polygon style="opacity:0.851;fill:#C6C6C6;" points="138.4,272.2 144.9,272.9 97.7,272.9 91.2,272.2 					"/>
				</g>
				<g>
					<polygon style="fill:#2C88C6;" points="142.1,303.4 148.6,304.1 96.5,371 90,370.3 					"/>
				</g>
				<g>
					<path style="fill:#2C88C6;" d="M130.3,282c2,7.2,5.7,14.9,11.9,21.4L90,370.3l1-88.3H130.3z"/>
				</g>
				<g>
					<path style="fill:#2C88C6;" d="M130.3,282l6.5,0.7c2,7.2,5.7,14.9,11.9,21.4l-6.5-0.7C136,296.9,132.3,289.2,130.3,282z"/>
				</g>
				<g>
					<path style="fill:#80B8DD;" d="M142.1,303.4l6.5,0.7c4.7,5,10.9,9.3,18.8,12.1l-6.5-0.7C153.1,312.7,146.9,308.4,142.1,303.4z"
						/>
				</g>
				<g>
					<polygon style="fill:#80B8DD;" points="161,315.5 167.5,316.2 96.1,407.9 89.6,407.2 					"/>
				</g>
				<g>
					<path style="fill:#2C88C6;" d="M161,315.5l6.5,0.7c2,0.7,4,1.3,6.2,1.8l-6.5-0.7C165,316.8,162.9,316.2,161,315.5z"/>
				</g>
				<g>
					<path style="fill:#2C88C6;" d="M167.2,317.4l6.5,0.7c-1.5,29.6-8.5,57.9-20.4,82.2c-13.8,27.9-33.2,49.3-57.8,63.2l-6.5-0.7
						c24.6-13.9,44-35.3,57.8-63.2C158.7,375.3,165.7,346.9,167.2,317.4z"/>
				</g>
				<g>
					<path style="fill:#E6E7E8;" d="M138.4,272.2c0.1,1.7,2.2,33.4,39,36.5c-0.7,65.6-27.9,134.4-88.5,165.8
						C29,443.1,3.4,374.3,4.1,308.7C3.4,374.3,29,443.1,88.9,474.5l0.1-11.8c24.6-13.9,44-35.3,57.8-63.2c12-24.2,19-52.6,20.4-82.2
						c-2.2-0.5-4.3-1.1-6.2-1.8c-7.9-2.8-14.1-7.1-18.8-12.1c-6.2-6.5-9.9-14.2-11.9-21.4H91l0.1-9.8H138.4z"/>
				</g>
				<g>
					<path style="fill:#80B8DD;" d="M142.1,303.4c4.7,5,10.9,9.3,18.8,12.1l-71.4,91.7l0.4-36.9L142.1,303.4z"/>
				</g>
				<g>
					<path style="fill:#2C88C6;" d="M161,315.5c2,0.7,4,1.3,6.2,1.8c-1.5,29.6-8.5,57.9-20.4,82.2c-13.8,27.9-33.2,49.3-57.8,63.2
						l0.6-55.6L161,315.5z"/>
				</g>
				<g>
					<path style="fill:#E6E7E8;" d="M182.5,309.3l-6.5-0.7c-35.4-3.8-37.5-34.8-37.6-36.4l6.5,0.7C145,274.5,147,305.5,182.5,309.3z
						"/>
				</g>
				<g>
					<path style="opacity:0.851;fill:#C6C6C6;" d="M182.7,307l-6.5-0.7c-33.2-3.6-35.5-32.9-35.6-34.2l6.5,0.7
						C147.2,274.1,149.5,303.5,182.7,307z"/>
				</g>
				<g>
					<path style="opacity:0.851;fill:#C6C6C6;" d="M183.9,309.4c-0.5,0-0.9-0.1-1.4-0.1l-6.5-0.7c0.4,0,0.9,0.1,1.4,0.1
						C179.3,308.9,181.9,309.2,183.9,309.4z"/>
				</g>
				<g>
					<path style="fill:#E6E7E8;" d="M177.4,308.7l6.5,0.7c-0.7,65.6-27.9,134.4-88.5,165.8l-6.5-0.7
						C149.4,443.1,176.6,374.3,177.4,308.7z"/>
				</g>
				<g>
					<path style="fill:#39A6E2;" d="M91,282l-1,88.3l-1.8,2.3L66,349.1L51,366.4l38.6,40.8L89,462.8c-2-1.2-4-2.4-5.9-3.6
						c-21.4-13.9-38.4-33.9-50.4-59.5c-11.4-24.2-17.8-52.7-18.5-82.2c0.4-0.1,0.7-0.2,1.1-0.3c21.9-5.5,32.5-21.2,36.7-35.1H91z"/>
				</g>
				<g>
					<polygon style="opacity:0.851;fill:#C6C6C6;" points="89.8,476.6 96.3,477.3 95.3,477.9 88.8,477.2 					"/>
				</g>
				<g>
					<polygon style="opacity:0.851;fill:#C6C6C6;" points="140.4,270.2 147,270.9 147.1,272.9 140.6,272.2 					"/>
				</g>
				<g>
					<polygon style="opacity:0.851;fill:#C6C6C6;" points="179.4,306.5 185.9,307.2 185.9,309.4 179.4,308.7 					"/>
				</g>
				<g>
					<path style="opacity:0.851;fill:#C6C6C6;" d="M179.4,308.7l6.5,0.7c-0.4,34.9-7.9,68.3-22,96.8c-15.6,31.7-39,56.3-67.7,71.1
						l-6.5-0.7c28.7-14.9,52-39.5,67.7-71.1C171.5,377,179,343.6,179.4,308.7z"/>
				</g>
			</g>
		</g>
	</g>
	<g>
		<g>
			<g>
				<polygon style="fill:#110F0F;" points="38.4,546.5 161.2,546.5 423.1,542 498,528.8 509.4,542.2 527.7,514.7 479.1,465.2 
					329.7,470.8 199.8,482.4 83.8,470.8 31.8,490.8 				"/>
				<circle style="fill:#0B1829;" cx="89" cy="532.7" r="42.8"/>
				<path style="fill:#DCDDE7;" d="M89,499.3c-18.5,0-33.4,15-33.4,33.4c0,18.5,15,33.4,33.4,33.4c18.5,0,33.4-15,33.4-33.4
					C122.5,514.3,107.5,499.3,89,499.3z M58.4,532.7c0-1.8,0.2-3.6,0.5-5.4l17.6,4.4l-18.1,1.6C58.4,533.1,58.4,532.9,58.4,532.7z
					 M91.1,519.7v-17.5c1.9,0.1,3.7,0.4,5.4,0.8L91.1,519.7z M100.5,504.3c1.9,0.8,3.7,1.7,5.3,2.8l-10.9,14.5L100.5,504.3z
					 M87,520.4L81,503.2c1.9-0.5,3.9-0.8,5.9-1V520.4z M83.1,521.7l-11.2-14.3c1.7-1.1,3.4-2.1,5.3-2.9L83.1,521.7z M59.9,523.3
					c0.6-1.9,1.4-3.8,2.4-5.5l15.3,9.9L59.9,523.3z M76.9,535.9l-16.6,7.4c-0.7-1.9-1.2-3.8-1.5-5.8L76.9,535.9z M78.6,539.7
					l-13.3,12.4c-1.3-1.5-2.4-3.2-3.3-5L78.6,539.7z M81.4,542.7l-8.5,16.1c-1.7-1.1-3.3-2.3-4.8-3.7L81.4,542.7z M85.1,544.6
					l-2.8,18c-2-0.5-3.9-1.1-5.7-1.9L85.1,544.6z M96.9,542.6l13.5,12.2c-1.4,1.4-3,2.6-4.7,3.7L96.9,542.6z M102.1,560.5
					c-1.8,0.8-3.7,1.5-5.7,2l-3.2-17.9L102.1,560.5z M99.6,539.5l16.7,7.1c-0.9,1.8-2,3.5-3.2,5.1L99.6,539.5z M101.2,535.7
					l18.1,1.3c-0.3,2-0.7,4-1.4,5.8L101.2,535.7z M101.5,531.5l17.6-4.7c0.4,1.9,0.6,3.9,0.6,5.9c0,0,0,0,0,0.1L101.5,531.5z
					 M100.5,527.5l15.1-10.2c1,1.7,1.8,3.5,2.5,5.5L100.5,527.5z M113.2,513.9l-15.1,10.2l10.9-14.5
					C110.6,510.9,112,512.4,113.2,513.9z M68.6,509.9l11.2,14.3l-15.3-9.9C65.7,512.7,67.1,511.3,68.6,509.9z M86.3,563.3l2.8-18
					l3.2,17.9c-1.1,0.1-2.2,0.2-3.3,0.2C88.1,563.4,87.2,563.3,86.3,563.3z"/>
				<path style="fill:#729AB2;" d="M94.8,532.7c0,3.2-2.6,5.8-5.8,5.8c-3.2,0-5.8-2.6-5.8-5.8c0-3.2,2.6-5.8,5.8-5.8
					C92.2,527,94.8,529.6,94.8,532.7z"/>
				<circle style="fill:#0B1829;" cx="455.2" cy="532.7" r="42.8"/>
				<path style="fill:#DCDDE7;" d="M455.2,499.3c-18.5,0-33.4,15-33.4,33.4c0,18.5,15,33.4,33.4,33.4c18.5,0,33.4-15,33.4-33.4
					C488.6,514.3,473.6,499.3,455.2,499.3z M424.5,532.7c0-1.8,0.2-3.6,0.5-5.4l17.6,4.4l-18.1,1.6
					C424.6,533.1,424.5,532.9,424.5,532.7z M457.3,519.7v-17.5c1.9,0.1,3.7,0.4,5.4,0.8L457.3,519.7z M466.6,504.3
					c1.9,0.8,3.7,1.7,5.3,2.8L461,521.6L466.6,504.3z M453.1,520.4l-5.9-17.2c1.9-0.5,3.9-0.8,5.9-1V520.4z M449.2,521.7L438,507.4
					c1.7-1.1,3.4-2.1,5.3-2.9L449.2,521.7z M426,523.3c0.6-1.9,1.4-3.8,2.4-5.5l15.3,9.9L426,523.3z M443,535.9l-16.6,7.4
					c-0.7-1.9-1.2-3.8-1.5-5.8L443,535.9z M444.7,539.7l-13.3,12.4c-1.3-1.5-2.4-3.2-3.3-5L444.7,539.7z M447.5,542.7l-8.5,16.1
					c-1.7-1.1-3.3-2.3-4.8-3.7L447.5,542.7z M451.2,544.6l-2.8,18c-2-0.5-3.9-1.1-5.7-1.9L451.2,544.6z M463,542.6l13.5,12.2
					c-1.4,1.4-3,2.6-4.7,3.7L463,542.6z M468.2,560.5c-1.8,0.8-3.7,1.5-5.7,2l-3.2-17.9L468.2,560.5z M465.8,539.5l16.7,7.1
					c-0.9,1.8-2,3.5-3.2,5.1L465.8,539.5z M467.4,535.7l18.1,1.3c-0.3,2-0.7,4-1.4,5.8L467.4,535.7z M467.7,531.5l17.6-4.7
					c0.4,1.9,0.6,3.9,0.6,5.9c0,0,0,0,0,0.1L467.7,531.5z M466.6,527.5l15.1-10.2c1,1.7,1.8,3.5,2.5,5.5L466.6,527.5z M479.4,513.9
					l-15.1,10.2l10.9-14.5C476.7,510.9,478.1,512.4,479.4,513.9z M434.7,509.9l11.2,14.3l-15.3-9.9
					C431.9,512.7,433.2,511.3,434.7,509.9z M452.5,563.3l2.8-18l3.2,17.9c-1.1,0.1-2.2,0.2-3.3,0.2
					C454.3,563.4,453.4,563.3,452.5,563.3z"/>
				<path style="fill:#729AB2;" d="M460.9,532.7c0,3.2-2.6,5.8-5.8,5.8c-3.2,0-5.8-2.6-5.8-5.8c0-3.2,2.6-5.8,5.8-5.8
					C458.4,527,460.9,529.6,460.9,532.7z"/>
				<path style="fill:#DCDDE7;" d="M568.8,502.7v-11.2c0-2.4-1.2-4.6-3.1-5.9l-7.6-5.3c0.2-1.4,0.4-2.8,0.5-4.1
					c0.3-2.8,0.3-5.4,0.3-7.8c-0.2-9.2-2.4-15-3.1-16.6c-0.1-0.3-0.2-0.5-0.2-0.5l2.6-13.4c0.4-2.2-1.5-4.2-3.7-3.8
					c-11,1.9-35.3,0-47-1.2c-2.6-0.2-5.1-1-7.4-2.1c-1.5-0.7-2.8-1.6-4.1-2.6c-19.4-15.6-40.2-26.5-61.2-34
					c-74.8-26.5-151.7-8.5-175.2-1.8c-1.8,0.5-3.5,1.1-5.2,1.8c-2.6,1-5.1,2.2-7.5,3.6L169,442c-9.5-0.2-18.6-0.1-27.3,0.2h0
					c-63.3,2.2-105.2,16-120.6,21.9c-4,1.6-6.9,5.1-7.7,9.4L10.5,490l-0.1,0.6c-0.2,0.9,0.1,1.7,0.7,2.4c0.5,0.6,0.8,1.4,0.8,2.2
					c0,0.7-0.2,1.3-0.6,1.9l-3.2,4.8H5c-2.8,0-5,2.2-5,5v6.2c0,1.5,0.7,3,1.9,3.9h0c1.7,1.4,2.8,3.4,3,5.6l1,12.3
					c0.1,1.5,0.6,3,1.3,4.4c0.9,1.6,2.2,3,3.7,4c1.5,1,3.3,1.6,5.1,1.7c4.6,0.3,11.9,0.8,22.4,1.4V533c0-27.9,22.8-50.7,50.6-50.7
					c13.9,0,26.6,5.7,35.8,14.9c9.2,9.2,14.9,21.8,14.9,35.8v16.9c61.3,0.9,178.2,0.3,264.9-1.9v-15.1c0-27.8,22.8-50.6,50.6-50.6
					h3.5c27.9,0,50.7,22.8,50.7,50.6v9.3c25.7-5.1,41.5-4.9,48.3-4.4c2.4,0.2,4.6-1.1,5.7-3.2l2.2-4.2c0.3-0.5,0.1-1.1-0.4-1.4
					c-1-0.7-1.5-1.8-1.5-2.8c0-0.8,0.3-1.6,0.9-2.3l1.5-1.7c1.6-1.8,2.1-4.4,1.1-6.7l-1.3-3c-0.7-1.6-0.4-3.4,0.9-4.6
					C568,506.5,568.8,504.6,568.8,502.7z M349.1,402.5l-9.1,32.7l-98.6,3.1c0,0,8.8-9.9-6.9-13.3c0,0,37.3-33.9,110.5-28.2
					C347.9,397,349.8,399.7,349.1,402.5z M423.4,432.7l-51.6,1.7c-3.2,0.1-5.8-2.7-5.3-6l3.5-23.6c0.4-2.5,2.7-4.3,5.3-4
					c25.7,3.5,42.5,15.8,51.1,24C429.4,427.7,427.5,432.6,423.4,432.7z"/>
				<path style="fill:#BBCFDA;" d="M44.6,481.8l-12.8,8.9c-2.7,1.9-5.9,2.9-9.1,3.1c-3.6,0.2-7.3-0.7-10.5-2.8l-1.7-1.1l2.9-16.4
					l2.8-1c4-1.5,8.3-2,12.6-1.6c2.3,0.2,4.5,0.8,6.7,1.6l8.4,3.1C46.5,476.6,47,480.2,44.6,481.8z"/>
				<path style="fill:#0E1133;" d="M254.3,394.2l-72.3,50l-40.4-1.9c8.7-0.3,17.8-0.4,27.3-0.2l77.8-44.3
					C249.2,396.4,251.7,395.2,254.3,394.2z"/>
				<path style="fill:#0E1133;" d="M500,430.7l-4.1,1.7c-19.3-17.9-70.1-38.3-70.1-38.3h9c21,7.4,41.8,18.3,61.2,34
					C497.2,429.1,498.5,430,500,430.7z"/>
				<path style="fill:#0E1133;" d="M441.7,416c-17.8-11.4-45.6-24.2-82.6-26.4c-81.9-4.9-142.7,34.5-162.3,49.2
					c-2.2,1.7-1,5.2,1.8,5.1l122.1-4.2l20.5-0.7l95.2-3.3C446.9,435.3,450.6,421.6,441.7,416z M349.1,402.5l-9.1,32.7l-98.6,3.1
					c0,0,8.8-9.9-6.9-13.3c0,0,37.3-33.9,110.5-28.2C347.9,397,349.8,399.7,349.1,402.5z M423.4,432.7l-51.6,1.7
					c-3.2,0.1-5.8-2.7-5.3-6l3.5-23.6c0.4-2.5,2.7-4.3,5.3-4c25.7,3.5,42.5,15.8,51.1,24C429.4,427.7,427.5,432.6,423.4,432.7z"/>
				<path style="fill:#FF9587;" d="M558.5,476.1h-24l-4.5-7.8l-2.8-4.9c-1.9-3.2-1-7.3,2-9.5l0.4-0.3c1.7-1.2,3.8-1.9,5.9-1.9h20.2
					C556.6,453.7,559.8,462.3,558.5,476.1z"/>
				<path style="fill:#FFFFFF;" d="M558.5,476.1h-24l-4.5-7.8h28.8C558.9,470.7,558.8,473.3,558.5,476.1z"/>
				<g>
					<path style="fill:#BBCFDA;" d="M34.6,509c2.3-5.8,5.7-11.3,9.8-16.1c4.1-4.8,9.1-8.9,14.5-12.2c10.9-6.6,24.1-9.2,36.8-7.9
						c12.7,1.4,24.9,7.1,34.1,15.9c4.6,4.4,8.5,9.5,11.5,15.1c2.9,5.6,5,11.7,6,17.9c-1.4-6.1-3.7-12-6.9-17.4
						c-3.1-5.4-7.1-10.3-11.7-14.4c-9.2-8.3-21-13.8-33.3-15c-6.1-0.7-12.4-0.5-18.5,0.8c-6.1,1.2-11.9,3.4-17.3,6.5
						c-5.4,3-10.3,7-14.6,11.5C40.9,498.1,37.3,503.3,34.6,509z"/>
				</g>
				<g>
					<path style="fill:#BBCFDA;" d="M401.6,509c2.3-5.8,5.7-11.3,9.8-16.1c4.1-4.8,9.1-8.9,14.5-12.2c10.9-6.6,24.1-9.2,36.8-7.9
						c12.7,1.4,24.9,7.1,34.1,15.9c4.6,4.4,8.5,9.5,11.5,15.1c2.9,5.6,5,11.7,6,17.9c-1.4-6.1-3.7-12-6.9-17.4
						c-3.1-5.4-7.1-10.3-11.7-14.4c-9.2-8.3-21-13.8-33.3-15c-6.1-0.7-12.4-0.5-18.5,0.8c-6.1,1.2-11.9,3.4-17.3,6.5
						c-5.4,3-10.3,7-14.6,11.5C407.8,498.1,404.3,503.3,401.6,509z"/>
				</g>
				<path style="fill:none;stroke:#BBCFDA;stroke-miterlimit:10;" d="M195.7,441.1l-17.3,12.2c-3.2,2.2-5.2,5.7-5.6,9.6
					c-1.2,12.5-3.5,39.6,4.6,67.3"/>
				<path style="fill:none;stroke:#BBCFDA;stroke-miterlimit:10;" d="M139.3,527c0,0,124.4,15.2,266.5-5.4"/>
				<path style="fill:none;stroke:#BBCFDA;stroke-miterlimit:10;" d="M347.6,438.7l9.7,11.1c0,0-5.1,45.2-18.2,79.1"/>
				<g>
					<path style="fill:#BBCFDA;" d="M115.8,460.9c35.2-3.9,70.7-5.9,106.1-7.7l13.3-0.7l13.3-0.6c8.9-0.4,17.7-0.8,26.6-1.1l26.6-1
						l26.6-0.8c8.9-0.3,17.7-0.4,26.6-0.6l26.6-0.5l53.2-0.8l53.2-0.5l53.2,0l-53.2,0.5l-53.2,0.6l-53.2,0.9l-26.6,0.6
						c-8.9,0.2-17.7,0.4-26.6,0.7l-26.6,0.7l-26.6,0.9c-8.9,0.3-17.7,0.7-26.6,1l-13.3,0.5l-13.3,0.6l-13.3,0.6l-13.3,0.7
						c-8.9,0.4-17.7,1-26.5,1.6c-8.8,0.6-17.7,1.1-26.5,1.8C133.4,459.2,124.6,459.9,115.8,460.9z"/>
				</g>
				<g>
					<path style="fill:#BBCFDA;" d="M316.2,461.4c-0.9-0.4-1.9-0.9-2.4-1.9c-0.1-0.3-0.2-0.5-0.1-0.8c0-0.1,0-0.3,0.1-0.4l0.2-0.4
						c0.1-0.3,0.3-0.4,0.5-0.7c0.2-0.2,0.4-0.4,0.6-0.5c1.8-1.2,3.8-1.8,5.8-2.3c4.1-0.9,8.2-1.1,12.4-1c2.1,0.1,4.1,0.3,6.2,0.6
						c2,0.4,4.1,0.8,6,1.7c0.9,0.5,1.9,1,2.6,1.9c0.3,0.5,0.6,1.1,0.4,1.7c-0.2,0.6-0.6,1-1,1.4c-0.9,0.7-1.8,1.1-2.8,1.4
						c-1,0.3-2,0.6-3,0.8c1-0.3,2-0.6,2.9-1c0.9-0.4,1.9-0.9,2.6-1.5c0.4-0.3,0.6-0.7,0.7-1.1c0.1-0.4-0.1-0.8-0.3-1.2
						c-0.6-0.7-1.5-1.2-2.4-1.6c-3.8-1.4-7.9-1.9-12-2c-4.1-0.2-8.2,0-12.2,0.8c-2,0.4-4,0.9-5.7,1.9c-0.8,0.5-1.6,1.4-1.3,2.3
						C314.4,460.3,315.3,460.9,316.2,461.4z"/>
				</g>
				<g>
					<path style="fill:#BBCFDA;" d="M567.2,487.2c-4.8,2.4-9.9,3.5-15,4.5c-5.1,0.9-10.3,1.6-15.4,2c-2.6,0.3-5.2,0.3-7.8,0.5
						c-2.6,0.1-5.2,0.1-7.8,0.2l-7.8,0l-7.8-0.2l7.8,0.1l7.8-0.1c2.6-0.1,5.2-0.2,7.8-0.3c2.6-0.2,5.2-0.3,7.7-0.6
						c5.1-0.5,10.3-1.2,15.3-2.2c2.5-0.5,5-1.1,7.5-1.9c2.4-0.8,4.9-1.6,7.1-2.8L567.2,487.2z"/>
				</g>
				<g>
					<path style="fill:#BBCFDA;" d="M147.4,543.7c10.3-1.3,20.7-2.3,31.1-3.3c10.4-0.9,20.8-1.7,31.1-2.3
						c20.8-1.3,41.6-2.2,62.4-2.5l7.8-0.1l7.8,0l15.6,0c10.4,0.2,20.8,0.1,31.2,0.5c5.2,0.2,10.4,0.3,15.6,0.5l15.6,0.8
						c2.6,0.1,5.2,0.2,7.8,0.4l7.8,0.6l15.6,1.1l-15.6-0.9l-7.8-0.4c-2.6-0.1-5.2-0.2-7.8-0.3L350,537c-5.2-0.2-10.4-0.2-15.6-0.4
						c-10.4-0.3-20.8-0.3-31.2-0.4l-15.6,0.1l-7.8,0.1l-7.8,0.2c-5.2,0.1-10.4,0.2-15.6,0.3l-15.6,0.5l-15.6,0.7
						c-5.2,0.2-10.4,0.5-15.6,0.8c-10.4,0.6-20.8,1.3-31.1,2.1C168.1,541.8,157.7,542.6,147.4,543.7z"/>
				</g>
				<path style="fill:#0B1829;" d="M7.1,521.4v8.8c0,3.1,2.5,5.7,5.7,5.7h1.1c1.7,0,3.3-1.1,3.9-2.7l2.5-7.1
					c1.1-3.2-0.9-6.6-4.3-7.1l-5-0.8C8.9,517.8,7.1,519.3,7.1,521.4z"/>
				<path style="fill:#777777;" d="M27.9,488.8h-0.7c-3.7,0-6.7-3-6.7-6.7l0,0c0-3.7,3-6.7,6.7-6.7h0.7c3.7,0,6.7,3,6.7,6.7l0,0
					C34.6,485.8,31.6,488.8,27.9,488.8z"/>
				<path style="fill:#FFFFFF;" d="M44.6,481.8l-12.8,8.9c-2.7,1.9-5.9,2.9-9.1,3.1l6-22.9c2.3,0.2,4.5,0.8,6.7,1.6l8.4,3.1
					C46.5,476.6,47,480.2,44.6,481.8z"/>
				<path style="opacity:0.5;fill:#DCDDE7;" d="M349.1,402.5l-9.1,32.7l-98.6,3.1c0,0,8.8-9.9-6.9-13.3c0,0,37.3-33.9,110.5-28.2
					C347.9,397,349.8,399.7,349.1,402.5z"/>
				<path style="opacity:0.5;fill:#DCDDE7;" d="M423.4,432.7l-51.6,1.7c-3.2,0.1-5.8-2.7-5.3-6l3.5-23.6c0.4-2.5,2.7-4.3,5.3-4
					c25.7,3.5,42.5,15.8,51.1,24C429.4,427.7,427.5,432.6,423.4,432.7z"/>
				<path style="fill:#DCDDE7;" d="M217,449.4L217,449.4c-5.8,0-10.5-4.7-10.5-10.5v-7.7c0-5.8,4.7-10.5,10.5-10.5l0,0
					c5.8,0,10.5,4.7,10.5,10.5v7.7C227.5,444.7,222.7,449.4,217,449.4z"/>
				<path style="fill:#0E1133;" d="M341.6,419.7v16.1c0,1.1-0.2,2.1-0.5,3.1l-20.5,0.7c-0.5-1.2-0.7-2.5-0.7-3.8v-16.1
					c0-6,4.9-10.8,10.8-10.8c3,0,5.7,1.2,7.6,3.2C340.4,414,341.6,416.7,341.6,419.7z"/>
			</g>
		</g>
	</g>
	<path style="fill:#FFFFFF;" d="M405.2,91.5c32.6,0,117,0,144.7,0c27.8,0,15.1-29.2,0-27.3c0,0,0.5-29.2-30.7-22.4
		c0,0-3.4-30.7-36.1-29.7c-32.6,1-36.1,34.6-33.1,39.7c0,0-28.8-10-34.6,18.3c0,0-15.1-0.5-17.5,6.3
		C395.4,83.2,398.3,91.5,405.2,91.5z"/>
</g>
</svg>
