<?xml version="1.0" encoding="utf-8"?>
<!-- Generator: Adobe Illustrator 22.0.1, SVG Export Plug-In . SVG Version: 6.00 Build 0)  -->
<!DOCTYPE svg PUBLIC "-//W3C//DTD SVG 1.1//EN" "http://www.w3.org/Graphics/SVG/1.1/DTD/svg11.dtd">
<svg version="1.1" id="Layer_1" xmlns="http://www.w3.org/2000/svg" xmlns:xlink="http://www.w3.org/1999/xlink" x="0px" y="0px"
	 viewBox="0 0 674.8 617.2" style="enable-background:new 0 0 674.8 617.2;" xml:space="preserve">
<path style="opacity:0.15;fill:#414141;" d="M404,596.8c-62.7,0-120.4,0.8-165.8,2.2c-24.9-2-60.4-3.2-99.7-3.2
	C63.1,595.8,2,600.4,2,606c0,5.6,61.1,10.2,136.5,10.2c29.7,0,57.2-0.7,79.6-1.9c47.9,1.8,113.5,2.9,185.9,2.9
	c146.7,0,265.5-4.6,265.5-10.2C669.6,601.4,550.7,596.8,404,596.8z"/>
<path style="fill:#FFFFFF;" d="M348,149.3c16.4,0,58.7,0,72.7,0c13.9,0,7.6-14.7,0-13.7c0,0,0.2-14.7-15.4-11.3
	c0,0-1.7-15.4-18.1-14.9c-16.4,0.5-18.1,17.4-16.6,19.9c0,0-14.4-5-17.4,9.2c0,0-7.6-0.2-8.8,3.2S344.6,149.3,348,149.3z"/>
<g>
	<g>
		
			<line style="opacity:0.68;fill:none;stroke:#A4E3FF;stroke-width:6.8127;stroke-miterlimit:10;" x1="612.1" y1="297.6" x2="636.5" y2="297.6"/>
		
			<line style="opacity:0.68;fill:none;stroke:#A4E3FF;stroke-width:6.8127;stroke-miterlimit:10;" x1="612.1" y1="236.3" x2="636.5" y2="236.3"/>
		<rect x="537.6" y="191.3" style="fill:#00A8B7;" width="98.9" height="301"/>
		<rect x="515.4" y="191.2" style="fill:#006881;" width="43.6" height="301"/>
		<line style="fill:none;stroke:#A4E3FF;stroke-width:4.6792;stroke-miterlimit:10;" x1="620.5" y1="349.4" x2="636.5" y2="349.4"/>
		<line style="fill:none;stroke:#A4E3FF;stroke-width:4.6792;stroke-miterlimit:10;" x1="597.1" y1="250.8" x2="609.2" y2="250.8"/>
		<line style="fill:none;stroke:#A4E3FF;stroke-width:4.6792;stroke-miterlimit:10;" x1="565.8" y1="349.4" x2="577.8" y2="349.4"/>
		
			<line style="opacity:0.53;fill:none;stroke:#A4E3FF;stroke-width:4.6792;stroke-miterlimit:10;" x1="530" y1="250.8" x2="549.5" y2="250.8"/>
		
			<line style="opacity:0.31;fill:none;stroke:#A4E3FF;stroke-width:4.6792;stroke-miterlimit:10;" x1="515.4" y1="250.8" x2="526.3" y2="250.8"/>
		<line style="fill:none;stroke:#A4E3FF;stroke-width:4.6792;stroke-miterlimit:10;" x1="620.5" y1="263.6" x2="636.5" y2="263.6"/>
		<line style="fill:none;stroke:#A4E3FF;stroke-width:4.6792;stroke-miterlimit:10;" x1="601.4" y1="461.6" x2="620.5" y2="461.6"/>
		<line style="fill:none;stroke:#A4E3FF;stroke-width:4.6792;stroke-miterlimit:10;" x1="565.8" y1="362.3" x2="589.2" y2="362.3"/>
		<line style="fill:none;stroke:#A4E3FF;stroke-width:4.6792;stroke-miterlimit:10;" x1="612.6" y1="374.5" x2="636.5" y2="374.5"/>
		<line style="fill:none;stroke:#A4E3FF;stroke-width:4.6792;stroke-miterlimit:10;" x1="558.8" y1="275.8" x2="574.5" y2="275.8"/>
		<line style="fill:none;stroke:#A4E3FF;stroke-width:4.6792;stroke-miterlimit:10;" x1="515.4" y1="275.8" x2="527.7" y2="275.8"/>
		<line style="fill:none;stroke:#A4E3FF;stroke-width:4.6792;stroke-miterlimit:10;" x1="617.1" y1="387.3" x2="628.1" y2="387.3"/>
		<line style="fill:none;stroke:#A4E3FF;stroke-width:4.6792;stroke-miterlimit:10;" x1="566.1" y1="288.6" x2="581.7" y2="288.6"/>
		<line style="fill:none;stroke:#A4E3FF;stroke-width:4.6792;stroke-miterlimit:10;" x1="526.3" y1="387.3" x2="542.8" y2="387.3"/>
		<line style="fill:none;stroke:#A4E3FF;stroke-width:4.6792;stroke-miterlimit:10;" x1="597.1" y1="300.8" x2="628.1" y2="300.8"/>
		
			<line style="opacity:0.39;fill:none;stroke:#A4E3FF;stroke-width:4.6792;stroke-miterlimit:10;" x1="549.2" y1="300.8" x2="573.7" y2="300.8"/>
		<line style="fill:none;stroke:#A4E3FF;stroke-width:4.6792;stroke-miterlimit:10;" x1="540.6" y1="424.6" x2="549.2" y2="424.6"/>
		<line style="fill:none;stroke:#A4E3FF;stroke-width:4.6792;stroke-miterlimit:10;" x1="534.2" y1="399.5" x2="540.6" y2="399.5"/>
		<line style="fill:none;stroke:#A4E3FF;stroke-width:4.6792;stroke-miterlimit:10;" x1="612.6" y1="313.7" x2="636.5" y2="313.7"/>
		<line style="fill:none;stroke:#A4E3FF;stroke-width:4.6792;stroke-miterlimit:10;" x1="592.8" y1="387.3" x2="600.5" y2="387.3"/>
		<line style="fill:none;stroke:#A4E3FF;stroke-width:4.6792;stroke-miterlimit:10;" x1="600.7" y1="214.4" x2="604.9" y2="214.4"/>
		<line style="fill:none;stroke:#A4E3FF;stroke-width:4.6792;stroke-miterlimit:10;" x1="561.6" y1="387.3" x2="588.5" y2="387.3"/>
		<line style="fill:none;stroke:#A4E3FF;stroke-width:4.6792;stroke-miterlimit:10;" x1="547" y1="399.5" x2="558.2" y2="399.5"/>
		<line style="fill:none;stroke:#A4E3FF;stroke-width:4.6792;stroke-miterlimit:10;" x1="529.9" y1="412.3" x2="547.8" y2="412.3"/>
		<line style="fill:none;stroke:#A4E3FF;stroke-width:4.6792;stroke-miterlimit:10;" x1="523.5" y1="313.7" x2="529.9" y2="313.7"/>
		
			<line style="opacity:0.53;fill:none;stroke:#A4E3FF;stroke-width:4.6792;stroke-miterlimit:10;" x1="521.1" y1="214.4" x2="529.2" y2="214.4"/>
		<line style="fill:none;stroke:#A4E3FF;stroke-width:4.6792;stroke-miterlimit:10;" x1="624.2" y1="226.6" x2="636.5" y2="226.6"/>
		<line style="fill:none;stroke:#A4E3FF;stroke-width:4.6792;stroke-miterlimit:10;" x1="597.1" y1="325.8" x2="624.2" y2="325.8"/>
		<line style="fill:none;stroke:#A4E3FF;stroke-width:4.6792;stroke-miterlimit:10;" x1="592.8" y1="226.6" x2="597.1" y2="226.6"/>
		
			<line style="opacity:0.39;fill:none;stroke:#A4E3FF;stroke-width:4.6792;stroke-miterlimit:10;" x1="542.8" y1="325.8" x2="559" y2="325.8"/>
		
			<line style="opacity:0.53;fill:none;stroke:#A4E3FF;stroke-width:4.6792;stroke-miterlimit:10;" x1="515.4" y1="226.6" x2="521.1" y2="226.6"/>
		<line style="fill:none;stroke:#A4E3FF;stroke-width:4.6792;stroke-miterlimit:10;" x1="620.5" y1="239.4" x2="636.5" y2="239.4"/>
		<line style="fill:none;stroke:#A4E3FF;stroke-width:4.6792;stroke-miterlimit:10;" x1="604.9" y1="437.4" x2="620.5" y2="437.4"/>
		<line style="fill:none;stroke:#A4E3FF;stroke-width:4.6792;stroke-miterlimit:10;" x1="589.2" y1="338.7" x2="604.9" y2="338.7"/>
		
			<line style="opacity:0.39;fill:none;stroke:#A4E3FF;stroke-width:4.6792;stroke-miterlimit:10;" x1="535.3" y1="338.7" x2="559" y2="338.7"/>
		
			<line style="opacity:0.53;fill:none;stroke:#A4E3FF;stroke-width:4.6792;stroke-miterlimit:10;" x1="533.5" y1="239.4" x2="545.4" y2="239.4"/>
		<line style="fill:none;stroke:#A4E3FF;stroke-width:4.6792;stroke-miterlimit:10;" x1="524.9" y1="338.7" x2="533.5" y2="338.7"/>
		<line style="fill:none;stroke:#A4E3FF;stroke-width:4.6792;stroke-miterlimit:10;" x1="521.1" y1="462.5" x2="530.6" y2="462.5"/>
		<line style="fill:none;stroke:#CFF3FF;stroke-width:4.6792;stroke-miterlimit:10;" x1="605.7" y1="250.8" x2="617.9" y2="250.8"/>
		<line style="fill:none;stroke:#CFF3FF;stroke-width:4.6792;stroke-miterlimit:10;" x1="574.5" y1="349.4" x2="586.5" y2="349.4"/>
		<line style="fill:none;stroke:#CFF3FF;stroke-width:4.6792;stroke-miterlimit:10;" x1="559.2" y1="250.8" x2="578.7" y2="250.8"/>
		<line style="fill:none;stroke:#CFF3FF;stroke-width:4.6792;stroke-miterlimit:10;" x1="610" y1="461.6" x2="629.1" y2="461.6"/>
		
			<line style="opacity:0.53;fill:none;stroke:#A4E3FF;stroke-width:4.6792;stroke-miterlimit:10;" x1="539.3" y1="263.6" x2="559" y2="263.6"/>
		<line style="fill:none;stroke:#CFF3FF;stroke-width:4.6792;stroke-miterlimit:10;" x1="590.1" y1="275.8" x2="605.7" y2="275.8"/>
		
			<line style="opacity:0.39;fill:none;stroke:#CFF3FF;stroke-width:4.6792;stroke-miterlimit:10;" x1="546.3" y1="275.8" x2="559.3" y2="275.8"/>
		<line style="fill:none;stroke:#CFF3FF;stroke-width:4.6792;stroke-miterlimit:10;" x1="604.5" y1="288.6" x2="636.5" y2="288.6"/>
		
			<line style="opacity:0.39;fill:none;stroke:#CFF3FF;stroke-width:4.6792;stroke-miterlimit:10;" x1="535" y1="387.3" x2="551.4" y2="387.3"/>
		<line style="fill:none;stroke:#CFF3FF;stroke-width:4.6792;stroke-miterlimit:10;" x1="558.8" y1="300.8" x2="582.3" y2="300.8"/>
		<line style="fill:none;stroke:#CFF3FF;stroke-width:4.6792;stroke-miterlimit:10;" x1="549.3" y1="424.6" x2="557.9" y2="424.6"/>
		
			<line style="opacity:0.39;fill:none;stroke:#CFF3FF;stroke-width:4.6792;stroke-miterlimit:10;" x1="542.8" y1="399.5" x2="549.3" y2="399.5"/>
		<line style="fill:none;stroke:#CFF3FF;stroke-width:4.6792;stroke-miterlimit:10;" x1="601.5" y1="387.3" x2="609.2" y2="387.3"/>
		<line style="fill:none;stroke:#CFF3FF;stroke-width:4.6792;stroke-miterlimit:10;" x1="609.3" y1="214.4" x2="613.6" y2="214.4"/>
		<line style="fill:none;stroke:#CFF3FF;stroke-width:4.6792;stroke-miterlimit:10;" x1="567.7" y1="412.3" x2="582.3" y2="412.3"/>
		<line style="fill:none;stroke:#CFF3FF;stroke-width:4.6792;stroke-miterlimit:10;" x1="555.7" y1="399.5" x2="566.9" y2="399.5"/>
		<line style="fill:none;stroke:#CFF3FF;stroke-width:4.6792;stroke-miterlimit:10;" x1="538.6" y1="412.3" x2="556.4" y2="412.3"/>
		<line style="fill:none;stroke:#CFF3FF;stroke-width:4.6792;stroke-miterlimit:10;" x1="532.1" y1="313.7" x2="538.6" y2="313.7"/>
		<line style="fill:none;stroke:#CFF3FF;stroke-width:4.6792;stroke-miterlimit:10;" x1="605.7" y1="325.8" x2="632.9" y2="325.8"/>
		<line style="fill:none;stroke:#CFF3FF;stroke-width:4.6792;stroke-miterlimit:10;" x1="577.9" y1="226.6" x2="601.5" y2="226.6"/>
		<line style="fill:none;stroke:#CFF3FF;stroke-width:4.6792;stroke-miterlimit:10;" x1="567.7" y1="424.5" x2="577.9" y2="424.5"/>
		
			<line style="opacity:0.39;fill:none;stroke:#CFF3FF;stroke-width:4.6792;stroke-miterlimit:10;" x1="531.4" y1="226.6" x2="551.4" y2="226.6"/>
		<line style="fill:none;stroke:#CFF3FF;stroke-width:4.6792;stroke-miterlimit:10;" x1="613.6" y1="437.4" x2="629.2" y2="437.4"/>
		<line style="fill:none;stroke:#CFF3FF;stroke-width:4.6792;stroke-miterlimit:10;" x1="597.9" y1="338.7" x2="613.6" y2="338.7"/>
		<line style="fill:none;stroke:#CFF3FF;stroke-width:4.6792;stroke-miterlimit:10;" x1="565.2" y1="239.4" x2="597.9" y2="239.4"/>
		<line style="fill:none;stroke:#CFF3FF;stroke-width:4.6792;stroke-miterlimit:10;" x1="557.1" y1="338.7" x2="567.7" y2="338.7"/>
		
			<line style="opacity:0.39;fill:none;stroke:#CFF3FF;stroke-width:4.6792;stroke-miterlimit:10;" x1="548.5" y1="239.4" x2="557.1" y2="239.4"/>
		<line style="fill:none;stroke:#CFF3FF;stroke-width:4.6792;stroke-miterlimit:10;" x1="529.7" y1="462.5" x2="539.3" y2="462.5"/>
		<polygon style="fill:#98BA2D;" points="616.6,492.2 616.6,492.2 616.5,492.2 616.5,492.2 		"/>
	</g>
	<g>
		<g>
			<g>
				<rect x="340.5" y="177" style="fill:#36B2D8;" width="136.7" height="347.1"/>
				
					<line style="opacity:0.68;fill:none;stroke:#A4E3FF;stroke-width:6.2383;stroke-miterlimit:10;" x1="371.7" y1="209.2" x2="396.4" y2="209.2"/>
				
					<line style="opacity:0.68;fill:none;stroke:#A4E3FF;stroke-width:9.1311;stroke-miterlimit:10;" x1="329" y1="386.4" x2="360.1" y2="386.4"/>
				
					<line style="opacity:0.68;fill:none;stroke:#A4E3FF;stroke-width:6.2383;stroke-miterlimit:10;" x1="396.6" y1="359.5" x2="459.6" y2="359.5"/>
				
					<line style="opacity:0.68;fill:none;stroke:#A4E3FF;stroke-width:6.2383;stroke-miterlimit:10;" x1="340.5" y1="226.5" x2="396.6" y2="226.5"/>
				
					<line style="opacity:0.68;fill:none;stroke:#A4E3FF;stroke-width:6.2383;stroke-miterlimit:10;" x1="375.8" y1="242.8" x2="416.5" y2="242.8"/>
				
					<line style="opacity:0.68;fill:none;stroke:#A4E3FF;stroke-width:9.1311;stroke-miterlimit:10;" x1="329" y1="419.9" x2="364.2" y2="419.9"/>
				
					<line style="opacity:0.68;fill:none;stroke:#A4E3FF;stroke-width:9.1311;stroke-miterlimit:10;" x1="329" y1="304.1" x2="360.1" y2="304.1"/>
				
					<line style="opacity:0.68;fill:none;stroke:#A4E3FF;stroke-width:6.2383;stroke-miterlimit:10;" x1="340.5" y1="276.3" x2="406.8" y2="276.3"/>
				
					<line style="opacity:0.68;fill:none;stroke:#A4E3FF;stroke-width:6.2383;stroke-miterlimit:10;" x1="363.6" y1="426.6" x2="394.6" y2="426.6"/>
				
					<line style="opacity:0.68;fill:none;stroke:#A4E3FF;stroke-width:6.2383;stroke-miterlimit:10;" x1="356.7" y1="293.5" x2="379.8" y2="293.5"/>
				
					<line style="opacity:0.68;fill:none;stroke:#A4E3FF;stroke-width:6.2383;stroke-miterlimit:10;" x1="421.5" y1="442.9" x2="467.6" y2="442.9"/>
				
					<line style="opacity:0.68;fill:none;stroke:#A4E3FF;stroke-width:6.2383;stroke-miterlimit:10;" x1="426.1" y1="309.8" x2="462.9" y2="309.8"/>
				
					<line style="opacity:0.68;fill:none;stroke:#A4E3FF;stroke-width:6.2383;stroke-miterlimit:10;" x1="437.7" y1="460.1" x2="467.6" y2="460.1"/>
				
					<line style="opacity:0.68;fill:none;stroke:#A4E3FF;stroke-width:6.2383;stroke-miterlimit:10;" x1="404.8" y1="327.1" x2="379.8" y2="327.1"/>
				
					<line style="opacity:0.68;fill:none;stroke:#A4E3FF;stroke-width:6.2383;stroke-miterlimit:10;" x1="367.6" y1="460.1" x2="404.8" y2="460.1"/>
				
					<line style="opacity:0.89;fill:none;stroke:#CFF3FF;stroke-width:6.2383;stroke-miterlimit:10;" x1="409.1" y1="209.2" x2="429.4" y2="209.2"/>
				
					<line style="opacity:0.68;fill:none;stroke:#CFF3FF;stroke-width:6.2383;stroke-miterlimit:10;" x1="365.2" y1="342.3" x2="409.1" y2="342.3"/>
				
					<line style="opacity:0.68;fill:none;stroke:#CFF3FF;stroke-width:6.2383;stroke-miterlimit:10;" x1="431.5" y1="375.8" x2="468.5" y2="375.8"/>
				
					<line style="opacity:0.68;fill:none;stroke:#CFF3FF;stroke-width:6.2383;stroke-miterlimit:10;" x1="425.9" y1="242.8" x2="453.9" y2="242.8"/>
				
					<line style="opacity:0.68;fill:none;stroke:#CFF3FF;stroke-width:6.2383;stroke-miterlimit:10;" x1="365.2" y1="375.8" x2="413.2" y2="375.8"/>
				
					<line style="opacity:0.89;fill:none;stroke:#CFF3FF;stroke-width:6.2383;stroke-miterlimit:10;" x1="386.4" y1="260" x2="428.1" y2="260"/>
				
					<line style="opacity:0.68;fill:none;stroke:#CFF3FF;stroke-width:6.2383;stroke-miterlimit:10;" x1="459.6" y1="276.3" x2="431.4" y2="276.3"/>
				
					<line style="opacity:0.89;fill:none;stroke:#CFF3FF;stroke-width:6.2383;stroke-miterlimit:10;" x1="401" y1="426.6" x2="419.2" y2="426.6"/>
				
					<line style="opacity:0.68;fill:none;stroke:#CFF3FF;stroke-width:6.2383;stroke-miterlimit:10;" x1="316.8" y1="309.8" x2="407.4" y2="309.8"/>
				
					<line style="opacity:0.89;fill:none;stroke:#CFF3FF;stroke-width:6.2383;stroke-miterlimit:10;" x1="429.4" y1="327.1" x2="472" y2="327.1"/>
				
					<line style="opacity:0.68;fill:none;stroke:#CFF3FF;stroke-width:6.2383;stroke-miterlimit:10;" x1="405" y1="460.1" x2="429.4" y2="460.1"/>
				<polygon style="fill:#22557F;" points="392,180.9 392,524.2 346.5,524.2 346.5,524.2 346.4,524.2 346.4,524.2 268,524.2 
					268,180.9 				"/>
				
					<line style="opacity:0.68;fill:none;stroke:#95E4E8;stroke-width:5.4887;stroke-miterlimit:10;" x1="392.3" y1="191.9" x2="477.3" y2="191.9"/>
				
					<line style="opacity:0.34;fill:none;stroke:#95E4E8;stroke-width:5.4887;stroke-miterlimit:10;" x1="340.5" y1="191.9" x2="379.1" y2="191.9"/>
				
					<line style="opacity:0.34;fill:none;stroke:#95E4E8;stroke-width:6.0288;stroke-miterlimit:10;" x1="382.7" y1="209.2" x2="391.8" y2="209.2"/>
				
					<line style="opacity:0.34;fill:none;stroke:#95E4E8;stroke-width:6.0288;stroke-miterlimit:10;" x1="378.1" y1="260" x2="387.2" y2="260"/>
				
					<line style="opacity:0.34;fill:none;stroke:#95E4E8;stroke-width:6.5312;stroke-miterlimit:10;" x1="340.5" y1="217.8" x2="362.1" y2="217.8"/>
				<line style="fill:none;stroke:#FFFFFF;stroke-width:6.947;stroke-miterlimit:10;" x1="392.3" y1="177" x2="477.3" y2="177"/>
				<line style="fill:none;stroke:#A4EEFF;stroke-width:6.947;stroke-miterlimit:10;" x1="340.5" y1="177" x2="392.3" y2="177"/>
				<rect x="229.1" y="4" style="fill:#2E9BC6;" width="132" height="510.8"/>
				<rect x="199.3" y="4" style="fill:#22557F;" width="58.5" height="510.8"/>
				
					<line style="fill:none;stroke:#A4E3FF;stroke-width:6.2715;stroke-miterlimit:10;" x1="340.2" y1="455.8" x2="358.7" y2="455.8"/>
				<line style="fill:none;stroke:#A4E3FF;stroke-width:6.2715;stroke-miterlimit:10;" x1="325.1" y1="36.2" x2="331.6" y2="36.2"/>
				
					<line style="fill:none;stroke:#A4E3FF;stroke-width:6.2715;stroke-miterlimit:10;" x1="308.8" y1="323.5" x2="325.1" y2="323.5"/>
				<line style="fill:none;stroke:#A4E3FF;stroke-width:6.2715;stroke-miterlimit:10;" x1="271.4" y1="36.2" x2="284.1" y2="36.2"/>
				
					<line style="fill:none;stroke:#A4E3FF;stroke-width:6.2715;stroke-miterlimit:10;" x1="266.9" y1="455.8" x2="282.9" y2="455.8"/>
				
					<line style="opacity:0.53;fill:none;stroke:#A4E3FF;stroke-width:6.2715;stroke-miterlimit:10;" x1="218.9" y1="323.5" x2="245" y2="323.5"/>
				
					<line style="opacity:0.53;fill:none;stroke:#A4E3FF;stroke-width:6.2715;stroke-miterlimit:10;" x1="199.4" y1="36.2" x2="226.2" y2="36.2"/>
				
					<line style="fill:none;stroke:#A4E3FF;stroke-width:6.2715;stroke-miterlimit:10;" x1="199.3" y1="323.5" x2="213.9" y2="323.5"/>
				
					<line style="fill:none;stroke:#A4E3FF;stroke-width:6.2715;stroke-miterlimit:10;" x1="340.2" y1="340.8" x2="361.1" y2="340.8"/>
				<line style="fill:none;stroke:#A4E3FF;stroke-width:6.2715;stroke-miterlimit:10;" x1="298.3" y1="53.4" x2="314.5" y2="53.4"/>
				
					<line style="fill:none;stroke:#A4E3FF;stroke-width:6.2715;stroke-miterlimit:10;" x1="266.9" y1="473.1" x2="298.3" y2="473.1"/>
				
					<line style="opacity:0.53;fill:none;stroke:#A4E3FF;stroke-width:6.2715;stroke-miterlimit:10;" x1="257.7" y1="53.4" x2="241.7" y2="53.4"/>
				
					<line style="opacity:0.53;fill:none;stroke:#A4E3FF;stroke-width:6.2715;stroke-miterlimit:10;" x1="199.3" y1="53.4" x2="210.9" y2="53.4"/>
				
					<line style="fill:none;stroke:#A4E3FF;stroke-width:6.2715;stroke-miterlimit:10;" x1="329.7" y1="489.3" x2="358.7" y2="489.3"/>
				<line style="fill:none;stroke:#A4E3FF;stroke-width:6.2715;stroke-miterlimit:10;" x1="308.8" y1="69.7" x2="318.4" y2="69.7"/>
				
					<line style="fill:none;stroke:#A4E3FF;stroke-width:6.2715;stroke-miterlimit:10;" x1="257.5" y1="357.1" x2="278.6" y2="357.1"/>
				<line style="fill:none;stroke:#A4E3FF;stroke-width:6.2715;stroke-miterlimit:10;" x1="258.2" y1="69.7" x2="287.8" y2="69.7"/>
				
					<line style="opacity:0.53;fill:none;stroke:#A4E3FF;stroke-width:6.2715;stroke-miterlimit:10;" x1="215.9" y1="69.7" x2="229.1" y2="69.7"/>
				<line style="fill:none;stroke:#A4E3FF;stroke-width:6.2715;stroke-miterlimit:10;" x1="350.3" y1="86.9" x2="358.7" y2="86.9"/>
				
					<line style="fill:none;stroke:#A4E3FF;stroke-width:6.2715;stroke-miterlimit:10;" x1="335.6" y1="506.6" x2="350.3" y2="506.6"/>
				<line style="fill:none;stroke:#A4E3FF;stroke-width:6.2715;stroke-miterlimit:10;" x1="290.3" y1="86.9" x2="302.7" y2="86.9"/>
				
					<line style="fill:none;stroke:#A4E3FF;stroke-width:6.2715;stroke-miterlimit:10;" x1="267.3" y1="374.3" x2="288.1" y2="374.3"/>
				<line style="fill:none;stroke:#A4E3FF;stroke-width:6.2715;stroke-miterlimit:10;" x1="257.7" y1="86.9" x2="277.4" y2="86.9"/>
				<line style="fill:none;stroke:#A4E3FF;stroke-width:6.2715;stroke-miterlimit:10;" x1="214" y1="506.6" x2="236" y2="506.6"/>
				
					<line style="opacity:0.53;fill:none;stroke:#A4E3FF;stroke-width:6.2715;stroke-miterlimit:10;" x1="199.3" y1="86.9" x2="214" y2="86.9"/>
				
					<line style="fill:none;stroke:#A4E3FF;stroke-width:6.2715;stroke-miterlimit:10;" x1="350.3" y1="257.6" x2="358.7" y2="257.6"/>
				
					<line style="fill:none;stroke:#A4E3FF;stroke-width:6.2715;stroke-miterlimit:10;" x1="308.8" y1="390.6" x2="350.3" y2="390.6"/>
				
					<line style="fill:none;stroke:#A4E3FF;stroke-width:6.2715;stroke-miterlimit:10;" x1="287.8" y1="257.6" x2="308.8" y2="257.6"/>
				
					<line style="fill:none;stroke:#A4E3FF;stroke-width:6.2715;stroke-miterlimit:10;" x1="277.4" y1="257.6" x2="287.8" y2="257.6"/>
				
					<line style="opacity:0.39;fill:none;stroke:#A4E3FF;stroke-width:6.2715;stroke-miterlimit:10;" x1="244.6" y1="390.6" x2="277.4" y2="390.6"/>
				
					<line style="opacity:0.14;fill:none;stroke:#CFF3FF;stroke-width:6.2715;stroke-miterlimit:10;" x1="224.5" y1="522.9" x2="233.1" y2="522.9"/>
				
					<line style="opacity:0.53;fill:none;stroke:#A4E3FF;stroke-width:6.2715;stroke-miterlimit:10;" x1="199.3" y1="103.2" x2="210.9" y2="103.2"/>
				
					<line style="fill:none;stroke:#A4E3FF;stroke-width:6.2715;stroke-miterlimit:10;" x1="329.6" y1="407.9" x2="358.7" y2="407.9"/>
				
					<line style="fill:none;stroke:#A4E3FF;stroke-width:6.2715;stroke-miterlimit:10;" x1="303.1" y1="506.6" x2="313.4" y2="506.6"/>
				
					<line style="fill:none;stroke:#A4E3FF;stroke-width:6.2715;stroke-miterlimit:10;" x1="313.6" y1="274.8" x2="319.3" y2="274.8"/>
				
					<line style="fill:none;stroke:#A4E3FF;stroke-width:6.2715;stroke-miterlimit:10;" x1="261.2" y1="506.6" x2="297.3" y2="506.6"/>
				
					<line style="opacity:0.14;fill:none;stroke:#CFF3FF;stroke-width:6.2715;stroke-miterlimit:10;" x1="218.7" y1="540.1" x2="242.7" y2="540.1"/>
				
					<line style="fill:none;stroke:#A4E3FF;stroke-width:6.2715;stroke-miterlimit:10;" x1="210.1" y1="407.9" x2="218.7" y2="407.9"/>
				
					<line style="opacity:0.53;fill:none;stroke:#A4E3FF;stroke-width:6.2715;stroke-miterlimit:10;" x1="206.9" y1="120.5" x2="217.8" y2="120.5"/>
				
					<line style="fill:none;stroke:#A4E3FF;stroke-width:6.2715;stroke-miterlimit:10;" x1="345.2" y1="291.1" x2="358.7" y2="291.1"/>
				
					<line style="fill:none;stroke:#A4E3FF;stroke-width:6.2715;stroke-miterlimit:10;" x1="308.8" y1="424.1" x2="345.2" y2="424.1"/>
				<line style="fill:none;stroke:#A4E3FF;stroke-width:6.2715;stroke-miterlimit:10;" x1="303" y1="291.1" x2="308.8" y2="291.1"/>
				
					<line style="opacity:0.39;fill:none;stroke:#A4E3FF;stroke-width:6.2715;stroke-miterlimit:10;" x1="236" y1="424.1" x2="257.7" y2="424.1"/>
				
					<line style="opacity:0.53;fill:none;stroke:#A4E3FF;stroke-width:6.2715;stroke-miterlimit:10;" x1="199.3" y1="291.1" x2="206.9" y2="291.1"/>
				
					<line style="fill:none;stroke:#A4E3FF;stroke-width:6.2715;stroke-miterlimit:10;" x1="340.2" y1="308.4" x2="358.7" y2="308.4"/>
				
					<line style="fill:none;stroke:#A4E3FF;stroke-width:6.2715;stroke-miterlimit:10;" x1="298.3" y1="441.4" x2="319.3" y2="441.4"/>
				
					<line style="opacity:0.39;fill:none;stroke:#A4E3FF;stroke-width:6.2715;stroke-miterlimit:10;" x1="226.1" y1="441.4" x2="257.7" y2="441.4"/>
				
					<line style="opacity:0.14;fill:none;stroke:#CFF3FF;stroke-width:6.2715;stroke-miterlimit:10;" x1="212" y1="441.4" x2="223.5" y2="441.4"/>
				<line style="fill:none;stroke:#CFF3FF;stroke-width:6.2715;stroke-miterlimit:10;" x1="342.5" y1="36.2" x2="351.8" y2="36.2"/>
				
					<line style="fill:none;stroke:#CFF3FF;stroke-width:6.2715;stroke-miterlimit:10;" x1="320.4" y1="323.5" x2="336.7" y2="323.5"/>
				<line style="fill:none;stroke:#CFF3FF;stroke-width:6.2715;stroke-miterlimit:10;" x1="294.6" y1="36.2" x2="320.4" y2="36.2"/>
				
					<line style="fill:none;stroke:#CFF3FF;stroke-width:6.2715;stroke-miterlimit:10;" x1="278.5" y1="455.8" x2="294.6" y2="455.8"/>
				<line style="fill:none;stroke:#CFF3FF;stroke-width:6.2715;stroke-miterlimit:10;" x1="258" y1="323.5" x2="284.1" y2="323.5"/>
				
					<line style="opacity:0.14;fill:none;stroke:#CFF3FF;stroke-width:6.2715;stroke-miterlimit:10;" x1="234.2" y1="36.2" x2="252.4" y2="36.2"/>
				
					<line style="opacity:0.14;fill:none;stroke:#CFF3FF;stroke-width:6.2715;stroke-miterlimit:10;" x1="210.9" y1="323.5" x2="225.6" y2="323.5"/>
				<line style="fill:none;stroke:#CFF3FF;stroke-width:6.2715;stroke-miterlimit:10;" x1="322" y1="53.4" x2="338.2" y2="53.4"/>
				
					<line style="fill:none;stroke:#CFF3FF;stroke-width:6.2715;stroke-miterlimit:10;" x1="278.5" y1="473.1" x2="309.9" y2="473.1"/>
				<line style="fill:none;stroke:#CFF3FF;stroke-width:6.2715;stroke-miterlimit:10;" x1="258" y1="53.4" x2="278.5" y2="53.4"/>
				
					<line style="opacity:0.53;fill:none;stroke:#A4E3FF;stroke-width:6.2715;stroke-miterlimit:10;" x1="231.3" y1="340.8" x2="257.7" y2="340.8"/>
				
					<line style="opacity:0.14;fill:none;stroke:#CFF3FF;stroke-width:6.2715;stroke-miterlimit:10;" x1="218.7" y1="53.4" x2="231.3" y2="53.4"/>
				<line style="fill:none;stroke:#CFF3FF;stroke-width:6.2715;stroke-miterlimit:10;" x1="325.3" y1="69.7" x2="346.1" y2="69.7"/>
				
					<line style="fill:none;stroke:#CFF3FF;stroke-width:6.2715;stroke-miterlimit:10;" x1="299.4" y1="357.1" x2="320.4" y2="357.1"/>
				<line style="fill:none;stroke:#CFF3FF;stroke-width:6.2715;stroke-miterlimit:10;" x1="258.2" y1="69.7" x2="299.4" y2="69.7"/>
				
					<line style="opacity:0.39;fill:none;stroke:#CFF3FF;stroke-width:6.2715;stroke-miterlimit:10;" x1="240.7" y1="357.1" x2="258.2" y2="357.1"/>
				
					<line style="opacity:0.14;fill:none;stroke:#CFF3FF;stroke-width:6.2715;stroke-miterlimit:10;" x1="236.6" y1="69.7" x2="249.8" y2="69.7"/>
				
					<line style="opacity:0.14;fill:none;stroke:#CFF3FF;stroke-width:6.2715;stroke-miterlimit:10;" x1="210.9" y1="357.1" x2="227.5" y2="357.1"/>
				<line style="fill:none;stroke:#CFF3FF;stroke-width:6.2715;stroke-miterlimit:10;" x1="309.9" y1="86.9" x2="347.2" y2="86.9"/>
				
					<line style="fill:none;stroke:#A4E3FF;stroke-width:6.2715;stroke-miterlimit:10;" x1="291.3" y1="105.7" x2="284.8" y2="105.7"/>
				<line style="fill:none;stroke:#A4E3FF;stroke-width:6.2715;stroke-miterlimit:10;" x1="345" y1="105.7" x2="332.3" y2="105.7"/>
				<line style="fill:none;stroke:#A4E3FF;stroke-width:6.2715;stroke-miterlimit:10;" x1="318.1" y1="123" x2="301.8" y2="123"/>
				<line style="fill:none;stroke:#A4E3FF;stroke-width:6.2715;stroke-miterlimit:10;" x1="307.6" y1="139.3" x2="298" y2="139.3"/>
				
					<line style="fill:none;stroke:#A4E3FF;stroke-width:6.2715;stroke-miterlimit:10;" x1="360.5" y1="139.3" x2="328.6" y2="139.3"/>
				
					<line style="fill:none;stroke:#A4E3FF;stroke-width:6.2715;stroke-miterlimit:10;" x1="326.1" y1="156.5" x2="313.7" y2="156.5"/>
				<line style="fill:none;stroke:#A4E3FF;stroke-width:6.2715;stroke-miterlimit:10;" x1="360.9" y1="156.5" x2="339" y2="156.5"/>
				
					<line style="fill:none;stroke:#CFF3FF;stroke-width:6.2715;stroke-miterlimit:10;" x1="273.9" y1="105.7" x2="264.6" y2="105.7"/>
				<line style="fill:none;stroke:#CFF3FF;stroke-width:6.2715;stroke-miterlimit:10;" x1="321.8" y1="105.7" x2="296" y2="105.7"/>
				<line style="fill:none;stroke:#CFF3FF;stroke-width:6.2715;stroke-miterlimit:10;" x1="294.4" y1="123" x2="278.2" y2="123"/>
				<line style="fill:none;stroke:#CFF3FF;stroke-width:6.2715;stroke-miterlimit:10;" x1="360.7" y1="123" x2="337.9" y2="123"/>
				
					<line style="fill:none;stroke:#CFF3FF;stroke-width:6.2715;stroke-miterlimit:10;" x1="291.1" y1="139.3" x2="270.3" y2="139.3"/>
				<line style="fill:none;stroke:#CFF3FF;stroke-width:6.2715;stroke-miterlimit:10;" x1="360.5" y1="139.3" x2="317" y2="139.3"/>
				
					<line style="fill:none;stroke:#CFF3FF;stroke-width:6.2715;stroke-miterlimit:10;" x1="306.5" y1="156.5" x2="269.1" y2="156.5"/>
				
					<line style="fill:none;stroke:#CFF3FF;stroke-width:6.2715;stroke-miterlimit:10;" x1="318.8" y1="374.3" x2="360.6" y2="374.3"/>
				
					<line style="opacity:0.14;fill:none;stroke:#CFF3FF;stroke-width:6.2715;stroke-miterlimit:10;" x1="225.6" y1="506.6" x2="247.6" y2="506.6"/>
				
					<line style="opacity:0.39;fill:none;stroke:#CFF3FF;stroke-width:6.2715;stroke-miterlimit:10;" x1="243" y1="86.9" x2="257.7" y2="86.9"/>
				
					<line style="fill:none;stroke:#CFF3FF;stroke-width:6.2715;stroke-miterlimit:10;" x1="317.3" y1="257.6" x2="327.6" y2="257.6"/>
				
					<line style="fill:none;stroke:#CFF3FF;stroke-width:6.2715;stroke-miterlimit:10;" x1="257.5" y1="390.6" x2="289.1" y2="390.6"/>
				
					<line style="opacity:0.39;fill:none;stroke:#CFF3FF;stroke-width:6.2715;stroke-miterlimit:10;" x1="236.1" y1="522.9" x2="244.7" y2="522.9"/>
				
					<line style="opacity:0.14;fill:none;stroke:#CFF3FF;stroke-width:6.2715;stroke-miterlimit:10;" x1="218.9" y1="103.2" x2="244.2" y2="103.2"/>
				
					<line style="opacity:0.53;fill:none;stroke:#A4E3FF;stroke-width:6.2715;stroke-miterlimit:10;" x1="199.3" y1="156.5" x2="215.3" y2="156.5"/>
				
					<line style="opacity:0.53;fill:none;stroke:#A4E3FF;stroke-width:6.2715;stroke-miterlimit:10;" x1="257.7" y1="156.5" x2="246.1" y2="156.5"/>
				
					<line style="opacity:0.53;fill:none;stroke:#A4E3FF;stroke-width:6.2715;stroke-miterlimit:10;" x1="241.1" y1="172.8" x2="227.9" y2="172.8"/>
				
					<line style="opacity:0.53;fill:none;stroke:#A4E3FF;stroke-width:6.2715;stroke-miterlimit:10;" x1="257.7" y1="190" x2="243" y2="190"/>
				
					<line style="opacity:0.53;fill:none;stroke:#A4E3FF;stroke-width:6.2715;stroke-miterlimit:10;" x1="257.7" y1="206.3" x2="246.1" y2="206.3"/>
				
					<line style="opacity:0.53;fill:none;stroke:#A4E3FF;stroke-width:6.2715;stroke-miterlimit:10;" x1="250.1" y1="223.6" x2="239.2" y2="223.6"/>
				
					<line style="opacity:0.14;fill:none;stroke:#CFF3FF;stroke-width:6.2715;stroke-miterlimit:10;" x1="222.8" y1="139.3" x2="204.6" y2="139.3"/>
				
					<line style="opacity:0.14;fill:none;stroke:#CFF3FF;stroke-width:6.2715;stroke-miterlimit:10;" x1="238.3" y1="156.5" x2="225.7" y2="156.5"/>
				
					<line style="opacity:0.14;fill:none;stroke:#CFF3FF;stroke-width:6.2715;stroke-miterlimit:10;" x1="220.4" y1="172.8" x2="207.2" y2="172.8"/>
				
					<line style="opacity:0.39;fill:none;stroke:#CFF3FF;stroke-width:6.2715;stroke-miterlimit:10;" x1="214" y1="190" x2="199.3" y2="190"/>
				
					<line style="opacity:0.14;fill:none;stroke:#CFF3FF;stroke-width:6.2715;stroke-miterlimit:10;" x1="238.1" y1="206.3" x2="212.8" y2="206.3"/>
				
					<line style="fill:none;stroke:#CFF3FF;stroke-width:6.2715;stroke-miterlimit:10;" x1="325.2" y1="274.8" x2="330.9" y2="274.8"/>
				
					<line style="fill:none;stroke:#CFF3FF;stroke-width:6.2715;stroke-miterlimit:10;" x1="269.4" y1="540.1" x2="289.1" y2="540.1"/>
				
					<line style="opacity:0.39;fill:none;stroke:#A4E3FF;stroke-width:6.2715;stroke-miterlimit:10;" x1="230.4" y1="540.1" x2="254.3" y2="540.1"/>
				
					<line style="opacity:0.14;fill:none;stroke:#CFF3FF;stroke-width:6.2715;stroke-miterlimit:10;" x1="221.7" y1="407.9" x2="230.4" y2="407.9"/>
				
					<line style="fill:none;stroke:#CFF3FF;stroke-width:6.2715;stroke-miterlimit:10;" x1="320.4" y1="424.1" x2="356.8" y2="424.1"/>
				
					<line style="fill:none;stroke:#CFF3FF;stroke-width:6.2715;stroke-miterlimit:10;" x1="283.1" y1="291.1" x2="314.7" y2="291.1"/>
				
					<line style="opacity:0.39;fill:none;stroke:#CFF3FF;stroke-width:6.2715;stroke-miterlimit:10;" x1="220.7" y1="291.1" x2="247.6" y2="291.1"/>
				
					<line style="fill:none;stroke:#CFF3FF;stroke-width:6.2715;stroke-miterlimit:10;" x1="309.9" y1="441.4" x2="330.9" y2="441.4"/>
				
					<line style="fill:none;stroke:#CFF3FF;stroke-width:6.2715;stroke-miterlimit:10;" x1="269.4" y1="308.4" x2="309.9" y2="308.4"/>
				
					<line style="fill:none;stroke:#A4E3FF;stroke-width:6.2715;stroke-miterlimit:10;" x1="308.8" y1="239.6" x2="325.1" y2="239.6"/>
				
					<line style="fill:none;stroke:#A4E3FF;stroke-width:6.2715;stroke-miterlimit:10;" x1="350.3" y1="173.6" x2="358.7" y2="173.6"/>
				
					<line style="fill:none;stroke:#A4E3FF;stroke-width:6.2715;stroke-miterlimit:10;" x1="287.8" y1="173.6" x2="308.8" y2="173.6"/>
				
					<line style="fill:none;stroke:#A4E3FF;stroke-width:6.2715;stroke-miterlimit:10;" x1="277.4" y1="173.6" x2="287.8" y2="173.6"/>
				
					<line style="fill:none;stroke:#A4E3FF;stroke-width:6.2715;stroke-miterlimit:10;" x1="313.6" y1="190.9" x2="319.3" y2="190.9"/>
				
					<line style="fill:none;stroke:#A4E3FF;stroke-width:6.2715;stroke-miterlimit:10;" x1="345.2" y1="207.1" x2="358.7" y2="207.1"/>
				<line style="fill:none;stroke:#A4E3FF;stroke-width:6.2715;stroke-miterlimit:10;" x1="303" y1="207.1" x2="308.8" y2="207.1"/>
				
					<line style="fill:none;stroke:#A4E3FF;stroke-width:6.2715;stroke-miterlimit:10;" x1="340.2" y1="224.4" x2="358.7" y2="224.4"/>
				
					<line style="fill:none;stroke:#CFF3FF;stroke-width:6.2715;stroke-miterlimit:10;" x1="320.4" y1="239.6" x2="336.7" y2="239.6"/>
				<line style="fill:none;stroke:#CFF3FF;stroke-width:6.2715;stroke-miterlimit:10;" x1="258" y1="239.6" x2="284.1" y2="239.6"/>
				
					<line style="fill:none;stroke:#CFF3FF;stroke-width:6.2715;stroke-miterlimit:10;" x1="317.3" y1="173.6" x2="327.6" y2="173.6"/>
				
					<line style="fill:none;stroke:#CFF3FF;stroke-width:6.2715;stroke-miterlimit:10;" x1="325.2" y1="190.9" x2="330.9" y2="190.9"/>
				
					<line style="fill:none;stroke:#CFF3FF;stroke-width:6.2715;stroke-miterlimit:10;" x1="283.1" y1="207.1" x2="314.7" y2="207.1"/>
				
					<line style="fill:none;stroke:#CFF3FF;stroke-width:6.2715;stroke-miterlimit:10;" x1="269.4" y1="224.4" x2="309.9" y2="224.4"/>
				
					<line style="opacity:0.39;fill:none;stroke:#CFF3FF;stroke-width:6.2715;stroke-miterlimit:10;" x1="243.7" y1="308.4" x2="255.3" y2="308.4"/>
				<line style="fill:none;stroke:#46C4D1;stroke-width:7.9378;stroke-miterlimit:10;" x1="257.7" y1="4" x2="361.1" y2="4"/>
				<line style="fill:none;stroke:#3A84AD;stroke-width:7.9378;stroke-miterlimit:10;" x1="199.3" y1="4" x2="257.7" y2="4"/>
				<line style="fill:none;stroke:#95E4E8;stroke-width:6.2715;stroke-miterlimit:10;" x1="257.5" y1="18.9" x2="361.1" y2="18.9"/>
				<polygon style="fill:#98BA2D;" points="334.9,514.8 334.9,514.8 334.8,514.8 334.8,514.8 				"/>
			</g>
		</g>
		<g>
			<rect x="42.2" y="187.8" style="fill:#36B6DD;" width="172.6" height="11"/>
			<rect x="42.2" y="165.8" style="fill:#36B6DD;" width="172.6" height="11"/>
			<rect x="42.6" y="209.8" style="fill:#36B6DD;" width="172.6" height="11"/>
			<rect x="42.6" y="231.8" style="fill:#36B6DD;" width="172.6" height="11"/>
			<rect x="42.2" y="276" style="fill:#36B6DD;" width="172.6" height="11"/>
			<rect x="42.2" y="254" style="fill:#36B6DD;" width="172.6" height="11"/>
			<rect x="41.8" y="298" style="fill:#36B6DD;" width="172.6" height="11"/>
			<rect x="41.8" y="320" style="fill:#36B6DD;" width="172.6" height="11"/>
			<rect x="42.2" y="268" style="fill:#2E6193;" width="172.6" height="11"/>
			<rect x="42.2" y="246" style="fill:#2E6193;" width="172.6" height="11"/>
			<rect x="41.8" y="290" style="fill:#2E6193;" width="172.6" height="11"/>
			<rect x="41.8" y="312.1" style="fill:#2E6193;" width="172.6" height="11"/>
			<rect x="42.2" y="179.8" style="fill:#2E6193;" width="172.6" height="11"/>
			<rect x="42.2" y="157.8" style="fill:#2E6193;" width="172.6" height="11"/>
			<rect x="42.6" y="201.8" style="fill:#2E6193;" width="172.6" height="11"/>
			<rect x="42.6" y="223.9" style="fill:#2E6193;" width="172.6" height="11"/>
			<rect x="40.6" y="187.9" style="fill:#2E6193;" width="50.2" height="11"/>
			<rect x="40.6" y="165.9" style="fill:#2E6193;" width="50.2" height="11"/>
			<rect x="40.8" y="210" style="fill:#2E6193;" width="50.2" height="11"/>
			<rect x="40.8" y="232" style="fill:#2E6193;" width="50.2" height="11"/>
			<rect x="40.6" y="276.1" style="fill:#2E6193;" width="50.2" height="11"/>
			<rect x="40.6" y="254.1" style="fill:#2E6193;" width="50.2" height="11"/>
			<rect x="40.5" y="298.2" style="fill:#2E6193;" width="50.2" height="11"/>
			<rect x="40.5" y="320.2" style="fill:#2E6193;" width="50.2" height="11"/>
			<rect x="36.2" y="265.1" style="fill:#FFFFFF;" width="183.7" height="11"/>
			<rect x="36.2" y="287.1" style="fill:#FFFFFF;" width="183.7" height="11"/>
			<rect x="36.2" y="243.1" style="fill:#FFFFFF;" width="183.7" height="11"/>
			<rect x="35.9" y="309.1" style="fill:#FFFFFF;" width="183.7" height="11"/>
			<rect x="35.9" y="331.1" style="fill:#FFFFFF;" width="183.7" height="11"/>
			<rect x="36.2" y="176.9" style="fill:#FFFFFF;" width="183.7" height="11"/>
			<rect x="36.2" y="198.9" style="fill:#FFFFFF;" width="183.7" height="11"/>
			<rect x="36.2" y="154.7" style="fill:#FFFFFF;" width="183.7" height="11"/>
			<rect x="36.6" y="220.9" style="fill:#FFFFFF;" width="183.7" height="11"/>
			<rect x="36.1" y="265.1" style="fill:#CCB5A3;" width="57.9" height="11"/>
			<rect x="36.1" y="287.1" style="fill:#CCB5A3;" width="57.9" height="11"/>
			<rect x="36.1" y="243.1" style="fill:#CCB5A3;" width="57.9" height="11"/>
			<rect x="36" y="309.1" style="fill:#CCB5A3;" width="57.9" height="11"/>
			<rect x="36" y="331.1" style="fill:#CCB5A3;" width="57.9" height="11"/>
			<rect x="36.1" y="176.9" style="fill:#CCB5A3;" width="57.9" height="11"/>
			<rect x="36.1" y="198.9" style="fill:#CCB5A3;" width="57.9" height="11"/>
			<rect x="36.1" y="154.7" style="fill:#CCB5A3;" width="57.9" height="11"/>
			<rect x="36.3" y="220.9" style="fill:#CCB5A3;" width="57.9" height="11"/>
			<polygon style="opacity:0.2;fill:#FFFFFF;" points="137.2,168.8 109.4,168.8 103.1,176.9 130.9,176.9 			"/>
			<polygon style="opacity:0.2;fill:#FFFFFF;" points="164,168.8 149.2,168.8 142.9,176.9 157.7,176.9 			"/>
			<polygon style="opacity:0.2;fill:#FFFFFF;" points="171.4,190.7 126.3,190.7 120,198.7 165.1,198.7 			"/>
			<polygon style="opacity:0.2;fill:#FFFFFF;" points="206.8,190.7 192.1,190.7 185.8,198.7 200.6,198.7 			"/>
			<polygon style="opacity:0.2;fill:#FFFFFF;" points="127.9,212.7 100.1,212.7 93.8,220.7 121.6,220.7 			"/>
			<polygon style="opacity:0.2;fill:#FFFFFF;" points="144.8,234.5 99.7,234.5 93.4,242.6 138.5,242.6 			"/>
			<polygon style="opacity:0.2;fill:#FFFFFF;" points="197.5,234.5 182.7,234.5 176.5,242.6 191.3,242.6 			"/>
			<polygon style="opacity:0.2;fill:#FFFFFF;" points="142.7,256.6 114.9,256.6 108.6,264.7 136.4,264.7 			"/>
			<polygon style="opacity:0.2;fill:#FFFFFF;" points="176.8,278.5 131.8,278.5 125.5,286.5 170.6,286.5 			"/>
			<polygon style="opacity:0.2;fill:#FFFFFF;" points="212.3,278.5 197.5,278.5 191.2,286.5 206,286.5 			"/>
			<polygon style="opacity:0.2;fill:#FFFFFF;" points="133.3,300.5 105.6,300.5 99.3,308.5 127.1,308.5 			"/>
			<polygon style="opacity:0.2;fill:#FFFFFF;" points="190.5,300.5 175.7,300.5 169.4,308.5 184.2,308.5 			"/>
			<polygon style="opacity:0.2;fill:#FFFFFF;" points="150.2,322.3 105.1,322.3 98.9,330.4 143.9,330.4 			"/>
			<polygon style="opacity:0.2;fill:#FFFFFF;" points="203,322.3 188.2,322.3 181.9,330.4 196.7,330.4 			"/>
		</g>
		<g>
			<rect x="42.2" y="363.9" style="fill:#36B6DD;" width="172.6" height="11"/>
			<rect x="42.2" y="341.9" style="fill:#36B6DD;" width="172.6" height="11"/>
			<rect x="42.6" y="386" style="fill:#36B6DD;" width="172.6" height="11"/>
			<rect x="42.6" y="408" style="fill:#36B6DD;" width="172.6" height="11"/>
			<rect x="42.2" y="452.1" style="fill:#36B6DD;" width="172.6" height="11"/>
			<rect x="42.2" y="430.1" style="fill:#36B6DD;" width="172.6" height="11"/>
			<rect x="41.8" y="474.2" style="fill:#36B6DD;" width="172.6" height="11"/>
			<rect x="41.8" y="496.2" style="fill:#36B6DD;" width="172.6" height="11"/>
			<rect x="42.2" y="444.2" style="fill:#2E6193;" width="172.6" height="11"/>
			<rect x="42.2" y="422.2" style="fill:#2E6193;" width="172.6" height="11"/>
			<rect x="41.8" y="466.2" style="fill:#2E6193;" width="172.6" height="11"/>
			<rect x="41.8" y="488.2" style="fill:#2E6193;" width="172.6" height="11"/>
			<rect x="42.2" y="356" style="fill:#2E6193;" width="172.6" height="11"/>
			<rect x="42.2" y="334" style="fill:#2E6193;" width="172.6" height="11"/>
			<rect x="42.6" y="378" style="fill:#2E6193;" width="172.6" height="11"/>
			<rect x="42.6" y="400" style="fill:#2E6193;" width="172.6" height="11"/>
			<rect x="40.6" y="364.1" style="fill:#2E6193;" width="50.2" height="11"/>
			<rect x="40.6" y="342.1" style="fill:#2E6193;" width="50.2" height="11"/>
			<rect x="40.8" y="386.1" style="fill:#2E6193;" width="50.2" height="11"/>
			<rect x="40.8" y="408.2" style="fill:#2E6193;" width="50.2" height="11"/>
			<rect x="40.6" y="452.3" style="fill:#2E6193;" width="50.2" height="11"/>
			<rect x="40.6" y="430.3" style="fill:#2E6193;" width="50.2" height="11"/>
			<rect x="40.5" y="474.3" style="fill:#2E6193;" width="50.2" height="11"/>
			<rect x="40.5" y="496.4" style="fill:#2E6193;" width="50.2" height="11"/>
			<rect x="36.2" y="441.3" style="fill:#FFFFFF;" width="183.7" height="11"/>
			<rect x="36.2" y="463.3" style="fill:#FFFFFF;" width="183.7" height="11"/>
			<rect x="36.2" y="419.2" style="fill:#FFFFFF;" width="183.7" height="11"/>
			<rect x="35.9" y="485.3" style="fill:#FFFFFF;" width="183.7" height="11"/>
			<rect x="35.9" y="507.3" style="fill:#FFFFFF;" width="183.7" height="11"/>
			<rect x="36.2" y="353.1" style="fill:#FFFFFF;" width="183.7" height="11"/>
			<rect x="36.2" y="375.1" style="fill:#FFFFFF;" width="183.7" height="11"/>
			<rect x="36.2" y="330.9" style="fill:#FFFFFF;" width="183.7" height="11"/>
			<rect x="36.6" y="397.1" style="fill:#FFFFFF;" width="183.7" height="11"/>
			<rect x="36.1" y="441.3" style="fill:#CCB5A3;" width="57.9" height="11"/>
			<rect x="36.1" y="463.3" style="fill:#CCB5A3;" width="57.9" height="11"/>
			<rect x="36.1" y="419.2" style="fill:#CCB5A3;" width="57.9" height="11"/>
			<rect x="36" y="485.3" style="fill:#CCB5A3;" width="57.9" height="11"/>
			<rect x="36" y="507.3" style="fill:#CCB5A3;" width="57.9" height="11"/>
			<rect x="36.1" y="353.1" style="fill:#CCB5A3;" width="57.9" height="11"/>
			<rect x="36.1" y="375.1" style="fill:#CCB5A3;" width="57.9" height="11"/>
			<rect x="36.1" y="330.9" style="fill:#CCB5A3;" width="57.9" height="11"/>
			<rect x="36.3" y="397.1" style="fill:#CCB5A3;" width="57.9" height="11"/>
			<polygon style="opacity:0.2;fill:#FFFFFF;" points="137.2,345 109.4,345 103.1,353 130.9,353 			"/>
			<polygon style="opacity:0.2;fill:#FFFFFF;" points="164,345 149.2,345 142.9,353 157.7,353 			"/>
			<polygon style="opacity:0.2;fill:#FFFFFF;" points="171.4,366.8 126.3,366.8 120,374.9 165.1,374.9 			"/>
			<polygon style="opacity:0.2;fill:#FFFFFF;" points="206.8,366.8 192.1,366.8 185.8,374.9 200.6,374.9 			"/>
			<polygon style="opacity:0.2;fill:#FFFFFF;" points="127.9,388.8 100.1,388.8 93.8,396.9 121.6,396.9 			"/>
			<polygon style="opacity:0.2;fill:#FFFFFF;" points="144.8,410.7 99.7,410.7 93.4,418.8 138.5,418.8 			"/>
			<polygon style="opacity:0.2;fill:#FFFFFF;" points="197.5,410.7 182.7,410.7 176.5,418.8 191.3,418.8 			"/>
			<polygon style="opacity:0.2;fill:#FFFFFF;" points="142.7,432.8 114.9,432.8 108.6,440.9 136.4,440.9 			"/>
			<polygon style="opacity:0.2;fill:#FFFFFF;" points="176.8,454.7 131.8,454.7 125.5,462.7 170.6,462.7 			"/>
			<polygon style="opacity:0.2;fill:#FFFFFF;" points="212.3,454.7 197.5,454.7 191.2,462.7 206,462.7 			"/>
			<polygon style="opacity:0.2;fill:#FFFFFF;" points="133.3,476.6 105.6,476.6 99.3,484.7 127.1,484.7 			"/>
			<polygon style="opacity:0.2;fill:#FFFFFF;" points="190.5,476.6 175.7,476.6 169.4,484.7 184.2,484.7 			"/>
			<polygon style="opacity:0.2;fill:#FFFFFF;" points="150.2,498.5 105.1,498.5 98.9,506.6 143.9,506.6 			"/>
			<polygon style="opacity:0.2;fill:#FFFFFF;" points="203,498.5 188.2,498.5 181.9,506.6 196.7,506.6 			"/>
		</g>
		<g>
			<g style="opacity:0.68;">
				<rect x="615.3" y="410" style="fill:#A4E3FF;" width="41.3" height="4.5"/>
			</g>
			<g style="opacity:0.68;">
				<rect x="619.7" y="417.2" style="fill:#A4E3FF;" width="13.3" height="4.5"/>
			</g>
			<g style="opacity:0.68;">
				<rect x="583.2" y="417.2" style="fill:#A4E3FF;" width="23.3" height="4.5"/>
			</g>
			<g style="opacity:0.68;">
				<rect x="588.7" y="288" style="fill:#A4E3FF;" width="33.6" height="4.5"/>
			</g>
			<g style="opacity:0.68;">
				<rect x="588.7" y="295.6" style="fill:#A4E3FF;" width="21.8" height="4.5"/>
			</g>
			<g style="opacity:0.68;">
				<rect x="634.5" y="295.6" style="fill:#A4E3FF;" width="25" height="4.5"/>
			</g>
			<g style="opacity:0.68;">
				<rect x="597.3" y="410" style="fill:#CFF3FF;" width="34.1" height="4.5"/>
			</g>
			<polygon style="fill:#22557F;" points="627.2,277.3 627.2,268.7 446.1,268.7 446.1,277.3 449.1,277.3 449.1,295.4 446.1,295.4 
				446.1,300.9 449.1,300.9 449.1,319.8 446.1,319.8 446.1,325.3 449.1,325.3 449.1,344.3 446.1,344.3 446.1,349.8 449.1,349.8 
				449.1,368 446.1,368 446.1,373.5 449.1,373.5 449.1,392.5 446.1,392.5 446.1,397.9 449.1,397.9 449.1,416.9 446.1,416.9 
				446.1,422.3 449.1,422.3 449.1,441.3 446.1,441.3 446.1,446.8 449.1,446.8 449.1,465.4 446.1,465.4 446.1,470.9 449.1,470.9 
				449.1,495.2 624.2,495.2 624.2,470.9 627.2,470.9 627.2,465.4 624.2,465.4 624.2,446.8 627.2,446.8 627.2,441.3 624.2,441.3 
				624.2,422.3 627.2,422.3 627.2,416.9 624.2,416.9 624.2,397.9 627.2,397.9 627.2,392.5 624.2,392.5 624.2,373.5 627.2,373.5 
				627.2,368 624.2,368 624.2,349.8 627.2,349.8 627.2,344.3 624.2,344.3 624.2,325.3 627.2,325.3 627.2,319.8 624.2,319.8 
				624.2,300.9 627.2,300.9 627.2,295.4 624.2,295.4 624.2,277.3 			"/>
			<g style="opacity:0.68;">
				<rect x="601.7" y="417.2" style="fill:#CFF3FF;" width="13.3" height="4.5"/>
			</g>
			<g style="opacity:0.68;">
				<rect x="616.5" y="295.6" style="fill:#CFF3FF;" width="17.8" height="4.5"/>
			</g>
			<g>
				<polygon style="fill:#CCB5A3;" points="643.4,264.6 468.3,264.6 468.3,283.6 465.3,283.6 465.3,289 468.3,289 468.3,308 
					465.3,308 465.3,313.4 468.3,313.4 468.3,332.4 465.3,332.4 465.3,337.9 468.3,337.9 468.3,356.1 465.3,356.1 465.3,361.6 
					468.3,361.6 468.3,380.6 465.3,380.6 465.3,386.1 468.3,386.1 468.3,405 465.3,405 465.3,410.5 468.3,410.5 468.3,429.5 
					465.3,429.5 465.3,435 468.3,435 468.3,453.6 465.3,453.6 465.3,459 468.3,459 468.3,483.3 643.4,483.3 643.4,459 646.5,459 
					646.5,453.6 643.4,453.6 643.4,435 646.5,435 646.5,429.5 643.4,429.5 643.4,410.5 646.5,410.5 646.5,405 643.4,405 
					643.4,386.1 646.5,386.1 646.5,380.6 643.4,380.6 643.4,361.6 646.5,361.6 646.5,356.1 643.4,356.1 643.4,337.9 646.5,337.9 
					646.5,332.4 643.4,332.4 643.4,313.4 646.5,313.4 646.5,308 643.4,308 643.4,289 646.5,289 646.5,283.6 643.4,283.6 				"/>
				<rect x="465.3" y="256.8" style="fill:#CCB5A3;" width="181.2" height="8.7"/>
			</g>
			<rect x="504.7" y="265.2" style="fill:#FFFFFF;" width="157" height="218.8"/>
			<rect x="515.7" y="265.2" style="fill:#36B6DD;" width="10.8" height="19"/>
			<rect x="536.4" y="265.2" style="fill:#38C7E8;" width="10.8" height="19"/>
			<rect x="557.1" y="265.2" style="fill:#36B6DD;" width="10.8" height="19"/>
			<rect x="577.8" y="265.2" style="fill:#36B6DD;" width="10.8" height="19"/>
			<rect x="598.6" y="265.2" style="fill:#36B6DD;" width="10.8" height="19"/>
			<rect x="619.3" y="265.2" style="fill:#57DFFF;" width="10.8" height="19"/>
			<rect x="640" y="265.2" style="fill:#36B6DD;" width="10.8" height="19"/>
			<rect x="640" y="289.7" style="fill:#36B6DD;" width="10.8" height="19"/>
			<rect x="619.3" y="289.7" style="fill:#38C7E8;" width="10.8" height="19"/>
			<rect x="598.6" y="289.7" style="fill:#36B6DD;" width="10.8" height="19"/>
			<rect x="577.8" y="289.7" style="fill:#00CFFF;" width="10.8" height="19"/>
			<rect x="557.1" y="289.7" style="fill:#36B6DD;" width="10.8" height="19"/>
			<rect x="536.4" y="289.7" style="fill:#57DFFF;" width="10.8" height="19"/>
			<rect x="515.7" y="289.7" style="fill:#36B6DD;" width="10.8" height="19"/>
			<rect x="515.7" y="314.1" style="fill:#36B6DD;" width="10.8" height="19"/>
			<rect x="536.4" y="314.1" style="fill:#36B6DD;" width="10.8" height="19"/>
			<rect x="557.1" y="314.1" style="fill:#38C7E8;" width="10.8" height="19"/>
			<rect x="577.8" y="314.1" style="fill:#36B6DD;" width="10.8" height="19"/>
			<rect x="598.6" y="314.1" style="fill:#36B6DD;" width="10.8" height="19"/>
			<rect x="619.3" y="314.1" style="fill:#36B6DD;" width="10.8" height="19"/>
			<rect x="640" y="314.1" style="fill:#36B6DD;" width="10.8" height="19"/>
			<rect x="640" y="338.5" style="fill:#36B6DD;" width="10.8" height="19"/>
			<rect x="619.3" y="338.5" style="fill:#38C7E8;" width="10.8" height="19"/>
			<rect x="598.6" y="338.5" style="fill:#38C7E8;" width="10.8" height="19"/>
			<rect x="577.8" y="338.5" style="fill:#36B6DD;" width="10.8" height="19"/>
			<rect x="557.1" y="338.5" style="fill:#36B6DD;" width="10.8" height="19"/>
			<rect x="536.4" y="338.5" style="fill:#36B6DD;" width="10.8" height="19"/>
			<rect x="515.7" y="338.5" style="fill:#57DFFF;" width="10.8" height="19"/>
			<rect x="515.7" y="362.2" style="fill:#36B6DD;" width="10.8" height="19"/>
			<rect x="536.4" y="362.2" style="fill:#38C7E8;" width="10.8" height="19"/>
			<rect x="557.1" y="362.2" style="fill:#36B6DD;" width="10.8" height="19"/>
			<rect x="577.8" y="362.2" style="fill:#36B6DD;" width="10.8" height="19"/>
			<rect x="598.6" y="362.2" style="fill:#36B6DD;" width="10.8" height="19"/>
			<rect x="619.3" y="362.2" style="fill:#57DFFF;" width="10.8" height="19"/>
			<rect x="640" y="362.2" style="fill:#36B6DD;" width="10.8" height="19"/>
			<rect x="640" y="386.7" style="fill:#36B6DD;" width="10.8" height="19"/>
			<rect x="619.3" y="386.7" style="fill:#38C7E8;" width="10.8" height="19"/>
			<rect x="598.6" y="386.7" style="fill:#36B6DD;" width="10.8" height="19"/>
			<rect x="577.8" y="386.7" style="fill:#00CFFF;" width="10.8" height="19"/>
			<rect x="557.1" y="386.7" style="fill:#36B6DD;" width="10.8" height="19"/>
			<rect x="536.4" y="386.7" style="fill:#57DFFF;" width="10.8" height="19"/>
			<rect x="515.7" y="386.7" style="fill:#36B6DD;" width="10.8" height="19"/>
			<rect x="515.7" y="411.1" style="fill:#36B6DD;" width="10.8" height="19"/>
			<rect x="536.4" y="411.1" style="fill:#36B6DD;" width="10.8" height="19"/>
			<rect x="557.1" y="411.1" style="fill:#38C7E8;" width="10.8" height="19"/>
			<rect x="577.8" y="411.1" style="fill:#36B6DD;" width="10.8" height="19"/>
			<rect x="598.6" y="411.1" style="fill:#36B6DD;" width="10.8" height="19"/>
			<rect x="619.3" y="411.1" style="fill:#36B6DD;" width="10.8" height="19"/>
			<rect x="640" y="411.1" style="fill:#36B6DD;" width="10.8" height="19"/>
			<rect x="501.7" y="284.2" style="fill:#FFFFFF;" width="163" height="5.5"/>
			<rect x="501.7" y="333.1" style="fill:#FFFFFF;" width="163" height="5.5"/>
			<rect x="501.7" y="256.8" style="fill:#FFFFFF;" width="163" height="8.7"/>
			<rect x="501.7" y="308.6" style="fill:#FFFFFF;" width="163" height="5.5"/>
			<rect x="501.7" y="381.2" style="fill:#FFFFFF;" width="163" height="5.5"/>
			<rect x="501.7" y="356.7" style="fill:#FFFFFF;" width="163" height="5.5"/>
			<rect x="501.7" y="405.6" style="fill:#FFFFFF;" width="163" height="5.5"/>
			<rect x="504.7" y="265.2" style="opacity:0.5;fill:#2469CE;" width="157" height="5.5"/>
			<rect x="504.7" y="289.8" style="opacity:0.5;fill:#2469CE;" width="157" height="5.5"/>
			<rect x="504.7" y="314.1" style="opacity:0.5;fill:#2469CE;" width="157" height="5.5"/>
			<rect x="504.7" y="338.7" style="opacity:0.5;fill:#2469CE;" width="157" height="5.5"/>
			<rect x="504.7" y="362.2" style="opacity:0.5;fill:#2469CE;" width="157" height="5.5"/>
			<rect x="504.7" y="386.9" style="opacity:0.5;fill:#2469CE;" width="157" height="5.5"/>
			<rect x="504.7" y="411.1" style="opacity:0.5;fill:#2469CE;" width="157" height="5.5"/>
			<path style="fill:none;stroke:#38300E;stroke-width:3.5189;stroke-miterlimit:10;" d="M621.2,382.1"/>
		</g>
		<g>
			<g style="opacity:0.68;">
				<rect x="369.9" y="454.1" style="fill:#A4E3FF;" width="41.3" height="4.5"/>
			</g>
			<g style="opacity:0.68;">
				<rect x="374.3" y="461.2" style="fill:#A4E3FF;" width="13.3" height="4.5"/>
			</g>
			<g style="opacity:0.68;">
				<rect x="337.8" y="461.2" style="fill:#A4E3FF;" width="23.3" height="4.5"/>
			</g>
			<g style="opacity:0.68;">
				<rect x="343.3" y="332" style="fill:#A4E3FF;" width="33.6" height="4.5"/>
			</g>
			<g style="opacity:0.68;">
				<rect x="343.3" y="339.6" style="fill:#A4E3FF;" width="21.8" height="4.5"/>
			</g>
			<g style="opacity:0.68;">
				<rect x="389.1" y="339.6" style="fill:#A4E3FF;" width="25" height="4.5"/>
			</g>
			<g style="opacity:0.68;">
				<rect x="351.9" y="454.1" style="fill:#CFF3FF;" width="34.1" height="4.5"/>
			</g>
			<polygon style="fill:#22557F;" points="381.9,321.4 381.9,312.7 243.7,312.7 243.7,321.4 246.7,321.4 246.7,339.5 243.7,339.5 
				243.7,344.9 246.7,344.9 246.7,363.9 243.7,363.9 243.7,369.3 246.7,369.3 246.7,388.4 243.7,388.4 243.7,393.8 246.7,393.8 
				246.7,412 243.7,412 243.7,417.5 246.7,417.5 246.7,436.5 243.7,436.5 243.7,442 246.7,442 246.7,460.9 243.7,460.9 243.7,466.4 
				246.7,466.4 246.7,485.4 243.7,485.4 243.7,490.9 246.7,490.9 246.7,509.5 243.7,509.5 243.7,514.9 246.7,514.9 246.7,539.2 
				378.8,539.2 378.8,514.9 381.9,514.9 381.9,509.5 378.8,509.5 378.8,490.9 381.9,490.9 381.9,485.4 378.8,485.4 378.8,466.4 
				381.9,466.4 381.9,460.9 378.8,460.9 378.8,442 381.9,442 381.9,436.5 378.8,436.5 378.8,417.5 381.9,417.5 381.9,412 378.8,412 
				378.8,393.8 381.9,393.8 381.9,388.4 378.8,388.4 378.8,369.3 381.9,369.3 381.9,363.9 378.8,363.9 378.8,344.9 381.9,344.9 
				381.9,339.5 378.8,339.5 378.8,321.4 			"/>
			<g style="opacity:0.68;">
				<rect x="356.3" y="461.2" style="fill:#CFF3FF;" width="13.3" height="4.5"/>
			</g>
			<g style="opacity:0.68;">
				<rect x="371.2" y="339.6" style="fill:#CFF3FF;" width="17.8" height="4.5"/>
			</g>
			<g>
				<polygon style="fill:#CCB5A3;" points="398.1,308.6 265.9,308.6 265.9,327.6 262.9,327.6 262.9,333.1 265.9,333.1 265.9,352 
					262.9,352 262.9,357.5 265.9,357.5 265.9,376.5 262.9,376.5 262.9,382 265.9,382 265.9,400.2 262.9,400.2 262.9,405.6 
					265.9,405.6 265.9,424.6 262.9,424.6 262.9,430.1 265.9,430.1 265.9,449 262.9,449 262.9,454.5 265.9,454.5 265.9,473.5 
					262.9,473.5 262.9,479 265.9,479 265.9,497.6 262.9,497.6 262.9,503.1 265.9,503.1 265.9,527.4 398.1,527.4 398.1,503.1 
					401.1,503.1 401.1,497.6 398.1,497.6 398.1,479 401.1,479 401.1,473.5 398.1,473.5 398.1,454.5 401.1,454.5 401.1,449 
					398.1,449 398.1,430.1 401.1,430.1 401.1,424.6 398.1,424.6 398.1,405.6 401.1,405.6 401.1,400.2 398.1,400.2 398.1,382 
					401.1,382 401.1,376.5 398.1,376.5 398.1,357.5 401.1,357.5 401.1,352 398.1,352 398.1,333.1 401.1,333.1 401.1,327.6 
					398.1,327.6 				"/>
				<rect x="262.9" y="300.8" style="fill:#CCB5A3;" width="138.2" height="8.7"/>
			</g>
			<rect x="302.4" y="309.2" style="fill:#FFFFFF;" width="114" height="218.8"/>
			<rect x="311.7" y="309.2" style="fill:#36B6DD;" width="10.8" height="19"/>
			<rect x="332.5" y="309.2" style="fill:#36B6DD;" width="10.8" height="19"/>
			<rect x="353.2" y="309.2" style="fill:#36B6DD;" width="10.8" height="19"/>
			<rect x="373.9" y="309.2" style="fill:#57DFFF;" width="10.8" height="19"/>
			<rect x="394.6" y="309.2" style="fill:#36B6DD;" width="10.8" height="19"/>
			<rect x="394.6" y="333.7" style="fill:#36B6DD;" width="10.8" height="19"/>
			<rect x="373.9" y="333.7" style="fill:#38C7E8;" width="10.8" height="19"/>
			<rect x="353.2" y="333.7" style="fill:#36B6DD;" width="10.8" height="19"/>
			<rect x="332.5" y="333.7" style="fill:#00CFFF;" width="10.8" height="19"/>
			<rect x="311.7" y="333.7" style="fill:#36B6DD;" width="10.8" height="19"/>
			<rect x="311.7" y="358.1" style="fill:#38C7E8;" width="10.8" height="19"/>
			<rect x="332.5" y="358.1" style="fill:#36B6DD;" width="10.8" height="19"/>
			<rect x="353.2" y="358.1" style="fill:#36B6DD;" width="10.8" height="19"/>
			<rect x="373.9" y="358.1" style="fill:#36B6DD;" width="10.8" height="19"/>
			<rect x="394.6" y="358.1" style="fill:#36B6DD;" width="10.8" height="19"/>
			<rect x="394.6" y="382.6" style="fill:#36B6DD;" width="10.8" height="19"/>
			<rect x="373.9" y="382.6" style="fill:#38C7E8;" width="10.8" height="19"/>
			<rect x="353.2" y="382.6" style="fill:#38C7E8;" width="10.8" height="19"/>
			<rect x="332.5" y="382.6" style="fill:#36B6DD;" width="10.8" height="19"/>
			<rect x="311.7" y="382.6" style="fill:#36B6DD;" width="10.8" height="19"/>
			<rect x="311.7" y="406.2" style="fill:#36B6DD;" width="10.8" height="19"/>
			<rect x="332.5" y="406.2" style="fill:#36B6DD;" width="10.8" height="19"/>
			<rect x="353.2" y="406.2" style="fill:#36B6DD;" width="10.8" height="19"/>
			<rect x="373.9" y="406.2" style="fill:#57DFFF;" width="10.8" height="19"/>
			<rect x="394.6" y="406.2" style="fill:#36B6DD;" width="10.8" height="19"/>
			<rect x="394.6" y="430.7" style="fill:#36B6DD;" width="10.8" height="19"/>
			<rect x="373.9" y="430.7" style="fill:#38C7E8;" width="10.8" height="19"/>
			<rect x="353.2" y="430.7" style="fill:#36B6DD;" width="10.8" height="19"/>
			<rect x="332.5" y="430.7" style="fill:#00CFFF;" width="10.8" height="19"/>
			<rect x="311.7" y="430.7" style="fill:#36B6DD;" width="10.8" height="19"/>
			<rect x="311.7" y="455.1" style="fill:#38C7E8;" width="10.8" height="19"/>
			<rect x="332.5" y="455.1" style="fill:#36B6DD;" width="10.8" height="19"/>
			<rect x="353.2" y="455.1" style="fill:#36B6DD;" width="10.8" height="19"/>
			<rect x="373.9" y="455.1" style="fill:#36B6DD;" width="10.8" height="19"/>
			<rect x="394.6" y="455.1" style="fill:#36B6DD;" width="10.8" height="19"/>
			<rect x="299.3" y="328.2" style="fill:#FFFFFF;" width="120" height="5.5"/>
			<rect x="299.3" y="377.1" style="fill:#FFFFFF;" width="120" height="5.5"/>
			<rect x="299.3" y="352.6" style="fill:#FFFFFF;" width="120" height="5.5"/>
			<rect x="299.3" y="425.3" style="fill:#FFFFFF;" width="120" height="5.5"/>
			<rect x="299.3" y="400.8" style="fill:#FFFFFF;" width="120" height="5.5"/>
			<rect x="299.3" y="449.7" style="fill:#FFFFFF;" width="120" height="5.5"/>
			<rect x="302.4" y="309.2" style="opacity:0.5;fill:#2469CE;" width="114" height="5.5"/>
			<polyline style="opacity:0.5;fill:#2469CE;" points="356.3,339.4 302.4,339.4 302.4,333.9 416.4,333.9 416.4,339.4 356.3,339.4 
							"/>
			<rect x="302.4" y="358.1" style="opacity:0.5;fill:#2469CE;" width="114" height="5.5"/>
			<rect x="302.4" y="382.8" style="opacity:0.5;fill:#2469CE;" width="114" height="5.5"/>
			<rect x="302.4" y="406.3" style="opacity:0.5;fill:#2469CE;" width="114" height="5.5"/>
			<rect x="302.4" y="430.9" style="opacity:0.5;fill:#2469CE;" width="114" height="5.5"/>
			<rect x="302.4" y="455.1" style="opacity:0.5;fill:#2469CE;" width="114" height="5.5"/>
			<path style="fill:none;stroke:#38300E;stroke-width:3.5189;stroke-miterlimit:10;" d="M375.8,426.2"/>
			<rect x="299.3" y="300.8" style="fill:#FFFFFF;" width="120" height="8.7"/>
		</g>
	</g>
</g>
<g id="Shield">
	<g>
		<g style="enable-background:new    ;">
			<g>
				<path style="fill:#2C88C6;" d="M26,445.6c-2.2-0.2-4.3-0.5-6.5-0.7c-1-8.4-1.7-17-1.9-25.7l6.5,0.7
					C24.4,428.6,25,437.2,26,445.6z"/>
			</g>
			<g>
				<path style="fill:#2C88C6;" d="M45.9,516.3c-2.1-0.2-4.4-0.5-6.5-0.7c-10-21.3-16.7-45.4-19.8-70.7c0,0,0,0,0,0
					c0.8,0.1,1.6,0.2,2.4,0.2c1.4,0.1,2.7,0.3,4.1,0.4c1,8.4,2.5,16.7,4.3,24.8c-0.5-0.1-1-0.1-1.6-0.2c-1.1-0.1-1.1-0.1-4.9-0.5
					c2.2,0.2,4.3,0.5,6.5,0.7c1.8,8.1,4,16,6.6,23.6c-0.5-0.1-1-0.1-1.6-0.2c-1.1-0.1-1.1-0.1-4.9-0.5c2.2,0.2,4.3,0.5,6.5,0.7
					C39.6,501.8,42.5,509.2,45.9,516.3z"/>
			</g>
			<g>
				<path style="fill:#E6E7E8;" d="M45.9,516.4c15.3,32.6,37.3,57.3,65.6,73.6c-2.2-0.2-4.3-0.5-6.5-0.7
					c-28.2-16.3-50.2-41.1-65.6-73.6c-13.4-28.4-20.8-61.8-21.7-96.5l6.5,0.7C25.1,454.6,32.5,488,45.9,516.4z"/>
			</g>
			<g>
				<path style="fill:#2C88C6;" d="M30.3,470.5c-1.1-0.1-2.2-0.2-3.3-0.3C28.2,470.3,29.3,470.4,30.3,470.5
					C30.3,470.5,30.3,470.5,30.3,470.5z"/>
			</g>
			<g>
				<path style="opacity:0.851;fill:#C6C6C6;" d="M12.5,409.6c0,0.1,0,0.2,0,0.2c-2.2-0.2-4.3-0.5-6.5-0.7c0-0.1,0-0.2,0-0.2
					C7.9,409.1,10.5,409.4,12.5,409.6z"/>
			</g>
			<g>
				<path style="opacity:0.851;fill:#C6C6C6;" d="M12.5,416.1c-2.2-0.2-4.3-0.5-6.5-0.7c0-2.1,0-4.2,0-6.3c2.2,0.2,4.3,0.5,6.5,0.7
					C12.4,411.9,12.4,414,12.5,416.1z"/>
			</g>
			<g>
				<path style="opacity:0.851;fill:#C6C6C6;" d="M12.5,416.6C7.1,416,7.1,416,6,415.9c0-0.2,0-0.3,0-0.5c2.2,0.2,4.3,0.5,6.5,0.7
					C12.5,416.3,12.5,416.4,12.5,416.6z"/>
			</g>
			<g>
				<path style="opacity:0.851;fill:#C6C6C6;" d="M12.5,416.6c0,0.1,0,0.1,0,0.2c-2.2-0.2-4.3-0.5-6.5-0.7c0,0,0-0.1,0-0.1
					C7.1,416,7.1,416,12.5,416.6z"/>
			</g>
			<g>
				<path style="opacity:0.851;fill:#C6C6C6;" d="M12.7,424.2c-2.2-0.2-4.3-0.5-6.5-0.7C8,423.7,9.7,423.8,12.7,424.2
					C12.7,424.2,12.7,424.2,12.7,424.2z"/>
			</g>
			<g>
				<path style="opacity:0.851;fill:#C6C6C6;" d="M12.5,416.8c0,2.5,0.1,4.9,0.2,7.4c-3-0.3-4.7-0.5-6.5-0.6c-0.1-2.5-0.2-5-0.2-7.5
					C8.1,416.3,10.3,416.5,12.5,416.8z"/>
			</g>
			<g>
				<path style="opacity:0.851;fill:#C6C6C6;" d="M12.8,426.8c-2.2-0.2-4.3-0.5-6.5-0.7c0-0.9-0.1-1.7-0.1-2.6
					c2.2,0.2,4.3,0.5,6.5,0.7C12.7,425.1,12.7,426,12.8,426.8z"/>
			</g>
			<g>
				<path style="opacity:0.851;fill:#C6C6C6;" d="M12.8,427.2c-2.2-0.2-4.3-0.5-6.5-0.7c0-0.1,0-0.3,0-0.4c2.2,0.2,4.3,0.5,6.5,0.7
					C12.8,427,12.8,427.1,12.8,427.2z"/>
			</g>
			<g>
				<path style="opacity:0.851;fill:#C6C6C6;" d="M12.8,427.2c0,0,0,0.1,0,0.1c-2.2-0.2-4.3-0.5-6.5-0.7c0,0,0-0.1,0-0.1
					C8.5,426.8,10.6,427,12.8,427.2z"/>
			</g>
			<g>
				<path style="fill:#2C88C6;" d="M37,494.2c-1.1-0.1-2.2-0.2-3.3-0.3C34.8,493.9,35.9,494,37,494.2C37,494.1,37,494.1,37,494.2z"
					/>
			</g>
			<g>
				<path style="fill:#2C88C6;" d="M24.5,445.5c-1.6-0.2-3.3-0.3-4.9-0.5c0,0,0,0,0,0C21.2,445.1,22.8,445.3,24.5,445.5z"/>
			</g>
			<g>
				<path style="fill:#E6E7E8;" d="M42.6,412.6c-5.2,3.2-11.4,5.7-18.4,7.4l-6.5-0.7c7.1-1.7,13.2-4.2,18.4-7.4
					C38.3,412.1,40.4,412.3,42.6,412.6z"/>
			</g>
			<g>
				<path style="fill:#2C88C6;" d="M42.3,412.7c-5.2,3.1-11.2,5.6-18.2,7.2l-6.5-0.7c7-1.6,13-4.1,18.2-7.2
					C38,412.3,40.1,412.5,42.3,412.7z"/>
			</g>
			<g>
				<path style="opacity:0.851;fill:#C6C6C6;" d="M52.6,365.8l6.5,0.7c-0.2,2-3.5,39.4-46.7,43L6,408.9
					C49.1,405.2,52.4,367.8,52.6,365.8z"/>
			</g>
			<g>
				<path style="fill:#2C88C6;" d="M42.3,412.7C42.3,412.8,42.3,412.7,42.3,412.7c-0.1,0-0.1,0-0.2,0c0,0,0,0,0,0c0,0-0.1,0-0.1,0
					c0,0,0,0,0,0c-0.1,0-0.2,0-0.3,0c-1.9-0.2-3.9-0.4-5.8-0.6c14.5-8.7,22.4-22,26-34.2l6.5,0.7C64.7,390.8,56.8,404.1,42.3,412.7z
					"/>
			</g>
			<g>
				<path style="fill:#E6E7E8;" d="M42.6,412.6C42.6,412.6,42.6,412.6,42.6,412.6c-0.1,0-0.1,0-0.2,0c0,0-0.1,0-0.1,0
					c0,0-0.1,0-0.1,0c0,0,0,0-0.1,0c-0.1,0-0.2,0-0.2,0c-0.1,0-0.1,0-0.2,0c-1.9-0.2-3.7-0.4-5.6-0.6c8.8-5.3,15.2-12.4,19.6-19.9
					c2.2,0.2,4.3,0.5,6.5,0.7C57.8,400.1,51.4,407.2,42.6,412.6z"/>
			</g>
			<g>
				<path style="fill:#E6E7E8;" d="M62.5,392.2c-0.1,0.2-0.2,0.3-0.3,0.5c-2.2-0.2-4.3-0.5-6.5-0.7c0.1-0.2,0.2-0.3,0.3-0.5
					C58.1,391.7,60.3,391.9,62.5,392.2z"/>
			</g>
			<g>
				<path style="fill:#2C88C6;" d="M61.8,377.8c-4.9,16.6-17.7,35.2-44.2,41.4C44.1,413,56.9,394.4,61.8,377.8z"/>
			</g>
			<g>
				<path style="fill:#E6E7E8;" d="M68.3,378.5c-1.3,4.5-3.2,9.1-5.8,13.6c-2.2-0.2-4.3-0.5-6.5-0.7c2.6-4.5,4.5-9.1,5.8-13.6
					C63.8,378,66.4,378.3,68.3,378.5z"/>
			</g>
			<g>
				<polygon style="fill:#39A6E2;" points="78.5,456.4 85,457.1 67.4,477.4 60.8,476.7 				"/>
			</g>
			<g>
				<polygon style="opacity:0.851;fill:#C6C6C6;" points="107.9,366.3 114.4,367 59.1,366.5 52.6,365.8 				"/>
			</g>
			<g>
				<polygon style="fill:#E6E7E8;" points="107.9,365.8 114.4,366.5 114.3,378.5 107.8,377.8 				"/>
			</g>
			<g>
				<polygon style="fill:#E6E7E8;" points="107.8,377.8 114.3,378.5 68.3,378.5 61.8,377.8 				"/>
			</g>
			<g>
				<path style="opacity:0.851;fill:#C6C6C6;" d="M91.7,591.7c-2.2-0.2-4.3-0.5-6.5-0.7C34.1,553.8,9.5,490.3,6.3,426.7
					c2.2,0.2,4.3,0.5,6.5,0.7C16,491,40.6,554.5,91.7,591.7z"/>
			</g>
			<g>
				<polygon style="fill:#88CAEE;" points="78.5,456.4 85,457.1 111.1,484.7 104.6,484 				"/>
			</g>
			<g>
				<polygon style="fill:#39A6E2;" points="107.8,377.8 114.3,378.5 113.1,482 106.6,481.3 				"/>
			</g>
			<g>
				<polygon style="fill:#39A6E2;" points="60.8,476.7 67.4,477.4 112.6,525.2 106.1,524.5 				"/>
			</g>
			<g>
				<polygon style="fill:#88CAEE;" points="106.6,481.3 113.1,482 112.6,525.2 106.1,524.5 				"/>
			</g>
			<g>
				<polygon style="fill:#39A6E2;" points="106.1,524.5 112.6,525.2 111.9,590.3 105.4,589.6 				"/>
			</g>
			<g>
				<path style="fill:#E6E7E8;" d="M111.4,590c0.2,0.1,0.3,0.2,0.5,0.3l-6.5-0.7c-0.2-0.1-0.3-0.2-0.5-0.3c1.1,0.1,2.2,0.2,3.3,0.3
					c0.3,0,0.6,0.1,0.9,0.1c0.1,0,0.3,0,0.4,0c0.2,0,0.6,0.1,0.8,0.1c0.1,0,0.3,0,0.4,0C110.9,590,111.2,590,111.4,590z"/>
			</g>
			<g>
				<path style="fill:#2C88C6;" d="M105.4,589.6l0-3.2c-25.3-16.3-45.3-39.9-59.6-70.1l-6.5-0.7C54.8,548.4,77,573.3,105.4,589.6
					l6.5,0.7c0,0,0,0,0,0L105.4,589.6z"/>
			</g>
			<g>
				<path style="fill:#39A6E2;" d="M107.8,377.8l-1.2,103.5l-2.1,2.6l-26.1-27.5l-17.6,20.3l45.3,47.8l-0.7,65.1
					c-28.4-16.3-50.6-41.3-66-74c-13.4-28.4-20.8-61.7-21.7-96.3c26.5-6.2,39.3-24.8,44.2-41.4H107.8z"/>
			</g>
			<g>
				<path style="opacity:0.851;fill:#C6C6C6;" d="M91.7,591.7c6.3,4.6,12.9,8.7,20,12.4l-6.5-0.7c-7.1-3.7-13.7-7.9-20-12.4
					C87.4,591.2,89.6,591.4,91.7,591.7z"/>
			</g>
			<g>
				<path style="fill:#E6E7E8;" d="M6,409.1l6.5,0.7c-0.8,76.8,29.2,157.5,99.3,194.3l-6.5-0.7C35.2,566.6,5.1,486,6,409.1z"/>
			</g>
			<g>
				<polygon style="fill:#E6E7E8;" points="105.4,589.6 111.9,590.3 111.7,604.1 105.2,603.4 				"/>
			</g>
			<g>
				<polygon style="fill:#E6E7E8;" points="153.8,377.8 160.3,378.5 114.3,378.5 107.8,377.8 				"/>
			</g>
			<g>
				<polygon style="opacity:0.851;fill:#C6C6C6;" points="163.2,366.3 169.7,367 114.4,367 107.9,366.3 				"/>
			</g>
			<g>
				<path style="fill:#2C88C6;" d="M153.8,377.8l6.5,0.7c2.3,8.5,6.7,17.5,13.9,25.1l-6.5-0.7C160.4,395.3,156.1,386.3,153.8,377.8z
					"/>
			</g>
			<g>
				<polygon style="fill:#2C88C6;" points="167.6,402.9 174.2,403.6 113.1,482 106.6,481.3 				"/>
			</g>
			<g>
				<path style="fill:#80B8DD;" d="M167.6,402.9c5.6,5.9,12.8,10.9,22.1,14.2l-83.6,107.4l0.5-43.2L167.6,402.9z"/>
			</g>
			<g>
				<path style="fill:#80B8DD;" d="M167.6,402.9l6.5,0.7c5.6,5.9,12.8,10.9,22.1,14.2l-6.5-0.7C180.4,413.8,173.2,408.8,167.6,402.9
					z"/>
			</g>
			<g>
				<polygon style="fill:#80B8DD;" points="189.7,417.1 196.2,417.8 112.6,525.2 106.1,524.5 				"/>
			</g>
			<g>
				<path style="fill:#2C88C6;" d="M189.7,417.1l6.5,0.7c2.3,0.8,4.7,1.5,7.3,2.1l-6.5-0.7C194.4,418.7,192,417.9,189.7,417.1z"/>
			</g>
			<g>
				<path style="fill:#2C88C6;" d="M197,419.3l6.5,0.7c-1.7,34.7-9.9,67.9-23.9,96.3c-16.1,32.7-38.9,57.7-67.7,74.1l-6.5-0.7
					c28.8-16.3,51.6-41.3,67.7-74.1C187.1,487.1,195.3,453.9,197,419.3z"/>
			</g>
			<g>
				<path style="fill:#E6E7E8;" d="M213.8,409.7l-6.5-0.7c-41.5-4.5-43.9-40.7-44.1-42.7l6.5,0.7C169.9,369,172.3,405.2,213.8,409.7
					z"/>
			</g>
			<g>
				<path style="opacity:0.851;fill:#C6C6C6;" d="M214.1,407l-6.5-0.7c-38.9-4.2-41.6-38.6-41.7-40l6.5,0.7
					C172.5,368.5,175.2,402.9,214.1,407z"/>
			</g>
			<g>
				<path style="opacity:0.851;fill:#C6C6C6;" d="M213.8,409.7l-6.5-0.7c0.5,0.1,1.1,0.1,1.6,0.2l6.5,0.7
					C214.9,409.8,214.3,409.7,213.8,409.7z"/>
			</g>
			<g>
				<path style="fill:#2C88C6;" d="M189.7,417.1c2.3,0.8,4.7,1.5,7.3,2.1c-1.7,34.7-9.9,67.9-23.9,96.3
					c-16.1,32.7-38.9,57.7-67.7,74.1l0.7-65.1L189.7,417.1z"/>
			</g>
			<g>
				<path style="fill:#E6E7E8;" d="M163.2,366.3c0.1,2,2.6,39.1,45.7,42.8C208,486,176.2,566.6,105.2,603.4
					C35.1,566.6,5.1,486,6,409.1C5.1,486,35.2,566.6,105.2,603.4l0.2-13.8c28.8-16.3,51.6-41.3,67.7-74.1
					c14-28.4,22.2-61.6,23.9-96.3c-2.6-0.6-5-1.3-7.3-2.1c-9.3-3.3-16.5-8.4-22.1-14.2c-7.2-7.6-11.6-16.6-13.9-25.1h-46l0.1-11.5
					H163.2z"/>
			</g>
			<g>
				<path style="fill:#E6E7E8;" d="M208.9,409.1l6.5,0.7c-0.9,76.9-32.7,157.4-103.7,194.3l-6.5-0.7
					C176.2,566.6,208,486,208.9,409.1z"/>
			</g>
			<g>
				<path style="opacity:0.851;fill:#C6C6C6;" d="M209,406.5c-40.3-3.4-43.1-38.7-43.2-40.2l-0.2-2.3H50.2l-0.2,2.3
					c0,0.4-3.7,36.6-44.2,40.1l-2.3,0.2l0,2.5c-0.5,40.8,7.5,80.1,23.2,113.4c17.4,37.1,44.1,65.9,77.3,83.3l1.1,0.6l1.1-0.6
					c33.6-17.4,61-46.3,79.3-83.3c16.4-33.4,25.3-72.6,25.7-113.4l0-2.5L209,406.5z M105.2,603.4C35.1,566.6,5.1,486,6,408.9
					c43.2-3.7,46.5-41.1,46.7-43l55.3,0.5h55.3c0.1,2,2.6,39.1,45.7,42.8C208,486,176.2,566.6,105.2,603.4"/>
			</g>
			<g>
				<polygon style="fill:#88CAEE;" points="78.5,456.4 104.6,484 106.6,481.3 106.1,524.5 60.8,476.7 				"/>
			</g>
			<g>
				<path style="fill:#2C88C6;" d="M153.8,377.8h-46l-1.2,103.5l61-78.4C160.4,395.3,156.1,386.3,153.8,377.8z"/>
			</g>
			<g>
				<path style="fill:#2C88C6;" d="M39.4,515.6c15.4,32.7,37.6,57.7,66,74c-28.4-16.3-50.6-41.2-66-73.9
					c-13.4-28.4-20.8-61.8-21.7-96.5C18.6,453.9,26,487.2,39.4,515.6z"/>
			</g>
			<g>
				<path style="fill:#E6E7E8;" d="M107.9,365.8l-0.1,12h-46c-4.9,16.6-17.7,35.2-44.2,41.4c0.9,34.7,8.4,68.1,21.7,96.5
					c15.4,32.7,37.6,57.6,66,73.9l-0.2,13.8C35.2,566.6,5.1,486,6,409.1c43.2-3.9,46.5-41.3,46.7-43.3H107.9z"/>
			</g>
			<g>
				<polygon style="opacity:0.851;fill:#C6C6C6;" points="106.3,605.9 112.8,606.6 111.7,607.2 105.2,606.5 				"/>
			</g>
			<g>
				<polygon style="opacity:0.851;fill:#C6C6C6;" points="165.7,364 172.2,364.7 172.4,367 165.8,366.3 				"/>
			</g>
			<g>
				<polygon style="opacity:0.851;fill:#C6C6C6;" points="211.3,406.6 217.8,407.3 217.8,409.8 211.3,409.1 				"/>
			</g>
			<g>
				<path style="opacity:0.851;fill:#C6C6C6;" d="M211.3,409.1l6.5,0.7c-0.5,40.8-9.3,80.1-25.7,113.4
					c-18.3,37.1-45.7,65.9-79.3,83.3l-6.5-0.7c33.6-17.4,61-46.3,79.3-83.3C202,489.2,210.8,450,211.3,409.1z"/>
			</g>
		</g>
	</g>
</g>
<g>
	<polygon style="fill:#131721;" points="638.2,567.2 193.8,566.1 185.5,555.5 200.1,516.5 252.6,497.3 615.4,497.3 657.3,533.9 	"/>
	<path style="fill:#154993;" d="M160.6,507.7l5.1-6.9l9.3-16.1c0,0,4.9-6.6,10.9-9.2c0,0,45.3-12.6,105.5-16.2l86.3-53.2
		c0,0,14.7-6.6,41.8-6.6c0,0,120.1-1.1,186.3,11.2c1.8,0.3,3.4,1.1,4.7,2.4l42.3,39.2c0,0,12.3,6,14.4,14.9l0.9,17.7l4.8,3.8v22.7
		l-1.4,8.6l3.2,2.7l-1.8,12.6c0,0-5.1,19.8-14.4,27.7l-3.1,1.5l-13.3,2.8h-4c0.3-2.3,0.5-4.6,0.5-7c0-29.2-23.7-53-53-53
		c-29.3,0-53,23.7-53,53c0,2.4,0.2,4.7,0.5,7H315.6H299c0.3-2.3,0.5-4.6,0.5-7c0-29.2-23.7-53-53-53c-29.3,0-53,23.7-53,53
		c0,2,0.1,4,0.3,6l-22.2-4.1l-12-29.6c-1.3-3.2-1.9-6.5-1.8-9.9C158,517.9,158.6,511.6,160.6,507.7z"/>
	<path style="fill:#154993;" d="M175.8,483.8c1.5-1.9,5.5-6.3,10.2-8.4c0,0,45.3-12.6,105.5-16.2l86.3-53.2c0,0,14.7-6.6,41.8-6.6
		c0,0,120.1-1.1,186.3,11.2c1.8,0.3,3.4,1.1,4.7,2.4l42.3,39.2c0,0,12.3,6,14.4,14.9l0,0.2l0,0h-41.5l-384.4,10.2L175.8,483.8z"/>
	<g>
		<path style="fill:#29222C;" d="M199.3,560.2c0,26,21.1,47.1,47.1,47.1c26,0,47.1-21.1,47.1-47.1c0-26-21.1-47.1-47.1-47.1
			C220.4,513,199.3,534.1,199.3,560.2z"/>
		<path style="fill:#3F3643;" d="M199.3,560.2c0,26,21.1,47.1,47.1,47.1c26,0,47.1-21.1,47.1-47.1c0-26-21.1-47.1-47.1-47.1
			C220.4,513,199.3,534.1,199.3,560.2z M206.2,577.2c-2.3-5.4-3.4-11.1-3.4-17c0-5.9,1.2-11.6,3.4-17c2.2-5.2,5.3-9.9,9.4-13.9
			c4-4,8.7-7.2,13.9-9.4c5.4-2.3,11.1-3.4,17-3.4c5.9,0,11.6,1.2,17,3.4c5.2,2.2,9.9,5.3,13.9,9.4c4,4,7.2,8.7,9.4,13.9
			c2.3,5.4,3.4,11.1,3.4,17c0,5.9-1.2,11.6-3.4,17c-2.2,5.2-5.3,9.9-9.4,13.9c-4,4-8.7,7.2-13.9,9.4c-5.4,2.3-11.1,3.4-17,3.4
			c-5.9,0-11.6-1.2-17-3.4c-5.2-2.2-9.9-5.3-13.9-9.4C211.6,587,208.4,582.4,206.2,577.2z"/>
		<path style="fill:#3F3643;" d="M209.7,560.2c0,20.3,16.5,36.8,36.8,36.8c20.3,0,36.8-16.5,36.8-36.8c0-20.3-16.5-36.8-36.8-36.8
			C226.2,523.4,209.7,539.9,209.7,560.2z M217,547.7c1.6-3.8,3.9-7.2,6.9-10.2c2.9-2.9,6.4-5.3,10.2-6.9c3.9-1.7,8.1-2.5,12.5-2.5
			c4.3,0,8.5,0.8,12.5,2.5c3.8,1.6,7.2,3.9,10.2,6.9c2.9,2.9,5.3,6.4,6.9,10.2c1.7,3.9,2.5,8.1,2.5,12.5c0,4.3-0.8,8.5-2.5,12.5
			c-1.6,3.8-3.9,7.2-6.9,10.2c-2.9,2.9-6.4,5.3-10.2,6.9c-3.9,1.7-8.1,2.5-12.5,2.5c-4.3,0-8.5-0.8-12.5-2.5
			c-3.8-1.6-7.2-3.9-10.2-6.9c-2.9-2.9-5.3-6.4-6.9-10.2c-1.7-3.9-2.5-8.1-2.5-12.5C214.5,555.8,215.3,551.7,217,547.7z"/>
		<g>
			<g id="XMLID_150_">
				<g id="XMLID_151_">
					<g id="XMLID_152_">
						<path style="fill:#D0D1D2;" d="M214.5,560.2c0,17.7,14.4,32,32.1,32c17.7,0,32-14.3,31.9-32c0-17.7-14.4-32-32.1-32
							C228.7,528.2,214.4,542.5,214.5,560.2z"/>
					</g>
				</g>
			</g>
			<g id="XMLID_147_">
				<g id="XMLID_148_">
					<g id="XMLID_149_">
						<path style="fill:#29222C;" d="M220.2,560.2c0,14.5,11.8,26.3,26.3,26.3c14.5,0,26.3-11.8,26.2-26.3
							c0-14.5-11.8-26.3-26.3-26.3C231.9,533.9,220.2,545.6,220.2,560.2z"/>
					</g>
				</g>
			</g>
			<path style="fill:#A5A8AB;" d="M220.2,562.9l0-5.5h9.4c0.2-1.1,0.5-2.2,0.9-3.3l-8.2-4.7l2.7-4.8l8.2,4.7
				c0.7-0.9,1.5-1.7,2.4-2.4l-4.7-8.1l4.8-2.8l4.7,8.1c1-0.4,2.1-0.7,3.3-0.9l0-9.4h5.5l0,9.4c1.1,0.2,2.2,0.5,3.3,0.9l4.7-8.1
				l4.8,2.8l-4.7,8.1c0.9,0.7,1.7,1.5,2.4,2.4l8.1-4.7l2.8,4.8l-8.1,4.7c0.4,1.1,0.7,2.2,0.9,3.3h9.4l0,5.5h-9.4
				c-0.2,1.1-0.5,2.2-0.9,3.3l8.2,4.7l-2.7,4.8l-8.2-4.7c-0.7,0.9-1.5,1.7-2.4,2.4l4.7,8.1l-4.8,2.8l-4.7-8.1
				c-1,0.4-2.1,0.7-3.3,0.9l0,9.4h-5.5l0-9.4c-1.1-0.2-2.2-0.5-3.3-0.9l-4.7,8.1l-4.8-2.8l4.7-8.1c-0.9-0.7-1.7-1.5-2.4-2.4
				l-8.1,4.7l-2.8-4.8l8.1-4.7c-0.4-1.1-0.7-2.2-0.9-3.3H220.2z"/>
			<g id="XMLID_144_">
				<g id="XMLID_145_">
					<g id="XMLID_146_">
						<path style="fill:#29222C;" d="M238.4,560.2c0,4.4,3.6,8,8.1,8c4.4,0,8-3.6,8-8c0-4.4-3.6-8-8.1-8
							C242,552.1,238.4,555.7,238.4,560.2z"/>
					</g>
				</g>
			</g>
		</g>
		<g>
			<path style="fill:#D0D1D2;" d="M233.7,560.2c0-7,5.7-12.8,12.8-12.8c7,0,12.8,5.7,12.8,12.8c0,7-5.7,12.7-12.8,12.7
				C239.4,572.9,233.7,567.2,233.7,560.2z M235.1,560.2c0,6.3,5.1,11.4,11.4,11.4c6.3,0,11.4-5.1,11.4-11.4
				c0-6.3-5.1-11.4-11.4-11.4C240.2,548.8,235.1,553.9,235.1,560.2z"/>
		</g>
		<g id="XMLID_141_">
			<g id="XMLID_142_">
				<g id="XMLID_143_">
					<path style="fill:#CACCCE;" d="M241.8,560.2c0,2.6,2.1,4.7,4.7,4.7c2.6,0,4.7-2.1,4.7-4.7c0-2.6-2.1-4.7-4.7-4.7
						C243.9,555.5,241.8,557.6,241.8,560.2z"/>
				</g>
			</g>
		</g>
		<path style="fill:#D0D1D2;" d="M229.8,560.2c0,9.2,7.5,16.7,16.7,16.7s16.7-7.5,16.7-16.7c0-9.2-7.5-16.7-16.7-16.7
			S229.8,550.9,229.8,560.2z M233.1,554.5c0.7-1.7,1.8-3.3,3.1-4.6c1.3-1.3,2.9-2.4,4.6-3.1c1.8-0.8,3.7-1.1,5.7-1.1
			c2,0,3.9,0.4,5.7,1.1c1.7,0.7,3.3,1.8,4.6,3.1c1.3,1.3,2.4,2.9,3.1,4.6c0.8,1.8,1.1,3.7,1.1,5.7c0,2-0.4,3.9-1.1,5.7
			c-0.7,1.7-1.8,3.3-3.1,4.6c-1.3,1.3-2.9,2.4-4.6,3.1c-1.8,0.8-3.7,1.1-5.7,1.1c-2,0-3.9-0.4-5.7-1.1c-1.7-0.7-3.3-1.8-4.6-3.1
			c-1.3-1.3-2.4-2.9-3.1-4.6c-0.8-1.8-1.1-3.7-1.1-5.7C231.9,558.2,232.3,556.3,233.1,554.5z"/>
		<path style="fill:#D0D1D2;" d="M216.7,560.2c0,16.4,13.3,29.7,29.7,29.7c16.4,0,29.7-13.3,29.7-29.7c0-16.4-13.3-29.7-29.7-29.7
			C230.1,530.4,216.7,543.8,216.7,560.2z M222.6,550.1c1.3-3.1,3.2-5.9,5.6-8.2c2.4-2.4,5.1-4.2,8.2-5.6c3.2-1.3,6.6-2,10.1-2
			c3.5,0,6.9,0.7,10.1,2c3.1,1.3,5.9,3.2,8.2,5.6c2.4,2.4,4.2,5.1,5.6,8.2c1.3,3.2,2,6.6,2,10.1c0,3.5-0.7,6.9-2,10.1
			c-1.3,3.1-3.2,5.9-5.6,8.2c-2.4,2.4-5.1,4.2-8.2,5.6c-3.2,1.4-6.6,2-10.1,2c-3.5,0-6.9-0.7-10.1-2c-3.1-1.3-5.9-3.2-8.2-5.6
			c-2.4-2.4-4.2-5.1-5.6-8.2c-1.3-3.2-2-6.6-2-10.1C220.6,556.7,221.3,553.3,222.6,550.1z"/>
	</g>
	<g>
		<path style="fill:#29222C;" d="M538.5,560.2c0,26,21.1,47.1,47.1,47.1c26,0,47.1-21.1,47.1-47.1c0-26-21.1-47.1-47.1-47.1
			C559.6,513,538.5,534.1,538.5,560.2z"/>
		<path style="fill:#3F3643;" d="M538.5,560.2c0,26,21.1,47.1,47.1,47.1c26,0,47.1-21.1,47.1-47.1c0-26-21.1-47.1-47.1-47.1
			C559.6,513,538.5,534.1,538.5,560.2z M545.4,577.2c-2.3-5.4-3.4-11.1-3.4-17c0-5.9,1.2-11.6,3.4-17c2.2-5.2,5.3-9.9,9.4-13.9
			c4-4,8.7-7.2,13.9-9.4c5.4-2.3,11.1-3.4,17-3.4c5.9,0,11.6,1.2,17,3.4c5.2,2.2,9.9,5.3,13.9,9.4c4,4,7.2,8.7,9.4,13.9
			c2.3,5.4,3.4,11.1,3.4,17c0,5.9-1.2,11.6-3.4,17c-2.2,5.2-5.3,9.9-9.4,13.9c-4,4-8.7,7.2-13.9,9.4c-5.4,2.3-11.1,3.4-17,3.4
			c-5.9,0-11.6-1.2-17-3.4c-5.2-2.2-9.9-5.3-13.9-9.4C550.8,587,547.6,582.4,545.4,577.2z"/>
		<path style="fill:#3F3643;" d="M548.9,560.2c0,20.3,16.5,36.8,36.8,36.8c20.3,0,36.8-16.5,36.8-36.8c0-20.3-16.5-36.8-36.8-36.8
			C565.4,523.4,548.9,539.9,548.9,560.2z M556.1,547.7c1.6-3.8,3.9-7.2,6.9-10.2c2.9-2.9,6.4-5.3,10.2-6.9c3.9-1.7,8.1-2.5,12.5-2.5
			c4.3,0,8.5,0.8,12.5,2.5c3.8,1.6,7.2,3.9,10.2,6.9c2.9,2.9,5.3,6.4,6.9,10.2c1.7,3.9,2.5,8.1,2.5,12.5c0,4.3-0.8,8.5-2.5,12.5
			c-1.6,3.8-3.9,7.2-6.9,10.2c-2.9,2.9-6.4,5.3-10.2,6.9c-3.9,1.7-8.1,2.5-12.5,2.5c-4.3,0-8.5-0.8-12.5-2.5
			c-3.8-1.6-7.2-3.9-10.2-6.9c-2.9-2.9-5.3-6.4-6.9-10.2c-1.7-3.9-2.5-8.1-2.5-12.5C553.6,555.8,554.5,551.7,556.1,547.7z"/>
		<g>
			<g id="XMLID_138_">
				<g id="XMLID_139_">
					<g id="XMLID_140_">
						<path style="fill:#D0D1D2;" d="M553.6,560.2c0,17.7,14.4,32,32.1,32c17.7,0,32-14.3,31.9-32c0-17.7-14.4-32-32.1-32
							C567.9,528.2,553.6,542.5,553.6,560.2z"/>
					</g>
				</g>
			</g>
			<g id="XMLID_135_">
				<g id="XMLID_136_">
					<g id="XMLID_137_">
						<path style="fill:#29222C;" d="M559.4,560.2c0,14.5,11.8,26.3,26.3,26.3c14.5,0,26.3-11.8,26.2-26.3
							c0-14.5-11.8-26.3-26.3-26.3C571.1,533.9,559.3,545.6,559.4,560.2z"/>
					</g>
				</g>
			</g>
			<path style="fill:#A5A8AB;" d="M559.4,562.9l0-5.5h9.4c0.2-1.1,0.5-2.2,0.9-3.3l-8.2-4.7l2.7-4.8l8.2,4.7
				c0.7-0.9,1.5-1.7,2.4-2.4l-4.7-8.1l4.8-2.8l4.7,8.1c1.1-0.4,2.2-0.7,3.3-0.9l0-9.4h5.5l0,9.4c1.1,0.2,2.2,0.5,3.3,0.9l4.7-8.1
				l4.8,2.8l-4.7,8.1c0.9,0.7,1.7,1.5,2.4,2.4l8.1-4.7l2.8,4.8l-8.1,4.7c0.4,1.1,0.7,2.2,0.9,3.3h9.4l0,5.5h-9.4
				c-0.2,1.1-0.5,2.2-0.9,3.3l8.2,4.7l-2.7,4.8l-8.2-4.7c-0.7,0.9-1.5,1.7-2.4,2.4l4.7,8.1l-4.8,2.8l-4.7-8.1
				c-1.1,0.4-2.2,0.7-3.3,0.9l0,9.4H583l0-9.4c-1.1-0.2-2.2-0.5-3.3-0.9l-4.7,8.1l-4.8-2.8l4.7-8.1c-0.9-0.7-1.7-1.5-2.4-2.4
				l-8.1,4.7l-2.8-4.8l8.1-4.7c-0.4-1.1-0.7-2.2-0.9-3.3H559.4z"/>
			<g id="XMLID_132_">
				<g id="XMLID_133_">
					<g id="XMLID_134_">
						<path style="fill:#29222C;" d="M577.6,560.2c0,4.4,3.6,8,8.1,8c4.4,0,8-3.6,8-8c0-4.4-3.6-8-8.1-8
							C581.2,552.1,577.6,555.7,577.6,560.2z"/>
					</g>
				</g>
			</g>
		</g>
		<g>
			<path style="fill:#D0D1D2;" d="M572.9,560.2c0-7,5.7-12.8,12.7-12.8c7,0,12.7,5.7,12.7,12.8c0,7-5.7,12.7-12.7,12.7
				C578.6,572.9,572.9,567.2,572.9,560.2z M574.3,560.2c0,6.3,5.1,11.4,11.4,11.4c6.3,0,11.4-5.1,11.4-11.4
				c0-6.3-5.1-11.4-11.4-11.4C579.4,548.8,574.3,553.9,574.3,560.2z"/>
		</g>
		<g id="XMLID_129_">
			<g id="XMLID_130_">
				<g id="XMLID_131_">
					<path style="fill:#CACCCE;" d="M581,560.2c0,2.6,2.1,4.7,4.7,4.7c2.6,0,4.7-2.1,4.7-4.7c0-2.6-2.1-4.7-4.7-4.7
						C583.1,555.5,581,557.6,581,560.2z"/>
				</g>
			</g>
		</g>
		<path style="fill:#D0D1D2;" d="M568.9,560.2c0,9.2,7.5,16.7,16.7,16.7c9.2,0,16.7-7.5,16.7-16.7c0-9.2-7.5-16.7-16.7-16.7
			C576.4,543.4,568.9,550.9,568.9,560.2z M572.2,554.5c0.7-1.7,1.8-3.3,3.1-4.6c1.3-1.3,2.9-2.4,4.6-3.1c1.8-0.8,3.7-1.1,5.7-1.1
			c2,0,3.9,0.4,5.7,1.1c1.7,0.7,3.3,1.8,4.6,3.1c1.3,1.3,2.4,2.9,3.1,4.6c0.8,1.8,1.1,3.7,1.1,5.7c0,2-0.4,3.9-1.1,5.7
			c-0.7,1.7-1.8,3.3-3.1,4.6c-1.3,1.3-2.9,2.4-4.6,3.1c-1.8,0.8-3.7,1.1-5.7,1.1c-2,0-3.9-0.4-5.7-1.1c-1.7-0.7-3.3-1.8-4.6-3.1
			c-1.3-1.3-2.4-2.9-3.1-4.6c-0.8-1.8-1.1-3.7-1.1-5.7C571.1,558.2,571.5,556.3,572.2,554.5z"/>
		<path style="fill:#D0D1D2;" d="M555.9,560.2c0,16.4,13.3,29.7,29.7,29.7c16.4,0,29.7-13.3,29.7-29.7c0-16.4-13.3-29.7-29.7-29.7
			C569.3,530.4,555.9,543.8,555.9,560.2z M561.8,550.1c1.3-3.1,3.2-5.9,5.6-8.2c2.4-2.4,5.1-4.2,8.2-5.6c3.2-1.3,6.6-2,10.1-2
			s6.9,0.7,10.1,2c3.1,1.3,5.9,3.2,8.2,5.6c2.4,2.4,4.2,5.1,5.6,8.2c1.3,3.2,2,6.6,2,10.1c0,3.5-0.7,6.9-2,10.1
			c-1.3,3.1-3.2,5.9-5.6,8.2c-2.4,2.4-5.1,4.2-8.2,5.6c-3.2,1.4-6.6,2-10.1,2c-3.5,0-6.9-0.7-10.1-2c-3.1-1.3-5.9-3.2-8.2-5.6
			c-2.4-2.4-4.2-5.1-5.6-8.2c-1.3-3.2-2-6.6-2-10.1C559.8,556.7,560.4,553.3,561.8,550.1z"/>
	</g>
	<path style="fill:#228DB6;" d="M246.5,498.9c-32.2,0-58.6,25-60.9,56.6c-0.1-1.5-0.2-3-0.2-4.5c0-33.7,27.4-61.1,61.1-61.1
		c33.7,0,61.1,27.4,61.1,61.1c0,1.5-0.1,3-0.2,4.5C305.1,523.9,278.7,498.9,246.5,498.9z"/>
	<path style="fill:#228DB6;" d="M585.7,498.9c-32.2,0-58.6,25-60.9,56.6c-0.1-1.5-0.2-3-0.2-4.5c0-33.7,27.4-61.1,61.1-61.1
		c33.7,0,61.1,27.4,61.1,61.1c0,1.5-0.1,3-0.2,4.5C644.3,523.9,617.9,498.9,585.7,498.9z"/>
	<g>
		<path style="fill:#323D48;" d="M533.3,552.1c-0.4,2.6-0.6,5.3-0.6,8c0,2.4,0.2,4.7,0.5,7H315.6H299c0.3-2.3,0.5-4.6,0.5-7
			c0-2.7-0.2-5.4-0.6-8H533.3z"/>
		<path style="fill:#323D48;" d="M666.5,552.1c-2.1,4.1-4.8,8.1-8,10.8l-3.1,1.5l-13.3,2.8h-4c0.3-2.3,0.5-4.6,0.5-7
			c0-2.7-0.2-5.4-0.6-8H666.5z"/>
		<path style="fill:#323D48;" d="M194.1,552.1c-0.4,2.6-0.6,5.3-0.6,8c0,2,0.1,4,0.3,6l-22.2-4.1l-4-9.9H194.1z"/>
	</g>
	<path style="fill:#154993;" d="M419.6,399.4c0,0,119.9-1.1,186.2,11.2c1.9,0.3,3.6,1.2,5,2.5l35.3,32.5l-354.5,13.6l86.3-53.2
		C377.8,406,392.5,399.4,419.6,399.4z"/>
	<path style="fill:#A41E23;" d="M667.3,467.3l0.9,17.5l1.1,0.8c-8.7-0.1-19.1-0.7-19.1-0.7c-14.4-1.1-23.6-14.2-23.6-14.2
		c-1.8-2-0.8-3.4-0.8-3.4H667.3z"/>
	<path style="fill:#323D48;" d="M260.3,477.7l61.9-3.5c1.2-0.1,1.8,1.5,0.8,2.2c-4.4,3.3-8.3,4.4-8.3,4.4l-35.7,2.4
		c-8.2,0.4-15.2-2-19-3.7C259.1,479.1,259.4,477.8,260.3,477.7z"/>
	<path style="fill:#322A36;" d="M467.7,445l7.7-36.1c0,0-61.5-0.9-81.1,0c0,0-28.2,8.5-75.1,43.5L467.7,445z"/>
	<g>
		<defs>
			<path id="SVGID_1_" d="M467.7,445l7.7-36.1c0,0-61.5-0.9-81.1,0c0,0-28.2,8.5-75.1,43.5L467.7,445z"/>
		</defs>
		<clipPath id="SVGID_2_">
			<use xlink:href="#SVGID_1_"  style="overflow:visible;"/>
		</clipPath>
		<g style="clip-path:url(#SVGID_2_);">
			<polygon style="opacity:0.25;fill:#FFFFFF;" points="382.1,373.7 435,487.1 387.6,487.1 334.7,373.7 			"/>
			<polygon style="opacity:0.25;fill:#FFFFFF;" points="455.6,373.7 508.5,487.1 491.6,487.1 438.7,373.7 			"/>
			<polygon style="opacity:0.25;fill:#FFFFFF;" points="311.3,373.7 364.2,487.1 336.3,487.1 283.4,373.7 			"/>
			<polygon style="opacity:0.25;fill:#FFFFFF;" points="420.7,373.7 473.6,487.1 462.7,487.1 409.8,373.7 			"/>
			<polygon style="opacity:0.25;fill:#FFFFFF;" points="405.8,373.7 458.7,487.1 451.7,487.1 398.8,373.7 			"/>
		</g>
	</g>
	<path style="fill:#322A36;" d="M481.7,409.1l-2.8,35.7l134.9-3.5l-26.5-24.7C587.2,416.7,518.5,409.7,481.7,409.1z"/>
	<g>
		<defs>
			<path id="SVGID_3_" d="M481.7,409.2l-2.8,35.7l134.9-3.5l-26.5-24.7C587.2,416.7,518.5,409.7,481.7,409.2z"/>
		</defs>
		<clipPath id="SVGID_4_">
			<use xlink:href="#SVGID_3_"  style="overflow:visible;"/>
		</clipPath>
		<g style="clip-path:url(#SVGID_4_);">
			<polygon style="opacity:0.25;fill:#FFFFFF;" points="523.5,388.2 576.4,501.6 529,501.6 476.1,388.2 			"/>
			<polygon style="opacity:0.25;fill:#FFFFFF;" points="597.1,388.2 649.9,501.6 633.1,501.6 580.2,388.2 			"/>
			<polygon style="opacity:0.25;fill:#FFFFFF;" points="452.8,388.2 505.7,501.6 477.8,501.6 424.9,388.2 			"/>
			<polygon style="opacity:0.25;fill:#FFFFFF;" points="562.2,388.2 615.1,501.6 604.2,501.6 551.3,388.2 			"/>
			<polygon style="opacity:0.25;fill:#FFFFFF;" points="547.3,388.2 600.1,501.6 593.1,501.6 540.2,388.2 			"/>
		</g>
	</g>
	<g>
		<path style="fill:#131721;" d="M313.9,454.3l5.4-0.3l148.5-7.4l1.3-0.1l0.3-1.2l7.7-36.1l0.4-2l-2,0c-0.3,0-27.6-0.4-51.4-0.4v1.6
			v-1.6c-14,0-24,0.1-29.8,0.4l-0.2,0l-0.2,0.1c-0.3,0.1-7.3,2.2-20.2,8.7c-11.8,6-31.1,16.9-55.4,35L313.9,454.3z M319.2,452.4
			c46.9-35,75.1-43.5,75.1-43.5c6.5-0.3,17.7-0.4,29.7-0.4c24,0,51.4,0.4,51.4,0.4l-7.7,36.1L319.2,452.4z"/>
		<path style="fill:#131721;" d="M477.2,444.8l-0.1,1.8l1.8,0l134.9-3.5l4-0.1l-3-2.8l-26.5-24.7l-0.4-0.4l-0.5-0.1
			c-0.7-0.1-69.1-7-105.7-7.6l-1.5,0L480,409L477.2,444.8z M478.8,444.9l2.8-35.7c36.9,0.6,105.5,7.6,105.5,7.6l26.5,24.7
			L478.8,444.9z"/>
	</g>
	<path style="fill:#154993;" d="M579.5,406.7c0,0,21.1-2.3,43.8,2.4l1.7,2.4c0,0-3.6,1.5-20.7,11.7L579.5,406.7z"/>
	<g>
		<path style="fill:#EAE6C6;" d="M165.8,500.8l9.3-16.1c0,0,0.2-0.3,0.7-0.9l65.7-6.3c0,0-3.2,4.5-12.4,9l-14.8,3.3
			c0,0-7.2,2.6-10,5.4l-39.1,6.3L165.8,500.8z"/>
		<path style="fill:#D8D6AF;" d="M175.9,490.8c-1.1,3.1-0.8,6,0.7,6.5c1.4,0.5,3.4-1.6,4.5-4.7c1.1-3.1,0.8-6-0.7-6.5
			C178.9,485.6,176.9,487.7,175.9,490.8z"/>
		<path style="fill:#D8D6AF;" d="M183.6,489.7c-1,2.9-0.7,5.6,0.6,6c1.3,0.4,3.2-1.5,4.2-4.4c1-2.9,0.7-5.6-0.6-6
			C186.4,484.8,184.5,486.8,183.6,489.7z"/>
		<path style="fill:#D8D6AF;" d="M190.9,488.6c-0.9,2.7-0.6,5.1,0.6,5.6c1.2,0.4,2.9-1.4,3.8-4.1c0.9-2.7,0.6-5.1-0.6-5.6
			C193.5,484.2,191.8,486,190.9,488.6z"/>
		<path style="fill:#D8D6AF;" d="M198,487.9c-0.9,2.5-0.6,4.9,0.5,5.2c1.1,0.4,2.8-1.3,3.6-3.8c0.9-2.5,0.6-4.9-0.5-5.2
			C200.5,483.6,198.8,485.3,198,487.9z"/>
		<path style="fill:#F69220;" d="M211.3,480.4l30.2-2.9c0,0-3.2,4.5-12.4,9l-14.8,3.3c0,0-7.2,2.6-10,5.4l-0.7,0.1L211.3,480.4z"/>
		<path style="fill:#414141;" d="M165.2,501.6l39.1-6.3c2.9-2.8,10-5.4,10-5.4l14.8-3.3c9.2-4.5,12.4-9,12.4-9l-65.7,6.3
			c-0.4,0.5-0.7,0.9-0.7,0.9l-9.3,16.1L165.2,501.6z M167.4,500.1l8.6-14.8c0.1-0.1,0.2-0.2,0.3-0.4l62.3-6
			c-1.8,1.7-4.9,4.1-9.9,6.6l-14.7,3.3l-0.1,0l-0.1,0c-0.3,0.1-7,2.6-10.2,5.4L167.4,500.1z"/>
		<path style="opacity:0.3;fill:#FFFFFF;" d="M175.1,484.7c0,0,0.2-0.3,0.7-0.9l65.7-6.3c0,0-0.9,1.3-3.1,3.2l-68.2,12.5
			L175.1,484.7z"/>
	</g>
	<g>
		<path style="opacity:0.21;fill:#414141;" d="M455.6,473.8l-0.2-7.2c0-1.1-0.9-2-1.9-2l-25,0.7c-1,0-1.8,1-1.8,2.1l0.2,7.2
			c0,1.1,0.9,2,1.9,2l25-0.7C454.8,475.8,455.7,474.9,455.6,473.8z"/>
		<path style="fill:#182127;" d="M453.7,471.3l-25,0.7c-1,0-1.9-0.8-1.9-2l-0.1-2.7c0-1.1,0.8-2,1.8-2.1l25-0.7c1,0,1.9,0.8,1.9,2
			l0.1,2.7C455.5,470.4,454.7,471.3,453.7,471.3z"/>
	</g>
	<path style="fill:#EAE6C6;" d="M667.5,471.7l0.7,13l1.1,0.8c-2,0-4.2-0.1-6.3-0.1c-4.9-4.3-6.9-9.6-7.8-13.7H667.5z"/>
	<path style="fill:#414141;" d="M626.6,470.7c0,0,9.2,13.1,23.6,14.2c0,0,10.4,0.6,19.1,0.7l-1.1-0.8l-0.9-17.5h-41.5
		C625.8,467.3,624.8,468.7,626.6,470.7z M626.6,468.4h39.6l0.8,16.1c-7.9-0.2-16.5-0.6-16.9-0.6c-13.7-1.1-22.6-13.6-22.7-13.8
		l0-0.1l0-0.1C626.8,469.3,626.6,468.7,626.6,468.4z"/>
	<polygon style="fill:#228DB6;" points="533.3,523.4 312.2,531.3 312.2,537 527.7,537 	"/>
	<path style="opacity:0.4;fill:#8F9495;" d="M312.8,458.3l2.2,0.2l-2.8,31.5v56.4h127.1c1.3-1.2,7-6.7,13.1-19.2
		c6.5-13.1,14.9-36.7,18.1-74.8l2.2,0.2c-3.2,38.6-11.8,62.5-18.4,75.8c-7.2,14.5-13.6,19.8-13.9,20l-0.3,0.2H310v-58.6L312.8,458.3
		z"/>
	<path style="fill:#323D48;" d="M185.7,515.9c-1.4,6-3.9,17.6-4.5,27.1c-0.1,0.8-0.7,1.3-1.5,1.3h-7.1c-0.9,0-1.7-0.3-2.3-1
		c-2.4-2.5-7.9-10.1-6.1-27.1c0,0,0.6-2.9,2.7-3.5l15.7-0.7C184.6,512,186.2,513.9,185.7,515.9z"/>
	<path style="fill:#323D48;" d="M319.2,452.4c10.6-7.9,20.3-14.5,28.8-19.9l-1.6,18.5L319.2,452.4z"/>
	<g style="opacity:0.2;">
		<path style="fill:#154993;" d="M193.5,560.2c0,2,0.1,4,0.3,6l-22.2-4.1l-12-29.6c-1.3-3.2-1.9-6.5-1.8-9.9
			c0.2-4.3,0.7-10.1,2.5-14.1H235C211.3,513.7,193.5,534.8,193.5,560.2z"/>
		<path style="fill:#154993;" d="M257.9,508.4h316.3c-23.8,5.2-41.5,26.4-41.5,51.7c0,2.4,0.2,4.7,0.5,7H315.6H299
			c0.3-2.3,0.5-4.6,0.5-7C299.4,534.8,281.7,513.7,257.9,508.4z"/>
		<path style="fill:#154993;" d="M673,535.2c0,0-5.1,19.8-14.4,27.7l-3.1,1.5l-13.3,2.8h-4c0.3-2.3,0.5-4.6,0.5-7
			c0-25.3-17.8-46.5-41.5-51.7H673v2.8l-1.4,8.6l3.2,2.7L673,535.2z"/>
	</g>
	<g style="opacity:0.4;">
		<path style="fill:#8F9495;" d="M319.2,452.4l148.5-7.4l7.7-36.1c0,0-27.4-0.4-51.4-0.4c-12,0-23.2,0.1-29.7,0.4
			C394.3,408.9,366.2,417.4,319.2,452.4z M466.7,443.7l-143.2,7.1c22.5-16.5,40.2-26.5,51.4-32.1c11.7-5.9,18.6-8.2,19.7-8.6
			c5.8-0.2,15.7-0.4,29.5-0.4l0,0c20.5,0,43.6,0.3,49.8,0.4L466.7,443.7z"/>
		<path style="fill:#8F9495;" d="M481.7,409.1l-2.8,35.7l134.9-3.5l-26.5-24.7C587.2,416.7,518.5,409.7,481.7,409.1z M480.2,443.5
			l2.6-33.1c35.1,0.7,97.9,6.9,103.8,7.5l23.9,22.2L480.2,443.5z"/>
	</g>
	<g>
		<path style="fill:#00678D;" d="M354.9,443.3v-12.7c0,0-0.2-2.1-3.9-2.1c0,0-8.2,0.9-10.9,4.7c0,0-3.8,6.6-4.8,14.3
			c0,0,1,3.2,3.3,3.1c0,0,8.3-0.5,12.1-2.4C350.6,448.3,354.9,445.8,354.9,443.3z"/>
		<path style="fill:#047E9C;" d="M351,428.5c0.4,0,0.7,0,1,0.1c-2.3,2.8-8.9,11.5-10.8,21.9c-1.6,0.2-2.7,0.2-2.7,0.2
			c-2.3,0.2-3.3-3.1-3.3-3.1c1-7.7,4.8-14.3,4.8-14.3C342.8,429.5,351,428.5,351,428.5z"/>
	</g>
</g>
<path style="fill:#FFFFFF;" d="M512.2,132.9c32.6,0,117,0,144.7,0c27.8,0,15.1-29.2,0-27.3c0,0,0.5-29.2-30.7-22.4
	c0,0-3.4-30.7-36.1-29.7c-32.6,1-36.1,34.6-33.1,39.7c0,0-28.8-10-34.6,18.3c0,0-15.1-0.5-17.5,6.3
	C502.4,124.6,505.4,132.9,512.2,132.9z"/>
</svg>
