<?xml version="1.0" encoding="utf-8"?>
<!-- Generator: Adobe Illustrator 22.0.1, SVG Export Plug-In . SVG Version: 6.00 Build 0)  -->
<!DOCTYPE svg PUBLIC "-//W3C//DTD SVG 1.1//EN" "http://www.w3.org/Graphics/SVG/1.1/DTD/svg11.dtd">
<svg version="1.1" id="Layer_1" xmlns="http://www.w3.org/2000/svg" xmlns:xlink="http://www.w3.org/1999/xlink" x="0px" y="0px"
	 viewBox="0 0 200 200" style="enable-background:new 0 0 200 200;" xml:space="preserve">
<g>
	<path style="fill:#FFFFFF;" d="M144.8,0H55.2C24.8,0,0,24.8,0,55.2v89.6C0,175.2,24.8,200,55.2,200h89.6
		c30.4,0,55.2-24.8,55.2-55.2V55.2C200,24.8,175.2,0,144.8,0L144.8,0z M182.3,144.8c0,20.7-16.8,37.4-37.4,37.4H55.2
		c-20.7,0-37.4-16.8-37.4-37.4V55.2c0-20.7,16.8-37.4,37.4-37.4h89.6c20.7,0,37.4,16.8,37.4,37.4V144.8z M182.3,144.8"/>
	<path style="fill:#FFFFFF;" d="M100,48.5c-28.4,0-51.5,23.1-51.5,51.5c0,28.4,23.1,51.5,51.5,51.5c28.4,0,51.5-23.1,51.5-51.5
		C151.5,71.6,128.4,48.5,100,48.5L100,48.5z M100,133.8c-18.6,0-33.8-15.2-33.8-33.8c0-18.6,15.2-33.8,33.8-33.8
		s33.8,15.2,33.8,33.8C133.8,118.6,118.6,133.8,100,133.8L100,133.8z M100,133.8"/>
	<path style="fill:#FFFFFF;" d="M153.7,33.4c-3.4,0-6.8,1.4-9.2,3.8c-2.4,2.4-3.8,5.8-3.8,9.2c0,3.4,1.4,6.8,3.8,9.2
		c2.4,2.4,5.8,3.8,9.2,3.8c3.4,0,6.8-1.4,9.2-3.8c2.4-2.4,3.8-5.8,3.8-9.2c0-3.4-1.4-6.8-3.8-9.2C160.5,34.8,157.1,33.4,153.7,33.4
		L153.7,33.4z M153.7,33.4"/>
</g>
</svg>
