<?xml version="1.0" encoding="utf-8"?>
<!-- Generator: Adobe Illustrator 22.0.1, SVG Export Plug-In . SVG Version: 6.00 Build 0)  -->
<!DOCTYPE svg PUBLIC "-//W3C//DTD SVG 1.1//EN" "http://www.w3.org/Graphics/SVG/1.1/DTD/svg11.dtd">
<svg version="1.1" id="Layer_1" xmlns="http://www.w3.org/2000/svg" xmlns:xlink="http://www.w3.org/1999/xlink" x="0px" y="0px"
	 viewBox="0 0 245.4 367.3" style="enable-background:new 0 0 245.4 367.3;" xml:space="preserve">
<g>
	<g>
		<g>
			<path style="fill-rule:evenodd;clip-rule:evenodd;fill:#DCDDE7;" d="M22.4,0.5h166.1l54.9,64.2v282.5c0,11.1-9,20.1-20.1,20.1
				H20.2C9,367.3,0,358.3,0,347.1V22.9C0,10.6,10,0.5,22.4,0.5z"/>
			<rect x="66.1" y="110.6" style="fill-rule:evenodd;clip-rule:evenodd;fill:#7BD7E1;" width="152" height="9.5"/>
			<rect x="66.1" y="161.7" style="fill-rule:evenodd;clip-rule:evenodd;fill:#7BD7E1;" width="152" height="9.5"/>
			<rect x="66.1" y="214.3" style="fill-rule:evenodd;clip-rule:evenodd;fill:#7BD7E1;" width="152" height="9.5"/>
			<polygon style="fill-rule:evenodd;clip-rule:evenodd;fill:#7BD7E1;" points="245.4,67.1 188,67.1 188,0 			"/>
			<g>
				<g>
					<polygon style="fill-rule:evenodd;clip-rule:evenodd;fill:#0F6899;" points="121.4,317.1 139.6,306 157.6,335.6 142.9,331.9 
						139.4,346.7 					"/>
					<polygon style="fill-rule:evenodd;clip-rule:evenodd;fill:#0F6899;" points="122,317.1 103.8,306 85.9,335.6 100.5,331.9 
						104,346.7 					"/>
				</g>
				<path style="fill-rule:evenodd;clip-rule:evenodd;fill:#7BD7E1;" d="M118.2,326.2c20.4,2.2,37.6-15,35.4-35.4
					c-1.6-14.9-13.5-26.8-28.4-28.4c-20.4-2.2-37.6,15-35.4,35.4C91.4,312.7,103.3,324.6,118.2,326.2z"/>
				<path style="fill-rule:evenodd;clip-rule:evenodd;fill:#0F6899;" d="M118.5,319.1c16.3,2.1,30.2-11.8,28.1-28.1
					c-1.4-11.2-10.4-20.1-21.5-21.6c-16.3-2.1-30.2,11.8-28.1,28.1C98.3,308.7,107.3,317.7,118.5,319.1z"/>
			</g>
			<polygon style="fill-rule:evenodd;clip-rule:evenodd;fill:#0F6899;" points="31.4,99.8 37.4,93.8 51.8,108.2 66.1,93.8 
				72.1,99.8 51.8,120.1 			"/>
			<polygon style="fill-rule:evenodd;clip-rule:evenodd;fill:#0F6899;" points="31.4,150.9 37.4,145 51.8,159.4 66.1,145 
				72.1,150.9 51.8,171.2 			"/>
			<polygon style="fill-rule:evenodd;clip-rule:evenodd;fill:#0F6899;" points="31.4,203.5 37.4,197.6 51.8,212 66.1,197.6 
				72.1,203.5 51.8,223.8 			"/>
		</g>
	</g>
</g>
</svg>
