<?xml version="1.0" encoding="utf-8"?>
<!-- Generator: Adobe Illustrator 22.0.1, SVG Export Plug-In . SVG Version: 6.00 Build 0)  -->
<!DOCTYPE svg PUBLIC "-//W3C//DTD SVG 1.1//EN" "http://www.w3.org/Graphics/SVG/1.1/DTD/svg11.dtd">
<svg version="1.1" id="Layer_1" xmlns="http://www.w3.org/2000/svg" xmlns:xlink="http://www.w3.org/1999/xlink" x="0px" y="0px"
	 viewBox="0 0 498.7 500" style="enable-background:new 0 0 498.7 500;" xml:space="preserve">
<g>
	<linearGradient id="SVGID_1_" gradientUnits="userSpaceOnUse" x1="213.0044" y1="222.525" x2="285.6544" y2="222.525">
		<stop  offset="0" style="stop-color:#1B4A91"/>
		<stop  offset="0.186" style="stop-color:#326EA5"/>
		<stop  offset="0.4425" style="stop-color:#4E9ABE"/>
		<stop  offset="0.6729" style="stop-color:#62BACF"/>
		<stop  offset="0.8666" style="stop-color:#6FCDDA"/>
		<stop  offset="1" style="stop-color:#73D4DE"/>
	</linearGradient>
	<path style="fill:url(#SVGID_1_);" d="M285.7,222.5c0,20-16.3,36.3-36.3,36.3c-20,0-36.3-16.3-36.3-36.3c0-20,16.3-36.3,36.3-36.3
		C269.4,186.2,285.7,202.5,285.7,222.5z"/>
	<linearGradient id="SVGID_2_" gradientUnits="userSpaceOnUse" x1="4.425049e-03" y1="250" x2="498.6644" y2="250">
		<stop  offset="0" style="stop-color:#1B4A91"/>
		<stop  offset="0.186" style="stop-color:#326EA5"/>
		<stop  offset="0.4425" style="stop-color:#4E9ABE"/>
		<stop  offset="0.6729" style="stop-color:#62BACF"/>
		<stop  offset="0.8666" style="stop-color:#6FCDDA"/>
		<stop  offset="1" style="stop-color:#73D4DE"/>
	</linearGradient>
	<path style="fill:url(#SVGID_2_);" d="M459.1,116.3c0.4-0.5,0.8-1,1.2-1.6c-5.8-8.9-12-17.4-18.8-25.5
		c-7.1-8.4-14.8-16.4-22.9-23.8c-6.9-6.3-14.2-12.2-21.7-17.7C355.6,17.7,304.9,0,250,0C180.7,0,117.9,28.2,72.6,73.8
		c-0.1,0.1-0.2,0.2-0.3,0.3h209.4c6.9,0,12.6,5.7,12.6,12.6c0,3.5-1.4,6.6-3.7,8.9c-2.3,2.3-5.4,3.7-8.9,3.7h-43
		c-6.6,0-12,4.8-12,10.6s-5.4,10.6-12,10.6h-116c-6.9,0-12.6,5.7-12.6,12.6v1c0,6.9,5.7,12.6,12.6,12.6h26.5
		c6.9,0,12.6,5.7,12.6,12.6v16.7c0,6.9-5.7,12.6-12.6,12.6H7.6C2.6,208.3,0,228.8,0,250c0,138.1,111.9,250,250,250
		c24.8,0,48.8-3.6,71.4-10.3v-5.9c0-6.9,5.7-12.6,12.6-12.6h26.5c6.9,0,12.6-5.7,12.6-12.6v-1c0-6.9-5.7-12.6-12.6-12.6h-116
		c-6.6,0-12-4.8-12-10.6c0-5.8-5.4-10.6-12-10.6h-43c-3.5,0-6.6-1.4-8.9-3.7c-2.3-2.3-3.7-5.4-3.7-8.9c0-6.9,5.7-12.6,12.6-12.6
		h273.2c0.7-0.9,1.3-1.8,2-2.7c0.5-0.7,1-1.5,1.5-2.2c1.7-2.5,3.4-5,5-7.5c0.5-0.8,1.1-1.7,1.6-2.5c1.6-2.6,3.1-5.1,4.7-7.8
		c0.4-0.7,0.8-1.5,1.3-2.2c4-7.2,7.7-14.5,11-22.1c0.3-0.8,0.7-1.6,1-2.4c0.5-1.1,0.9-2.2,1.4-3.3c0.4-0.9,0.8-1.9,1.1-2.8
		c0.4-0.9,0.7-1.9,1.1-2.8c0.4-1,0.7-1.9,1.1-2.9c0.8-2.1,1.5-4.2,2.2-6.3c0.3-0.8,0.5-1.6,0.8-2.3c0.3-0.9,0.6-1.8,0.9-2.8
		c0.3-1,0.6-2.1,0.9-3.1c0.3-1,0.6-2,0.9-3c0.3-1,0.5-2,0.8-3c0.8-3.1,1.6-6.2,2.3-9.3c0.2-0.9,0.4-1.8,0.6-2.7
		c0.2-0.9,0.4-1.8,0.6-2.7c0.4-2,0.8-3.9,1.1-5.9c0.1-0.7,0.2-1.3,0.4-2c0.1-0.6,0.2-1.3,0.3-1.9c0.1-0.7,0.2-1.4,0.3-2.1
		c0.1-0.4,0.1-0.8,0.2-1.3c0.3-1.9,0.5-3.8,0.8-5.6c0.1-0.7,0.2-1.4,0.3-2.1c0.1-0.6,0.1-1.2,0.2-1.8c0.2-2.1,0.4-4.2,0.6-6.3
		c0.1-0.8,0.1-1.5,0.2-2.3c0-0.1,0-0.3,0-0.4c0.1-1,0.1-2,0.2-3c0.1-1.8,0.2-3.5,0.3-5.3c0-0.2,0-0.4,0-0.5c0-0.8,0.1-1.7,0.1-2.5
		c0-0.6,0-1.3,0-1.9c0-0.8,0-1.7,0-2.5v-0.1c0-1.1,0-2.1,0-3.2C498.7,201.6,484.1,155.2,459.1,116.3z M254.2,347.5
		c-2.6,2.9-7.1,2.9-9.7,0c-2.8-3.1-67.4-75.6-67.4-125c0-39.8,32.4-72.2,72.2-72.2s72.2,32.4,72.2,72.2
		C321.5,271.9,256.9,344.5,254.2,347.5z"/>
</g>
</svg>
