<?xml version="1.0" encoding="utf-8"?>
<!-- Generator: Adobe Illustrator 22.0.1, SVG Export Plug-In . SVG Version: 6.00 Build 0)  -->
<!DOCTYPE svg PUBLIC "-//W3C//DTD SVG 1.1//EN" "http://www.w3.org/Graphics/SVG/1.1/DTD/svg11.dtd">
<svg version="1.1" id="Layer_1" xmlns="http://www.w3.org/2000/svg" xmlns:xlink="http://www.w3.org/1999/xlink" x="0px" y="0px"
	 viewBox="0 0 500 500" style="enable-background:new 0 0 500 500;" xml:space="preserve">
<path style="fill:#FFFFFF;" d="M411.1,303c-15,0-15,13-15,13H426C426,316.1,426,303,411.1,303z M411.1,303c-15,0-15,13-15,13H426
	C426,316.1,426,303,411.1,303z M266.7,254.1c-1.8,0.2-2.7,1.1-2.7,2.9s0.8,2.7,2.4,2.7c1.2,0,2.6-0.2,4.1-0.6l0.7-0.2v-5.2
	L266.7,254.1z M411.1,303c-15,0-15,13-15,13H426C426,316.1,426,303,411.1,303z M411.1,303c-15,0-15,13-15,13H426
	C426,316.1,426,303,411.1,303z M266.7,254.1c-1.8,0.2-2.7,1.1-2.7,2.9s0.8,2.7,2.4,2.7c1.2,0,2.6-0.2,4.1-0.6l0.7-0.2v-5.2
	L266.7,254.1z M266.7,254.1c-1.8,0.2-2.7,1.1-2.7,2.9s0.8,2.7,2.4,2.7c1.2,0,2.6-0.2,4.1-0.6l0.7-0.2v-5.2L266.7,254.1z
	 M291.7,254.1c-1.8,0.2-2.7,1.1-2.7,2.9s0.8,2.7,2.4,2.7c1.2,0,2.6-0.2,4.1-0.6l0.7-0.2v-5.2L291.7,254.1z M411.1,303
	c-15,0-15,13-15,13H426C426,316.1,426,303,411.1,303z M411.1,303c-15,0-15,13-15,13H426C426,316.1,426,303,411.1,303z M291.7,254.1
	c-1.8,0.2-2.7,1.1-2.7,2.9s0.8,2.7,2.4,2.7c1.2,0,2.6-0.2,4.1-0.6l0.7-0.2v-5.2L291.7,254.1z M266.7,254.1c-1.8,0.2-2.7,1.1-2.7,2.9
	s0.8,2.7,2.4,2.7c1.2,0,2.6-0.2,4.1-0.6l0.7-0.2v-5.2L266.7,254.1z M266.7,254.1c-1.8,0.2-2.7,1.1-2.7,2.9s0.8,2.7,2.4,2.7
	c1.2,0,2.6-0.2,4.1-0.6l0.7-0.2v-5.2L266.7,254.1z M291.7,254.1c-1.8,0.2-2.7,1.1-2.7,2.9s0.8,2.7,2.4,2.7c1.2,0,2.6-0.2,4.1-0.6
	l0.7-0.2v-5.2L291.7,254.1z M411.1,303c-15,0-15,13-15,13H426C426,316.1,426,303,411.1,303z M411.1,303c-15,0-15,13-15,13H426
	C426,316.1,426,303,411.1,303z M291.7,254.1c-1.8,0.2-2.7,1.1-2.7,2.9s0.8,2.7,2.4,2.7c1.2,0,2.6-0.2,4.1-0.6l0.7-0.2v-5.2
	L291.7,254.1z M266.7,254.1c-1.8,0.2-2.7,1.1-2.7,2.9s0.8,2.7,2.4,2.7c1.2,0,2.6-0.2,4.1-0.6l0.7-0.2v-5.2L266.7,254.1z
	 M266.7,254.1c-1.8,0.2-2.7,1.1-2.7,2.9s0.8,2.7,2.4,2.7c1.2,0,2.6-0.2,4.1-0.6l0.7-0.2v-5.2L266.7,254.1z M291.7,254.1
	c-1.8,0.2-2.7,1.1-2.7,2.9s0.8,2.7,2.4,2.7c1.2,0,2.6-0.2,4.1-0.6l0.7-0.2v-5.2L291.7,254.1z M397.3,254.1c-1.8,0.2-2.7,1.1-2.7,2.9
	s0.8,2.7,2.4,2.7c1.2,0,2.6-0.2,4.1-0.6l0.7-0.2v-5.2L397.3,254.1z M411.1,303c-15,0-15,13-15,13H426C426,316.1,426,303,411.1,303z
	 M411.1,303c-15,0-15,13-15,13H426C426,316.1,426,303,411.1,303z M291.7,254.1c-1.8,0.2-2.7,1.1-2.7,2.9s0.8,2.7,2.4,2.7
	c1.2,0,2.6-0.2,4.1-0.6l0.7-0.2v-5.2L291.7,254.1z M266.7,254.1c-1.8,0.2-2.7,1.1-2.7,2.9s0.8,2.7,2.4,2.7c1.2,0,2.6-0.2,4.1-0.6
	l0.7-0.2v-5.2L266.7,254.1z M397.3,254.1c-1.8,0.2-2.7,1.1-2.7,2.9s0.8,2.7,2.4,2.7c1.2,0,2.6-0.2,4.1-0.6l0.7-0.2v-5.2L397.3,254.1
	z M492.1,187.3H373.3c-6.9,0-12.6-5.7-12.6-12.6V158c0-6.9,5.7-12.6,12.6-12.6h26.5c6.9,0,12.6-5.7,12.6-12.6v-1
	c0-6.9-5.7-12.6-12.6-12.6h-116c-6.6,0-12-4.8-12-10.6c0-5.8-5.4-10.6-12-10.6h-43c-3.5,0-6.6-1.4-8.9-3.7c-2.3-2.3-3.7-5.4-3.7-8.9
	c0-6.9,5.7-12.6,12.6-12.6h209.4C381.2,27.8,318.8,0,250,0C111.9,0,0,111.9,0,250c0,55,17.8,105.9,47.9,147.2H321
	c6.9,0,12.6,5.7,12.6,12.6c0,3.5-1.4,6.6-3.7,8.9c-2.3,2.3-5.4,3.7-8.9,3.7h-43c-6.6,0-12,4.8-12,10.6c0,5.8-5.4,10.6-12,10.6h-116
	c-6.9,0-12.6,5.7-12.6,12.6v1c0,6.9,5.7,12.6,12.6,12.6h26.5c6.9,0,12.6,5.7,12.6,12.6v6.8c23,7,47.4,10.7,72.7,10.7
	c138.1,0,250-111.9,250-250C500,228.3,497.3,207.3,492.1,187.3z M414.6,230.2h6.6v19.5l2.5-0.4l4.8-9.2h7.3l-6.3,11.6l6.7,12.9h-7.4
	l-4.9-9.5l-2.7,0.4v9.1h-6.6V230.2z M401.1,245.5c-0.4-0.4-1.2-0.6-2.2-0.6c-1.1,0-2.6,0.1-4.4,0.1c-1.9,0.1-3.5,0.2-4.8,0.3
	l-0.2-4.5c3.5-1,6.8-1.4,10-1.4s5.4,0.6,6.8,2c1.4,1.3,2.1,3.4,2.1,6.3v10.2c0.1,0.8,0.2,1.4,0.4,1.7c0.2,0.3,0.6,0.5,1.2,0.6
	l-0.2,4.9c-1.7,0-3-0.1-4-0.4c-1-0.2-2-0.7-2.9-1.4c-2.4,1.1-4.8,1.7-7.2,1.7c-5,0-7.6-2.7-7.6-8c0-2.5,0.7-4.4,2-5.5
	c1.3-1.1,3.5-1.8,6.5-2l5.2-0.4v-1.5C401.8,246.6,401.6,245.9,401.1,245.5z M350,230.3h6.6v6.6H350V230.3z M350,240h6.6v24.4H350
	V240z M309,240h6.5v1.4c1.2-0.7,2.3-1.2,3.1-1.5c0.9-0.3,1.8-0.5,2.8-0.5c1.1,0,2.2,0.2,3.3,0.6c1.1,0.4,1.9,1,2.6,1.7
	c1.5-0.8,3-1.4,4.3-1.7c1.4-0.4,2.7-0.6,4.1-0.6c3,0,5.2,0.9,6.5,2.8s1.9,4.8,1.9,9v13.3h-6.6v-13c0-2.2-0.2-3.8-0.7-4.7
	c-0.5-1-1.4-1.4-2.7-1.4c-0.9,0-2.2,0.2-3.8,0.7l-0.7,0.3c0.1,2.2,0.2,4,0.2,5.6v12.7h-6.5v-12.6c0-1.8-0.1-3.1-0.3-4
	c-0.2-0.9-0.5-1.6-1-2c-0.5-0.4-1.3-0.6-2.3-0.6c-1,0-2.3,0.2-3.6,0.7l-0.6,0.2v18.3H309V240z M234.4,231.2h24.4v6H250v27.3h-6.7
	v-27.3h-8.9V231.2z M112.9,344.6c0,0-49.8-16.5-49.9-83.2c0-0.2,0-0.4,0-0.6c0.3-4.6,5.1-53.5,49.9-69.7V344.6z M227.7,291.6
	c-0.2,0.8-0.4,1.6-0.6,2.4c-1.3,6.2-18.7,49.6-69.1,56.8v-54.3c0,0,32.7,0.3,47.9-35.6c15.2-35.9-25-70-25-70
	S247.5,219.3,227.7,291.6z M264.3,304.2c0,0-18.7,1.2-18.7,12.1c0,11,0,28.7,0,28.7h-11.3v-48.9h11.9v5.9c0,0,0.3-5.9,18.1-5.9
	V304.2z M257.4,257c0-2.5,0.7-4.4,2-5.5c1.4-1.1,3.5-1.8,6.5-2l5.2-0.4v-1.5c0-1-0.2-1.7-0.7-2s-1.2-0.6-2.2-0.6
	c-1.1,0-2.6,0.1-4.4,0.1c-1.9,0.1-3.5,0.2-4.7,0.3l-0.2-4.5c3.5-1,6.8-1.4,10-1.4c3.1,0,5.4,0.6,6.8,2c1.4,1.3,2.1,3.4,2.1,6.3v10.2
	c0.1,0.8,0.2,1.4,0.4,1.7c0.2,0.3,0.6,0.5,1.2,0.6l-0.2,4.9c-1.7,0-3-0.1-4-0.4c-1-0.2-2-0.7-3-1.4c-2.4,1.1-4.8,1.7-7.2,1.7
	C259.9,265,257.4,262.3,257.4,257z M281.2,345.1h-12.1v-48.9h12.1V345.1z M281.2,288h-12.1v-8.6h12.1V288z M282.4,257
	c0-2.5,0.7-4.4,2-5.5c1.4-1.1,3.5-1.8,6.5-2l5.2-0.4v-1.5c0-1-0.2-1.7-0.7-2s-1.2-0.6-2.2-0.6c-1.1,0-2.6,0.1-4.5,0.1
	c-1.9,0.1-3.5,0.2-4.7,0.3l-0.2-4.5c3.5-1,6.8-1.4,10-1.4s5.4,0.6,6.8,2c1.4,1.3,2.1,3.4,2.1,6.3v10.2c0.1,0.8,0.2,1.4,0.4,1.7
	c0.2,0.3,0.6,0.5,1.2,0.6l-0.2,4.9c-1.7,0-3-0.1-4-0.4c-1-0.2-2-0.7-3-1.4c-2.4,1.1-4.8,1.7-7.2,1.7
	C284.9,265,282.4,262.3,282.4,257z M372.4,345.1h-11v-34.7c0-0.1-3.4-6.3-9.8-6.3c-3.2,0-7.2,1.6-11.8,6.2c0,0,0,0.1,0,0.1v34.6
	h-12.1v-34.6c0,0,0,0,0,0c-0.2-0.3-7-14.3-21.3,0c0,0-0.6,0-0.6,0v34.6h-11v-48.9h11v4.4c0,0,18.5-13.2,31.7,0
	c0,0,11.9-10.8,30.8-2.2c2.5,1.2,4.1,3.6,4.1,6.4V345.1z M383.8,264.4h-6.5v-13c0-2.3-0.3-3.8-0.8-4.7c-0.5-0.9-1.5-1.4-3-1.4
	c-1.1,0-2.3,0.2-3.7,0.7l-0.6,0.2v18.3h-6.5V240h6.5v1.4c1.2-0.7,2.3-1.2,3.3-1.5c1-0.3,2-0.4,3.1-0.4c3,0,5.1,1,6.4,2.9
	c1.3,1.9,1.9,4.9,1.9,8.9V264.4z M412.7,338.6c0,0,7.9,1.1,12.4-4.5H437c0,0-2.7,12.4-24,12.4c-10.8,0-17.6-3.2-21.8-6.3
	c-3.5-2.7-5.8-6.6-6.6-11c-1.7-9.4-2.6-29.4,18-33c26.8-4.7,34.4,9.8,34.4,27.3h-41.8C395.2,323.5,394.1,338.6,412.7,338.6z
	 M411.1,303c-15,0-15,13-15,13H426C426,316.1,426,303,411.1,303z M394.6,257c0,1.8,0.8,2.7,2.4,2.7c1.2,0,2.6-0.2,4.1-0.6l0.7-0.2
	v-5.2l-4.4,0.4C395.5,254.2,394.6,255.2,394.6,257z M289,257c0,1.8,0.8,2.7,2.4,2.7c1.2,0,2.6-0.2,4.1-0.6l0.7-0.2v-5.2l-4.5,0.4
	C289.9,254.2,289,255.2,289,257z M264,257c0,1.8,0.8,2.7,2.4,2.7c1.2,0,2.6-0.2,4.1-0.6l0.7-0.2v-5.2l-4.5,0.4
	C264.9,254.2,264,255.2,264,257z M266.7,254.1c-1.8,0.2-2.7,1.1-2.7,2.9s0.8,2.7,2.4,2.7c1.2,0,2.6-0.2,4.1-0.6l0.7-0.2v-5.2
	L266.7,254.1z M291.7,254.1c-1.8,0.2-2.7,1.1-2.7,2.9s0.8,2.7,2.4,2.7c1.2,0,2.6-0.2,4.1-0.6l0.7-0.2v-5.2L291.7,254.1z M411.1,303
	c-15,0-15,13-15,13H426C426,316.1,426,303,411.1,303z M411.1,303c-15,0-15,13-15,13H426C426,316.1,426,303,411.1,303z M291.7,254.1
	c-1.8,0.2-2.7,1.1-2.7,2.9s0.8,2.7,2.4,2.7c1.2,0,2.6-0.2,4.1-0.6l0.7-0.2v-5.2L291.7,254.1z M266.7,254.1c-1.8,0.2-2.7,1.1-2.7,2.9
	s0.8,2.7,2.4,2.7c1.2,0,2.6-0.2,4.1-0.6l0.7-0.2v-5.2L266.7,254.1z M266.7,254.1c-1.8,0.2-2.7,1.1-2.7,2.9s0.8,2.7,2.4,2.7
	c1.2,0,2.6-0.2,4.1-0.6l0.7-0.2v-5.2L266.7,254.1z M291.7,254.1c-1.8,0.2-2.7,1.1-2.7,2.9s0.8,2.7,2.4,2.7c1.2,0,2.6-0.2,4.1-0.6
	l0.7-0.2v-5.2L291.7,254.1z M411.1,303c-15,0-15,13-15,13H426C426,316.1,426,303,411.1,303z M411.1,303c-15,0-15,13-15,13H426
	C426,316.1,426,303,411.1,303z M291.7,254.1c-1.8,0.2-2.7,1.1-2.7,2.9s0.8,2.7,2.4,2.7c1.2,0,2.6-0.2,4.1-0.6l0.7-0.2v-5.2
	L291.7,254.1z M266.7,254.1c-1.8,0.2-2.7,1.1-2.7,2.9s0.8,2.7,2.4,2.7c1.2,0,2.6-0.2,4.1-0.6l0.7-0.2v-5.2L266.7,254.1z
	 M266.7,254.1c-1.8,0.2-2.7,1.1-2.7,2.9s0.8,2.7,2.4,2.7c1.2,0,2.6-0.2,4.1-0.6l0.7-0.2v-5.2L266.7,254.1z M291.7,254.1
	c-1.8,0.2-2.7,1.1-2.7,2.9s0.8,2.7,2.4,2.7c1.2,0,2.6-0.2,4.1-0.6l0.7-0.2v-5.2L291.7,254.1z M411.1,303c-15,0-15,13-15,13H426
	C426,316.1,426,303,411.1,303z M411.1,303c-15,0-15,13-15,13H426C426,316.1,426,303,411.1,303z M291.7,254.1
	c-1.8,0.2-2.7,1.1-2.7,2.9s0.8,2.7,2.4,2.7c1.2,0,2.6-0.2,4.1-0.6l0.7-0.2v-5.2L291.7,254.1z M266.7,254.1c-1.8,0.2-2.7,1.1-2.7,2.9
	s0.8,2.7,2.4,2.7c1.2,0,2.6-0.2,4.1-0.6l0.7-0.2v-5.2L266.7,254.1z M411.1,303c-15,0-15,13-15,13H426C426,316.1,426,303,411.1,303z
	 M411.1,303c-15,0-15,13-15,13H426C426,316.1,426,303,411.1,303z"/>
</svg>
