<?xml version="1.0" encoding="utf-8"?>
<!-- Generator: Adobe Illustrator 22.0.1, SVG Export Plug-In . SVG Version: 6.00 Build 0)  -->
<!DOCTYPE svg PUBLIC "-//W3C//DTD SVG 1.1//EN" "http://www.w3.org/Graphics/SVG/1.1/DTD/svg11.dtd">
<svg version="1.1" id="Layer_1" xmlns="http://www.w3.org/2000/svg" xmlns:xlink="http://www.w3.org/1999/xlink" x="0px" y="0px"
	 viewBox="0 0 557.4 200.3" style="enable-background:new 0 0 557.4 200.3;" xml:space="preserve">
<g>
	<g style="display:none;">
		<path style="display:inline;fill:#606060;" d="M237.6,33.5h-18V26H264v7.5h-17.8V87h-8.5V33.5z"/>
		<path style="display:inline;fill:#606060;" d="M300.2,72.7h-24.7L271.7,87h-8.4l15.8-61h17.6l15.8,61H304L300.2,72.7z M277.3,65.2
			h21.1l-8.2-32h-4.6L277.3,65.2z"/>
		<path style="display:inline;fill:#606060;" d="M353.2,72.7h-24.7L324.7,87h-8.4l15.8-61h17.6l15.8,61H357L353.2,72.7z M330.3,65.2
			h21.1l-8.2-32h-4.6L330.3,65.2z"/>
		<path style="display:inline;fill:#606060;" d="M435.1,26v61h-8.5V35.2h-1.3l-15.9,49.4h-9l-16-49.4h-1.2V87h-8.5V26h14.9
			l15.3,49.7L420.1,26H435.1z"/>
		<path style="display:inline;fill:#606060;" d="M449.7,26h8.5v61h-8.5V26z"/>
		<path style="display:inline;fill:#606060;" d="M518.5,26v61h-14.9l-21.1-53.6h-1.4V87h-8.5V26h15.2l20.7,53.6h1.6V26H518.5z"/>
		<path style="display:inline;fill:#606060;" d="M564.5,72.7h-24.7L536.1,87h-8.4l15.8-61H561l15.8,61h-8.4L564.5,72.7z M541.6,65.2
			h21.1l-8.2-32h-4.6L541.6,65.2z"/>
		<path style="display:inline;fill:#606060;" d="M604.1,60.8l-9.6,0.6V87H586V26h8.5v27.9l9.6-0.6L617.9,26h9.7l-16.1,30.7L628.4,87
			h-9.9L604.1,60.8z"/>
	</g>
</g>
<g>
	<g>
		<g>
			<path style="fill:#FFFFFF;" d="M62.5,0v192.4c0,0-62.3-20.7-62.5-104.3c0-0.3,0-0.5,0-0.8C0.5,81.6,6.4,20.3,62.5,0z"/>
			<path style="fill:#FFFFFF;" d="M147.8,0c0,0,83.3,35.3,58.6,126c-0.3,1-0.5,2-0.7,3.1c-1.7,7.8-23.4,62.1-86.6,71.2v-68
				c0,0,41,0.4,60-44.6S147.8,0,147.8,0z"/>
		</g>
		<g>
			<path style="fill:#FFFFFF;" d="M214.8,131.8h14.8v7.4c0,0,0.4-7.4,22.6-7.4v10c0,0-23.4,1.5-23.4,15.2c0,13.7,0,36,0,36h-14.1
				V131.8z"/>
			<rect x="258.2" y="110.6" style="fill:#FFFFFF;" width="15.2" height="10.8"/>
			<rect x="258.2" y="131.8" style="fill:#FFFFFF;" width="15.2" height="61.2"/>
			<path style="fill:#FFFFFF;" d="M304.2,193h-13.7v-61.2h13.7v5.6c0,0,23.2-16.5,39.7,0c0,0,14.9-13.6,38.6-2.7
				c3.1,1.4,5.2,4.5,5.2,8V193h-13.7v-43.4c0,0,0,0,0,0c-0.1-0.2-9.5-17.5-27,0c0,0,0,0.1,0,0.1V193h-15.2v-43.4c0,0,0,0,0,0
				c-0.2-0.4-8.7-17.9-26.7,0c0,0-0.8,0-0.8,0.1L304.2,193z"/>
			<path style="fill:#FFFFFF;" d="M438.1,184.9c-23.4,0-21.9-18.9-21.9-18.9h52.3c0-21.9-9.5-40.1-43-34.1
				c-25.9,4.6-24.6,29.6-22.5,41.4c1,5.4,3.9,10.4,8.3,13.7c5.2,3.9,13.8,7.9,27.3,7.9c26.7,0,30.1-15.6,30.1-15.6h-14.8
				C448,186.3,438.1,184.9,438.1,184.9z M436.1,140.3c18.7,0,18.7,16.3,18.7,16.3h-37.5C417.4,156.6,417.4,140.3,436.1,140.3z"/>
		</g>
	</g>
	<g>
		<path style="fill:#FFFFFF;" d="M230.9,34h-15.1V23.9h41.4V34h-14.9v46.2h-11.4V34z"/>
		<path style="fill:#FFFFFF;" d="M254.7,67.6c0-4.3,1.1-7.4,3.4-9.3c2.3-1.9,6-3,11-3.4l8.9-0.7v-2.6c0-1.7-0.4-2.8-1.1-3.5
			c-0.7-0.7-2-1-3.8-1c-1.8,0-4.3,0.1-7.5,0.2c-3.2,0.1-5.9,0.3-8,0.5l-0.3-7.7c6-1.6,11.6-2.4,16.9-2.4c5.3,0,9.1,1.1,11.5,3.3
			c2.3,2.2,3.5,5.7,3.5,10.6v17.2c0.1,1.4,0.3,2.3,0.7,2.8c0.4,0.5,1,0.9,2,1.1l-0.3,8.4c-2.9,0-5.1-0.2-6.8-0.6
			c-1.7-0.4-3.4-1.2-5-2.3c-4,1.9-8.1,2.9-12.2,2.9C259,81.1,254.7,76.6,254.7,67.6z M276.8,71.1l1.2-0.3v-8.9l-7.5,0.7
			c-3.1,0.3-4.6,1.9-4.6,5c0,3,1.4,4.6,4.1,4.6C272,72.1,274.3,71.8,276.8,71.1z"/>
		<path style="fill:#FFFFFF;" d="M297,67.6c0-4.3,1.1-7.4,3.4-9.3c2.3-1.9,6-3,11-3.4l8.9-0.7v-2.6c0-1.7-0.4-2.8-1.1-3.5
			c-0.7-0.7-2-1-3.8-1c-1.8,0-4.3,0.1-7.5,0.2c-3.2,0.1-5.9,0.3-8,0.5l-0.3-7.7c6-1.6,11.6-2.4,16.9-2.4c5.3,0,9.1,1.1,11.5,3.3
			c2.3,2.2,3.5,5.7,3.5,10.6v17.2c0.1,1.4,0.3,2.3,0.7,2.8c0.4,0.5,1,0.9,2,1.1l-0.3,8.4c-2.9,0-5.1-0.2-6.8-0.6
			c-1.7-0.4-3.4-1.2-5-2.3c-4,1.9-8.1,2.9-12.2,2.9C301.3,81.1,297,76.6,297,67.6z M319.1,71.1l1.2-0.3v-8.9l-7.5,0.7
			c-3.1,0.3-4.6,1.9-4.6,5c0,3,1.4,4.6,4.1,4.6C314.3,72.1,316.6,71.8,319.1,71.1z"/>
		<path style="fill:#FFFFFF;" d="M342,38.8h11v2.3c2-1.2,3.8-2,5.3-2.5c1.5-0.5,3.1-0.8,4.8-0.8c1.9,0,3.8,0.3,5.6,1
			c1.8,0.6,3.3,1.6,4.4,2.9c2.6-1.3,5-2.3,7.3-2.9c2.3-0.6,4.6-1,7-1c5.1,0,8.8,1.6,10.9,4.7c2.2,3.1,3.2,8.2,3.2,15.2v22.4h-11.1
			V58c0-3.7-0.4-6.3-1.2-7.9c-0.8-1.6-2.4-2.4-4.6-2.4c-1.6,0-3.7,0.4-6.4,1.2l-1.2,0.4c0.2,3.7,0.3,6.8,0.3,9.4v21.4h-11.1V58.9
			c0-3-0.2-5.2-0.5-6.8c-0.3-1.5-0.9-2.7-1.7-3.4c-0.9-0.7-2.1-1-3.8-1c-1.8,0-3.8,0.4-6.1,1.2l-1,0.3v31H342V38.8z"/>
		<path style="fill:#FFFFFF;" d="M411.5,22.3h11.1v11.2h-11.1V22.3z M411.5,38.8h11.1v41.4h-11.1V38.8z"/>
		<path style="fill:#FFFFFF;" d="M432.8,38.8h11v2.3c2.1-1.2,4-2.1,5.6-2.6c1.6-0.5,3.4-0.7,5.3-0.7c5.1,0,8.7,1.6,10.8,4.9
			c2.2,3.3,3.2,8.3,3.2,15.1v22.4h-11.1V58c0-3.8-0.5-6.5-1.4-8c-0.9-1.5-2.6-2.3-5.2-2.3c-1.8,0-3.9,0.4-6.2,1.2l-1,0.3v31h-11.1
			V38.8z"/>
		<path style="fill:#FFFFFF;" d="M475.8,67.6c0-4.3,1.1-7.4,3.4-9.3c2.3-1.9,6-3,11-3.4l8.9-0.7v-2.6c0-1.7-0.4-2.8-1.1-3.5
			c-0.7-0.7-2-1-3.8-1c-1.8,0-4.3,0.1-7.5,0.2c-3.2,0.1-5.9,0.3-8,0.5l-0.3-7.7c6-1.6,11.6-2.4,16.9-2.4c5.3,0,9.1,1.1,11.5,3.3
			c2.3,2.2,3.5,5.7,3.5,10.6v17.2c0.1,1.4,0.3,2.3,0.7,2.8c0.4,0.5,1,0.9,2,1.1l-0.3,8.4c-2.9,0-5.1-0.2-6.8-0.6
			c-1.7-0.4-3.4-1.2-5-2.3c-4,1.9-8.1,2.9-12.2,2.9C480.1,81.1,475.8,76.6,475.8,67.6z M497.9,71.1l1.2-0.3v-8.9l-7.5,0.7
			c-3.1,0.3-4.6,1.9-4.6,5c0,3,1.4,4.6,4.1,4.6C493.2,72.1,495.5,71.8,497.9,71.1z"/>
		<path style="fill:#FFFFFF;" d="M520.9,22.2h11.1v32.9l4.2-0.7l8.2-15.6h12.4L546,58.4l11.3,21.8h-12.5L536.5,64l-4.6,0.7v15.4
			h-11.1V22.2z"/>
	</g>
</g>
</svg>
