<?xml version="1.0" encoding="utf-8"?>
<!-- Generator: Adobe Illustrator 22.0.1, SVG Export Plug-In . SVG Version: 6.00 Build 0)  -->
<!DOCTYPE svg PUBLIC "-//W3C//DTD SVG 1.1//EN" "http://www.w3.org/Graphics/SVG/1.1/DTD/svg11.dtd">
<svg version="1.1" id="Layer_1" xmlns="http://www.w3.org/2000/svg" xmlns:xlink="http://www.w3.org/1999/xlink" x="0px" y="0px"
	 viewBox="0 0 200 200" style="enable-background:new 0 0 200 200;" xml:space="preserve">
<g>
	<path style="fill:#80CFDB;" d="M19.6,70c2.5,1.8,10.1,7.1,22.8,15.8c12.7,8.8,22.4,15.5,29.1,20.3c0.7,0.5,2.3,1.6,4.7,3.4
		c2.4,1.7,4.4,3.1,6,4.2c1.6,1.1,3.5,2.3,5.8,3.6c2.3,1.3,4.4,2.3,6.4,3c2,0.7,3.9,1,5.6,1h0.2c1.7,0,3.6-0.3,5.6-1
		c2-0.7,4.1-1.7,6.4-3c2.3-1.3,4.2-2.5,5.8-3.6c1.6-1.1,3.6-2.5,6-4.2c2.4-1.7,4-2.9,4.7-3.4c6.8-4.7,24.1-16.8,52-36.1
		c5.4-3.8,9.9-8.3,13.5-13.7c3.6-5.3,5.4-10.9,5.4-16.8c0-4.9-1.8-9.1-5.3-12.6c-3.5-3.5-7.7-5.2-12.5-5.2H18.2
		c-5.7,0-10.1,1.9-13.2,5.8C2,31.4,0.5,36.2,0.5,42c0,4.7,2,9.7,6.1,15.2C10.6,62.6,15,66.9,19.6,70L19.6,70z M19.6,70"/>
	<path style="fill:#80CFDB;" d="M188.4,81.9c-24.3,16.4-42.7,29.2-55.3,38.3c-4.2,3.1-7.6,5.5-10.3,7.3c-2.6,1.7-6.1,3.5-10.5,5.3
		c-4.4,1.8-8.4,2.7-12.2,2.7h-0.2c-3.8,0-7.9-0.9-12.2-2.7c-4.4-1.8-7.9-3.6-10.5-5.3c-2.6-1.7-6.1-4.2-10.3-7.3
		c-10-7.3-28.4-20.1-55.2-38.3c-4.2-2.8-8-6-11.2-9.7v88.2c0,4.9,1.7,9.1,5.2,12.6c3.5,3.5,7.7,5.2,12.6,5.2h163.5
		c4.9,0,9.1-1.7,12.6-5.2c3.5-3.5,5.2-7.7,5.2-12.6V72.2C196.4,75.8,192.7,79,188.4,81.9L188.4,81.9z M188.4,81.9"/>
</g>
</svg>
