<?xml version="1.0" encoding="utf-8"?>
<!-- Generator: Adobe Illustrator 22.0.1, SVG Export Plug-In . SVG Version: 6.00 Build 0)  -->
<!DOCTYPE svg PUBLIC "-//W3C//DTD SVG 1.1//EN" "http://www.w3.org/Graphics/SVG/1.1/DTD/svg11.dtd">
<svg version="1.1" id="Layer_1" xmlns="http://www.w3.org/2000/svg" xmlns:xlink="http://www.w3.org/1999/xlink" x="0px" y="0px"
	 viewBox="0 0 200 200" style="enable-background:new 0 0 200 200;" xml:space="preserve">
<g>
	<path style="fill:#FFFFFF;" d="M19.2,69.9c2.5,1.8,10.2,7.1,22.9,15.9c12.7,8.8,22.5,15.6,29.2,20.4c0.7,0.5,2.3,1.7,4.7,3.4
		c2.4,1.8,4.4,3.2,6,4.2c1.6,1.1,3.5,2.3,5.8,3.6c2.3,1.3,4.4,2.3,6.4,3c2,0.7,3.9,1,5.6,1h0.2c1.7,0,3.6-0.3,5.6-1
		c2-0.7,4.1-1.7,6.4-3c2.3-1.3,4.2-2.5,5.8-3.6c1.6-1.1,3.6-2.5,6-4.2c2.4-1.7,4-2.9,4.7-3.4c6.8-4.8,24.3-16.8,52.2-36.3
		c5.4-3.8,10-8.4,13.6-13.7c3.6-5.4,5.5-11,5.5-16.8c0-4.9-1.8-9.1-5.3-12.6c-3.5-3.5-7.7-5.2-12.6-5.2H17.9
		c-5.7,0-10.1,1.9-13.2,5.8C1.5,31.1,0,35.9,0,41.7c0,4.7,2,9.8,6.1,15.2C10.2,62.4,14.6,66.7,19.2,69.9L19.2,69.9z M19.2,69.9"/>
	<path style="fill:#FFFFFF;" d="M188.8,81.8c-24.4,16.5-42.9,29.3-55.6,38.5c-4.2,3.1-7.7,5.6-10.3,7.3c-2.6,1.8-6.2,3.5-10.5,5.4
		c-4.4,1.8-8.5,2.7-12.3,2.7h-0.2c-3.8,0-7.9-0.9-12.3-2.7c-4.4-1.8-7.9-3.6-10.5-5.4c-2.6-1.7-6.1-4.2-10.3-7.3
		c-10-7.4-28.5-20.2-55.5-38.5C7,79,3.3,75.7,0,72.1v88.6c0,4.9,1.7,9.1,5.2,12.6c3.5,3.5,7.7,5.2,12.6,5.2h164.3
		c4.9,0,9.1-1.7,12.6-5.2c3.5-3.5,5.2-7.7,5.2-12.6V72.1C196.8,75.7,193.1,78.9,188.8,81.8L188.8,81.8z M188.8,81.8"/>
</g>
</svg>
