<?xml version="1.0" encoding="utf-8"?>
<!-- Generator: Adobe Illustrator 22.0.1, SVG Export Plug-In . SVG Version: 6.00 Build 0)  -->
<!DOCTYPE svg PUBLIC "-//W3C//DTD SVG 1.1//EN" "http://www.w3.org/Graphics/SVG/1.1/DTD/svg11.dtd">
<svg version="1.1" id="Layer_1" xmlns="http://www.w3.org/2000/svg" xmlns:xlink="http://www.w3.org/1999/xlink" x="0px" y="0px"
	 viewBox="0 0 200 200" style="enable-background:new 0 0 200 200;" xml:space="preserve">
<path style="fill:#FFFFFF;" d="M170.4,75.2H158V58.6c0-32-26-58-58-58s-58,26-58,58v16.6H29.6c-2.3,0-4.1,1.9-4.1,4.1v103.5
	c0,9.1,7.4,16.6,16.6,16.6h116c9.1,0,16.6-7.4,16.6-16.6V79.3C174.5,77,172.7,75.2,170.4,75.2z M109.8,138.2l2.6,23.5
	c0.1,1.2-0.2,2.3-1,3.2c-0.8,0.9-1.9,1.4-3.1,1.4H91.7c-1.2,0-2.3-0.5-3.1-1.4c-0.8-0.9-1.2-2.1-1-3.2l2.6-23.5
	c-4.2-3.1-6.8-8-6.8-13.3c0-9.1,7.4-16.6,16.6-16.6s16.6,7.4,16.6,16.6C116.6,130.2,114,135.1,109.8,138.2z M133.1,75.2H66.9V58.6
	c0-18.3,14.9-33.1,33.1-33.1s33.1,14.9,33.1,33.1V75.2z"/>
</svg>
