<?xml version="1.0" encoding="utf-8"?>
<!-- Generator: Adobe Illustrator 22.0.1, SVG Export Plug-In . SVG Version: 6.00 Build 0)  -->
<!DOCTYPE svg PUBLIC "-//W3C//DTD SVG 1.1//EN" "http://www.w3.org/Graphics/SVG/1.1/DTD/svg11.dtd">
<svg version="1.1" id="Layer_1" xmlns="http://www.w3.org/2000/svg" xmlns:xlink="http://www.w3.org/1999/xlink" x="0px" y="0px"
	 viewBox="0 0 200 200" style="enable-background:new 0 0 200 200;" xml:space="preserve">
<g>
	<g>
		<path style="fill:#FFFFFF;" d="M47,40.9l79.3-21.6l-4.2-8.5c-2.7-5.5-9.4-7.8-15-5l-71,35.2H47z M47,40.9"/>
		<path style="fill:#FFFFFF;" d="M150.9,19.9c-1,0-2,0.1-2.9,0.4l-18.6,5.1L72.4,40.9h92.7l-3.5-12.8
			C160.3,23.1,155.8,19.9,150.9,19.9L150.9,19.9z M150.9,19.9"/>
		<path style="fill:#FFFFFF;" d="M176.8,48.7H11.7c-3.5,0-6.7,1.6-8.7,4.2c-0.9,1.2-1.7,2.5-2.1,4c-0.2,0.9-0.4,1.9-0.4,2.9v124.4
			c0,6.2,5,11.2,11.2,11.2h165.1c6.2,0,11.2-5,11.2-11.2v-31.2h-66.3c-10.5,0-19-8.5-19-19v-24.8c0-5.1,2.1-9.8,5.4-13.2
			c2.9-3,6.9-5.1,11.3-5.6c0.7-0.1,1.5-0.1,2.3-0.1h66.3V59.9C187.9,53.7,182.9,48.7,176.8,48.7L176.8,48.7z M176.8,48.7"/>
	</g>
	<path style="fill:#FFFFFF;" d="M195.7,101c-1.1-1-2.4-1.8-3.9-2.3c-1.1-0.4-2.3-0.6-3.6-0.6h-66.6c-6.2,0-11.2,5-11.2,11.2v24.9
		c0,6.2,5,11.2,11.2,11.2h66.6c1.3,0,2.5-0.2,3.6-0.6c1.5-0.5,2.8-1.3,3.9-2.3c2.2-2,3.6-5,3.6-8.2v-24.9
		C199.4,106,198,103.1,195.7,101L195.7,101z M144.9,123.9c0,3.1-2.5,5.6-5.6,5.6h-3.7c-3.1,0-5.6-2.5-5.6-5.6v-3.7
		c0-1.8,0.8-3.4,2.1-4.4c1-0.7,2.1-1.2,3.4-1.2h3.7c3.1,0,5.6,2.5,5.6,5.6V123.9z M144.9,123.9"/>
</g>
</svg>
