<?xml version="1.0" encoding="utf-8"?>
<!-- Generator: Adobe Illustrator 22.0.1, SVG Export Plug-In . SVG Version: 6.00 Build 0)  -->
<!DOCTYPE svg PUBLIC "-//W3C//DTD SVG 1.1//EN" "http://www.w3.org/Graphics/SVG/1.1/DTD/svg11.dtd">
<svg version="1.1" id="Layer_1" xmlns="http://www.w3.org/2000/svg" xmlns:xlink="http://www.w3.org/1999/xlink" x="0px" y="0px"
	 viewBox="0 0 200 200" style="enable-background:new 0 0 200 200;" xml:space="preserve">
<g>
	<g>
		<path style="fill:#80CFDB;" d="M194.7,157.6l-30.6-30.6c-6.1-6.1-16.2-5.9-22.5,0.4l-15.4,15.4c-1-0.5-2-1.1-3-1.7
			c-9.8-5.4-23.1-12.8-37.1-26.9c-14.1-14.1-21.5-27.5-26.9-37.2c-0.6-1-1.1-2-1.7-3l10.4-10.3l5.1-5.1c6.3-6.3,6.5-16.4,0.4-22.5
			L42.6,5.5c-6.1-6.1-16.2-5.9-22.5,0.4l-8.6,8.7l0.2,0.2c-2.9,3.7-5.3,8-7.1,12.5c-1.7,4.4-2.7,8.6-3.2,12.7
			c-4.1,33.5,11.3,64.2,52.9,105.8c57.5,57.5,103.8,53.2,105.8,52.9c4.3-0.5,8.5-1.6,12.8-3.2c4.6-1.8,8.8-4.2,12.5-7.1l0.2,0.2
			l8.8-8.6C200.6,173.8,200.8,163.7,194.7,157.6L194.7,157.6z M194.7,157.6"/>
	</g>
</g>
</svg>
