<?xml version="1.0" encoding="utf-8"?>
<!-- Generator: Adobe Illustrator 22.0.1, SVG Export Plug-In . SVG Version: 6.00 Build 0)  -->
<!DOCTYPE svg PUBLIC "-//W3C//DTD SVG 1.1//EN" "http://www.w3.org/Graphics/SVG/1.1/DTD/svg11.dtd">
<svg version="1.1" id="Layer_1" xmlns="http://www.w3.org/2000/svg" xmlns:xlink="http://www.w3.org/1999/xlink" x="0px" y="0px"
	 viewBox="0 0 200 200" style="enable-background:new 0 0 200 200;" xml:space="preserve">
<g>
	<g>
		<path style="fill:#FFFFFF;" d="M195.7,158.2l-31-31c-6.2-6.1-16.4-5.9-22.8,0.4l-15.6,15.6c-1-0.5-2-1.1-3.1-1.7
			c-9.9-5.5-23.3-12.9-37.5-27.1c-14.2-14.2-21.7-27.7-27.2-37.6c-0.6-1-1.1-2-1.7-3l10.5-10.4l5.2-5.2c6.4-6.4,6.6-16.6,0.4-22.8
			l-31-31c-6.1-6.2-16.4-6-22.8,0.4l-8.7,8.8l0.2,0.2c-2.9,3.7-5.4,8-7.2,12.7C1.9,31,0.9,35.3,0.4,39.5
			c-4.1,33.9,11.4,64.9,53.4,106.9c58.1,58.1,104.9,53.7,106.9,53.5c4.4-0.5,8.6-1.6,12.9-3.2c4.6-1.8,8.9-4.2,12.6-7.2l0.2,0.2
			l8.9-8.7C201.7,174.6,201.9,164.4,195.7,158.2L195.7,158.2z M195.7,158.2"/>
	</g>
</g>
</svg>
