<?xml version="1.0" encoding="utf-8"?>
<!-- Generator: Adobe Illustrator 22.0.1, SVG Export Plug-In . SVG Version: 6.00 Build 0)  -->
<!DOCTYPE svg PUBLIC "-//W3C//DTD SVG 1.1//EN" "http://www.w3.org/Graphics/SVG/1.1/DTD/svg11.dtd">
<svg version="1.1" id="Layer_1" xmlns="http://www.w3.org/2000/svg" xmlns:xlink="http://www.w3.org/1999/xlink" x="0px" y="0px"
	 viewBox="0 0 100 100" style="enable-background:new 0 0 100 100;" xml:space="preserve">
<g>
	<path style="fill-rule:evenodd;clip-rule:evenodd;fill:#FFFFFF;" d="M90.5,86V0.5H23v9h58.5V86H90.5z M90.5,86"/>
	<path style="fill-rule:evenodd;clip-rule:evenodd;fill:#FFFFFF;" d="M9.5,14.9v83.6c0,0.5,0.4,0.9,0.9,0.9h65.6
		c0.5,0,0.9-0.4,0.9-0.9V14.9c0-0.5-0.4-0.9-0.9-0.9H10.4C9.9,14,9.5,14.4,9.5,14.9L9.5,14.9z M18.5,27.5H68V32H18.5V27.5z M18.5,41
		H68v4.5H18.5V41z M18.5,54.5H68V59H18.5V54.5z M18.5,68H68v4.5H18.5V68z M18.5,81.5H50V86H18.5V81.5z M18.5,81.5"/>
</g>
</svg>
