<?xml version="1.0" encoding="utf-8"?>
<!-- Generator: Adobe Illustrator 22.0.1, SVG Export Plug-In . SVG Version: 6.00 Build 0)  -->
<!DOCTYPE svg PUBLIC "-//W3C//DTD SVG 1.1//EN" "http://www.w3.org/Graphics/SVG/1.1/DTD/svg11.dtd">
<svg version="1.1" id="Layer_1" xmlns="http://www.w3.org/2000/svg" xmlns:xlink="http://www.w3.org/1999/xlink" x="0px" y="0px"
	 viewBox="0 0 100 100" style="enable-background:new 0 0 100 100;" xml:space="preserve">
<g>
	<path style="fill:#FFFFFF;" d="M91.9,77.8l-16.3-8.2c-2.1-1.1-3.4-3.2-3.4-5.6v-6.4c0.4-0.5,1-1.2,1.5-2c2.2-3.1,3.9-6.6,5.1-10.2
		c2.1-0.6,3.6-2.6,3.6-4.9v-6.8c0-1.5-0.7-2.9-1.7-3.8v-9.9c0,0,2-15.4-18.8-15.4S43.2,20.1,43.2,20.1V30c-1,0.9-1.7,2.3-1.7,3.8
		v6.8c0,1.8,1,3.4,2.4,4.3c1.7,7.4,6.2,12.8,6.2,12.8v6.2c0,2.3-1.2,4.4-3.2,5.5l-15.2,8.3c-4.4,2.4-7.1,7-7.1,12v5.5h75.1V90
		C99.5,84.9,96.6,80.1,91.9,77.8L91.9,77.8z M91.9,77.8"/>
	<path style="fill:#DBDBDB;" d="M31.5,77.7l10.2-5.5c-0.1-0.1,0-0.1,0.1-0.1l5-2.7c2-1.1,3.2-3.2,3.2-5.5v-6.2c0,0-1.8-2.2-3.6-5.7
		c-0.2-0.5-0.5-0.9-0.7-1.4c0-0.1-0.1-0.1-0.1-0.2c-0.2-0.5-0.5-1-0.7-1.6c0,0,0-0.1,0-0.1c-0.2-0.5-0.4-1-0.5-1.5
		c0-0.1-0.1-0.3-0.1-0.4c-0.2-0.6-0.3-1.2-0.5-1.8c-1.4-0.9-2.4-2.5-2.4-4.3v-6.8c0-1.5,0.7-2.9,1.7-3.8v-9.6
		c-2.4-1.9-6.2-3.6-12-3.6c-16.3,0-17.1,13.7-17.1,13.7v8.5c-0.9,0.8-1.7,2-1.7,3.3v5.9c0,1.6,0.8,2.9,2,3.7c1.5,6.4,6.4,11,6.4,11
		v5.4c0,2-1.1,3.8-2.8,4.7L6.7,80.1c-3.8,2.1-6.2,6.1-6.2,10.4v4.8h23.9v-5.5C24.4,84.7,27.1,80.1,31.5,77.7L31.5,77.7z M31.5,77.7"
		/>
</g>
</svg>
