<?xml version="1.0" encoding="utf-8"?>
<!-- Generator: Adobe Illustrator 22.0.1, SVG Export Plug-In . SVG Version: 6.00 Build 0)  -->
<!DOCTYPE svg PUBLIC "-//W3C//DTD SVG 1.1//EN" "http://www.w3.org/Graphics/SVG/1.1/DTD/svg11.dtd">
<svg version="1.1" id="Layer_1" xmlns="http://www.w3.org/2000/svg" xmlns:xlink="http://www.w3.org/1999/xlink" x="0px" y="0px"
	 viewBox="0 0 200 200" style="enable-background:new 0 0 200 200;" xml:space="preserve">
<g>
	<g>
		<path style="fill:#FFFFFF;" d="M52.5,35.2c-4.3-5.3-12.7-5.5-17.9,0.3c-13.2,15-33.6,45.9-24,87.1c0,0-2.7,0.8-6,1.8
			c-3.3,1-1.6,6.3,3.8,11.9l23.3,24c5.5,5.6,10.8,3.9,11.9-3.8l4.7-31.4c1.1-7.7-1.5-13-5.9-11.7l-8,2.3
			C28.6,88.3,40.9,66.8,50.5,55C55.4,48.9,56.8,40.5,52.5,35.2L52.5,35.2z M52.5,35.2"/>
		<path style="fill:#FFFFFF;" d="M79.1,196.1c6.2,1.3,14,2.3,22.9,2.3c19,0,42.5-5,63.4-23.9c0,0,2.7,2.6,6,5.8
			c3.3,3.2,7.7-0.4,9.8-7.9l9.2-32.2c2.1-7.5-2-11.3-9.3-8.4l-29.5,11.6c-7.3,2.8-11.1,7.1-8.6,9.5l4.5,4.4
			c-20.6,17.6-44.7,17.6-59.4,15.3c-7.7-1.2-15.7,1.8-18.2,8.2C67.5,187.2,71.5,194.6,79.1,196.1L79.1,196.1z M79.1,196.1"/>
		<path style="fill:#FFFFFF;" d="M194.6,83.5c-4.5-19-17.5-52.5-54.7-69c0,0,1.2-3.6,2.7-7.9c1.5-4.4-3.5-7-11.2-5.8l-33,5.1
			c-7.7,1.2-9.4,6.5-3.8,12l22.9,22c5.7,5.4,11.1,7.2,12.2,4l2-5.8c24,11.5,33.8,33,37.8,47.1c2.1,7.5,8.2,13.5,15,13.1
			C191.3,97.8,196.4,91.1,194.6,83.5L194.6,83.5z M194.6,83.5"/>
	</g>
</g>
</svg>
