<?xml version="1.0" encoding="utf-8"?>
<!-- Generator: Adobe Illustrator 22.0.1, SVG Export Plug-In . SVG Version: 6.00 Build 0)  -->
<!DOCTYPE svg PUBLIC "-//W3C//DTD SVG 1.1//EN" "http://www.w3.org/Graphics/SVG/1.1/DTD/svg11.dtd">
<svg version="1.1" id="Layer_1" xmlns="http://www.w3.org/2000/svg" xmlns:xlink="http://www.w3.org/1999/xlink" x="0px" y="0px"
	 viewBox="0 0 100 100" style="enable-background:new 0 0 100 100;" xml:space="preserve">
<g>
	<g>
		<path style="fill:#FFFFFF;" d="M85.9,38.9l-2.5-5.9c0,0,5.8-13.1,5.3-13.6L81,11.8c-0.5-0.5-13.7,5.5-13.7,5.5l-6-2.4
			c0,0-5.3-13.3-6.1-13.3H44.3c-0.8,0-5.7,13.3-5.7,13.3l-6,2.5c0,0-13.4-5.7-13.9-5.2L11,19.6C10.5,20.2,16.6,33,16.6,33L14.1,39
			c0,0-13.6,5.2-13.6,5.9v10.7c0,0.7,13.6,5.6,13.6,5.6l2.5,5.9c0,0-5.8,13.1-5.3,13.6l7.7,7.5c0.5,0.5,13.7-5.5,13.7-5.5l6.1,2.4
			c0,0,5.3,13.3,6.1,13.3h10.9c0.7,0,5.7-13.3,5.7-13.3l6.1-2.5c0,0,13.4,5.7,13.9,5.2l7.7-7.5c0.5-0.5-5.6-13.4-5.6-13.4l2.5-5.9
			c0,0,13.6-5.2,13.6-6V44.5C99.5,43.7,85.9,38.9,85.9,38.9L85.9,38.9z M65.9,50c0,8.6-7.1,15.5-15.9,15.5c-8.8,0-15.9-7-15.9-15.5
			c0-8.6,7.1-15.5,15.9-15.5C58.8,34.5,65.9,41.4,65.9,50L65.9,50z M65.9,50"/>
	</g>
</g>
</svg>
