<?xml version="1.0" encoding="utf-8"?>
<!-- Generator: Adobe Illustrator 22.0.1, SVG Export Plug-In . SVG Version: 6.00 Build 0)  -->
<!DOCTYPE svg PUBLIC "-//W3C//DTD SVG 1.1//EN" "http://www.w3.org/Graphics/SVG/1.1/DTD/svg11.dtd">
<svg version="1.1" id="Layer_1" xmlns="http://www.w3.org/2000/svg" xmlns:xlink="http://www.w3.org/1999/xlink" x="0px" y="0px"
	 viewBox="0 0 200 200" style="enable-background:new 0 0 200 200;" xml:space="preserve">
<g>
	<path style="fill:#FFFFFF;" d="M200,38c-7.3,3.2-15.3,5.5-23.6,6.5c8.5-5.1,15-13.1,18.1-22.7c-7.9,4.7-16.7,8.1-26.1,10
		c-7.4-7.9-18.1-12.9-29.9-12.9c-22.6,0-41,18.4-41,41c0,3.2,0.4,6.3,1,9.3c-34.1-1.7-64.3-18-84.6-42.9c-3.5,6-5.6,13.1-5.6,20.6
		c0,14.2,7.3,26.8,18.2,34.1c-6.7-0.2-13-2.1-18.5-5.1v0.5c0,19.9,14.2,36.5,32.9,40.3c-3.4,0.9-7.1,1.4-10.8,1.4
		c-2.6,0-5.2-0.2-7.7-0.7c5.2,16.3,20.4,28.1,38.3,28.5c-14,11-31.7,17.5-51,17.5c-3.3,0-6.5-0.2-9.8-0.5
		c18.2,11.7,39.7,18.4,62.9,18.4c75.4,0,116.7-62.5,116.7-116.7l-0.1-5.3C187.5,53.4,194.5,46.2,200,38L200,38z M200,38"/>
</g>
</svg>
