<?xml version="1.0" encoding="utf-8"?>
<!-- Generator: Adobe Illustrator 22.0.1, SVG Export Plug-In . SVG Version: 6.00 Build 0)  -->
<!DOCTYPE svg PUBLIC "-//W3C//DTD SVG 1.1//EN" "http://www.w3.org/Graphics/SVG/1.1/DTD/svg11.dtd">
<svg version="1.1" id="Layer_1" xmlns="http://www.w3.org/2000/svg" xmlns:xlink="http://www.w3.org/1999/xlink" x="0px" y="0px"
	 viewBox="0 0 100 100" style="enable-background:new 0 0 100 100;" xml:space="preserve">
<g>
	<g>
		<path style="fill:#FFFFFF;" d="M99.2,36.6c-0.5-0.6-1.2-0.9-2-0.9h-9.7c-2.4-6.3-5.5-12.5-9-14.8c-12.2-8.1-44.7-8.1-57,0
			c-3.5,2.3-6.6,8.5-9,14.8H2.8c-0.8,0-1.5,0.3-2,0.9c-0.5,0.6-0.7,1.4-0.5,2.1l1.4,6.9c0.2,1.2,1.3,2,2.5,2h2.9
			C4.3,50.9,3,54.9,3,58.9c0,5,1.9,9.5,5.3,12.7c0,0,0.1,0.1,0.1,0.1v9.7c0,2.1,1.7,3.8,3.8,3.8h8.9c2.1,0,3.8-1.7,3.8-3.8v-3.9H75
			v3.9c0,2.1,1.7,3.8,3.8,3.8h8.9c2.1,0,3.8-1.7,3.8-3.8v-9.5c3.7-3.3,5.4-8,5.4-12.6c0-4.2-1.4-8.3-4.3-11.6h3.1
			c1.2,0,2.3-0.8,2.5-2l1.4-6.9C99.9,37.9,99.7,37.2,99.2,36.6L99.2,36.6z M25.7,27.2c9.8-6.4,38.8-6.4,48.6,0
			c1.9,1.2,4.3,6.3,6.6,12.4H19.1C21.4,33.5,23.8,28.5,25.7,27.2L25.7,27.2z M14.3,59.9c0-4.1,3.4-7.5,7.5-7.5
			c4.2,0,7.5,3.4,7.5,7.5c0,4.2-3.4,7.5-7.5,7.5C17.7,67.4,14.3,64,14.3,59.9L14.3,59.9z M78.3,67.4c-4.1,0-7.5-3.4-7.5-7.5
			c0-4.1,3.4-7.5,7.5-7.5c4.2,0,7.5,3.4,7.5,7.5C85.8,64,82.5,67.4,78.3,67.4L78.3,67.4z M78.3,67.4"/>
	</g>
</g>
</svg>
