<?xml version="1.0" encoding="utf-8"?>
<!-- Generator: Adobe Illustrator 22.0.1, SVG Export Plug-In . SVG Version: 6.00 Build 0)  -->
<!DOCTYPE svg PUBLIC "-//W3C//DTD SVG 1.1//EN" "http://www.w3.org/Graphics/SVG/1.1/DTD/svg11.dtd">
<svg version="1.1" id="Layer_1" xmlns="http://www.w3.org/2000/svg" xmlns:xlink="http://www.w3.org/1999/xlink" x="0px" y="0px"
	 viewBox="0 0 500 500" style="enable-background:new 0 0 500 500;" xml:space="preserve">
<g>
	<path style="fill:#FFFFFF;" d="M492.1,187.3H373.3c-6.9,0-12.6-5.7-12.6-12.6V158c0-5.6,3.7-10.3,8.7-12c1.2-0.4,2.5-0.6,3.9-0.6
		h26.5c6.9,0,12.6-5.7,12.6-12.6v-1c0-6.9-5.7-12.6-12.6-12.6h-116c-3.3,0-6.3-1.2-8.5-3.2c-0.2-0.2-0.5-0.4-0.7-0.7
		c-1.7-1.8-2.8-4.2-2.8-6.8c0-5.8-5.4-10.6-12-10.6h-43c-3.5,0-6.6-1.4-8.9-3.7c-2.1-2.1-3.5-5-3.7-8.1c0-0.3,0-0.5,0-0.8
		c0-0.2,0-0.3,0-0.5c0.1-1.9,0.6-3.7,1.4-5.3c0.8-1.5,1.8-2.8,3.1-3.8c1-0.9,2.2-1.5,3.5-2c0.1,0,0.1-0.1,0.2-0.1
		c1.2-0.5,2.5-0.7,3.8-0.8c0.2,0,0.4,0,0.6,0h209.4C381.2,27.8,318.8,0,250,0C111.9,0,0,111.9,0,250c0,14.8,1.3,29.2,3.7,43.3
		c0.1,0.3,0.1,0.7,0.2,1v0c0.1,0.6,0.2,1.3,0.4,1.9c1.5,8.1,3.4,16.1,5.7,23.9c8.2,28,21.1,54,37.9,77H321c6.9,0,12.6,5.7,12.6,12.6
		c0,3.5-1.4,6.6-3.7,8.9c-2.3,2.3-5.4,3.7-8.9,3.7h-43c-6.6,0-12,4.8-12,10.6c0,5.8-5.4,10.6-12,10.6h-116
		c-6.9,0-12.6,5.7-12.6,12.6v1c0,6.9,5.7,12.6,12.6,12.6h26.5c6.9,0,12.6,5.7,12.6,12.6v6.8c23,7,47.4,10.7,72.7,10.7
		c86.4,0,162.6-43.9,207.5-110.5c1.3-2,2.6-3.9,3.8-5.9c2-3.2,4-6.5,5.9-9.8c4.5-7.9,8.6-16.1,12.2-24.5c3.9-9.1,7.3-18.4,10.2-28
		c0.3-0.9,0.5-1.8,0.8-2.6c0.2-0.8,0.5-1.7,0.7-2.5c1.4-5.3,2.7-10.6,3.8-16c0,0,0,0,0,0c0.8-3.7,1.4-7.5,2-11.3
		c2-12.7,3-25.6,3-38.8C500,228.3,497.3,207.3,492.1,187.3z M355.7,227.4l41.2-23.2l2.5,17.5l38.5-21.4l-10.6-0.9
		c-1.3-0.1-2.2-1.2-2.1-2.5c0.1-1.3,1.2-2.2,2.5-2.1l20.5,1.7l-7.4,20.6c-0.3,0.9-1.2,1.5-2.2,1.5c-0.3,0-0.5,0-0.8-0.1
		c-1.2-0.4-1.8-1.8-1.4-3l4.1-11.4L395.8,229l-2.5-17.5L358,231.4c-0.4,0.2-0.8,0.3-1.1,0.3c-0.8,0-1.6-0.4-2-1.2
		C354.2,229.4,354.6,228,355.7,227.4z M309.6,201.4c2.1,8,3.9,9.8,11.9,11.9c-8,2.1-9.8,3.9-11.9,11.9c-2.1-8-3.9-9.8-11.9-11.9
		C305.8,211.1,307.5,209.4,309.6,201.4z M295.7,252.1c2.4,0,4.3,1.9,4.3,4.3c0,2.4-1.9,4.3-4.3,4.3c-2.4,0-4.3-1.9-4.3-4.3
		C291.4,254,293.3,252.1,295.7,252.1z M286.4,159.7c2.4,0,4.3,1.9,4.3,4.3c0,2.4-1.9,4.3-4.3,4.3s-4.3-1.9-4.3-4.3
		C282.1,161.6,284,159.7,286.4,159.7z M230.9,115.4l3.3-4.3l1.8,5.1l4.3,3.3l-5.1,1.8l-3.7,5.2l-1.4-6l-4.3-3.3L230.9,115.4z
		 M175.7,56.5l3.3-4.3l1.8,5.1l4.3,3.3l-5.1,1.8l-3.7,5.2l-1.4-6l-4.3-3.3L175.7,56.5z M140.3,93.3l2.5-2.5l0.8,3.5l3,2.8l-4,0.4
		l-2.5,2.5l-0.8-3.5l-2.5-2.5L140.3,93.3z M68.7,144.7c0.2,4,0.7,8.2,1.5,12.3c14-24.5,39.9-39.8,68.8-39.8c30.1,0,57,16.6,70.5,43
		c0,0,0,0.1,0.1,0.1l3.4,7.6l0.1,0.3c0.1,0.3,0.3,0.7,0.4,1c2.8,7.8,3.4,15.8,3.7,24.1l-7.6,0.3c-0.2-4.3-0.5-8.8-1.2-13.2
		c-13.8,25-40,40.7-69.3,40.7c-29.4,0-55.7-15.9-69.5-41.2c0,0,0,0,0-0.1l-4-8.6c-0.3-0.7-0.5-1.4-0.8-2.2c-2.6-7.6-3.5-16-3.9-24
		L68.7,144.7z M50.2,237.3c-4,0-7.3-3.3-7.3-7.3c0-4,3.3-7.3,7.3-7.3c4,0,7.3,3.3,7.3,7.3C57.5,234,54.2,237.3,50.2,237.3z
		 M57.5,290.2c8-2.1,9.8-3.9,11.9-11.9c2.1,8,3.9,9.8,11.9,11.9c-8,2.1-9.8,3.9-11.9,11.9C67.3,294.1,65.5,292.4,57.5,290.2z
		 M76.7,370.5c-4,0-7.3-3.3-7.3-7.3s3.3-7.3,7.3-7.3s7.3,3.3,7.3,7.3S80.7,370.5,76.7,370.5z M110.9,236.7l-2.5,2.5l-0.8-3.5
		l-2.5-2.5l3.5-0.8l2.5-2.5l0.8,3.5l3,2.8L110.9,236.7z M147.3,360.6l-2.4,2.6c-17.3-13-28.4-33.6-28.4-56.8
		c0-39.2,31.9-71.1,71.1-71.1c14.7,0,28.9,4.5,40.9,12.9l-2,2.9l-2,2.9c-10.8-7.6-23.5-11.6-36.8-11.6c-35.3,0-64,28.7-64,64
		c0,21.2,10.3,39.9,26.2,51.6L147.3,360.6z M187.6,377.5c-9.1,0-17.8-1.7-25.9-4.9l2.6-2.8l2.6-2.8c6.5,2.2,13.4,3.4,20.6,3.4
		c9.4,0,18.3-2,26.4-5.7l2.5,2.8l2.5,2.7C209.5,374.9,198.9,377.5,187.6,377.5z M207.2,353.2l-2.8,1l0,0c-5.2,1.8-10.9,2.8-16.7,2.8
		c-3.6,0-7.1-0.4-10.5-1.1l-9-2.8c-18.3-7.7-31.2-25.8-31.2-46.8c0-28,22.8-50.7,50.7-50.7c12.1,0,19.9,2.4,28,8.5l-2.1,2.8
		l-2.1,2.8c-6.8-5.1-13.3-7-23.8-7c-24.1,0-43.6,19.6-43.6,43.6c0,24.1,19.6,43.7,43.6,43.7c24.1,0,43.7-19.6,43.7-43.7
		c0-8.3-2.3-16.3-6.7-23.2l3-1.9l3-1.9c5.1,8.1,7.8,17.4,7.8,27C238.3,327.5,225.5,345.6,207.2,353.2z M187.6,315.5
		c5,0,9.1-4.1,9.1-9.1h7.1c0,8.9-7.3,16.2-16.2,16.2c-8.9,0-16.2-7.3-16.2-16.2c0-8.9,7.3-16.2,16.2-16.2v7.1c-5,0-9.1,4.1-9.1,9.1
		C178.5,311.4,182.6,315.5,187.6,315.5z M246.8,273.8l-3.1,1.7c-1.8-3.2-3.8-6.2-6.1-9.1l2.8-2.2l2.8-2.2c2.5,3.1,4.8,6.5,6.7,10.1
		L246.8,273.8z M250.4,281.5l3.3-1.3c2.4,6.1,4,12.6,4.6,19.1l-3.5,0.4l-3.5,0.3c-0.6-5.9-2-11.7-4.2-17.2L250.4,281.5z
		 M234.7,359.6l-2.4-2.6l-2.4-2.6c13.3-11.7,21.7-28.9,21.7-48h7.1C258.7,327.6,249.4,346.6,234.7,359.6z M270.1,247.4h-19.2
		l-2.4,2.4h11.6v7.1h-18.7l-4,4l-14.4,14.4l-24.6,24.6l-9.8,9.8l-5-5l9.6-9.6l43.6-43.6v-18.2h7.1v11.1l2.7-2.7v-19.2h7.1v12.1
		l4.5-4.5v-18.9h7.1V229h16.6v7.1h-19.6l-4.2,4.2h12.1V247.4z M425.1,308l-22.4-5c0,0-8.4-5.2-22.2-2c34.5,35.9,32.2,50.9,30.5,55
		h1.6c2.8,0,5.1,2.3,5.1,5.1v2.5c0,0,0,0.1,0,0.1h6.5c0.5,0,0.9,0.4,0.9,0.9v24.8h-88.9v-0.9h-56.4v-17.2h5.1
		c0.6-2.6,2.7-4.6,5.4-5.1c0.4-0.1,0.8-0.1,1.2-0.1h0.6v0c2.7,0,5-9.7,5-21.6c0-3.2-0.2-6.3-0.5-9.1c-0.1-0.7-0.1-1.3-0.2-1.9
		c-0.5-3.3-1.1-6-1.9-7.9c0.3-0.3,0.5-0.7,0.8-1c-1.9-3.3-4-6.4-6.2-9.3c-1.4-1.8-2.8-3.6-4.4-5.3c-0.5-0.6-1.1-1.2-1.7-1.8
		c-0.2-0.2-0.4-0.4-0.6-0.6l0-8.7l0-16.5h10.2v8.6h11.6v-9h9.3v9h12.8v-8.6h10.2v32.2H331v8.6h-3.7c-2.4,1.6-4.2,10.5-4.2,21.3
		c0,11.9,2.2,21.6,5,21.6c0,0,0.1,0,0.1,0v0.1c2.9,0.3,5.2,2.4,5.9,5.1h2.2v-6.7c0-0.5,0.4-0.9,0.9-0.9h6.5c0,0,0-0.1,0-0.1v-2.5
		c0-2.8,2.3-5.1,5.1-5.1h2.1c1.8-2.5-1-10.5-11.8-49.3c-11.4-41.2,33.4-58.7,33.4-58.7l12.9-14.1l4.3,13.6l2.8,8.6l14.3,3.7
		l28.1,33.4L425.1,308z M445.8,364.5h-7v-18.9h7V364.5z M444.8,273.2c-0.1,0.5-0.4,1-1.3,0.9l-2.9-0.4c-0.4-0.2-0.6-0.5-0.6-0.9
		c-0.1-1.2-0.5-2.3-1.3-3.3c-0.5-0.6-1-1-1.6-1.2c-1.5-0.6-3-0.5-4.5,0.3c-0.7,0.4-1.1,0.1-1.4-0.3c-0.5-0.6-1-1.3-1.6-2
		c-0.5-0.7-0.3-1.1,0-1.5c0.5-0.7,0.8-1.2,1-1.7c0.3-0.8,0.3-1.7-0.1-2.8c-0.5-1.4-1.4-2.3-2.9-2.7c0,0,0,0,0,0
		c-0.6-0.2-0.9-0.7-0.8-1.2l0.3-2.7c0.1-0.5,0.5-0.9,1-0.9c1.3,0,2.4-0.5,3.3-1.3c0.6-0.5,0.9-1,1.2-1.5c0.4-1.1,0.4-2.2-0.1-3.4
		c-0.1-0.2-0.2-0.3-0.2-0.5l-0.2-0.3c-0.2-0.4-0.1-0.9,0.3-1.2l2.2-1.7c0.3-0.2,0.6-0.3,0.9-0.1l0.3,0.2l0.2,0.2
		c0.1,0.1,0.2,0.2,0.3,0.3c0.2,0.1,0.4,0.2,0.6,0.3c0.5,0.2,1,0.3,1.6,0.3c0.5,0,0.9-0.1,1.5-0.2c0.9-0.2,1.6-0.5,2.1-1
		c0.2-0.2,0.4-0.5,0.6-0.7c0.1-0.1,0.2-0.2,0.3-0.4l0.1-0.4c0.1-0.2,0.2-0.5,0.3-0.7c0.3-0.8,0.8-0.8,1.2-0.8
		c0.7,0.1,1.5,0.2,2.2,0.3l0.8,0.1c0.4,0.2,0.6,0.5,0.6,0.9c0.1,1.2,0.5,2.3,1.3,3.3c0.5,0.6,1,0.9,1.6,1.2l0.2,0.1
		c1.4,0.5,2.9,0.4,4.4-0.3c0.4-0.2,0.9-0.1,1.2,0.2l1.8,2.3c0.2,0.2,0.4,0.7-0.1,1.3c-0.6,0.6-0.9,1.2-1,1.8
		c-0.4,1.3-0.1,2.7,0.9,4.2c0.4,0.6,0.9,1.1,1.5,1.4l0.2,0.1l0.5,0.2l0.1,0c0.3,0.1,0.5,0.5,0.5,0.9c0,0.5-0.1,1-0.1,1.5l-0.1,1.1
		c0,0.1,0,0.2,0,0.3c-0.2,0.7-0.7,0.9-1,0.9c-1.4,0-2.6,0.5-3.4,1.3c-0.4,0.4-0.7,0.9-0.9,1.4c-0.2,0.6-0.3,1.3-0.2,1.9
		c0.1,0.7,0.3,1.4,0.7,2c0.3,0.5,0.1,1.1-0.2,1.3c-0.7,0.6-1.5,1.2-2.3,1.8c-0.3,0.2-0.7,0.2-0.9,0.1l-0.2-0.1
		c-0.1-0.1-0.2-0.2-0.3-0.3c-0.1-0.1-0.2-0.2-0.3-0.2c-0.9-0.6-1.8-0.7-2.9-0.5c-1.1,0.1-1.9,0.4-2.6,1
		C445.5,271.6,445.1,272.3,444.8,273.2z M456.2,364.5h-7v-23.5h7V364.5z M466,364.5h-7v-28.9h7V364.5z M484.4,300.7
		c0,4.9-1.8,9.3-4.8,12.7l0.1,0.1l-0.8,0.7c-0.5,0.5-1.1,1-1.7,1.5c-3.3,2.5-7.3,3.9-11.5,3.9c-10.5,0-19-8.5-19-19
		c0-10.3,8.2-18.7,18.4-19h0c0.2,0,0.4,0,0.6,0h0.4c0.2,0,0.5,0,0.7,0.1c9.8,0.8,17.5,9,17.6,18.9h0
		C484.4,300.6,484.4,300.6,484.4,300.7z"/>
	<path style="fill:#FFFFFF;" d="M139,148.5c-11.6,0-21.1,9.4-21.1,21s9.4,21.1,21.1,21.1c11.6,0,21-9.4,21-21.1
		S150.6,148.5,139,148.5z M139,180.5c-6.1,0-11-4.9-11-11c0-6.1,4.9-11,11-11s11,4.9,11,11C149.9,175.6,145,180.5,139,180.5z
		 M139,148.5c-11.6,0-21.1,9.4-21.1,21s9.4,21.1,21.1,21.1c11.6,0,21-9.4,21-21.1S150.6,148.5,139,148.5z M139,180.5
		c-6.1,0-11-4.9-11-11c0-6.1,4.9-11,11-11s11,4.9,11,11C149.9,175.6,145,180.5,139,180.5z M139,148.5c-11.6,0-21.1,9.4-21.1,21
		s9.4,21.1,21.1,21.1c11.6,0,21-9.4,21-21.1S150.6,148.5,139,148.5z M139,180.5c-6.1,0-11-4.9-11-11c0-6.1,4.9-11,11-11
		s11,4.9,11,11C149.9,175.6,145,180.5,139,180.5z M139,148.5c-11.6,0-21.1,9.4-21.1,21s9.4,21.1,21.1,21.1c11.6,0,21-9.4,21-21.1
		S150.6,148.5,139,148.5z M139,180.5c-6.1,0-11-4.9-11-11c0-6.1,4.9-11,11-11s11,4.9,11,11C149.9,175.6,145,180.5,139,180.5z
		 M139,148.5c-11.6,0-21.1,9.4-21.1,21s9.4,21.1,21.1,21.1c11.6,0,21-9.4,21-21.1S150.6,148.5,139,148.5z M139,180.5
		c-6.1,0-11-4.9-11-11c0-6.1,4.9-11,11-11s11,4.9,11,11C149.9,175.6,145,180.5,139,180.5z M139,148.5c-11.6,0-21.1,9.4-21.1,21
		s9.4,21.1,21.1,21.1c11.6,0,21-9.4,21-21.1S150.6,148.5,139,148.5z M139,180.5c-6.1,0-11-4.9-11-11c0-6.1,4.9-11,11-11
		s11,4.9,11,11C149.9,175.6,145,180.5,139,180.5z M139,148.5c-11.6,0-21.1,9.4-21.1,21s9.4,21.1,21.1,21.1c11.6,0,21-9.4,21-21.1
		S150.6,148.5,139,148.5z M139,180.5c-6.1,0-11-4.9-11-11c0-6.1,4.9-11,11-11s11,4.9,11,11C149.9,175.6,145,180.5,139,180.5z
		 M139,148.5c-11.6,0-21.1,9.4-21.1,21s9.4,21.1,21.1,21.1c11.6,0,21-9.4,21-21.1S150.6,148.5,139,148.5z M139,180.5
		c-6.1,0-11-4.9-11-11c0-6.1,4.9-11,11-11s11,4.9,11,11C149.9,175.6,145,180.5,139,180.5z M139,148.5c-11.6,0-21.1,9.4-21.1,21
		s9.4,21.1,21.1,21.1c11.6,0,21-9.4,21-21.1S150.6,148.5,139,148.5z M139,180.5c-6.1,0-11-4.9-11-11c0-6.1,4.9-11,11-11
		s11,4.9,11,11C149.9,175.6,145,180.5,139,180.5z M139,148.5c-11.6,0-21.1,9.4-21.1,21s9.4,21.1,21.1,21.1c11.6,0,21-9.4,21-21.1
		S150.6,148.5,139,148.5z M139,180.5c-6.1,0-11-4.9-11-11c0-6.1,4.9-11,11-11s11,4.9,11,11C149.9,175.6,145,180.5,139,180.5z
		 M139,148.5c-11.6,0-21.1,9.4-21.1,21s9.4,21.1,21.1,21.1c11.6,0,21-9.4,21-21.1S150.6,148.5,139,148.5z M139,180.5
		c-6.1,0-11-4.9-11-11c0-6.1,4.9-11,11-11s11,4.9,11,11C149.9,175.6,145,180.5,139,180.5z M139,148.5c-11.6,0-21.1,9.4-21.1,21
		s9.4,21.1,21.1,21.1c11.6,0,21-9.4,21-21.1S150.6,148.5,139,148.5z M139,180.5c-6.1,0-11-4.9-11-11c0-6.1,4.9-11,11-11
		s11,4.9,11,11C149.9,175.6,145,180.5,139,180.5z M139,148.5c-11.6,0-21.1,9.4-21.1,21s9.4,21.1,21.1,21.1c11.6,0,21-9.4,21-21.1
		S150.6,148.5,139,148.5z M139,180.5c-6.1,0-11-4.9-11-11c0-6.1,4.9-11,11-11s11,4.9,11,11C149.9,175.6,145,180.5,139,180.5z
		 M139,148.5c-11.6,0-21.1,9.4-21.1,21s9.4,21.1,21.1,21.1c11.6,0,21-9.4,21-21.1S150.6,148.5,139,148.5z M139,180.5
		c-6.1,0-11-4.9-11-11c0-6.1,4.9-11,11-11s11,4.9,11,11C149.9,175.6,145,180.5,139,180.5z M139,148.5c-11.6,0-21.1,9.4-21.1,21
		s9.4,21.1,21.1,21.1c11.6,0,21-9.4,21-21.1S150.6,148.5,139,148.5z M139,180.5c-6.1,0-11-4.9-11-11c0-6.1,4.9-11,11-11
		s11,4.9,11,11C149.9,175.6,145,180.5,139,180.5z M139,148.5c-11.6,0-21.1,9.4-21.1,21s9.4,21.1,21.1,21.1c11.6,0,21-9.4,21-21.1
		S150.6,148.5,139,148.5z M139,180.5c-6.1,0-11-4.9-11-11c0-6.1,4.9-11,11-11s11,4.9,11,11C149.9,175.6,145,180.5,139,180.5z
		 M139,148.5c-11.6,0-21.1,9.4-21.1,21s9.4,21.1,21.1,21.1c11.6,0,21-9.4,21-21.1S150.6,148.5,139,148.5z M139,180.5
		c-6.1,0-11-4.9-11-11c0-6.1,4.9-11,11-11s11,4.9,11,11C149.9,175.6,145,180.5,139,180.5z M139,148.5c-11.6,0-21.1,9.4-21.1,21
		s9.4,21.1,21.1,21.1c11.6,0,21-9.4,21-21.1S150.6,148.5,139,148.5z M139,180.5c-6.1,0-11-4.9-11-11c0-6.1,4.9-11,11-11
		s11,4.9,11,11C149.9,175.6,145,180.5,139,180.5z M139,148.5c-11.6,0-21.1,9.4-21.1,21s9.4,21.1,21.1,21.1c11.6,0,21-9.4,21-21.1
		S150.6,148.5,139,148.5z M139,180.5c-6.1,0-11-4.9-11-11c0-6.1,4.9-11,11-11s11,4.9,11,11C149.9,175.6,145,180.5,139,180.5z
		 M139,148.5c-11.6,0-21.1,9.4-21.1,21s9.4,21.1,21.1,21.1c11.6,0,21-9.4,21-21.1S150.6,148.5,139,148.5z M139,180.5
		c-6.1,0-11-4.9-11-11c0-6.1,4.9-11,11-11s11,4.9,11,11C149.9,175.6,145,180.5,139,180.5z M139,148.5c-11.6,0-21.1,9.4-21.1,21
		s9.4,21.1,21.1,21.1c11.6,0,21-9.4,21-21.1S150.6,148.5,139,148.5z M139,180.5c-6.1,0-11-4.9-11-11c0-6.1,4.9-11,11-11
		s11,4.9,11,11C149.9,175.6,145,180.5,139,180.5z M139,148.5c-11.6,0-21.1,9.4-21.1,21s9.4,21.1,21.1,21.1c11.6,0,21-9.4,21-21.1
		S150.6,148.5,139,148.5z M139,180.5c-6.1,0-11-4.9-11-11c0-6.1,4.9-11,11-11s11,4.9,11,11C149.9,175.6,145,180.5,139,180.5z
		 M139,148.5c-11.6,0-21.1,9.4-21.1,21s9.4,21.1,21.1,21.1c11.6,0,21-9.4,21-21.1S150.6,148.5,139,148.5z M139,180.5
		c-6.1,0-11-4.9-11-11c0-6.1,4.9-11,11-11s11,4.9,11,11C149.9,175.6,145,180.5,139,180.5z M139,148.5c-11.6,0-21.1,9.4-21.1,21
		s9.4,21.1,21.1,21.1c11.6,0,21-9.4,21-21.1S150.6,148.5,139,148.5z M139,180.5c-6.1,0-11-4.9-11-11c0-6.1,4.9-11,11-11
		s11,4.9,11,11C149.9,175.6,145,180.5,139,180.5z M139,148.5c-11.6,0-21.1,9.4-21.1,21s9.4,21.1,21.1,21.1c11.6,0,21-9.4,21-21.1
		S150.6,148.5,139,148.5z M139,180.5c-6.1,0-11-4.9-11-11c0-6.1,4.9-11,11-11s11,4.9,11,11C149.9,175.6,145,180.5,139,180.5z
		 M139,148.5c-11.6,0-21.1,9.4-21.1,21s9.4,21.1,21.1,21.1c11.6,0,21-9.4,21-21.1S150.6,148.5,139,148.5z M139,180.5
		c-6.1,0-11-4.9-11-11c0-6.1,4.9-11,11-11s11,4.9,11,11C149.9,175.6,145,180.5,139,180.5z M139,148.5c-11.6,0-21.1,9.4-21.1,21
		s9.4,21.1,21.1,21.1c11.6,0,21-9.4,21-21.1S150.6,148.5,139,148.5z M139,180.5c-6.1,0-11-4.9-11-11c0-6.1,4.9-11,11-11
		s11,4.9,11,11C149.9,175.6,145,180.5,139,180.5z M139,148.5c-11.6,0-21.1,9.4-21.1,21s9.4,21.1,21.1,21.1c11.6,0,21-9.4,21-21.1
		S150.6,148.5,139,148.5z M139,180.5c-6.1,0-11-4.9-11-11c0-6.1,4.9-11,11-11s11,4.9,11,11C149.9,175.6,145,180.5,139,180.5z
		 M139,148.5c-11.6,0-21.1,9.4-21.1,21s9.4,21.1,21.1,21.1c11.6,0,21-9.4,21-21.1S150.6,148.5,139,148.5z M139,180.5
		c-6.1,0-11-4.9-11-11c0-6.1,4.9-11,11-11s11,4.9,11,11C149.9,175.6,145,180.5,139,180.5z M139,148.5c-11.6,0-21.1,9.4-21.1,21
		s9.4,21.1,21.1,21.1c11.6,0,21-9.4,21-21.1S150.6,148.5,139,148.5z M139,180.5c-6.1,0-11-4.9-11-11c0-6.1,4.9-11,11-11
		s11,4.9,11,11C149.9,175.6,145,180.5,139,180.5z M139,148.5c-11.6,0-21.1,9.4-21.1,21s9.4,21.1,21.1,21.1c11.6,0,21-9.4,21-21.1
		S150.6,148.5,139,148.5z M139,180.5c-6.1,0-11-4.9-11-11c0-6.1,4.9-11,11-11s11,4.9,11,11C149.9,175.6,145,180.5,139,180.5z
		 M139,148.5c-11.6,0-21.1,9.4-21.1,21s9.4,21.1,21.1,21.1c11.6,0,21-9.4,21-21.1S150.6,148.5,139,148.5z M139,180.5
		c-6.1,0-11-4.9-11-11c0-6.1,4.9-11,11-11s11,4.9,11,11C149.9,175.6,145,180.5,139,180.5z M139,148.5c-11.6,0-21.1,9.4-21.1,21
		s9.4,21.1,21.1,21.1c11.6,0,21-9.4,21-21.1S150.6,148.5,139,148.5z M139,180.5c-6.1,0-11-4.9-11-11c0-6.1,4.9-11,11-11
		s11,4.9,11,11C149.9,175.6,145,180.5,139,180.5z M139,148.5c-11.6,0-21.1,9.4-21.1,21s9.4,21.1,21.1,21.1c11.6,0,21-9.4,21-21.1
		S150.6,148.5,139,148.5z M139,180.5c-6.1,0-11-4.9-11-11c0-6.1,4.9-11,11-11s11,4.9,11,11C149.9,175.6,145,180.5,139,180.5z
		 M139,148.5c-11.6,0-21.1,9.4-21.1,21s9.4,21.1,21.1,21.1c11.6,0,21-9.4,21-21.1S150.6,148.5,139,148.5z M139,180.5
		c-6.1,0-11-4.9-11-11c0-6.1,4.9-11,11-11s11,4.9,11,11C149.9,175.6,145,180.5,139,180.5z M139,148.5c-11.6,0-21.1,9.4-21.1,21
		s9.4,21.1,21.1,21.1c11.6,0,21-9.4,21-21.1S150.6,148.5,139,148.5z M139,180.5c-6.1,0-11-4.9-11-11c0-6.1,4.9-11,11-11
		s11,4.9,11,11C149.9,175.6,145,180.5,139,180.5z M139,148.5c-11.6,0-21.1,9.4-21.1,21s9.4,21.1,21.1,21.1c11.6,0,21-9.4,21-21.1
		S150.6,148.5,139,148.5z M139,180.5c-6.1,0-11-4.9-11-11c0-6.1,4.9-11,11-11s11,4.9,11,11C149.9,175.6,145,180.5,139,180.5z
		 M139,148.5c-11.6,0-21.1,9.4-21.1,21s9.4,21.1,21.1,21.1c11.6,0,21-9.4,21-21.1S150.6,148.5,139,148.5z M139,180.5
		c-6.1,0-11-4.9-11-11c0-6.1,4.9-11,11-11s11,4.9,11,11C149.9,175.6,145,180.5,139,180.5z M139,148.5c-11.6,0-21.1,9.4-21.1,21
		s9.4,21.1,21.1,21.1c11.6,0,21-9.4,21-21.1S150.6,148.5,139,148.5z M139,180.5c-6.1,0-11-4.9-11-11c0-6.1,4.9-11,11-11
		s11,4.9,11,11C149.9,175.6,145,180.5,139,180.5z M139,148.5c-11.6,0-21.1,9.4-21.1,21s9.4,21.1,21.1,21.1c11.6,0,21-9.4,21-21.1
		S150.6,148.5,139,148.5z M139,180.5c-6.1,0-11-4.9-11-11c0-6.1,4.9-11,11-11s11,4.9,11,11C149.9,175.6,145,180.5,139,180.5z
		 M139,148.5c-11.6,0-21.1,9.4-21.1,21s9.4,21.1,21.1,21.1c11.6,0,21-9.4,21-21.1S150.6,148.5,139,148.5z M139,180.5
		c-6.1,0-11-4.9-11-11c0-6.1,4.9-11,11-11s11,4.9,11,11C149.9,175.6,145,180.5,139,180.5z M139,148.5c-11.6,0-21.1,9.4-21.1,21
		s9.4,21.1,21.1,21.1c11.6,0,21-9.4,21-21.1S150.6,148.5,139,148.5z M139,180.5c-6.1,0-11-4.9-11-11c0-6.1,4.9-11,11-11
		s11,4.9,11,11C149.9,175.6,145,180.5,139,180.5z M139,126.1c-28.8,0-54.2,17-65.3,43.4C84.7,196,110.2,213,139,213
		c28.8,0,54.2-17,65.3-43.4C193.2,143.1,167.7,126.1,139,126.1z M139,194.4c-13.7,0-24.9-11.1-24.9-24.9c0-13.7,11.1-24.9,24.9-24.9
		c13.7,0,24.9,11.1,24.9,24.9C163.8,183.3,152.7,194.4,139,194.4z M139,148.5c-11.6,0-21.1,9.4-21.1,21s9.4,21.1,21.1,21.1
		c11.6,0,21-9.4,21-21.1S150.6,148.5,139,148.5z M139,180.5c-6.1,0-11-4.9-11-11c0-6.1,4.9-11,11-11s11,4.9,11,11
		C149.9,175.6,145,180.5,139,180.5z M139,148.5c-11.6,0-21.1,9.4-21.1,21s9.4,21.1,21.1,21.1c11.6,0,21-9.4,21-21.1
		S150.6,148.5,139,148.5z M139,180.5c-6.1,0-11-4.9-11-11c0-6.1,4.9-11,11-11s11,4.9,11,11C149.9,175.6,145,180.5,139,180.5z
		 M139,148.5c-11.6,0-21.1,9.4-21.1,21s9.4,21.1,21.1,21.1c11.6,0,21-9.4,21-21.1S150.6,148.5,139,148.5z M139,180.5
		c-6.1,0-11-4.9-11-11c0-6.1,4.9-11,11-11s11,4.9,11,11C149.9,175.6,145,180.5,139,180.5z M139,148.5c-11.6,0-21.1,9.4-21.1,21
		s9.4,21.1,21.1,21.1c11.6,0,21-9.4,21-21.1S150.6,148.5,139,148.5z M139,180.5c-6.1,0-11-4.9-11-11c0-6.1,4.9-11,11-11
		s11,4.9,11,11C149.9,175.6,145,180.5,139,180.5z M139,148.5c-11.6,0-21.1,9.4-21.1,21s9.4,21.1,21.1,21.1c11.6,0,21-9.4,21-21.1
		S150.6,148.5,139,148.5z M139,180.5c-6.1,0-11-4.9-11-11c0-6.1,4.9-11,11-11s11,4.9,11,11C149.9,175.6,145,180.5,139,180.5z
		 M139,148.5c-11.6,0-21.1,9.4-21.1,21s9.4,21.1,21.1,21.1c11.6,0,21-9.4,21-21.1S150.6,148.5,139,148.5z M139,180.5
		c-6.1,0-11-4.9-11-11c0-6.1,4.9-11,11-11s11,4.9,11,11C149.9,175.6,145,180.5,139,180.5z M139,148.5c-11.6,0-21.1,9.4-21.1,21
		s9.4,21.1,21.1,21.1c11.6,0,21-9.4,21-21.1S150.6,148.5,139,148.5z M139,180.5c-6.1,0-11-4.9-11-11c0-6.1,4.9-11,11-11
		s11,4.9,11,11C149.9,175.6,145,180.5,139,180.5z M139,148.5c-11.6,0-21.1,9.4-21.1,21s9.4,21.1,21.1,21.1c11.6,0,21-9.4,21-21.1
		S150.6,148.5,139,148.5z M139,180.5c-6.1,0-11-4.9-11-11c0-6.1,4.9-11,11-11s11,4.9,11,11C149.9,175.6,145,180.5,139,180.5z
		 M139,148.5c-11.6,0-21.1,9.4-21.1,21s9.4,21.1,21.1,21.1c11.6,0,21-9.4,21-21.1S150.6,148.5,139,148.5z M139,180.5
		c-6.1,0-11-4.9-11-11c0-6.1,4.9-11,11-11s11,4.9,11,11C149.9,175.6,145,180.5,139,180.5z M139,148.5c-11.6,0-21.1,9.4-21.1,21
		s9.4,21.1,21.1,21.1c11.6,0,21-9.4,21-21.1S150.6,148.5,139,148.5z M139,180.5c-6.1,0-11-4.9-11-11c0-6.1,4.9-11,11-11
		s11,4.9,11,11C149.9,175.6,145,180.5,139,180.5z M139,148.5c-11.6,0-21.1,9.4-21.1,21s9.4,21.1,21.1,21.1c11.6,0,21-9.4,21-21.1
		S150.6,148.5,139,148.5z M139,180.5c-6.1,0-11-4.9-11-11c0-6.1,4.9-11,11-11s11,4.9,11,11C149.9,175.6,145,180.5,139,180.5z
		 M139,148.5c-11.6,0-21.1,9.4-21.1,21s9.4,21.1,21.1,21.1c11.6,0,21-9.4,21-21.1S150.6,148.5,139,148.5z M139,180.5
		c-6.1,0-11-4.9-11-11c0-6.1,4.9-11,11-11s11,4.9,11,11C149.9,175.6,145,180.5,139,180.5z M139,148.5c-11.6,0-21.1,9.4-21.1,21
		s9.4,21.1,21.1,21.1c11.6,0,21-9.4,21-21.1S150.6,148.5,139,148.5z M139,180.5c-6.1,0-11-4.9-11-11c0-6.1,4.9-11,11-11
		s11,4.9,11,11C149.9,175.6,145,180.5,139,180.5z M139,148.5c-11.6,0-21.1,9.4-21.1,21s9.4,21.1,21.1,21.1c11.6,0,21-9.4,21-21.1
		S150.6,148.5,139,148.5z M139,180.5c-6.1,0-11-4.9-11-11c0-6.1,4.9-11,11-11s11,4.9,11,11C149.9,175.6,145,180.5,139,180.5z
		 M139,148.5c-11.6,0-21.1,9.4-21.1,21s9.4,21.1,21.1,21.1c11.6,0,21-9.4,21-21.1S150.6,148.5,139,148.5z M139,180.5
		c-6.1,0-11-4.9-11-11c0-6.1,4.9-11,11-11s11,4.9,11,11C149.9,175.6,145,180.5,139,180.5z M139,148.5c-11.6,0-21.1,9.4-21.1,21
		s9.4,21.1,21.1,21.1c11.6,0,21-9.4,21-21.1S150.6,148.5,139,148.5z M139,180.5c-6.1,0-11-4.9-11-11c0-6.1,4.9-11,11-11
		s11,4.9,11,11C149.9,175.6,145,180.5,139,180.5z M139,148.5c-11.6,0-21.1,9.4-21.1,21s9.4,21.1,21.1,21.1c11.6,0,21-9.4,21-21.1
		S150.6,148.5,139,148.5z M139,180.5c-6.1,0-11-4.9-11-11c0-6.1,4.9-11,11-11s11,4.9,11,11C149.9,175.6,145,180.5,139,180.5z
		 M139,148.5c-11.6,0-21.1,9.4-21.1,21s9.4,21.1,21.1,21.1c11.6,0,21-9.4,21-21.1S150.6,148.5,139,148.5z M139,180.5
		c-6.1,0-11-4.9-11-11c0-6.1,4.9-11,11-11s11,4.9,11,11C149.9,175.6,145,180.5,139,180.5z M139,148.5c-11.6,0-21.1,9.4-21.1,21
		s9.4,21.1,21.1,21.1c11.6,0,21-9.4,21-21.1S150.6,148.5,139,148.5z M139,180.5c-6.1,0-11-4.9-11-11c0-6.1,4.9-11,11-11
		s11,4.9,11,11C149.9,175.6,145,180.5,139,180.5z M139,148.5c-11.6,0-21.1,9.4-21.1,21s9.4,21.1,21.1,21.1c11.6,0,21-9.4,21-21.1
		S150.6,148.5,139,148.5z M139,180.5c-6.1,0-11-4.9-11-11c0-6.1,4.9-11,11-11s11,4.9,11,11C149.9,175.6,145,180.5,139,180.5z
		 M139,148.5c-11.6,0-21.1,9.4-21.1,21s9.4,21.1,21.1,21.1c11.6,0,21-9.4,21-21.1S150.6,148.5,139,148.5z M139,180.5
		c-6.1,0-11-4.9-11-11c0-6.1,4.9-11,11-11s11,4.9,11,11C149.9,175.6,145,180.5,139,180.5z M139,148.5c-11.6,0-21.1,9.4-21.1,21
		s9.4,21.1,21.1,21.1c11.6,0,21-9.4,21-21.1S150.6,148.5,139,148.5z M139,180.5c-6.1,0-11-4.9-11-11c0-6.1,4.9-11,11-11
		s11,4.9,11,11C149.9,175.6,145,180.5,139,180.5z M139,148.5c-11.6,0-21.1,9.4-21.1,21s9.4,21.1,21.1,21.1c11.6,0,21-9.4,21-21.1
		S150.6,148.5,139,148.5z M139,180.5c-6.1,0-11-4.9-11-11c0-6.1,4.9-11,11-11s11,4.9,11,11C149.9,175.6,145,180.5,139,180.5z
		 M139,148.5c-11.6,0-21.1,9.4-21.1,21s9.4,21.1,21.1,21.1c11.6,0,21-9.4,21-21.1S150.6,148.5,139,148.5z M139,180.5
		c-6.1,0-11-4.9-11-11c0-6.1,4.9-11,11-11s11,4.9,11,11C149.9,175.6,145,180.5,139,180.5z M139,148.5c-11.6,0-21.1,9.4-21.1,21
		s9.4,21.1,21.1,21.1c11.6,0,21-9.4,21-21.1S150.6,148.5,139,148.5z M139,180.5c-6.1,0-11-4.9-11-11c0-6.1,4.9-11,11-11
		s11,4.9,11,11C149.9,175.6,145,180.5,139,180.5z M139,148.5c-11.6,0-21.1,9.4-21.1,21s9.4,21.1,21.1,21.1c11.6,0,21-9.4,21-21.1
		S150.6,148.5,139,148.5z M139,180.5c-6.1,0-11-4.9-11-11c0-6.1,4.9-11,11-11s11,4.9,11,11C149.9,175.6,145,180.5,139,180.5z
		 M139,148.5c-11.6,0-21.1,9.4-21.1,21s9.4,21.1,21.1,21.1c11.6,0,21-9.4,21-21.1S150.6,148.5,139,148.5z M139,180.5
		c-6.1,0-11-4.9-11-11c0-6.1,4.9-11,11-11s11,4.9,11,11C149.9,175.6,145,180.5,139,180.5z M139,148.5c-11.6,0-21.1,9.4-21.1,21
		s9.4,21.1,21.1,21.1c11.6,0,21-9.4,21-21.1S150.6,148.5,139,148.5z M139,180.5c-6.1,0-11-4.9-11-11c0-6.1,4.9-11,11-11
		s11,4.9,11,11C149.9,175.6,145,180.5,139,180.5z M139,148.5c-11.6,0-21.1,9.4-21.1,21s9.4,21.1,21.1,21.1c11.6,0,21-9.4,21-21.1
		S150.6,148.5,139,148.5z M139,180.5c-6.1,0-11-4.9-11-11c0-6.1,4.9-11,11-11s11,4.9,11,11C149.9,175.6,145,180.5,139,180.5z
		 M139,148.5c-11.6,0-21.1,9.4-21.1,21s9.4,21.1,21.1,21.1c11.6,0,21-9.4,21-21.1S150.6,148.5,139,148.5z M139,180.5
		c-6.1,0-11-4.9-11-11c0-6.1,4.9-11,11-11s11,4.9,11,11C149.9,175.6,145,180.5,139,180.5z M139,148.5c-11.6,0-21.1,9.4-21.1,21
		s9.4,21.1,21.1,21.1c11.6,0,21-9.4,21-21.1S150.6,148.5,139,148.5z M139,180.5c-6.1,0-11-4.9-11-11c0-6.1,4.9-11,11-11
		s11,4.9,11,11C149.9,175.6,145,180.5,139,180.5z M139,148.5c-11.6,0-21.1,9.4-21.1,21s9.4,21.1,21.1,21.1c11.6,0,21-9.4,21-21.1
		S150.6,148.5,139,148.5z M139,180.5c-6.1,0-11-4.9-11-11c0-6.1,4.9-11,11-11s11,4.9,11,11C149.9,175.6,145,180.5,139,180.5z
		 M139,148.5c-11.6,0-21.1,9.4-21.1,21s9.4,21.1,21.1,21.1c11.6,0,21-9.4,21-21.1S150.6,148.5,139,148.5z M139,180.5
		c-6.1,0-11-4.9-11-11c0-6.1,4.9-11,11-11s11,4.9,11,11C149.9,175.6,145,180.5,139,180.5z M139,148.5c-11.6,0-21.1,9.4-21.1,21
		s9.4,21.1,21.1,21.1c11.6,0,21-9.4,21-21.1S150.6,148.5,139,148.5z M139,180.5c-6.1,0-11-4.9-11-11c0-6.1,4.9-11,11-11
		s11,4.9,11,11C149.9,175.6,145,180.5,139,180.5z M139,148.5c-11.6,0-21.1,9.4-21.1,21s9.4,21.1,21.1,21.1c11.6,0,21-9.4,21-21.1
		S150.6,148.5,139,148.5z M139,180.5c-6.1,0-11-4.9-11-11c0-6.1,4.9-11,11-11s11,4.9,11,11C149.9,175.6,145,180.5,139,180.5z
		 M139,148.5c-11.6,0-21.1,9.4-21.1,21s9.4,21.1,21.1,21.1c11.6,0,21-9.4,21-21.1S150.6,148.5,139,148.5z M139,180.5
		c-6.1,0-11-4.9-11-11c0-6.1,4.9-11,11-11s11,4.9,11,11C149.9,175.6,145,180.5,139,180.5z M139,148.5c-11.6,0-21.1,9.4-21.1,21
		s9.4,21.1,21.1,21.1c11.6,0,21-9.4,21-21.1S150.6,148.5,139,148.5z M139,180.5c-6.1,0-11-4.9-11-11c0-6.1,4.9-11,11-11
		s11,4.9,11,11C149.9,175.6,145,180.5,139,180.5z M139,148.5c-11.6,0-21.1,9.4-21.1,21s9.4,21.1,21.1,21.1c11.6,0,21-9.4,21-21.1
		S150.6,148.5,139,148.5z M139,180.5c-6.1,0-11-4.9-11-11c0-6.1,4.9-11,11-11s11,4.9,11,11C149.9,175.6,145,180.5,139,180.5z
		 M139,148.5c-11.6,0-21.1,9.4-21.1,21s9.4,21.1,21.1,21.1c11.6,0,21-9.4,21-21.1S150.6,148.5,139,148.5z M139,180.5
		c-6.1,0-11-4.9-11-11c0-6.1,4.9-11,11-11s11,4.9,11,11C149.9,175.6,145,180.5,139,180.5z M139,148.5c-11.6,0-21.1,9.4-21.1,21
		s9.4,21.1,21.1,21.1c11.6,0,21-9.4,21-21.1S150.6,148.5,139,148.5z M139,180.5c-6.1,0-11-4.9-11-11c0-6.1,4.9-11,11-11
		s11,4.9,11,11C149.9,175.6,145,180.5,139,180.5z M139,148.5c-11.6,0-21.1,9.4-21.1,21s9.4,21.1,21.1,21.1c11.6,0,21-9.4,21-21.1
		S150.6,148.5,139,148.5z M139,180.5c-6.1,0-11-4.9-11-11c0-6.1,4.9-11,11-11s11,4.9,11,11C149.9,175.6,145,180.5,139,180.5z
		 M139,148.5c-11.6,0-21.1,9.4-21.1,21s9.4,21.1,21.1,21.1c11.6,0,21-9.4,21-21.1S150.6,148.5,139,148.5z M139,180.5
		c-6.1,0-11-4.9-11-11c0-6.1,4.9-11,11-11s11,4.9,11,11C149.9,175.6,145,180.5,139,180.5z M139,148.5c-11.6,0-21.1,9.4-21.1,21
		s9.4,21.1,21.1,21.1c11.6,0,21-9.4,21-21.1S150.6,148.5,139,148.5z M139,180.5c-6.1,0-11-4.9-11-11c0-6.1,4.9-11,11-11
		s11,4.9,11,11C149.9,175.6,145,180.5,139,180.5z"/>
	<path style="fill:#FFFFFF;" d="M464.7,283.6c-8.9,0.5-15.9,7.9-15.9,16.9c0,9.4,7.6,17,17,17c4.1,0,7.9-1.4,11-4.1l-12-12.7V283.6z
		"/>
	<polygon style="fill:#FFFFFF;" points="467.4,300.5 465.2,300.5 465.2,300.5 465.2,300.5 467.4,300.5 484.4,300.5 484.4,300.5 	"/>
</g>
<g>
	<g>
		<path style="fill:none;" d="M213,168.1c0.1,0.3,0.3,0.7,0.4,1l0,0L213,168.1z M65.4,171.1c1.2,3,2.5,5.8,4,8.6L65.4,171.1z
			 M64.5,169l0.6,1.5c0.1,0.2,0.1,0.4,0.2,0.6C65.1,170.4,64.8,169.7,64.5,169L64.5,169z M212.8,167.8l-3.4-7.6"/>
	</g>
</g>
<g id="XMLID_784_">
	<g id="XMLID_762_">
		<path style="fill:#FFFFFF;" d="M254.8,299.7l-3.5,0.3c-0.6-5.9-2-11.7-4.2-17.2l3.3-1.3c-1-2.7-2.3-5.2-3.6-7.7l-3.1,1.7
			c-1.8-3.2-3.8-6.2-6.1-9.1l2.8-2.2c-0.9-1.2-1.9-2.3-2.9-3.4l-14.4,14.4l-24.6,24.6l-9.8,9.8l-5-5l9.6-9.6l39.2-39.2
			c-1.9-1.7-3.9-3.3-6-4.7l-2,2.9c-10.8-7.6-23.5-11.6-36.8-11.6c-35.3,0-64,28.7-64,64c0,21.2,10.3,39.9,26.2,51.6l-2.4,2.6
			c1,0.7,1.9,1.4,2.9,2.1c1,0.7,2,1.3,3.1,1.9c1.3,0.8,2.7,1.5,4.1,2.2c1.1,0.6,2.2,1.1,3.4,1.6h0c1.2,0.5,2.3,1,3.5,1.4l2.6-2.8
			c6.5,2.2,13.4,3.4,20.6,3.4c9.4,0,18.3-2,26.4-5.7l2.5,2.8c1.1-0.5,2.2-1.1,3.3-1.7h0c1.1-0.6,2.1-1.2,3.1-1.8
			c1.3-0.8,2.6-1.6,3.8-2.5c1-0.7,1.9-1.4,2.8-2.1c0.9-0.7,1.8-1.5,2.7-2.3l-2.4-2.6c13.3-11.7,21.7-28.9,21.7-48h3.6
			C255.2,304.1,255,301.9,254.8,299.7z M187.6,297.3c-5,0-9.1,4.1-9.1,9.1c0,5,4.1,9.1,9.1,9.1s9.1-4.1,9.1-9.1h7.1
			c0,8.9-7.3,16.2-16.2,16.2c-8.9,0-16.2-7.3-16.2-16.2c0-8.9,7.3-16.2,16.2-16.2V297.3z M207.2,353.2h-3.8l1,1.1
			c-5.2,1.8-10.9,2.8-16.7,2.8c-3.6,0-7.1-0.4-10.5-1.1l-0.1-0.1l-8.9-2.7c-18.3-7.7-31.2-25.8-31.2-46.8c0-28,22.8-50.7,50.7-50.7
			c12.1,0,19.9,2.4,28,8.5l-2.1,2.8l-2.1,2.8c-6.8-5.1-13.3-7-23.8-7c-24.1,0-43.6,19.6-43.6,43.6c0,24.1,19.6,43.7,43.6,43.7
			c24.1,0,43.7-19.6,43.7-43.7c0-8.3-2.3-16.3-6.7-23.2l3-1.9l3-1.9c5.1,8.1,7.8,17.4,7.8,27C238.3,327.5,225.5,345.6,207.2,353.2z"
			/>
	</g>
	<g id="XMLID_760_">
		<path style="fill:#FFFFFF;" d="M211,287.4l-12.5,12.5l-9.8,9.8l-5-5l9.6-9.6l12.6-12.6c-5.1-3.9-11.4-6.2-18.3-6.2
			c-16.6,0-30.1,13.5-30.1,30.1c0,16.7,13.5,30.1,30.1,30.1c16.7,0,30.1-13.5,30.1-30.1C217.8,299.2,215.2,292.6,211,287.4z
			 M187.6,322.6c-8.9,0-16.2-7.3-16.2-16.2c0-8.9,7.3-16.2,16.2-16.2v7.1c-5,0-9.1,4.1-9.1,9.1c0,5,4.1,9.1,9.1,9.1s9.1-4.1,9.1-9.1
			h7.1C203.8,315.3,196.5,322.6,187.6,322.6z"/>
	</g>
</g>
</svg>
