<?xml version="1.0" encoding="utf-8"?>
<!-- Generator: Adobe Illustrator 22.0.1, SVG Export Plug-In . SVG Version: 6.00 Build 0)  -->
<!DOCTYPE svg PUBLIC "-//W3C//DTD SVG 1.1//EN" "http://www.w3.org/Graphics/SVG/1.1/DTD/svg11.dtd">
<svg version="1.1" id="Layer_1" xmlns="http://www.w3.org/2000/svg" xmlns:xlink="http://www.w3.org/1999/xlink" x="0px" y="0px"
	 viewBox="0 0 200 200" style="enable-background:new 0 0 200 200;" xml:space="preserve">
<g>
	<path style="fill:#80CFDB;" d="M198.8,93.4c-3.2-49.5-42.7-89-92.2-92.3V0.9H93.4v0.2C43.9,4.4,4.4,43.9,1.1,93.4H0.9v13.1h0.2
		c3.3,49.5,42.8,89,92.3,92.2v0.3h13.1v-0.3c49.5-3.2,89-42.7,92.2-92.2h0.3V93.4H198.8z M63,22.6C56.6,31,51.2,41.6,47.4,53.8H27.6
		C36.2,40.3,48.5,29.5,63,22.6L63,22.6z M20.7,67h23.2c-1.8,8.3-2.9,17.2-3.3,26.4H14.4C15.1,84.1,17.3,75.2,20.7,67L20.7,67z
		 M14.4,106.6h26.3c0.4,9.2,1.5,18.1,3.3,26.4H20.7C17.3,124.8,15.1,115.9,14.4,106.6L14.4,106.6z M27.6,146.2h19.7
		c3.9,12.1,9.2,22.8,15.6,31.2C48.5,170.5,36.2,159.7,27.6,146.2L27.6,146.2z M93.4,185c-13.6-3.6-25.3-18.2-32.4-38.7h32.4V185z
		 M93.4,133H57.3c-1.9-8.3-3-17.1-3.4-26.4h39.5V133z M93.4,93.4H53.9c0.4-9.4,1.6-18.2,3.4-26.4h36.1V93.4z M93.4,53.8H61.1
		C68.1,33.2,79.8,18.6,93.4,15V53.8z M172.4,53.8h-19.7c-3.9-12.1-9.2-22.8-15.6-31.2C151.5,29.5,163.8,40.3,172.4,53.8L172.4,53.8z
		 M106.6,15c13.6,3.6,25.3,18.2,32.4,38.7h-32.4V15z M106.6,67h36.1c1.9,8.3,3,17.1,3.4,26.4h-39.5V67z M106.6,106.6h39.5
		c-0.4,9.4-1.6,18.2-3.4,26.4h-36.1V106.6z M106.6,185v-38.7h32.4C131.9,166.8,120.2,181.4,106.6,185L106.6,185z M137,177.4
		c6.4-8.5,11.7-19.1,15.6-31.2h19.7C163.8,159.7,151.5,170.5,137,177.4L137,177.4z M179.3,133h-23.2c1.8-8.3,2.9-17.2,3.3-26.4h26.3
		C184.9,115.9,182.7,124.8,179.3,133L179.3,133z M159.3,93.4c-0.4-9.2-1.5-18.1-3.3-26.4h23.2c3.4,8.3,5.6,17.1,6.3,26.4H159.3z
		 M159.3,93.4"/>
</g>
</svg>
