<?xml version="1.0" encoding="utf-8"?>
<!-- Generator: Adobe Illustrator 22.0.1, SVG Export Plug-In . SVG Version: 6.00 Build 0)  -->
<!DOCTYPE svg PUBLIC "-//W3C//DTD SVG 1.1//EN" "http://www.w3.org/Graphics/SVG/1.1/DTD/svg11.dtd">
<svg version="1.1" id="Layer_1" xmlns="http://www.w3.org/2000/svg" xmlns:xlink="http://www.w3.org/1999/xlink" x="0px" y="0px"
	 viewBox="0 0 498.7 500" style="enable-background:new 0 0 498.7 500;" xml:space="preserve">
<g>
	
		<linearGradient id="SVGID_1_" gradientUnits="userSpaceOnUse" x1="0" y1="250" x2="498.502" y2="250" gradientTransform="matrix(1 0 0 -1 0 500)">
		<stop  offset="0" style="stop-color:#1B4A91"/>
		<stop  offset="0.186" style="stop-color:#326EA5"/>
		<stop  offset="0.4425" style="stop-color:#4E9ABE"/>
		<stop  offset="0.6729" style="stop-color:#62BACF"/>
		<stop  offset="0.8666" style="stop-color:#6FCDDA"/>
		<stop  offset="1" style="stop-color:#73D4DE"/>
	</linearGradient>
	<path style="fill:url(#SVGID_1_);" d="M459.1,116.3c0.4-0.5,0.8-1,1.2-1.6c-5.8-8.9-12-17.4-18.8-25.5
		c-7.1-8.4-14.8-16.4-22.9-23.8c-6.9-6.3-14.2-12.2-21.7-17.7C355.6,17.7,304.9,0,250,0C180.7,0,117.9,28.2,72.6,73.8
		c-0.1,0.1-0.2,0.2-0.3,0.3h209.4c6.9,0,12.6,5.7,12.6,12.6c0,3.5-1.4,6.6-3.7,8.9c-2.3,2.3-5.4,3.7-8.9,3.7h-43
		c-6.6,0-12,4.8-12,10.6s-5.4,10.6-12,10.6h-116c-6.9,0-12.6,5.7-12.6,12.6v1c0,6.9,5.7,12.6,12.6,12.6h26.5
		c6.9,0,12.6,5.7,12.6,12.6V176c0,6.9-5.7,12.6-12.6,12.6H7.6C2.6,208.3,0,228.8,0,250c0,138.1,111.9,250,250,250
		c24.8,0,48.8-3.6,71.4-10.3v-5.9c0-6.9,5.7-12.6,12.6-12.6h26.5c6.9,0,12.6-5.7,12.6-12.6v-1c0-6.9-5.7-12.6-12.6-12.6h-116
		c-6.6,0-12-4.8-12-10.6c0-5.8-5.4-10.6-12-10.6h-43c-3.5,0-6.6-1.4-8.9-3.7c-2.3-2.3-3.7-5.4-3.7-8.9c0-6.9,5.7-12.6,12.6-12.6
		h273.2c0.7-0.9,1.3-1.8,2-2.7c0.5-0.7,1-1.5,1.5-2.2c1.7-2.5,3.4-5,5-7.5c0.5-0.8,1.1-1.7,1.6-2.5c1.6-2.6,3.1-5.1,4.7-7.8
		c0.4-0.7,0.8-1.5,1.3-2.2c4-7.2,7.7-14.5,11-22.1c0.3-0.8,0.7-1.6,1-2.4c0.5-1.1,0.9-2.2,1.4-3.3c0.4-0.9,0.8-1.9,1.1-2.8
		c0.4-0.9,0.7-1.9,1.1-2.8c0.4-1,0.7-1.9,1.1-2.9c0.8-2.1,1.5-4.2,2.2-6.3c0.3-0.8,0.5-1.6,0.8-2.3c0.3-0.9,0.6-1.8,0.9-2.8
		s0.6-2.1,0.9-3.1s0.6-2,0.9-3s0.5-2,0.8-3c0.8-3.1,1.6-6.2,2.3-9.3c0.2-0.9,0.4-1.8,0.6-2.7c0.2-0.9,0.4-1.8,0.6-2.7
		c0.4-2,0.8-3.9,1.1-5.9c0.1-0.7,0.2-1.3,0.4-2c0.1-0.6,0.2-1.3,0.3-1.9c0.1-0.7,0.2-1.4,0.3-2.1c0.1-0.4,0.1-0.8,0.2-1.3
		c0.3-1.9,0.5-3.8,0.8-5.6c0.1-0.7,0.2-1.4,0.3-2.1c0.1-0.6,0.1-1.2,0.2-1.8c0.2-2.1,0.4-4.2,0.6-6.3c0.1-0.8,0.1-1.5,0.2-2.3
		c0-0.1,0-0.3,0-0.4c0.1-1,0.1-2,0.2-3c0.1-1.8,0.2-3.5,0.3-5.3c0-0.2,0-0.4,0-0.5c0-0.8,0.1-1.7,0.1-2.5c0-0.6,0-1.3,0-1.9
		c0-0.8,0-1.7,0-2.5v-0.1c0-1.1,0-2.1,0-3.2C498.7,201.6,484.1,155.2,459.1,116.3z"/>
</g>
<g>
	<path style="fill:#FFFFFF;" d="M351.2,250.4c-3.2-49.5-42.7-89-92.2-92.3v-0.2h-13.2v0.2c-49.5,3.3-89,42.8-92.3,92.3h-0.2v13.1
		h0.2c3.3,49.5,42.8,89,92.3,92.2v0.3h13.1v-0.3c49.5-3.2,89-42.7,92.2-92.2h0.3v-13.1H351.2z M215.4,179.6
		c-6.4,8.4-11.8,19-15.6,31.2H180C188.6,197.4,200.9,186.6,215.4,179.6L215.4,179.6z M173.1,224.1h23.2c-1.8,8.3-2.9,17.2-3.3,26.4
		h-26.2C167.5,241.1,169.7,232.3,173.1,224.1L173.1,224.1z M166.8,263.6h26.3c0.4,9.2,1.5,18.1,3.3,26.4h-23.3
		C169.7,281.9,167.5,273,166.8,263.6L166.8,263.6z M180,303.3h19.7c3.9,12.1,9.2,22.8,15.6,31.2C200.9,327.5,188.6,316.8,180,303.3
		L180,303.3z M245.8,342c-13.6-3.6-25.3-18.2-32.4-38.7h32.4V342z M245.8,290h-36.1c-1.9-8.3-3-17.1-3.4-26.4h39.5
		C245.8,263.6,245.8,290,245.8,290z M245.8,250.4h-39.5c0.4-9.4,1.6-18.2,3.4-26.4h36.1V250.4z M245.8,210.9h-32.3
		c7-20.6,18.7-35.2,32.3-38.8C245.8,172.1,245.8,210.9,245.8,210.9z M324.8,210.9h-19.7c-3.9-12.1-9.2-22.8-15.6-31.2
		C303.9,186.6,316.2,197.4,324.8,210.9L324.8,210.9z M259,172.1c13.6,3.6,25.3,18.2,32.4,38.7H259V172.1z M259,224.1h36.1
		c1.9,8.3,3,17.1,3.4,26.4H259C259,250.4,259,224.1,259,224.1z M259,263.6h39.5c-0.4,9.4-1.6,18.2-3.4,26.4H259L259,263.6L259,263.6
		z M259,342v-38.7h32.4C284.3,323.9,272.6,338.4,259,342L259,342z M289.4,334.4c6.4-8.5,11.7-19.1,15.6-31.2h19.7
		C316.2,316.8,303.9,327.5,289.4,334.4L289.4,334.4z M331.7,290h-23.2c1.8-8.3,2.9-17.2,3.3-26.4h26.3
		C337.3,273,335.1,281.9,331.7,290L331.7,290z M311.7,250.4c-0.4-9.2-1.5-18.1-3.3-26.4h23.2c3.4,8.3,5.6,17.1,6.3,26.4H311.7z"/>
</g>
</svg>
